<svg width="355" height="355" viewBox="0 0 355 355" fill="none" xmlns="http://www.w3.org/2000/svg">
<rect width="355" height="355" fill="white"/>
<circle cx="272" cy="115" r="6" fill="#48DBB4"/>
<circle cx="204" cy="284" r="8" fill="#91E9D2"/>
<path d="M200.5 258.027C237.084 248.137 264 214.712 264 175C264 127.504 225.496 89 178 89C130.504 89 92 127.504 92 175C92 185.929 94.0388 196.383 97.7567 206" stroke="#0A0806" stroke-width="7" stroke-linecap="round"/>
<path d="M110 188C118.545 182.161 124.577 175.756 127.92 171.475C128.961 170.142 131.316 170.366 132.078 171.876C134.775 177.216 140.634 186.184 149.575 186.184C162.167 186.184 170.877 176.619 174.712 171.363C175.687 170.027 177.972 170.125 178.83 171.538C181.865 176.534 188.42 185.055 197.822 185.055C207.768 185.055 216.651 175.521 220.501 170.71C221.452 169.521 223.432 169.622 224.273 170.891C227.498 175.756 235.012 185.055 245.331 185.055C259.104 185.055 264 170.85 264 170.85" stroke="#0A0806" stroke-width="7" stroke-linecap="round" stroke-linejoin="round"/>
<path d="M94 158C102.283 152.479 108.143 146.426 111.408 142.359C112.456 141.054 114.775 141.28 115.548 142.765C118.193 147.848 123.886 156.275 132.547 156.275C144.763 156.275 153.228 147.26 156.986 142.255C157.968 140.948 160.218 141.042 161.085 142.429C164.059 147.184 170.426 155.202 179.541 155.202C189.199 155.202 197.828 146.201 201.596 141.617C202.551 140.456 204.494 140.557 205.341 141.799C208.502 146.435 215.803 155.202 225.816 155.202C239.231 155.202 244 141.708 244 141.708" stroke="#0A0806" stroke-width="7" stroke-linecap="round" stroke-linejoin="round"/>
<path d="M142.5 203.363C119.036 203.363 100 222.399 100 245.863C100 269.328 119.036 288.363 142.5 288.363C165.964 288.363 185 269.328 185 245.863C184.964 222.399 165.929 203.363 142.5 203.363ZM160.286 236.363H157.643L149.536 245.828L157.643 255.292H160.321V262.899H143.107V255.363H145.786L140.464 249.149H138.286V255.363H141.321V262.899H124.643V255.292H128.25V245.863V236.363H124.643V228.756H128.75V231.578H130.964V228.756H135V231.578H137.214V228.756H141.286V236.256H138.25V242.47H140.429L145.75 236.256H143.071V228.756H160.286V236.363Z" fill="#0A0806"/>
<circle cx="82" cy="228" r="4" fill="#91E9D2"/>
<circle cx="64" cy="206" r="8" stroke="#48DBB4" stroke-width="5"/>
<circle cx="277" cy="78" r="4" fill="#91E9D2"/>
<line x1="219" y1="67" x2="245" y2="67" stroke="#48DBB4" stroke-width="10" stroke-linecap="round" stroke-linejoin="round"/>
<line x1="232" y1="55" x2="232" y2="81" stroke="#48DBB4" stroke-width="10" stroke-linecap="round" stroke-linejoin="round"/>
</svg>
