<svg width="188" height="160" viewBox="0 0 188 160" fill="none" xmlns="http://www.w3.org/2000/svg">
<path d="M98.9332 34.0108C98.2477 36.8228 93.6205 35.3086 92.1177 34.9301L93.3305 29.928C94.8333 30.3066 99.6451 31.0636 98.9332 34.0108ZM94.9915 23.1144L93.8842 27.6433C95.1365 27.9677 98.9859 29.2656 99.6055 26.6969C100.265 24.0202 96.2439 23.4253 94.9915 23.1144ZM114.66 34.6867C111.971 45.7724 101.016 52.5185 90.2193 49.7471C79.4094 46.9892 72.8312 35.7683 75.5337 24.6826C78.223 13.5969 89.1647 6.85086 99.9746 9.62228C110.771 12.3802 117.35 23.6011 114.66 34.6867ZM99.5528 21.5191L100.462 17.7878L98.2477 17.22L97.3644 20.8567C96.7844 20.708 96.1912 20.5728 95.5979 20.4241L96.4812 16.7739L94.2665 16.2061L93.3568 19.9374C92.8691 19.8292 92.4077 19.7075 91.9463 19.5994V19.5859L88.8879 18.8018L88.2946 21.2217C88.2946 21.2217 89.9425 21.6137 89.9029 21.6273C90.7994 21.8571 90.9576 22.4655 90.9312 22.9521L89.9029 27.1972C89.9689 27.2107 90.048 27.2377 90.1271 27.2783C90.048 27.2647 89.9689 27.2377 89.8898 27.2242L88.4397 33.1726C88.3342 33.4565 88.0574 33.8756 87.4246 33.7134C87.4509 33.7404 85.8163 33.3078 85.8163 33.3078L84.7221 35.9035L87.596 36.6335C88.1365 36.7687 88.6506 36.9174 89.1779 37.0526L88.2683 40.8244L90.483 41.3922L91.3926 37.661C91.999 37.8232 92.5791 37.9854 93.1591 38.1341L92.2495 41.8519L94.4642 42.4197L95.3738 38.6614C99.1441 39.3914 101.992 39.094 103.178 35.5925C104.14 32.7806 103.125 31.1447 101.148 30.0902C102.598 29.7523 103.679 28.7789 103.969 26.7645C104.391 23.9796 102.348 22.506 99.5528 21.5191Z" fill="#0A0806"/>
<path d="M58.4589 132.221C58.735 132.221 58.9589 131.997 58.9589 131.721C58.9589 131.445 58.735 131.221 58.4589 131.221L58.4589 132.221ZM58.8124 29.2419C59.0077 29.0466 59.0077 28.7301 58.8124 28.5348L55.6304 25.3528C55.4352 25.1576 55.1186 25.1576 54.9233 25.3528C54.7281 25.5481 54.7281 25.8647 54.9233 26.0599L57.7518 28.8884L54.9233 31.7168C54.7281 31.912 54.7281 32.2286 54.9233 32.4239C55.1186 32.6192 55.4352 32.6192 55.6304 32.4239L58.8124 29.2419ZM58.4589 131.221C39.4234 131.221 25.1915 124.836 15.7194 115.301C6.24243 105.76 1.5 93.0359 1.5 80.3045C1.5 67.5731 6.24243 54.8487 15.7194 45.3083C25.1915 35.7728 39.4234 29.3884 58.4589 29.3884L58.4589 28.3884C39.1884 28.3884 24.6908 34.8579 15.01 44.6035C5.33405 54.3442 0.499998 67.3278 0.499999 80.3045C0.499999 93.2812 5.33405 106.265 15.01 116.006C24.6908 125.751 39.1884 132.221 58.4589 132.221L58.4589 131.221Z" fill="#0A0806"/>
<path d="M129.541 28.3887C129.265 28.3887 129.041 28.6125 129.041 28.8887C129.041 29.1648 129.265 29.3887 129.541 29.3887L129.541 28.3887ZM129.188 131.367C128.992 131.563 128.992 131.879 129.188 132.075L132.37 135.257C132.565 135.452 132.881 135.452 133.077 135.257C133.272 135.061 133.272 134.745 133.077 134.549L130.248 131.721L133.077 128.893C133.272 128.697 133.272 128.381 133.077 128.185C132.881 127.99 132.565 127.99 132.37 128.185L129.188 131.367ZM129.541 29.3887C148.577 29.3887 162.808 35.7731 172.281 45.3086C181.758 54.849 186.5 67.5734 186.5 80.3048C186.5 93.0362 181.758 105.761 172.281 115.301C162.808 124.837 148.577 131.221 129.541 131.221L129.541 132.221C148.812 132.221 163.309 125.751 172.99 116.006C182.666 106.265 187.5 93.2815 187.5 80.3048C187.5 67.3282 182.666 54.3445 172.99 44.6039C163.309 34.8582 148.812 28.3887 129.541 28.3887L129.541 29.3887Z" fill="#0A0806"/>
<path d="M95 152.582C106.367 152.582 115.582 143.367 115.582 132C115.582 120.633 106.367 111.418 95 111.418C83.6329 111.418 74.418 120.633 74.418 132C74.418 143.367 83.6329 152.582 95 152.582Z" fill="#1D2229"/>
<path d="M91.5879 130.276H88.1415V133.722H91.5879V130.276Z" fill="white"/>
<path d="M88.1414 126.829H84.6949V130.276H88.1414V126.829Z" fill="white"/>
<path d="M84.6945 130.276H81.248V133.722H84.6945V130.276Z" fill="white"/>
<path d="M88.1414 133.722H84.6949V137.168H88.1414V133.722Z" fill="white"/>
<path d="M107.733 127.572C107.49 125.037 105.302 124.186 102.539 123.943V122.32H100.399V123.851C99.8372 123.851 99.2624 123.861 98.6907 123.872V122.318H96.5526V123.941C96.0894 123.95 93.2439 123.948 93.2439 123.948L93.2375 125.834L95.0229 125.844V138.207H93.2382L93.2223 140.066C93.7406 140.066 96.0476 140.076 96.5475 140.08V141.682H98.6857V140.118C99.2719 140.13 99.8404 140.135 100.395 140.135V141.683H102.535V140.087C106.133 139.882 108.652 138.977 108.965 135.599C109.219 132.878 107.94 131.665 105.898 131.172C107.139 130.537 107.915 129.426 107.734 127.571L107.733 127.572ZM104.735 135.175C104.735 137.832 100.185 137.528 98.7333 137.529V132.817C100.184 132.817 104.732 132.403 104.733 135.175H104.735ZM103.742 128.527C103.742 130.945 99.9451 130.661 98.7364 130.661V126.387C99.947 126.388 103.743 126.005 103.742 128.527Z" fill="white"/>
</svg>
