<svg width="186" height="160" viewBox="0 0 186 160" fill="none" xmlns="http://www.w3.org/2000/svg">
<path d="M23 64.582C34.3671 64.582 43.582 55.3671 43.582 44C43.582 32.6329 34.3671 23.418 23 23.418C11.6329 23.418 2.41797 32.6329 2.41797 44C2.41797 55.3671 11.6329 64.582 23 64.582Z" fill="#1D2229"/>
<path d="M19.5879 42.2759H16.1415V45.7223H19.5879V42.2759Z" fill="white"/>
<path d="M16.1414 38.8291H12.6949V42.2755H16.1414V38.8291Z" fill="white"/>
<path d="M12.6945 42.2759H9.24805V45.7223H12.6945V42.2759Z" fill="white"/>
<path d="M16.1414 45.7217H12.6949V49.1681H16.1414V45.7217Z" fill="white"/>
<path d="M35.7325 39.5717C35.4895 37.037 33.3019 36.1862 30.5388 35.9432V34.3196H28.3994V35.8506C27.8372 35.8506 27.2624 35.8614 26.6907 35.8722V34.3184H24.5526V35.9413C24.0894 35.9502 21.2439 35.9477 21.2439 35.9477L21.2375 37.8339L23.0229 37.8441V50.2066H21.2382L21.2223 52.0662C21.7406 52.0662 24.0476 52.0764 24.5475 52.0795V53.6822H26.6857V52.1176C27.2719 52.1303 27.8404 52.1354 28.3949 52.1347V53.6828H30.535V52.0872C34.133 51.8822 36.6525 50.9768 36.9653 47.599C37.2191 44.8784 35.94 43.6653 33.8976 43.1717C35.1387 42.5372 35.9146 41.4263 35.7338 39.5711L35.7325 39.5717ZM32.7347 47.1745C32.7347 49.8323 28.1849 49.5284 26.7333 49.529V44.8175C28.1843 44.8175 32.7321 44.4032 32.7328 47.1745H32.7347ZM31.7417 40.5266C31.7417 42.9445 27.9451 42.6609 26.7364 42.6609V38.3872C27.947 38.3878 31.743 38.0046 31.7417 40.5266Z" fill="white"/>
<path d="M23 136.582C34.3671 136.582 43.582 127.367 43.582 116C43.582 104.633 34.3671 95.418 23 95.418C11.6329 95.418 2.41797 104.633 2.41797 116C2.41797 127.367 11.6329 136.582 23 136.582Z" fill="#1D2229"/>
<path d="M19.5879 114.276H16.1415V117.722H19.5879V114.276Z" fill="white"/>
<path d="M16.1414 110.829H12.6949V114.276H16.1414V110.829Z" fill="white"/>
<path d="M12.6945 114.276H9.24805V117.722H12.6945V114.276Z" fill="white"/>
<path d="M16.1414 117.722H12.6949V121.168H16.1414V117.722Z" fill="white"/>
<path d="M35.7325 111.572C35.4895 109.037 33.3019 108.186 30.5388 107.943V106.32H28.3994V107.851C27.8372 107.851 27.2624 107.861 26.6907 107.872V106.318H24.5526V107.941C24.0894 107.95 21.2439 107.948 21.2439 107.948L21.2375 109.834L23.0229 109.844V122.207H21.2382L21.2223 124.066C21.7406 124.066 24.0476 124.076 24.5475 124.08V125.682H26.6857V124.118C27.2719 124.13 27.8404 124.135 28.3949 124.135V125.683H30.535V124.087C34.133 123.882 36.6525 122.977 36.9653 119.599C37.2191 116.878 35.94 115.665 33.8976 115.172C35.1387 114.537 35.9146 113.426 35.7338 111.571L35.7325 111.572ZM32.7347 119.175C32.7347 121.832 28.1849 121.528 26.7333 121.529V116.817C28.1843 116.817 32.7321 116.403 32.7328 119.175H32.7347ZM31.7417 112.527C31.7417 114.945 27.9451 114.661 26.7364 114.661V110.387C27.947 110.388 31.743 110.005 31.7417 112.527Z" fill="white"/>
<path d="M93 64.582C104.367 64.582 113.582 55.3671 113.582 44C113.582 32.6329 104.367 23.418 93 23.418C81.6329 23.418 72.418 32.6329 72.418 44C72.418 55.3671 81.6329 64.582 93 64.582Z" fill="#1D2229"/>
<path d="M89.5879 42.2759H86.1415V45.7223H89.5879V42.2759Z" fill="white"/>
<path d="M86.1414 38.8291H82.6949V42.2755H86.1414V38.8291Z" fill="white"/>
<path d="M82.6945 42.2759H79.248V45.7223H82.6945V42.2759Z" fill="white"/>
<path d="M86.1414 45.7217H82.6949V49.1681H86.1414V45.7217Z" fill="white"/>
<path d="M105.733 39.5717C105.49 37.037 103.302 36.1862 100.539 35.9432V34.3196H98.3994V35.8506C97.8372 35.8506 97.2624 35.8614 96.6907 35.8722V34.3184H94.5526V35.9413C94.0894 35.9502 91.2439 35.9477 91.2439 35.9477L91.2375 37.8339L93.0229 37.8441V50.2066H91.2382L91.2223 52.0662C91.7406 52.0662 94.0476 52.0764 94.5475 52.0795V53.6822H96.6857V52.1176C97.2719 52.1303 97.8404 52.1354 98.3949 52.1347V53.6828H100.535V52.0872C104.133 51.8822 106.652 50.9768 106.965 47.599C107.219 44.8784 105.94 43.6653 103.898 43.1717C105.139 42.5372 105.915 41.4263 105.734 39.5711L105.733 39.5717ZM102.735 47.1745C102.735 49.8323 98.1849 49.5284 96.7333 49.529V44.8175C98.1843 44.8175 102.732 44.4032 102.733 47.1745H102.735ZM101.742 40.5266C101.742 42.9445 97.9451 42.6609 96.7364 42.6609V38.3872C97.947 38.3878 101.743 38.0046 101.742 40.5266Z" fill="white"/>
<path d="M93 136.582C104.367 136.582 113.582 127.367 113.582 116C113.582 104.633 104.367 95.418 93 95.418C81.6329 95.418 72.418 104.633 72.418 116C72.418 127.367 81.6329 136.582 93 136.582Z" fill="#1D2229"/>
<path d="M89.5879 114.276H86.1415V117.722H89.5879V114.276Z" fill="white"/>
<path d="M86.1414 110.829H82.6949V114.276H86.1414V110.829Z" fill="white"/>
<path d="M82.6945 114.276H79.248V117.722H82.6945V114.276Z" fill="white"/>
<path d="M86.1414 117.722H82.6949V121.168H86.1414V117.722Z" fill="white"/>
<path d="M105.733 111.572C105.49 109.037 103.302 108.186 100.539 107.943V106.32H98.3994V107.851C97.8372 107.851 97.2624 107.861 96.6907 107.872V106.318H94.5526V107.941C94.0894 107.95 91.2439 107.948 91.2439 107.948L91.2375 109.834L93.0229 109.844V122.207H91.2382L91.2223 124.066C91.7406 124.066 94.0476 124.076 94.5475 124.08V125.682H96.6857V124.118C97.2719 124.13 97.8404 124.135 98.3949 124.135V125.683H100.535V124.087C104.133 123.882 106.652 122.977 106.965 119.599C107.219 116.878 105.94 115.665 103.898 115.172C105.139 114.537 105.915 113.426 105.734 111.571L105.733 111.572ZM102.735 119.175C102.735 121.832 98.1849 121.528 96.7333 121.529V116.817C98.1843 116.817 102.732 116.403 102.733 119.175H102.735ZM101.742 112.527C101.742 114.945 97.9451 114.661 96.7364 114.661V110.387C97.947 110.388 101.743 110.005 101.742 112.527Z" fill="white"/>
<path d="M163 64.582C174.367 64.582 183.582 55.3671 183.582 44C183.582 32.6329 174.367 23.418 163 23.418C151.633 23.418 142.418 32.6329 142.418 44C142.418 55.3671 151.633 64.582 163 64.582Z" fill="#1D2229"/>
<path d="M159.588 42.2759H156.141V45.7223H159.588V42.2759Z" fill="white"/>
<path d="M156.141 38.8291H152.695V42.2755H156.141V38.8291Z" fill="white"/>
<path d="M152.694 42.2759H149.248V45.7223H152.694V42.2759Z" fill="white"/>
<path d="M156.141 45.7217H152.695V49.1681H156.141V45.7217Z" fill="white"/>
<path d="M175.733 39.5717C175.49 37.037 173.302 36.1862 170.539 35.9432V34.3196H168.399V35.8506C167.837 35.8506 167.262 35.8614 166.691 35.8722V34.3184H164.553V35.9413C164.089 35.9502 161.244 35.9477 161.244 35.9477L161.238 37.8339L163.023 37.8441V50.2066H161.238L161.222 52.0662C161.741 52.0662 164.048 52.0764 164.548 52.0795V53.6822H166.686V52.1176C167.272 52.1303 167.84 52.1354 168.395 52.1347V53.6828H170.535V52.0872C174.133 51.8822 176.652 50.9768 176.965 47.599C177.219 44.8784 175.94 43.6653 173.898 43.1717C175.139 42.5372 175.915 41.4263 175.734 39.5711L175.733 39.5717ZM172.735 47.1745C172.735 49.8323 168.185 49.5284 166.733 49.529V44.8175C168.184 44.8175 172.732 44.4032 172.733 47.1745H172.735ZM171.742 40.5266C171.742 42.9445 167.945 42.6609 166.736 42.6609V38.3872C167.947 38.3878 171.743 38.0046 171.742 40.5266Z" fill="white"/>
<path d="M163 136.582C174.367 136.582 183.582 127.367 183.582 116C183.582 104.633 174.367 95.418 163 95.418C151.633 95.418 142.418 104.633 142.418 116C142.418 127.367 151.633 136.582 163 136.582Z" fill="#1D2229"/>
<path d="M159.588 114.276H156.141V117.722H159.588V114.276Z" fill="white"/>
<path d="M156.141 110.829H152.695V114.276H156.141V110.829Z" fill="white"/>
<path d="M152.694 114.276H149.248V117.722H152.694V114.276Z" fill="white"/>
<path d="M156.141 117.722H152.695V121.168H156.141V117.722Z" fill="white"/>
<path d="M175.733 111.572C175.49 109.037 173.302 108.186 170.539 107.943V106.32H168.399V107.851C167.837 107.851 167.262 107.861 166.691 107.872V106.318H164.553V107.941C164.089 107.95 161.244 107.948 161.244 107.948L161.238 109.834L163.023 109.844V122.207H161.238L161.222 124.066C161.741 124.066 164.048 124.076 164.548 124.08V125.682H166.686V124.118C167.272 124.13 167.84 124.135 168.395 124.135V125.683H170.535V124.087C174.133 123.882 176.652 122.977 176.965 119.599C177.219 116.878 175.94 115.665 173.898 115.172C175.139 114.537 175.915 113.426 175.734 111.571L175.733 111.572ZM172.735 119.175C172.735 121.832 168.185 121.528 166.733 121.529V116.817C168.184 116.817 172.732 116.403 172.733 119.175H172.735ZM171.742 112.527C171.742 114.945 167.945 114.661 166.736 114.661V110.387C167.947 110.388 171.743 110.005 171.742 112.527Z" fill="white"/>
</svg>
