<svg width="55" height="39" viewBox="0 0 55 39" fill="none" xmlns="http://www.w3.org/2000/svg">
<path d="M43.5792 4.72734C43.5792 7.33817 36.3803 9.45467 27.5 9.45467C18.6197 9.45467 11.4208 7.33817 11.4208 4.72734C11.4208 2.1165 18.6197 0 27.5 0C36.3803 0 43.5792 2.1165 43.5792 4.72734Z" fill="#7850CD"/>
<path d="M16.2296 23.5016C6.66175 24.77 0 27.6037 0 30.896C0 35.3717 12.3122 39 27.5 39C42.6878 39 55 35.3717 55 30.896C55 27.6231 48.4165 24.8035 38.9393 23.5242C35.6196 24.0893 31.7636 24.4128 27.6503 24.4128C23.4824 24.4128 19.5788 24.0807 16.2296 23.5016Z" fill="#7850CD"/>
<path d="M18.5815 10.0182C10.6484 11.043 5.10929 13.3711 5.10929 16.0791C5.10929 19.7343 15.2012 22.6973 27.6503 22.6973C40.0993 22.6973 50.1913 19.7343 50.1913 16.0791C50.1913 13.3504 44.5669 11.0073 36.5362 9.99494C33.9609 10.5103 30.8501 10.8115 27.5 10.8115C24.2008 10.8115 21.1336 10.5193 18.5815 10.0182Z" fill="#7850CD"/>
</svg>
