<svg width="80" height="80" viewBox="0 0 80 80" fill="none" xmlns="http://www.w3.org/2000/svg">
<path fill-rule="evenodd" clip-rule="evenodd" d="M3.82617 59.1306C3.82617 53.2395 8.60179 48.4639 14.4928 48.4639C20.3839 48.4639 25.1595 53.2395 25.1595 59.1306C25.1595 65.0216 20.3839 69.7973 14.4928 69.7973C8.60179 69.7973 3.82617 65.0216 3.82617 59.1306ZM14.4928 51.9421C10.5228 51.9421 7.30443 55.1605 7.30443 59.1306C7.30443 63.1006 10.5228 66.319 14.4928 66.319C18.4629 66.319 21.6812 63.1006 21.6812 59.1306C21.6812 55.1605 18.4629 51.9421 14.4928 51.9421Z" fill="#0A0806"/>
<path fill-rule="evenodd" clip-rule="evenodd" d="M0.204946 77.4421C3.01923 72.1653 8.51274 68.8691 14.4931 68.8691C20.4735 68.8691 25.967 72.1653 28.7812 77.4421C29.2332 78.2896 28.9126 79.343 28.0651 79.795C27.2176 80.247 26.1642 79.9264 25.7122 79.0789C23.5024 74.9355 19.1889 72.3474 14.4931 72.3474C9.79731 72.3474 5.48379 74.9355 3.274 79.0789C2.82201 79.9264 1.76856 80.247 0.921062 79.795C0.0735652 79.343 -0.247051 78.2896 0.204946 77.4421Z" fill="#0A0806"/>
<path fill-rule="evenodd" clip-rule="evenodd" d="M54.8408 59.1306C54.8408 53.2395 59.6164 48.4639 65.5075 48.4639C71.3985 48.4639 76.1742 53.2395 76.1742 59.1306C76.1742 65.0216 71.3985 69.7973 65.5075 69.7973C59.6164 69.7973 54.8408 65.0216 54.8408 59.1306ZM65.5075 51.9421C61.5374 51.9421 58.3191 55.1605 58.3191 59.1306C58.3191 63.1006 61.5374 66.319 65.5075 66.319C69.4775 66.319 72.6959 63.1006 72.6959 59.1306C72.6959 55.1605 69.4775 51.9421 65.5075 51.9421Z" fill="#0A0806"/>
<path fill-rule="evenodd" clip-rule="evenodd" d="M51.2196 77.4416C54.0339 72.1648 59.5274 68.8687 65.5077 68.8687C71.4881 68.8687 76.9816 72.1648 79.7959 77.4416C80.2479 78.2891 79.9273 79.3425 79.0798 79.7945C78.2323 80.2465 77.1788 79.9259 76.7268 79.0784C74.5171 74.935 70.2035 72.3469 65.5077 72.3469C60.812 72.3469 56.4984 74.935 54.2887 79.0784C53.8367 79.9259 52.7832 80.2465 51.9357 79.7945C51.0882 79.3425 50.7676 78.2891 51.2196 77.4416Z" fill="#0A0806"/>
<path fill-rule="evenodd" clip-rule="evenodd" d="M29.334 10.6667C29.334 4.77565 34.1096 0 40.0006 0C45.8917 0 50.6673 4.77565 50.6673 10.6667C50.6673 16.5577 45.8917 21.3334 40.0006 21.3334C34.1096 21.3334 29.334 16.5577 29.334 10.6667ZM40.0006 3.47826C36.0306 3.47826 32.8122 6.69663 32.8122 10.6667C32.8122 14.6368 36.0306 17.8551 40.0006 17.8551C43.9707 17.8551 47.1891 14.6368 47.1891 10.6667C47.1891 6.69663 43.9707 3.47826 40.0006 3.47826Z" fill="#0A0806"/>
<path fill-rule="evenodd" clip-rule="evenodd" d="M27.6193 26.1187C30.7082 22.4918 35.2324 20.4023 39.9964 20.4023C44.7604 20.4023 49.2846 22.4918 52.3736 26.1187C52.9963 26.8499 52.9084 27.9475 52.1772 28.5703C51.446 29.1931 50.3483 29.1052 49.7255 28.374C47.2975 25.5231 43.7411 23.8806 39.9964 23.8806C36.2517 23.8806 32.6954 25.5231 30.2673 28.374C29.6445 29.1052 28.5468 29.1931 27.8156 28.5703C27.0844 27.9475 26.9965 26.8499 27.6193 26.1187Z" fill="#0A0806"/>
<path fill-rule="evenodd" clip-rule="evenodd" d="M51.8111 65.5215C52.1586 66.4169 51.7145 67.4245 50.819 67.772C43.918 70.4505 36.2687 70.4736 29.3516 67.837C28.4541 67.4949 28.0039 66.49 28.346 65.5925C28.6881 64.695 29.693 64.2448 30.5905 64.5869C36.7029 66.9167 43.4623 66.8963 49.5605 64.5294C50.4559 64.1819 51.4636 64.6261 51.8111 65.5215Z" fill="#0A0806"/>
<path fill-rule="evenodd" clip-rule="evenodd" d="M57.7557 21.0988C58.4341 20.4189 59.5353 20.4178 60.2152 21.0963C65.455 26.3252 68.5688 33.3121 68.954 40.7046C69.0039 41.6638 68.2669 42.4819 67.3077 42.5319C66.3485 42.5818 65.5304 41.8448 65.4804 40.8856C65.1401 34.353 62.3885 28.179 57.7582 23.5583C57.0783 22.8798 57.0772 21.7787 57.7557 21.0988Z" fill="#0A0806"/>
<path fill-rule="evenodd" clip-rule="evenodd" d="M22.2204 21.0825C21.5404 20.4042 20.4392 20.4056 19.7609 21.0856C14.5333 26.3268 11.4357 33.3209 11.0678 40.7143C11.02 41.6736 11.759 42.49 12.7183 42.5377C13.6776 42.5854 14.494 41.8465 14.5417 40.8872C14.8669 34.3538 17.6041 28.1734 22.2236 23.542C22.9019 22.8619 22.9005 21.7608 22.2204 21.0825Z" fill="#0A0806"/>
<path d="M49.5098 38.8069V34.9658H40.839V38.7568H42.1917L39.514 41.8864H38.4052V38.7568H39.9298V34.9658H37.8729V36.3888H36.7586V34.9658H34.7239V36.3888H33.6096V34.9658H31.5527V38.8069H33.3712V43.5873V48.3678H31.5527V52.2089H39.9298V48.4178H38.4052V45.2883H39.514L42.1917 48.4178H40.839V52.2089H49.5098V48.3678H48.1626L44.0767 43.5873L48.1626 38.8069H49.5098Z" fill="#48DBB4"/>
</svg>
