<svg width="80" height="80" viewBox="0 0 80 80" fill="none" xmlns="http://www.w3.org/2000/svg">
<path fill-rule="evenodd" clip-rule="evenodd" d="M57.5702 22.1232C58.314 22.8671 58.3139 24.0731 57.5699 24.8169L37.7431 44.6382C36.9991 45.382 35.7929 45.3819 35.049 44.638C34.3052 43.8941 34.3053 42.6881 35.0493 41.9443L54.8761 22.123C55.6201 21.3792 56.8263 21.3793 57.5702 22.1232Z" fill="#48DBB4"/>
<path fill-rule="evenodd" clip-rule="evenodd" d="M45.8518 13.8443C52.1136 5.49385 63.1424 -1.43932 78.0663 0.257546C78.9481 0.357797 79.6437 1.0535 79.7439 1.93513C81.4453 16.9128 74.425 27.8693 65.9872 34.0409C61.7859 37.1137 57.1818 39.0423 53.0459 39.6869C48.9979 40.3178 44.9637 39.7663 42.4443 37.2472C39.9185 34.7216 39.398 30.6989 40.0683 26.676C40.7528 22.5668 42.7333 18.003 45.8518 13.8443ZM43.8264 27.3019C43.2406 30.8179 43.8885 33.3038 45.1383 34.5535C46.3947 35.8097 48.909 36.4761 52.4591 35.9229C55.9212 35.3833 59.9648 33.7258 63.7378 30.9662C70.9587 25.6847 76.9994 16.5203 76.1004 3.90032C63.5074 3.00019 54.2645 8.97582 48.9 16.1296C46.0975 19.867 44.3978 23.8722 43.8264 27.3019Z" fill="#48DBB4"/>
<path fill-rule="evenodd" clip-rule="evenodd" d="M11.2651 25.2217C9.81851 25.2217 8.6458 26.3943 8.6458 27.8407V36.6066C8.6458 38.053 9.8185 39.2256 11.2651 39.2256H13.7435V47.0062C6.95399 49.4935 1.99004 55.2851 0.479571 62.2201C0.438152 62.3481 0.409921 62.4821 0.396481 62.6203C0.139695 63.9213 0.00402099 65.2605 8.06163e-06 66.624L0 66.6306C0.00173768 69.9903 0.82553 73.2987 2.39952 76.267C3.61269 78.5644 5.99832 80.0013 8.5966 79.9996V78.0951L8.59832 79.9996H33.4447L33.4464 78.0969V79.9996C36.0452 80.0013 38.4313 78.5639 39.6442 76.2657C41.2178 73.2977 42.0413 69.9898 42.0431 66.6306L42.043 66.6261C42.0405 65.2434 41.9028 63.8863 41.6409 62.569C41.6284 62.4679 41.6079 62.3693 41.5801 62.2738C40.0473 55.1046 34.8302 49.1594 27.749 46.7843V39.2256H30.2274C31.674 39.2256 32.8467 38.053 32.8467 36.6066V27.8407C32.8467 26.3943 31.674 25.2217 30.2274 25.2217H11.2651ZM39.6442 76.2657L39.6426 76.2688L37.9597 75.3764L39.6442 76.2657ZM2.39952 76.267L2.40045 76.2688L4.08339 75.3764L2.39859 76.2653L2.39952 76.267ZM12.4557 35.4161V29.0312H29.0368V35.4161H12.4557ZM25.367 50.0489C30.9971 51.505 35.3665 55.6541 37.2384 60.9021H4.81308C6.63109 55.8297 10.7867 51.7801 16.1798 50.2142C16.9936 49.9778 17.5534 49.2324 17.5534 48.385V39.2356H23.939V48.2049C23.939 49.0732 24.5263 49.8315 25.367 50.0489ZM3.80991 66.6319C3.81194 65.9843 3.85026 65.3435 3.92318 64.7116H38.1224C38.1944 65.3429 38.2319 65.9833 38.2331 66.6305C38.2314 69.3687 37.5597 72.0649 36.2767 74.484L36.2749 74.4875C35.7217 75.5357 34.6334 76.1912 33.4482 76.1901L8.5966 76.1901L8.59489 76.1901C7.40963 76.1912 6.32132 75.5357 5.7682 74.4875L5.76633 74.484C4.48351 72.0653 3.81186 69.3696 3.80991 66.6319Z" fill="#0A0806"/>
</svg>
