<svg width="74" height="74" viewBox="0 0 74 74" fill="none" xmlns="http://www.w3.org/2000/svg">
<path fill-rule="evenodd" clip-rule="evenodd" d="M37 3.76923C18.6472 3.76923 3.76923 18.6472 3.76923 37C3.76923 55.3528 18.6472 70.2308 37 70.2308C55.3528 70.2308 70.2308 55.3528 70.2308 37C70.2308 18.6472 55.3528 3.76923 37 3.76923ZM1 37C1 17.1178 17.1178 1 37 1C56.8823 1 73 17.1178 73 37C73 56.8823 56.8823 73 37 73C17.1178 73 1 56.8823 1 37Z" fill="#0A0806" stroke="#0A0806"/>
<path d="M50.9771 17.5498H53.404V60.9248L50.9771 62.2731V17.5498Z" fill="#0A0806" stroke="#0A0806"/>
<mask id="path-3-inside-1" fill="white">
<path d="M53.4631 19.6636V44.5065H27.0699C26.8712 45.5958 26.3948 47.0042 23.0212 47.0042H13.5425L17.6489 34.8773L13.5425 22.7504L26.8494 22.6769C26.8494 21.0127 28.6286 19.6636 30.8235 19.6636H53.4631Z"/>
</mask>
<path d="M53.4631 19.6636V44.5065H27.0699C26.8712 45.5958 26.3948 47.0042 23.0212 47.0042H13.5425L17.6489 34.8773L13.5425 22.7504L26.8494 22.6769C26.8494 21.0127 28.6286 19.6636 30.8235 19.6636H53.4631Z" fill="#0A0806"/>
<path d="M53.4631 44.5065V54.5065C58.9859 54.5065 63.4631 50.0293 63.4631 44.5065H53.4631ZM53.4631 19.6636H63.4631C63.4631 14.1407 58.9859 9.66357 53.4631 9.66357V19.6636ZM27.0699 44.5065V34.5065C22.2392 34.5065 18.0991 37.9597 17.2322 42.7119L27.0699 44.5065ZM13.5425 47.0042L4.07078 43.7969C3.03712 46.8494 3.538 50.213 5.41619 52.832C7.29439 55.4509 10.3197 57.0042 13.5425 57.0042L13.5425 47.0042ZM17.6489 34.8773L27.1206 38.0846C27.825 36.0044 27.825 33.7502 27.1206 31.67L17.6489 34.8773ZM13.5425 22.7504L13.4872 12.7506C10.2742 12.7683 7.26543 14.3289 5.40013 16.9451C3.53483 19.5613 3.04025 22.9144 4.07078 25.9577L13.5425 22.7504ZM26.8494 22.6769L26.9046 32.6768C32.4058 32.6464 36.8494 28.1782 36.8494 22.6769H26.8494ZM63.4631 44.5065V19.6636H43.4631V44.5065H63.4631ZM23.0212 57.0042C25.8824 57.0042 29.6376 56.4379 32.7703 53.7337C36.0229 50.9262 36.7059 47.4063 36.9076 46.3011L17.2322 42.7119C17.2352 42.696 17.5806 40.4249 19.7019 38.5939C21.7033 36.8663 23.5336 37.0042 23.0212 37.0042V57.0042ZM13.5425 57.0042H23.0212V37.0042H13.5425V57.0042ZM8.17718 31.67L4.07078 43.7969L23.0142 50.2115L27.1206 38.0846L8.17718 31.67ZM4.07078 25.9577L8.17718 38.0846L27.1206 31.67L23.0142 19.5431L4.07078 25.9577ZM30.8235 9.66357C27.7459 9.66357 24.583 10.5976 21.9714 12.5778C19.3531 14.5631 16.8494 18.0385 16.8494 22.6769H36.8494C36.8494 25.6512 35.2352 27.6199 34.0553 28.5145C32.882 29.4042 31.7062 29.6636 30.8235 29.6636V9.66357ZM53.4631 9.66357H30.8235V29.6636H53.4631V9.66357ZM27.0699 54.5065H53.4631V34.5065H27.0699V54.5065ZM13.5977 32.7503L26.9046 32.6768L26.7941 12.6771L13.4872 12.7506L13.5977 32.7503Z" fill="#0A0806" mask="url(#path-3-inside-1)"/>
</svg>
