<svg width="94" height="94" viewBox="0 0 94 94" fill="none" xmlns="http://www.w3.org/2000/svg">
<path fill-rule="evenodd" clip-rule="evenodd" d="M11.9041 39.6181C12.4222 38.5232 13.728 38.0531 14.8251 38.5665L56.763 58.1905C57.8635 58.7054 58.3382 60.015 57.8232 61.1155C57.3083 62.216 55.9987 62.6907 54.8982 62.1758L14.9444 43.4801L11.8339 50.0535L56.7474 71.0697C57.8479 71.5847 58.3225 72.8943 57.8076 73.9948C57.2926 75.0953 55.983 75.57 54.8825 75.055L7.96779 53.1024C7.43782 52.8544 7.02847 52.4055 6.83026 51.855C6.63206 51.3044 6.66133 50.6976 6.9116 50.1687L11.9041 39.6181Z" fill="#48DBB4"/>
<path fill-rule="evenodd" clip-rule="evenodd" d="M57.6744 23.6915C58.3241 24.7183 58.0184 26.0773 56.9917 26.727L24.9177 47.0236C23.891 47.6733 22.532 47.3677 21.8823 46.341C21.2325 45.3143 21.5382 43.9552 22.5649 43.3055L54.6389 23.0089C55.6656 22.3592 57.0246 22.6648 57.6744 23.6915Z" fill="#48DBB4"/>
<path fill-rule="evenodd" clip-rule="evenodd" d="M41.8857 83.1802C41.8857 78.733 45.5081 75.149 49.9501 75.149H91.0004C92.2154 75.149 93.2004 76.134 93.2004 77.349C93.2004 78.5641 92.2154 79.549 91.0004 79.549H49.9501C47.9145 79.549 46.2857 81.1865 46.2857 83.1802V91C46.2857 92.215 45.3008 93.2 44.0857 93.2C42.8707 93.2 41.8857 92.215 41.8857 91V83.1802Z" fill="#0A0806"/>
<path fill-rule="evenodd" clip-rule="evenodd" d="M53.7998 22.886C53.7998 21.6709 54.7848 20.686 55.9998 20.686H84.9998C86.2148 20.686 87.1998 21.6709 87.1998 22.886V77.5752C87.1998 78.7902 86.2148 79.7752 84.9998 79.7752H55.9998C54.7848 79.7752 53.7998 78.7902 53.7998 77.5752V22.886ZM58.1998 25.086V75.3752H82.7998V25.086H58.1998Z" fill="#0A0806"/>
<path fill-rule="evenodd" clip-rule="evenodd" d="M47.9814 2.99999C47.9814 1.78496 48.9664 0.799988 50.1814 0.799988H90.6987C91.9138 0.799988 92.8987 1.78496 92.8987 2.99999V18.9034C92.8987 22.2537 89.7692 24.2841 86.8399 24.2841H54.0402C51.1109 24.2841 47.9814 22.2537 47.9814 18.9034V2.99999ZM52.3814 5.19999V18.9034C52.3814 19.0202 52.4332 19.2259 52.711 19.4548C52.9934 19.6876 53.4561 19.8841 54.0402 19.8841H86.8399C87.424 19.8841 87.8868 19.6876 88.1692 19.4548C88.447 19.2259 88.4987 19.0202 88.4987 18.9034V5.19999H52.3814Z" fill="#0A0806"/>
<path fill-rule="evenodd" clip-rule="evenodd" d="M61.9998 2.78729C63.2148 2.78729 64.1998 3.77227 64.1998 4.98729V11.9477C64.1998 13.1627 63.2148 14.1477 61.9998 14.1477C60.7848 14.1477 59.7998 13.1627 59.7998 11.9477V4.98729C59.7998 3.77227 60.7848 2.78729 61.9998 2.78729Z" fill="#0A0806"/>
<path fill-rule="evenodd" clip-rule="evenodd" d="M79.0008 2.78729C80.2158 2.78729 81.2008 3.77227 81.2008 4.98729V11.9477C81.2008 13.1627 80.2158 14.1477 79.0008 14.1477C77.7858 14.1477 76.8008 13.1627 76.8008 11.9477V4.98729C76.8008 3.77227 77.7858 2.78729 79.0008 2.78729Z" fill="#0A0806"/>
<path fill-rule="evenodd" clip-rule="evenodd" d="M33.7934 77.5022C34.7138 78.2954 34.817 79.6845 34.0238 80.6049C31.4036 83.6456 27.5809 85.3925 23.5607 85.3925C20.3247 85.3925 17.2167 84.2606 14.7607 82.2332C12.3049 84.2528 9.20384 85.3834 5.97372 85.3922L5.9598 85.3923V85.3922C4.77208 85.388 3.58968 85.2331 2.44118 84.9312C1.26606 84.6224 0.563773 83.4195 0.87259 82.2443C1.18141 81.0692 2.38438 80.3669 3.5595 80.6757C4.3457 80.8824 5.15525 80.9887 5.96863 80.9922C8.71275 80.9827 11.3146 79.79 13.1017 77.7279C13.5203 77.245 14.1282 76.9679 14.7673 76.9688C15.4064 76.9697 16.0136 77.2485 16.4308 77.7326C18.2121 79.7997 20.8162 80.9926 23.5607 80.9926C26.3053 80.9926 28.9094 79.7997 30.6907 77.7326C31.4838 76.8122 32.873 76.709 33.7934 77.5022Z" fill="#0A0806"/>
</svg>
