<svg width="88" height="88" viewBox="0 0 88 88" fill="none" xmlns="http://www.w3.org/2000/svg">
<path d="M36.3004 32.8854V29.7H28.8643V32.8439H30.0244L27.7279 35.4393H26.777V32.8439H28.0845V29.7H26.3206V30.8801H25.3649V29.7H23.62V30.8801H22.6643V29.7H20.9004V32.8854H22.4599V36.85V40.8145H20.9004V44H28.0845V40.856H26.777V38.2606H27.7279L30.0244 40.856H28.8643V44H36.3004V40.8145H35.145L31.6409 36.85L35.145 32.8854H36.3004Z" fill="#48DBB4"/>
<path fill-rule="evenodd" clip-rule="evenodd" d="M83.6 19.5462H4.4V65.1539H83.6V19.5462ZM4.4 15.4C1.96995 15.4 0 17.2563 0 19.5462V65.1539C0 67.4437 1.96995 69.3 4.4 69.3H83.6C86.0301 69.3 88 67.4437 88 65.1539V19.5462C88 17.2563 86.0301 15.4 83.6 15.4H4.4Z" fill="#0A0806"/>
<path fill-rule="evenodd" clip-rule="evenodd" d="M2.2002 58.3C2.2002 57.0849 3.19813 56.1 4.42914 56.1H84.6712C85.9023 56.1 86.9002 57.0849 86.9002 58.3C86.9002 59.515 85.9023 60.5 84.6712 60.5H4.42914C3.19813 60.5 2.2002 59.515 2.2002 58.3Z" fill="#0A0806"/>
<path fill-rule="evenodd" clip-rule="evenodd" d="M30.7998 83.8C30.7998 82.4745 31.8743 81.4 33.1998 81.4L54.7998 81.4C56.1253 81.4 57.1998 82.4745 57.1998 83.8C57.1998 85.1255 56.1253 86.2 54.7998 86.2L33.1998 86.2C31.8743 86.2 30.7998 85.1255 30.7998 83.8Z" fill="#0A0806"/>
<path fill-rule="evenodd" clip-rule="evenodd" d="M38.4998 83.6C37.2848 83.6 36.2998 82.4743 36.2998 81.0857L36.2998 68.5143C36.2998 67.1257 37.2848 66 38.4998 66C39.7148 66 40.6998 67.1257 40.6998 68.5143L40.6998 81.0857C40.6998 82.4743 39.7148 83.6 38.4998 83.6Z" fill="#0A0806"/>
<path fill-rule="evenodd" clip-rule="evenodd" d="M49.4998 83.6C48.2848 83.6 47.2998 82.4635 47.2998 81.0615L47.2998 69.6384C47.2998 68.2365 48.2848 67.1 49.4998 67.1C50.7148 67.1 51.6998 68.2365 51.6998 69.6384L51.6998 81.0615C51.6998 82.4635 50.7148 83.6 49.4998 83.6Z" fill="#0A0806"/>
<path fill-rule="evenodd" clip-rule="evenodd" d="M46.2002 33C46.2002 31.785 47.1852 30.8 48.4002 30.8H66.0002C67.2152 30.8 68.2002 31.785 68.2002 33C68.2002 34.2151 67.2152 35.2001 66.0002 35.2001H48.4002C47.1852 35.2001 46.2002 34.2151 46.2002 33Z" fill="#0A0806"/>
<path fill-rule="evenodd" clip-rule="evenodd" d="M46.2002 40.7C46.2002 39.485 47.1852 38.5 48.4002 38.5H53.9002C55.1152 38.5 56.1002 39.485 56.1002 40.7C56.1002 41.915 55.1152 42.9 53.9002 42.9H48.4002C47.1852 42.9 46.2002 41.915 46.2002 40.7Z" fill="#0A0806"/>
<path fill-rule="evenodd" clip-rule="evenodd" d="M16.5 6.05002C16.5 5.13875 17.2387 4.40002 18.15 4.40002H26.95C27.8613 4.40002 28.6 5.13875 28.6 6.05002C28.6 6.96129 27.8613 7.70002 26.95 7.70002H18.15C17.2387 7.70002 16.5 6.96129 16.5 6.05002Z" fill="#48DBB4"/>
<path fill-rule="evenodd" clip-rule="evenodd" d="M71.5 81.95C71.5 81.0388 72.2387 80.3 73.15 80.3H81.95C82.8613 80.3 83.6 81.0388 83.6 81.95C83.6 82.8613 82.8613 83.6 81.95 83.6H73.15C72.2387 83.6 71.5 82.8613 71.5 81.95Z" fill="#48DBB4"/>
<path fill-rule="evenodd" clip-rule="evenodd" d="M22.5502 -7.86805e-08C23.4615 -3.52265e-08 24.2002 0.73873 24.2002 1.65L24.2002 10.45C24.2002 11.3613 23.4615 12.1 22.5502 12.1C21.6389 12.1 20.9002 11.3613 20.9002 10.45L20.9002 1.65C20.9002 0.73873 21.6389 -1.22135e-07 22.5502 -7.86805e-08Z" fill="#48DBB4"/>
<path fill-rule="evenodd" clip-rule="evenodd" d="M77.5502 75.9C78.4615 75.9 79.2002 76.6388 79.2002 77.55L79.2002 86.35C79.2002 87.2613 78.4615 88 77.5502 88C76.6389 88 75.9002 87.2613 75.9002 86.35L75.9002 77.55C75.9002 76.6388 76.6389 75.9 77.5502 75.9Z" fill="#48DBB4"/>
<path fill-rule="evenodd" clip-rule="evenodd" d="M58.2998 40.7C58.2998 39.485 59.2848 38.5 60.4998 38.5H61.5998C62.8148 38.5 63.7998 39.485 63.7998 40.7C63.7998 41.915 62.8148 42.9 61.5998 42.9H60.4998C59.2848 42.9 58.2998 41.915 58.2998 40.7Z" fill="#0A0806"/>
</svg>
