<svg width="90" height="90" viewBox="0 0 90 90" fill="none" xmlns="http://www.w3.org/2000/svg">
<path d="M18.6228 63.1689C20.8852 62.3121 22.7397 61.5338 24.6445 60.9062C27.7542 59.8831 30.8419 58.6561 34.0395 58.0975C36.2706 57.7083 38.7276 58.0253 40.9869 58.4929C47.1154 59.7639 53.2124 61.2169 59.2781 62.7609C60.6148 63.0998 61.9296 63.9503 62.9714 64.8823C63.7465 65.5759 64.1576 65.5445 64.9421 65.0863C69.853 62.2117 74.7921 59.381 79.725 56.5378C82.6276 54.862 85.4643 55.2197 87.5165 57.5138C89.6472 59.8988 89.5122 63.6835 86.9203 65.5759C83.8922 67.7883 80.6569 69.7246 77.4719 71.7174C69.7243 76.5597 61.9391 81.3486 54.1914 86.1972C50.9248 88.2402 47.5013 89.031 43.6071 88.5571C35.7309 87.6 27.8201 86.941 19.925 86.1219C18.9868 86.0246 18.5694 86.2066 18.5945 87.2359C18.6228 88.532 17.9042 89.0153 16.5988 88.9996C12.0487 88.9463 7.49871 88.9526 2.95182 88.9965C1.53033 89.009 0.996876 88.4128 1.00001 87.0257C1.02512 78.1884 1.02512 69.348 1.00315 60.5108C1.00001 59.0327 1.71547 58.405 3.10244 58.4019C7.54578 58.3925 11.9923 58.405 16.4356 58.3925C17.9418 58.3893 18.6322 59.1488 18.6228 60.6175C18.6196 61.2859 18.6228 61.9544 18.6228 63.1689ZM18.6259 74.319C18.6259 76.7229 18.7012 79.1299 18.5945 81.5306C18.538 82.8299 18.9742 83.1876 20.2388 83.3006C27.1015 83.922 33.9611 84.5904 40.8081 85.3561C45.2295 85.8488 49.4469 86.034 53.4226 83.2786C57.9225 80.1624 62.6984 77.4447 67.3552 74.5544C72.8968 71.1117 78.4478 67.6785 83.9737 64.2139C85.982 62.9555 86.5845 61.2922 85.6871 59.7827C84.7363 58.1853 83.205 57.9311 81.0523 59.1551C75.8841 62.0956 70.7285 65.0581 65.6105 68.0865C64.9766 68.4599 64.44 69.2162 64.1544 69.9192C62.9526 72.8566 60.345 74.7583 57.8189 74.2876C53.0492 73.3963 48.289 72.4612 43.5318 71.5071C42.6657 71.3345 41.6773 71.0678 41.9409 69.825C42.2013 68.6011 42.9858 68.372 44.1908 68.6231C48.5839 69.5332 52.9927 70.3742 57.411 71.1619C58.1861 71.3 59.2781 71.3439 59.7864 70.914C60.5395 70.2769 61.2926 69.1943 61.3334 68.2685C61.393 66.8908 60.3952 65.9274 58.9266 65.5916C53.1779 64.2767 47.4103 63.0433 41.7024 61.5715C36.8919 60.3319 32.3576 60.7336 27.8201 62.7201C25.1152 63.9032 22.2251 64.6627 19.4606 65.7202C19.0621 65.874 18.673 66.624 18.6573 67.1105C18.5788 69.5081 18.6259 71.9151 18.6259 74.319ZM15.4942 86.0026C15.5695 85.67 15.6354 85.5225 15.6354 85.3718C15.6417 77.7899 15.6291 70.2079 15.6668 62.6259C15.6731 61.4962 15.1208 61.3424 14.2077 61.3518C11.3835 61.3769 8.55934 61.4366 5.73832 61.3299C4.29486 61.2765 3.99676 61.8194 4.00617 63.1469C4.06266 70.2048 4.03128 77.2658 4.03755 84.3268C4.03755 84.876 4.0909 85.422 4.12228 86.0026C8.01648 86.0026 11.7161 86.0026 15.4942 86.0026Z" fill="#0A0806" stroke="#0A0806"/>
<path d="M57.1745 1.00007C71.753 0.966442 83.679 12.878 83.7025 27.4933C83.726 42.0851 71.8235 53.9933 57.2081 54C42.5893 54.0067 30.717 42.1456 30.7002 27.5202C30.6834 12.8982 42.5289 1.0337 57.1745 1.00007ZM80.5364 27.6379C80.7177 14.9798 70.3126 4.31257 57.6177 4.13769C44.6206 3.95609 33.9839 14.3005 33.8093 27.2915C33.6414 39.9395 44.0666 50.7043 56.681 50.9061C69.7653 51.1112 80.3483 40.7904 80.5364 27.6379Z" fill="#48DBB4" stroke="#48DBB4"/>
<path d="M11.2895 66.6216C11.3303 67.7356 11.0196 68.7116 9.72996 68.6551C8.41518 68.5986 8.31477 67.5222 8.33045 66.4678C8.34614 65.4165 8.43087 64.3495 9.80527 64.3714C11.2644 64.3934 11.2989 65.5326 11.2895 66.6216Z" fill="#0A0806" stroke="#0A0806"/>
<path d="M75.7998 27.3029C75.8805 37.5903 67.5476 45.9892 57.1532 46.0975C46.9917 46.2028 38.488 37.7977 38.4011 27.5568C38.3111 17.2571 46.6843 8.75601 56.9732 8.70029C67.2961 8.64457 75.716 16.963 75.7998 27.3029ZM57.0943 43.1906C65.7997 43.1906 72.9373 36.1167 72.9435 27.4794C72.9497 18.7369 65.8121 11.5639 57.1036 11.5546C48.3981 11.5484 41.2636 18.7245 41.2791 27.4701C41.2915 36.1507 48.3733 43.1906 57.0943 43.1906Z" fill="#48DBB4" stroke="#48DBB4"/>
</svg>
