<svg width="88" height="88" viewBox="0 0 88 88" fill="none" xmlns="http://www.w3.org/2000/svg">
<path d="M72.3841 13.7986C72.3672 13.3547 72.5279 12.9053 72.8658 12.5673C73.1813 12.2518 73.5924 12.0921 74.0047 12.088C74.0108 12.0879 74.017 12.0879 74.0231 12.0879C74.0862 12.088 74.1493 12.0917 74.2121 12.099L82.0934 12.9538C82.993 13.0513 83.6436 13.8637 83.5466 14.7682C83.4496 15.6728 82.6417 16.327 81.7421 16.2294L78.1051 15.835C84.2861 23.4587 87.9996 33.2043 87.9996 43.8071C87.9996 68.1706 68.3897 88 44.2662 88C34.7485 88 25.9303 84.9083 18.7448 79.6757C18.012 79.1421 17.8482 78.1121 18.3789 77.3753C18.9097 76.6385 19.934 76.4737 20.6668 77.0074C27.3153 81.849 35.4656 84.7054 44.2662 84.7054C66.5643 84.7054 84.723 66.3669 84.723 43.8071C84.723 34.137 81.3884 25.2402 75.8167 18.2296L75.936 21.6615C75.9676 22.5707 75.2602 23.3335 74.356 23.3653C73.4517 23.3971 72.693 22.6858 72.6614 21.7766L72.3841 13.7986Z" fill="#48DBB4"/>
<path d="M3.2766 44.1929C3.2766 21.6331 21.4353 3.29463 43.7333 3.29463C52.534 3.29463 60.6871 6.15113 67.3355 10.9926C68.0683 11.5263 69.0926 11.3616 69.6234 10.6247C70.1541 9.88788 69.9903 8.85795 69.2574 8.3243C62.0719 3.09168 53.2509 0 43.7333 0C19.6099 0 0 19.8294 0 44.1929C0 54.7966 3.71613 64.5404 9.89609 72.1652L6.2575 71.7706C5.35791 71.6731 4.54999 72.3273 4.45297 73.2318C4.35594 74.1363 5.00654 74.9487 5.90613 75.0463L13.7873 75.901C13.797 75.9021 13.8067 75.9032 13.8164 75.9041C13.9266 75.9151 14.0376 75.9148 14.1478 75.9034C14.5073 75.866 14.857 75.7094 15.1333 75.4332C15.4141 75.1526 15.5726 74.7951 15.6087 74.4277C15.6159 74.3545 15.6182 74.2808 15.6157 74.2073C15.6156 74.2058 15.6156 74.2044 15.6155 74.203L15.3381 66.2235C15.3065 65.3143 14.5479 64.6029 13.6436 64.6347C12.7393 64.6665 12.0319 65.4294 12.0635 66.3386L12.1828 69.7684C6.61249 62.7565 3.2766 53.8621 3.2766 44.1929Z" fill="#48DBB4"/>
<path fill-rule="evenodd" clip-rule="evenodd" d="M27.4246 22.1646C28.1592 21.7882 28.9799 21.5845 29.8255 21.5845H58.1849C59.8585 21.5845 61.4346 22.3824 62.4388 23.7382L70.3206 34.3901C71.0606 35.3898 71.4124 36.5817 71.3812 37.7632C71.3809 37.7866 71.3802 37.8099 71.379 37.8331C71.3338 38.9864 70.9235 40.1262 70.1529 41.0638C70.1521 41.0648 70.1513 41.0658 70.1505 41.0667L48.0869 68.1024L48.0795 68.1115C47.1045 69.2903 45.6802 69.9888 44.1676 70.0362C44.114 70.0412 44.0599 70.0437 44.0053 70.0437C43.9514 70.0437 43.898 70.0413 43.8452 70.0364C42.3299 69.991 40.9027 69.2922 39.9262 68.1115L39.9187 68.1024L17.8552 41.0667C17.8543 41.0656 17.8534 41.0646 17.8526 41.0635C17.1187 40.1705 16.7117 39.0942 16.6356 37.9974C16.6235 37.9126 16.6172 37.8258 16.6172 37.7376C16.6172 37.6902 16.619 37.6432 16.6226 37.5967C16.6272 36.4701 16.9798 35.3428 17.6851 34.3901L25.5714 23.7385C26.0495 23.0931 26.6573 22.5738 27.3433 22.2071C27.3699 22.1923 27.397 22.1781 27.4246 22.1646ZM27.5017 27.1154L20.966 35.9428H30.6392L27.5017 27.1154ZM31.915 39.5324H21.2017L40.1806 62.7883L31.915 39.5324ZM47.8329 62.7786L66.804 39.5324H56.0939L47.8329 62.7786ZM57.3695 35.9428H67.0399L60.507 27.1139L57.3695 35.9428ZM57.4289 25.174H47.5501L54.2259 34.1873L57.4289 25.174ZM51.095 35.9428L44.0052 26.3706L36.9154 35.9428H51.095ZM33.7833 34.1888L30.5792 25.174H40.4603L33.7833 34.1888ZM35.6825 39.5324H52.3264L44.0051 62.9485L35.6825 39.5324Z" fill="#0A0806"/>
</svg>
