<svg width="247" height="56" viewBox="0 0 247 56" fill="none" xmlns="http://www.w3.org/2000/svg">
<g clip-path="url(#clip0)">
<path d="M57.7808 35.9372V23.6812H61.7199C62.6033 23.6812 63.2477 23.733 63.6842 23.8262C65.0769 24.1367 66.241 25.2132 66.241 26.8798C66.241 27.9253 65.7421 28.8466 64.8067 29.3641C66.1579 29.8299 66.8334 30.803 66.8334 32.2108C66.8334 33.3908 66.3345 34.4674 65.3991 35.1091C64.4326 35.7923 63.7985 35.9372 61.855 35.9372H57.7808ZM62.0421 28.3394C62.8216 28.3394 63.2373 28.0081 63.2373 27.3663C63.2373 26.7245 62.8424 26.4347 62.0525 26.4347H60.7845V28.3394H62.0421ZM62.4058 33.1838C63.2893 33.1838 63.8401 32.8008 63.8401 32.0037C63.8401 31.2895 63.362 30.9479 62.4266 30.9479H60.7949V33.1838H62.4058Z" fill="#0A0806"/>
<path d="M74.7012 35.9372V23.6812H77.8504V33.1941H81.4985V35.9476H74.7012V35.9372Z" fill="#0A0806"/>
<path d="M87.9839 30.0887C87.9839 26.2897 90.7278 23.4431 94.4694 23.4431C98.0655 23.4431 100.976 26.2069 100.976 29.7264C100.976 33.3597 98.1486 36.1753 94.6253 36.1753C91.1955 36.1753 87.9839 33.722 87.9839 30.0887ZM97.8368 29.8299C97.8368 27.9046 96.4545 26.1966 94.4798 26.1966C92.5154 26.1966 91.1331 27.8321 91.1331 29.7781C91.1331 31.7967 92.5154 33.4218 94.5317 33.4218C96.4753 33.4218 97.8368 31.776 97.8368 29.8299Z" fill="#0A0806"/>
<path d="M116.161 32.4695C115.558 33.1009 114.799 33.4218 113.957 33.4218C112.014 33.4218 110.642 31.7656 110.642 29.7781C110.642 27.8735 111.972 26.1966 113.936 26.1966C114.841 26.1966 115.693 26.6003 116.296 27.3145C116.327 26.1759 116.348 25.0476 116.379 23.9089C115.61 23.6087 114.778 23.4431 113.843 23.4431C110.32 23.4431 107.503 26.3725 107.503 29.6229C107.503 31.4758 108.064 33.0388 109.395 34.3327C110.663 35.5749 112.274 36.1753 113.988 36.1753C114.716 36.1753 115.412 36.0614 116.067 35.844C116.109 34.7157 116.14 33.5874 116.161 32.4695Z" fill="#0A0806"/>
<path d="M131.958 35.9372L128.601 30.6374H128.57V35.9372H125.421V23.6812H128.57V29.1985H128.601L132.073 23.6812H135.367L131.293 29.7989L135.638 35.9476H131.958V35.9372Z" fill="#0A0806"/>
<path d="M143.381 35.9372V23.6812H147.57C149.098 23.6812 150.314 23.9504 151.176 24.4265C152.923 25.4203 154.024 27.3146 154.024 29.8092C154.024 33.8566 151.634 35.9372 147.788 35.9372H143.381ZM147.944 33.1838C149.763 33.1838 150.885 32.0555 150.885 29.8196C150.885 27.6355 149.773 26.4244 147.954 26.4244H146.52V33.1838H147.944Z" fill="#0A0806"/>
<path d="M169.697 35.9372L169.094 34.1672H164.823L164.178 35.9372H160.8L165.737 23.6812H168.211L173.106 35.9372H169.697ZM166.995 27.5009L166.943 27.4802L165.675 31.6725H168.252L166.995 27.5009Z" fill="#0A0806"/>
<path d="M180.018 35.9372V23.6812H186.857V26.4347H183.032V28.3394H186.743V31.0928H183.032V33.1941H186.857V35.9476H180.018V35.9372Z" fill="#0A0806"/>
<path d="M205.388 35.9372L205.492 26.7556L205.461 26.7245L202.832 35.9372H200.753L198.092 26.6417L198.196 35.9372H195.296V23.6812H199.339L201.782 31.7449H201.813L204.224 23.6812H208.288V35.9372H205.388Z" fill="#0A0806"/>
<path d="M216.572 30.0887C216.572 26.2897 219.316 23.4431 223.057 23.4431C226.653 23.4431 229.564 26.2069 229.564 29.7264C229.564 33.3597 226.737 36.1753 223.213 36.1753C219.783 36.1753 216.572 33.722 216.572 30.0887ZM226.414 29.8299C226.414 27.9046 225.032 26.1966 223.057 26.1966C221.093 26.1966 219.711 27.8321 219.711 29.7781C219.711 31.7967 221.093 33.4218 223.109 33.4218C225.053 33.4218 226.414 31.776 226.414 29.8299Z" fill="#0A0806"/>
<path d="M244.561 35.9372L239.832 28.4532L239.915 35.9372H236.901V23.6812H239.614L244.405 31.4344L244.27 23.6812H247.284V35.9372H244.561Z" fill="#0A0806"/>
<path d="M27.2238 12.9367L20.7591 9.1481L15.0739 12.8021L0.886858 2.20234L0.658203 43.4007L21.4659 55.7189L41.3381 42.6037V1.16721L27.2238 12.9367ZM38.2097 7.82313V19.3752L30.0716 14.6033L38.2097 7.82313ZM20.8319 12.7918L36.8274 22.1701L21.3827 32.3662L5.47036 22.6566L20.8319 12.7918ZM12.2781 14.5929L3.91135 19.9653L3.97371 8.3821L12.2781 14.5929ZM21.3723 52.0545L3.78663 41.641L3.88017 25.3273L21.4451 36.0513L38.2097 24.9857V40.9371L21.3723 52.0545Z" fill="#0A0806"/>
</g>
<defs>
<clipPath id="clip0">
<rect width="247" height="55.2245" fill="white" transform="translate(0 0.666656)"/>
</clipPath>
</defs>
</svg>
