<svg width="188" height="160" viewBox="0 0 188 160" fill="none" xmlns="http://www.w3.org/2000/svg">
<g clip-path="url(#clip0)">
<path d="M100.914 130.456H87.2126C87.0721 130.456 86.9629 130.568 86.9629 130.712V133.081C86.9629 133.225 87.0721 133.337 87.2126 133.337H92.409V140.555C92.409 140.699 92.5182 140.811 92.6587 140.811H95.4988C95.6392 140.811 95.7485 140.699 95.7485 140.555V133.337H100.945C101.085 133.337 101.195 133.225 101.195 133.081V130.712C101.163 130.568 101.054 130.456 100.914 130.456Z" fill="#0A0806"/>
<path d="M94.0627 127.095C95.2331 127.095 96.1694 126.119 96.1694 124.934C96.1694 123.734 95.2175 122.774 94.0627 122.774C92.8923 122.774 91.9561 123.75 91.9561 124.934C91.9561 126.135 92.8923 127.095 94.0627 127.095Z" fill="#0A0806"/>
<path d="M94.063 111.218C82.9836 111.218 74.0107 120.421 74.0107 131.784C74.0107 143.148 82.9836 152.351 94.063 152.351C105.143 152.351 114.115 143.148 114.115 131.784C114.115 120.421 105.143 111.218 94.063 111.218ZM106.36 144.396C103.067 147.774 98.6977 149.63 94.063 149.63C89.4284 149.63 85.0434 147.774 81.7664 144.396C78.4737 141.035 76.6636 136.554 76.6636 131.784C76.6636 127.015 78.4737 122.534 81.7664 119.173C85.0434 115.795 89.4128 113.939 94.063 113.939C98.7133 113.939 103.083 115.795 106.36 119.173C109.652 122.55 111.463 127.031 111.463 131.784C111.463 136.554 109.652 141.035 106.36 144.396Z" fill="#0A0806"/>
</g>
<path d="M98.9331 34.0108C98.2476 36.8228 93.6204 35.3086 92.1175 34.9301L93.3304 29.928C94.8332 30.3066 99.6449 31.0636 98.9331 34.0108ZM94.9914 23.1144L93.884 27.6433C95.1364 27.9677 98.9858 29.2656 99.6054 26.6969C100.265 24.0202 96.2438 23.4253 94.9914 23.1144ZM114.66 34.6867C111.971 45.7724 101.016 52.5185 90.2192 49.7471C79.4093 46.9892 72.8311 35.7683 75.5336 24.6826C78.2229 13.5969 89.1646 6.85086 99.9745 9.62228C110.771 12.3802 117.349 23.6011 114.66 34.6867ZM99.5527 21.5191L100.462 17.7878L98.2476 17.22L97.3643 20.8567C96.7843 20.708 96.191 20.5728 95.5978 20.4241L96.4811 16.7739L94.2663 16.2061L93.3567 19.9374C92.869 19.8292 92.4076 19.7076 91.9462 19.5994V19.5859L88.8878 18.8018L88.2945 21.2217C88.2945 21.2217 89.9424 21.6137 89.9028 21.6273C90.7993 21.8571 90.9575 22.4655 90.9311 22.9521L89.9028 27.1972C89.9687 27.2107 90.0478 27.2377 90.1269 27.2783C90.0478 27.2647 89.9687 27.2377 89.8896 27.2242L88.4395 33.1726C88.3341 33.4565 88.0572 33.8756 87.4245 33.7134C87.4508 33.7404 85.8162 33.3078 85.8162 33.3078L84.722 35.9035L87.5958 36.6335C88.1363 36.7687 88.6505 36.9174 89.1778 37.0526L88.2682 40.8244L90.4829 41.3922L91.3925 37.661C91.9989 37.8232 92.5789 37.9854 93.159 38.1341L92.2494 41.8519L94.4641 42.4197L95.3737 38.6614C99.144 39.3914 101.991 39.094 103.178 35.5925C104.14 32.7806 103.125 31.1447 101.148 30.0902C102.598 29.7523 103.679 28.7789 103.969 26.7645C104.391 23.9796 102.347 22.506 99.5527 21.5191Z" fill="#0A0806"/>
<path d="M58.4589 132.221C58.735 132.221 58.9589 131.997 58.9589 131.721C58.9589 131.444 58.735 131.221 58.4589 131.221L58.4589 132.221ZM58.8124 29.2418C59.0077 29.0465 59.0077 28.7299 58.8124 28.5347L55.6304 25.3527C55.4352 25.1574 55.1186 25.1574 54.9233 25.3527C54.7281 25.548 54.7281 25.8645 54.9233 26.0598L57.7518 28.8882L54.9233 31.7167C54.7281 31.9119 54.7281 32.2285 54.9233 32.4238C55.1186 32.619 55.4352 32.619 55.6304 32.4238L58.8124 29.2418ZM58.4589 131.221C39.4234 131.221 25.1915 124.836 15.7194 115.301C6.24243 105.76 1.5 93.0358 1.5 80.3044C1.5 67.573 6.24243 54.8486 15.7194 45.3082C25.1915 35.7727 39.4234 29.3882 58.4589 29.3882L58.4589 28.3882C39.1884 28.3882 24.6908 34.8578 15.01 44.6034C5.33404 54.3441 0.499998 67.3277 0.499999 80.3044C0.499999 93.2811 5.33405 106.265 15.01 116.005C24.6908 125.751 39.1884 132.221 58.4589 132.221L58.4589 131.221Z" fill="#0A0806"/>
<path d="M129.541 28.3887C129.265 28.3887 129.041 28.6125 129.041 28.8887C129.041 29.1648 129.265 29.3887 129.541 29.3887L129.541 28.3887ZM129.188 131.367C128.992 131.563 128.992 131.879 129.188 132.075L132.37 135.257C132.565 135.452 132.881 135.452 133.077 135.257C133.272 135.061 133.272 134.745 133.077 134.549L130.248 131.721L133.077 128.893C133.272 128.697 133.272 128.381 133.077 128.185C132.881 127.99 132.565 127.99 132.37 128.185L129.188 131.367ZM129.541 29.3887C148.577 29.3887 162.808 35.7731 172.281 45.3086C181.758 54.849 186.5 67.5734 186.5 80.3048C186.5 93.0362 181.758 105.761 172.281 115.301C162.808 124.837 148.577 131.221 129.541 131.221L129.541 132.221C148.812 132.221 163.309 125.751 172.99 116.006C182.666 106.265 187.5 93.2815 187.5 80.3048C187.5 67.3282 182.666 54.3445 172.99 44.6039C163.309 34.8582 148.812 28.3887 129.541 28.3887L129.541 29.3887Z" fill="#0A0806"/>
<defs>
<clipPath id="clip0">
<rect width="40.1046" height="41.1329" fill="white" transform="translate(74.0107 111.218)"/>
</clipPath>
</defs>
</svg>
