<svg width="247" height="82" viewBox="0 0 247 82" fill="none" xmlns="http://www.w3.org/2000/svg">
<path d="M29.8857 10.9333L9.27098 31.4646L0 40.6981L29.8857 70.4628L44.7344 55.6743V25.7219L29.8857 10.9333ZM35.6518 45.8403H32.5992C27.1346 45.8403 22.989 39.9849 22.5745 35.8186C22.1599 31.6523 22.5745 28.3117 28.4536 21.2553C25.1372 35.4057 35.6895 37.0948 35.6895 37.0948V45.8403H35.6518Z" fill="#0A0806"/>
<path d="M58.6411 55.1481H69.9095C76.0902 55.1481 79.5197 51.77 79.5197 46.4777C79.5197 42.1612 77.2584 39.7215 74.0927 38.6706C76.2032 37.8073 78.2383 35.5927 78.2383 32.7777C78.2383 27.9357 74.9219 25.0456 69.1181 25.0456H58.6411V55.1481ZM61.543 37.7697V27.7105H69.1934C73.0375 27.7105 75.261 29.362 75.261 32.7401C75.261 36.1182 73.0375 37.7697 69.1558 37.7697H61.543ZM61.543 52.4832V40.4722H69.2688C73.9797 40.4722 76.467 42.5741 76.467 46.4777C76.467 50.3813 73.9797 52.4832 69.2688 52.4832H61.543Z" fill="#0A0806"/>
<path d="M84.1553 24.7076V29.4369H87.434V24.7076H84.1553ZM84.4568 55.1479H87.1702V33.4906H84.4568V55.1479Z" fill="#0A0806"/>
<path d="M100.624 55.486C105.335 55.486 108.463 53.0838 108.463 49.2928C108.463 39.3087 95.4611 45.3517 95.4611 39.046C95.4611 36.9816 97.3077 35.5928 100.134 35.5928C102.245 35.5928 105.26 36.5312 105.637 39.5714H108.35C108.086 35.6679 104.996 33.078 100.323 33.078C95.6495 33.078 92.6346 35.4051 92.6346 39.0084C92.6346 48.4295 105.637 42.1613 105.637 49.2553C105.637 51.2446 103.639 52.9337 100.624 52.9337C97.157 52.9337 95.1596 51.2822 94.8204 48.2419H92.1069C92.4838 52.7835 95.7249 55.486 100.624 55.486Z" fill="#0A0806"/>
<path d="M122.709 55.486C129.078 55.486 133.675 50.8317 133.675 44.3008C133.675 37.7698 129.115 33.1155 122.709 33.1155C116.34 33.1155 111.742 37.7698 111.742 44.3008C111.742 50.8317 116.34 55.486 122.709 55.486ZM130.811 44.3008C130.811 49.3679 127.533 52.9712 122.709 52.9712C117.885 52.9712 114.606 49.3679 114.606 44.3008C114.606 39.2336 117.885 35.6303 122.709 35.6303C127.533 35.6303 130.811 39.2336 130.811 44.3008Z" fill="#0A0806"/>
<path d="M137.595 55.1482H140.309V43.5126C140.309 38.8958 143.211 35.6303 147.243 35.6303C150.748 35.6303 153.009 38.2953 153.009 42.349V55.1107H155.723V41.9736C155.723 36.6062 152.519 33.1155 147.62 33.1155C144.153 33.1155 141.402 34.692 140.271 37.9575V33.4533H137.558V55.1482H137.595Z" fill="#0A0806"/>
<path d="M165.559 55.1481H168.46V27.7105H178.297V25.0456H155.685V27.7105H165.559V55.1481Z" fill="#0A0806"/>
<path d="M189.792 35.9676V33.4903H186.927C183.573 33.4903 181.764 35.1043 180.898 38.107V33.4903H178.184V55.1476H180.898V45.9142C180.898 40.3591 182.141 35.9676 186.927 35.9676H189.792Z" fill="#0A0806"/>
<path d="M201.06 33.1155C196.537 33.1155 192.392 36.0808 191.939 40.2471H194.653C194.841 37.6947 197.668 35.5928 201.06 35.5928C205.13 35.5928 207.429 37.8824 207.429 41.1479C207.429 41.8235 207.052 42.1988 206.11 42.1988H200.834C195.444 42.1988 191.977 44.8263 191.977 48.955C191.977 52.9712 194.954 55.486 199.628 55.486C203.132 55.486 206.147 53.8345 207.429 51.2071V55.1482H210.142V41.1854C210.18 36.3435 206.75 33.1531 201.06 33.1155ZM199.854 53.0087C196.839 53.0087 194.879 51.4323 194.879 48.955C194.879 46.215 197.216 44.4884 200.834 44.4884H207.429V45.1265C207.466 50.1186 204.64 53.0087 199.854 53.0087Z" fill="#0A0806"/>
<path d="M215.08 24.7076V29.4369H218.358V24.7076H215.08ZM215.381 55.1479H218.095V33.4906H215.381V55.1479Z" fill="#0A0806"/>
<path d="M223.295 55.1479H226.008V24.7076H223.295V55.1479Z" fill="#0A0806"/>
<path d="M239.124 55.486C243.834 55.486 247 53.0838 247 49.2928C247 39.3087 233.998 45.3517 233.998 39.046C233.998 36.9816 235.845 35.5928 238.671 35.5928C240.744 35.5928 243.797 36.5312 244.136 39.5714H246.849C246.586 35.6679 243.495 33.078 238.822 33.078C234.149 33.078 231.134 35.4051 231.134 39.0084C231.134 48.4295 244.136 42.1613 244.136 49.2553C244.136 51.2446 242.139 52.9337 239.124 52.9337C235.656 52.9337 233.659 51.2822 233.358 48.2419H230.644C230.946 52.7835 234.187 55.486 239.124 55.486Z" fill="#0A0806"/>
</svg>
