<svg width="34" height="35" viewBox="0 0 34 35" fill="none" xmlns="http://www.w3.org/2000/svg">
<path fill-rule="evenodd" clip-rule="evenodd" d="M0.376938 34.5658C-0.0854893 34.1035 -0.0855309 33.3538 0.376845 32.8913L15.3252 17.9413L0.376938 2.99467C-0.0854893 2.53229 -0.085531 1.78259 0.376845 1.32017C0.839221 0.857737 1.58892 0.857695 2.05135 1.32007L16.9996 16.2667L31.9481 1.31657C32.4105 0.854139 33.1602 0.854097 33.6226 1.31648C34.085 1.77885 34.0851 2.52855 33.6227 2.99098L18.6742 17.9411L33.6226 32.8878C34.085 33.3502 34.0851 34.0999 33.6227 34.5623C33.1603 35.0248 32.4106 35.0248 31.9482 34.5624L16.9998 19.6157L2.05144 34.5657C1.58907 35.0282 0.839366 35.0282 0.376938 34.5658Z" fill="#0A0806"/>
</svg>
