<svg width="104" height="104" viewBox="0 0 104 104" fill="none" xmlns="http://www.w3.org/2000/svg">
<path fill-rule="evenodd" clip-rule="evenodd" d="M65.8952 4.06424C68.1 6.77135 68.4158 10.8481 67.4692 14.2779C67.0038 15.9642 65.6686 16.9845 64.3193 17.2721L54.7594 19.3093C55.3635 22.0107 56.3862 25.3318 57.6591 28.6675C59.3004 32.9685 61.2786 37.0859 63.1517 39.7864C63.8599 40.8075 63.6587 42.2482 62.7022 43.0043C61.7457 43.7604 60.3962 43.5455 59.6879 42.5244C57.5097 39.384 55.372 34.8696 53.6677 30.4034C52.3243 26.883 51.2012 23.2637 50.5304 20.2105L19.0328 26.9228L19.025 26.9245C18.118 27.1196 17.2506 26.7516 16.7077 26.0773C16.2009 25.4479 16.0088 24.6035 16.1713 23.8042C16.1761 23.7805 16.1813 23.7568 16.1869 23.7333C16.5105 22.3539 16.4404 19.9481 15.4408 18.1794L15.4356 18.1701C14.123 15.8227 11.6223 14.2989 9.14801 14.8202L9.13394 14.823C7.22361 15.2372 6.068 16.256 5.34564 17.6525C4.57192 19.1482 4.21383 21.2517 4.33201 23.849C4.56554 28.823 6.5223 33.9714 9.53024 39.3507C12.5217 44.7004 16.4285 50.0684 20.4134 55.5437L20.4719 55.6241C24.4377 61.073 28.4829 66.6368 31.522 72.1753C34.5573 77.7067 36.7299 83.4561 36.7239 89.2988C36.7234 92.1043 35.9632 94.9076 34.6074 97.3037L73.1721 89.1368C76.9314 88.3314 79.6865 84.0632 80.1344 78.9545C80.5285 74.499 78.877 71.954 76.9416 68.9738C76.5597 68.3857 76.1668 67.7807 75.7763 67.1407C75.1268 66.076 75.4089 64.6508 76.4062 63.9574C77.4035 63.2641 78.7386 63.5652 79.388 64.6299C79.6726 65.0964 79.9959 65.5856 80.3386 66.104C82.3326 69.1206 84.9792 73.1243 84.4254 79.3851C83.8822 85.5807 80.387 92.2858 74.0189 93.6482L74.0148 93.6491L26.9765 103.611C26.7563 103.672 26.5334 103.727 26.3078 103.776C19.7998 105.168 14.4849 99.8831 14.0807 93.3721C13.9487 91.5771 14.1795 89.5565 14.3675 88.2829C14.649 86.376 16.0297 84.9859 17.6769 84.6218C17.6769 84.6218 27.4375 82.2358 30.5985 81.5187L30.9455 81.3952C30.1663 79.1602 29.1001 76.8644 27.8032 74.5009C24.933 69.2702 21.0735 63.9499 17.0686 58.447L16.9197 58.2426C13.0004 52.8577 8.95716 47.3024 5.82953 41.709C2.66448 36.0488 0.31136 30.137 0.0273882 24.0773L0.0271909 24.0741C-0.113019 20.996 0.272361 17.9421 1.57272 15.4283C2.92195 12.8199 5.16557 10.9795 8.30734 10.3073L8.33444 10.3017L56.0211 0.202932C60.0368 -0.649801 63.6664 1.28938 65.8952 4.06424ZM32.1463 86.0356C32.1501 86.0593 32.1538 86.0831 32.1576 86.1068C32.1531 86.0831 32.1486 86.0593 32.144 86.0354L32.1463 86.0356ZM18.6081 89.1147C18.438 90.298 18.2886 91.8253 18.3782 93.0227L18.3805 93.0571C18.6252 97.086 21.6954 99.9015 25.2045 99.3132C25.2888 99.2833 25.3757 99.2589 25.4651 99.2399L25.9816 99.1305C29.6196 98.0382 32.4139 93.8555 32.4139 89.2963V89.2938C32.415 88.2447 32.3272 87.1827 32.1576 86.1068C29.5705 86.6785 18.6081 89.1147 18.6081 89.1147ZM18.6081 89.1147L18.625 88.999C18.6218 89.0201 18.615 89.0426 18.605 89.0635C18.5985 89.077 18.5915 89.0881 18.5848 89.0968C18.5816 89.1011 18.5755 89.1081 18.5755 89.1081C18.5616 89.1232 18.5516 89.1272 18.5516 89.1272L18.6081 89.1147ZM17.0957 13.1371C17.9072 13.9372 18.5967 14.8476 19.1337 15.8071C20.2233 17.7375 20.6437 19.9429 20.667 21.8827L63.3875 12.7787C63.9873 10.4063 63.5635 8.21073 62.64 7.07984L62.6272 7.06418C61.1922 5.27447 59.0489 4.25085 56.8626 4.71548L17.0957 13.1371Z" fill="#0A0806"/>
<path fill-rule="evenodd" clip-rule="evenodd" d="M82.0685 46.8982C82.9877 47.5653 83.1846 48.8595 82.5084 49.7887L64.4866 74.5521C63.8104 75.4813 62.517 75.6938 61.5978 75.0267C60.6786 74.3596 60.4816 73.0654 61.1579 72.1362L79.1796 47.3728C79.8559 46.4436 81.1493 46.2311 82.0685 46.8982Z" fill="#48DBB4"/>
<path fill-rule="evenodd" clip-rule="evenodd" d="M68.1501 40.0803C73.5003 30.0163 84.1936 20.633 100.474 19.8233C101.436 19.7754 102.295 20.3993 102.547 21.3277C106.819 37.0991 101.081 50.0931 93.0414 58.2026C89.0385 62.2403 84.4166 65.1213 80.0869 66.5419C75.8493 67.9323 71.4333 68.0517 68.3202 65.7927C65.199 63.5279 63.9837 59.3031 64.045 54.8683C64.1076 50.3384 65.4856 45.0923 68.1501 40.0803ZM68.1771 54.8776C68.1235 58.7535 69.2244 61.3068 70.7688 62.4275C72.3213 63.554 75.1263 63.8258 78.8427 62.6064C82.467 61.4172 86.5321 58.926 90.127 55.2998C97.007 48.3599 101.987 37.4616 98.961 24.0785C85.3105 25.3323 76.3756 33.3734 71.7921 41.9952C69.3976 46.4994 68.2294 51.0967 68.1771 54.8776Z" fill="#48DBB4"/>
<path fill-rule="evenodd" clip-rule="evenodd" d="M43.7975 53.3755C44.7728 52.7925 46.0035 52.8135 47.0273 53.4926C47.0393 53.5006 47.0515 53.5084 47.0637 53.5161C48.1329 54.1915 48.5708 55.3629 49.3102 57.5517L49.3179 57.5744C49.6903 58.677 50.1428 60.0166 50.9362 61.2844C48.6008 61.6112 46.1652 61.0591 44.0622 59.641C44.0333 59.6215 44.004 59.6029 43.9742 59.585C42.9175 58.9523 42.2264 57.7432 42.2026 56.4233C42.1789 55.1097 42.817 53.9615 43.7975 53.3755ZM49.1081 50.0655C46.8994 48.6098 44.1198 48.5082 41.8527 49.8633C39.5846 51.219 38.2541 53.7765 38.3033 56.4993C38.3519 59.1971 39.7447 61.7062 41.9804 63.0676C46.0405 65.7853 51.0838 66.1936 55.4054 64.0966C56.0525 63.7826 56.4827 63.1261 56.5266 62.3855C56.5704 61.6448 56.2211 60.9385 55.6159 60.5444C54.2484 59.6537 53.6849 58.2665 52.9901 56.2098C52.9548 56.1053 52.9189 55.9977 52.8821 55.8876C52.2753 54.0704 51.4316 51.5436 49.1081 50.0655Z" fill="#0A0806"/>
<path fill-rule="evenodd" clip-rule="evenodd" d="M31.7159 33.134C30.5075 31.4651 28.5085 30.6232 26.5187 30.9518C24.5006 31.2851 22.833 32.7661 22.2018 34.7853C21.5707 36.8045 22.0828 39.0208 23.5274 40.5224L23.5365 40.5319L23.5365 40.5318L37.4247 54.7775C38.1911 55.5636 39.4258 55.5554 40.1824 54.7592C40.939 53.9629 40.9311 52.6802 40.1647 51.8941L26.282 37.654C25.8766 37.2298 25.7334 36.6056 25.9112 36.0367C26.0895 35.4662 26.5607 35.0477 27.131 34.9536C27.7012 34.8594 28.2741 35.1054 28.6139 35.5904C28.6442 35.6336 28.6761 35.6756 28.7096 35.7162L41.1003 50.74C41.801 51.5897 43.0321 51.6883 43.8498 50.9602C44.6676 50.2322 44.7625 48.9532 44.0618 48.1036L31.7159 33.134Z" fill="#0A0806"/>
</svg>
