<svg width="104" height="104" viewBox="0 0 104 104" fill="none" xmlns="http://www.w3.org/2000/svg">
<path d="M14.8571 7.42857C14.8571 11.5313 11.5313 14.8571 7.42857 14.8571C3.32588 14.8571 0 11.5313 0 7.42857C0 3.32588 3.32588 0 7.42857 0C11.5313 0 14.8571 3.32588 14.8571 7.42857Z" fill="#0A0806"/>
<path d="M14.8571 52C14.8571 56.1027 11.5313 59.4286 7.42857 59.4286C3.32588 59.4286 0 56.1027 0 52C0 47.8973 3.32588 44.5714 7.42857 44.5714C11.5313 44.5714 14.8571 47.8973 14.8571 52Z" fill="#0A0806"/>
<path d="M14.8571 96.5714C14.8571 100.674 11.5313 104 7.42857 104C3.32588 104 0 100.674 0 96.5714C0 92.4687 3.32588 89.1429 7.42857 89.1429C11.5313 89.1429 14.8571 92.4687 14.8571 96.5714Z" fill="#0A0806"/>
<path d="M59.4284 7.42857C59.4284 11.5313 56.1025 14.8571 51.9999 14.8571C47.8972 14.8571 44.5713 11.5313 44.5713 7.42857C44.5713 3.32588 47.8972 0 51.9999 0C56.1025 0 59.4284 3.32588 59.4284 7.42857Z" fill="#0A0806"/>
<path d="M59.4284 52C59.4284 56.1027 56.1025 59.4286 51.9999 59.4286C47.8972 59.4286 44.5713 56.1027 44.5713 52C44.5713 47.8973 47.8972 44.5714 51.9999 44.5714C56.1025 44.5714 59.4284 47.8973 59.4284 52Z" fill="#0A0806"/>
<path d="M59.4284 96.5714C59.4284 100.674 56.1025 104 51.9999 104C47.8972 104 44.5713 100.674 44.5713 96.5714C44.5713 92.4687 47.8972 89.1429 51.9999 89.1429C56.1025 89.1429 59.4284 92.4687 59.4284 96.5714Z" fill="#0A0806"/>
<path d="M104 7.42857C104 11.5313 100.674 14.8571 96.5712 14.8571C92.4685 14.8571 89.1426 11.5313 89.1426 7.42857C89.1426 3.32588 92.4685 0 96.5712 0C100.674 0 104 3.32588 104 7.42857Z" fill="#0A0806"/>
<path d="M104 52C104 56.1027 100.674 59.4286 96.5712 59.4286C92.4685 59.4286 89.1426 56.1027 89.1426 52C89.1426 47.8973 92.4685 44.5714 96.5712 44.5714C100.674 44.5714 104 47.8973 104 52Z" fill="#0A0806"/>
<path d="M104 96.5714C104 100.674 100.674 104 96.5712 104C92.4685 104 89.1426 100.674 89.1426 96.5714C89.1426 92.4687 92.4685 89.1429 96.5712 89.1429C100.674 89.1429 104 92.4687 104 96.5714Z" fill="#0A0806"/>
<path fill-rule="evenodd" clip-rule="evenodd" d="M7.89244 18.5714C9.17453 18.5714 10.2139 19.6108 10.2139 20.8929L10.2139 37.6071C10.2139 38.8892 9.17453 39.9286 7.89244 39.9286C6.61035 39.9286 5.57101 38.8892 5.57101 37.6071L5.57101 20.8929C5.57101 19.6108 6.61035 18.5714 7.89244 18.5714Z" fill="#48DBB4"/>
<path fill-rule="evenodd" clip-rule="evenodd" d="M39.9287 9.75C39.9287 11.0321 38.8894 12.0714 37.6073 12.0714L20.893 12.0714C19.6109 12.0714 18.5716 11.0321 18.5716 9.75C18.5716 8.46791 19.6109 7.42857 20.893 7.42857L37.6073 7.42857C38.8894 7.42857 39.9287 8.46791 39.9287 9.75Z" fill="#48DBB4"/>
<path fill-rule="evenodd" clip-rule="evenodd" d="M85.4287 9.75C85.4287 11.0321 84.3894 12.0714 83.1073 12.0714L66.393 12.0714C65.1109 12.0714 64.0716 11.0321 64.0716 9.75C64.0716 8.46791 65.1109 7.42857 66.393 7.42857L83.1073 7.42857C84.3894 7.42857 85.4287 8.46791 85.4287 9.75Z" fill="#48DBB4"/>
<path fill-rule="evenodd" clip-rule="evenodd" d="M39.9287 52.4643C39.9287 53.7464 38.8894 54.7857 37.6073 54.7857L20.893 54.7857C19.6109 54.7857 18.5716 53.7464 18.5716 52.4643C18.5716 51.1822 19.6109 50.1428 20.893 50.1428L37.6073 50.1429C38.8894 50.1429 39.9287 51.1822 39.9287 52.4643Z" fill="#48DBB4"/>
<path fill-rule="evenodd" clip-rule="evenodd" d="M85.4287 52.4643C85.4287 53.7464 84.3894 54.7857 83.1073 54.7857L66.393 54.7857C65.1109 54.7857 64.0716 53.7464 64.0716 52.4643C64.0716 51.1822 65.1109 50.1428 66.393 50.1428L83.1073 50.1429C84.3894 50.1429 85.4287 51.1822 85.4287 52.4643Z" fill="#48DBB4"/>
<path fill-rule="evenodd" clip-rule="evenodd" d="M39.9287 97.0357C39.9287 98.3178 38.8894 99.3571 37.6073 99.3571L20.893 99.3571C19.6109 99.3571 18.5716 98.3178 18.5716 97.0357C18.5716 95.7536 19.6109 94.7143 20.893 94.7143L37.6073 94.7143C38.8894 94.7143 39.9287 95.7536 39.9287 97.0357Z" fill="#48DBB4"/>
<path fill-rule="evenodd" clip-rule="evenodd" d="M85.4287 97.0357C85.4287 98.3178 84.3894 99.3571 83.1073 99.3571L66.393 99.3571C65.1109 99.3571 64.0716 98.3178 64.0716 97.0357C64.0716 95.7536 65.1109 94.7143 66.393 94.7143L83.1073 94.7143C84.3894 94.7143 85.4287 95.7536 85.4287 97.0357Z" fill="#48DBB4"/>
<path fill-rule="evenodd" clip-rule="evenodd" d="M52.4647 18.5714C53.7468 18.5714 54.7861 19.6108 54.7861 20.8929L54.7861 37.6071C54.7861 38.8892 53.7468 39.9286 52.4647 39.9286C51.1826 39.9286 50.1433 38.8892 50.1433 37.6071L50.1433 20.8929C50.1433 19.6108 51.1826 18.5714 52.4647 18.5714Z" fill="#48DBB4"/>
<path fill-rule="evenodd" clip-rule="evenodd" d="M97.036 18.5714C98.3181 18.5714 99.3574 19.6108 99.3574 20.8929L99.3574 37.6071C99.3574 38.8892 98.3181 39.9286 97.036 39.9286C95.7539 39.9286 94.7146 38.8892 94.7146 37.6071L94.7146 20.8929C94.7146 19.6108 95.7539 18.5714 97.036 18.5714Z" fill="#48DBB4"/>
<path fill-rule="evenodd" clip-rule="evenodd" d="M7.89244 63.1429C9.17453 63.1429 10.2139 64.1822 10.2139 65.4643L10.2139 82.1786C10.2139 83.4607 9.17453 84.5 7.89244 84.5C6.61035 84.5 5.57101 83.4607 5.57101 82.1786L5.57101 65.4643C5.57101 64.1822 6.61035 63.1429 7.89244 63.1429Z" fill="#48DBB4"/>
<path fill-rule="evenodd" clip-rule="evenodd" d="M52.4647 63.1429C53.7468 63.1429 54.7861 64.1822 54.7861 65.4643L54.7861 82.1786C54.7861 83.4607 53.7468 84.5 52.4647 84.5C51.1826 84.5 50.1433 83.4607 50.1433 82.1786L50.1433 65.4643C50.1433 64.1822 51.1826 63.1429 52.4647 63.1429Z" fill="#48DBB4"/>
<path fill-rule="evenodd" clip-rule="evenodd" d="M97.036 63.1429C98.3181 63.1429 99.3574 64.1822 99.3574 65.4643L99.3574 82.1786C99.3574 83.4607 98.3181 84.5 97.036 84.5C95.7539 84.5 94.7146 83.4607 94.7146 82.1786L94.7146 65.4643C94.7146 64.1822 95.7539 63.1429 97.036 63.1429Z" fill="#48DBB4"/>
</svg>
