<svg width="247" height="82" viewBox="0 0 247 82" fill="none" xmlns="http://www.w3.org/2000/svg">
<path d="M12.1836 22.6994V35.036H32.9814V42.6299H12.1836V61.1317H3.84668V15.0992H35.4952V22.693H12.1836V22.6994Z" fill="#0A0806" stroke="#0A0806" stroke-width="0.25" stroke-miterlimit="10"/>
<path d="M41.6343 61.1318V27.3723H49.8385V61.1318H41.6343Z" fill="#0A0806" stroke="#0A0806" stroke-width="0.25" stroke-miterlimit="10"/>
<path d="M88.2573 65.6147C88.2573 67.8242 87.7648 69.6592 86.7732 71.1322C85.7816 72.6052 84.5121 73.7609 82.9647 74.6053C81.4172 75.4498 79.6679 76.0466 77.7352 76.3895C75.7962 76.7388 73.9015 76.9102 72.051 76.9102C69.9857 76.9102 67.9267 76.7577 65.8868 76.453C63.8405 76.1482 61.9393 75.3736 60.1709 74.1163C58.8825 73.2084 57.8783 72.1482 57.1709 70.9354C56.4636 69.7227 56.1035 68.3196 56.1035 66.7131C56.1035 65.2401 56.451 63.8876 57.1394 62.6559C57.8278 61.4241 58.8194 60.4844 60.1077 59.8305C59.0341 59.2273 58.2004 58.3891 57.6195 57.3288C57.0383 56.2684 56.7478 55.1764 56.7478 54.0461C56.7478 51.1446 58.0805 48.8779 60.752 47.227C59.7161 46.1858 58.9014 44.9794 58.3014 43.5889C57.6951 42.2047 57.3983 40.6491 57.3983 38.9158C57.3983 36.9221 57.7646 35.1505 58.4973 33.5887C59.2299 32.0267 60.2214 30.7315 61.4721 29.6902C62.7225 28.6488 64.1751 27.8616 65.8298 27.3219C67.4847 26.7822 69.2594 26.5091 71.1541 26.5091C72.5309 26.5091 73.87 26.6934 75.1583 27.0616C76.4467 27.4299 77.653 27.9378 78.7774 28.5853C79.5099 27.1123 80.4762 26.0457 81.6825 25.3727C82.8889 24.6996 84.2027 24.3695 85.6236 24.3695C85.8827 24.3695 86.2488 24.3695 86.7227 24.3695C87.1963 24.3695 87.5626 24.4138 87.8215 24.4965V30.795L87.1774 30.7315C86.23 30.7315 85.3773 30.8838 84.6258 31.1886C83.8742 31.4934 83.3625 32.0584 83.11 32.8775C84.2721 34.7823 84.8532 36.8141 84.8532 38.9793C84.8532 40.9285 84.4742 42.6618 83.7226 44.1731C82.9711 45.6904 81.9669 46.9668 80.7226 48.0017C79.472 49.0429 78.0194 49.8429 76.3647 50.4018C74.7036 50.9668 72.973 51.246 71.1667 51.246C69.272 51.246 67.4657 50.9415 65.7414 50.3381C65.3562 50.5541 64.9772 50.8716 64.6111 51.278C64.2447 51.6905 64.0614 52.1795 64.0614 52.7382C64.0614 53.7352 64.4595 54.3954 65.2551 54.7192C66.051 55.0431 66.8784 55.2081 67.7436 55.2081H73.2953C74.11 55.2081 74.9941 55.2207 75.9416 55.2399C76.8888 55.2652 77.8489 55.3479 78.8153 55.5002C79.7816 55.6526 80.7288 55.8812 81.6573 56.1796C82.5857 56.4843 83.4321 56.9161 84.2089 57.4749C85.6741 58.4717 86.7162 59.6654 87.3415 61.0432C87.9478 62.4528 88.2573 63.9703 88.2573 65.6147ZM80.6404 65.8115C80.6404 64.7702 80.3625 63.9703 79.8004 63.4114C79.2384 62.8464 78.5626 62.44 77.7667 62.1797C76.9711 61.9194 76.1058 61.767 75.1836 61.7288C74.2552 61.6845 73.409 61.6654 72.632 61.6654H66.3037C65.4384 61.9256 64.7183 62.4146 64.1372 63.1258C63.5563 63.8431 63.2658 64.7385 63.2658 65.8179C63.2658 66.8973 63.5563 67.7418 64.1372 68.3513C64.7183 68.9545 65.4384 69.4243 66.3037 69.7481C67.1625 70.072 68.0909 70.2752 69.0825 70.364C70.0741 70.4528 70.9584 70.4909 71.7288 70.4909C72.5435 70.4909 73.4719 70.4592 74.5078 70.3957C75.5435 70.3323 76.5099 70.148 77.413 69.8433C78.3164 69.5385 79.0805 69.075 79.7058 68.4465C80.3248 67.8116 80.6404 66.9354 80.6404 65.8115ZM77.0847 38.9284C77.0847 37.1125 76.5542 35.6078 75.4994 34.414C74.4447 33.2204 72.9921 32.6299 71.1415 32.6299C69.291 32.6299 67.8383 33.2268 66.7835 34.414C65.7288 35.6014 65.1984 37.1061 65.1984 38.9284C65.1984 40.7443 65.7226 42.2428 66.7835 43.411C67.8383 44.5793 69.291 45.1635 71.1415 45.1635C72.9921 45.1635 74.4447 44.5793 75.4994 43.411C76.5604 42.2428 77.0847 40.7507 77.0847 38.9284Z" fill="#0A0806" stroke="#0A0806" stroke-width="0.25" stroke-miterlimit="10"/>
<path d="M132.563 61.1316V40.1598C132.563 38.0835 132.209 36.4708 131.496 35.3215C130.788 34.1786 129.418 33.6008 127.397 33.6008C126.235 33.6008 125.243 33.8739 124.428 34.4136C123.614 34.9533 122.931 35.6708 122.395 36.5534C121.858 37.4422 121.46 38.4264 121.201 39.5058C120.942 40.5915 120.816 41.6454 120.816 42.6867V61.1252H112.807V40.1598C112.807 38.0835 112.454 36.4708 111.74 35.3215C111.032 34.1786 109.662 33.6008 107.641 33.6008C106.479 33.6008 105.487 33.8739 104.673 34.4136C103.858 34.9533 103.163 35.6708 102.607 36.5534C102.045 37.4422 101.641 38.4264 101.382 39.5058C101.123 40.5915 100.997 41.6454 100.997 42.6867V61.1252H92.9883V27.3721H99.702L100.346 31.8548C101.294 30.2992 102.563 29.023 104.155 28.0262C105.746 27.0292 107.666 26.534 109.902 26.534C112.27 26.534 114.253 27.023 115.845 27.9945C117.437 28.9659 118.668 30.3247 119.527 32.0516C120.519 30.2802 121.883 28.915 123.626 27.9627C125.369 27.0103 127.384 26.534 129.664 26.534C133.283 26.534 136.005 27.6262 137.837 29.8167C139.668 32.0073 140.584 34.8453 140.584 38.3565V61.1442H132.563V61.1316Z" fill="#0A0806" stroke="#0A0806" stroke-width="0.25" stroke-miterlimit="10"/>
<path d="M177.254 44.5156C177.21 44.8203 177.191 45.0996 177.191 45.36V46.7885H154.719C154.719 48.0903 154.921 49.322 155.332 50.4902C155.742 51.6586 156.361 52.63 157.169 53.411C157.776 53.976 158.477 54.4585 159.273 54.8712C160.068 55.284 161.022 55.4872 162.146 55.4872C163.308 55.4872 164.268 55.3664 165.02 55.1315C165.772 54.8966 166.454 54.4712 167.054 53.8681C167.824 53.0871 168.367 52.1346 168.671 51.0109H176.42C176.332 52.0077 175.997 53.0998 175.416 54.2934C174.835 55.4872 174.222 56.465 173.578 57.246C172.157 58.9349 170.458 60.1476 168.475 60.8841C166.492 61.6206 164.426 61.9889 162.279 61.9889C159.948 61.9889 157.94 61.6079 156.241 60.8524C154.536 60.0968 153.02 59.0872 151.687 57.8364C150.007 56.1919 148.725 54.2235 147.841 51.9316C146.957 49.6395 146.515 47.1061 146.515 44.3377C146.515 41.6139 146.912 39.0869 147.708 36.7756C148.504 34.4581 149.723 32.4835 151.353 30.8327C152.603 29.5374 154.119 28.4961 155.906 27.7153C157.694 26.9343 159.746 26.5469 162.077 26.5469C164.578 26.5469 166.896 27.0548 169.056 28.0707C171.203 29.0867 172.972 30.6549 174.355 32.7755C175.599 34.6359 176.395 36.5345 176.742 38.4583C177.077 40.3694 177.254 42.3949 177.254 44.5156ZM169.182 40.8774C169.132 38.4138 168.443 36.4391 167.11 34.9725C166.555 34.3693 165.854 33.8931 165.014 33.5438C164.174 33.2011 163.176 33.0232 162.007 33.0232C160.763 33.0232 159.664 33.2645 158.711 33.7408C157.77 34.2168 156.986 34.8455 156.386 35.6265C155.78 36.363 155.35 37.144 155.092 37.9629C154.839 38.7821 154.681 39.7599 154.643 40.8838H169.182V40.8774Z" fill="#0A0806" stroke="#0A0806" stroke-width="0.25" stroke-miterlimit="10"/>
<path d="M204.058 61.1317V40.4201C204.058 38.4328 203.666 36.871 202.896 35.7471C202.12 34.6232 200.66 34.0581 198.507 34.0581C197.085 34.0581 195.897 34.4581 194.951 35.2581C194.003 36.0582 193.252 37.0867 192.69 38.344C192.128 39.6012 191.806 41.0614 191.723 42.725C191.634 44.3948 191.591 45.9377 191.591 47.3663V61.1317H183.519V27.3724H190.301L190.884 31.7217C191.876 29.9501 193.284 28.6358 195.115 27.7913C196.946 26.9468 198.829 26.5215 200.762 26.5215C202.574 26.5215 204.179 26.8263 205.574 27.4295C206.969 28.039 208.157 28.8707 209.13 29.9311C210.095 30.9914 210.842 32.2676 211.359 33.7597C211.877 35.2519 212.135 36.8646 212.135 38.5979V61.1253H204.058V61.1317Z" fill="#0A0806" stroke="#0A0806" stroke-width="0.25" stroke-miterlimit="10"/>
<path d="M239.383 60.6806C237.058 61.2837 234.752 61.5885 232.472 61.5885C229.069 61.5885 226.529 60.6678 224.849 58.8266C223.169 56.9853 222.33 54.4455 222.33 51.2011V34.0579H216.191V27.372H222.33V18.8005L230.402 16.7877V27.372H238.864V34.0579H230.402V50.4836C230.402 51.7851 230.698 52.7248 231.305 53.309C231.91 53.8932 232.859 54.1852 234.146 54.1852C235.004 54.1852 235.813 54.1663 236.566 54.1218C237.316 54.0773 238.251 53.9948 239.375 53.8615V60.6806H239.383Z" fill="#0A0806" stroke="#0A0806" stroke-width="0.25" stroke-miterlimit="10"/>
<path fill-rule="evenodd" clip-rule="evenodd" d="M50.5079 19.8863C50.5079 17.3593 48.4743 15.137 45.7206 15.137C42.9101 15.137 40.9331 17.3593 40.9331 19.8863C40.9331 22.5339 42.9101 24.5151 45.7206 24.5151C48.4743 24.5151 50.5079 22.5339 50.5079 19.8863Z" fill="#0A0806"/>
</svg>
