<svg width="104" height="104" viewBox="0 0 104 104" fill="none" xmlns="http://www.w3.org/2000/svg">
<path fill-rule="evenodd" clip-rule="evenodd" d="M84.5683 76.0238C85.4193 76.5639 85.6457 77.6746 85.074 78.5046L69.838 100.625C69.2663 101.455 68.113 101.69 67.262 101.15C66.4111 100.61 66.1847 99.4989 66.7564 98.6689L81.9923 76.5489C82.564 75.7188 83.7174 75.4838 84.5683 76.0238Z" fill="#48DBB4"/>
<path fill-rule="evenodd" clip-rule="evenodd" d="M71.8088 70.6843C76.2281 61.7731 85.4717 53.2377 100.06 51.8906C100.922 51.811 101.718 52.3161 101.979 53.1085C106.419 66.5703 101.764 78.0294 94.8545 85.3582C91.4144 89.0073 87.3742 91.6811 83.5405 93.0811C79.7884 94.4513 75.8274 94.7301 72.9454 92.9013C70.0559 91.0679 68.8029 87.4646 68.6883 83.6291C68.5712 79.7113 69.6079 75.1222 71.8088 70.6843ZM72.3993 83.4728C72.4994 86.825 73.5857 88.9881 75.0155 89.8953C76.4527 90.8073 78.982 90.9307 82.2727 89.729C85.4817 88.5571 89.0369 86.2422 92.1263 82.9652C98.039 76.6933 102.094 67.0757 98.8646 55.6287C86.6544 57.2551 78.9386 64.5604 75.1526 72.1946C73.1746 76.1829 72.3016 80.2028 72.3993 83.4728Z" fill="#48DBB4"/>
<path fill-rule="evenodd" clip-rule="evenodd" d="M0.4721 44.4301C3.78713 20.9658 23.8529 3.50562 47.5499 3.50562C71.2468 3.50562 91.3126 20.9658 94.6276 44.4301C94.8152 45.758 93.8862 46.986 92.5526 47.1728C91.219 47.3596 89.9859 46.4346 89.7983 45.1066C86.8191 24.0199 68.7961 8.36188 47.5499 8.36188C26.3036 8.36188 8.28057 24.0199 5.30144 45.1066C3.63103 56.9301 6.9768 68.4298 13.8431 77.2948C19.109 84.0937 26.4412 89.3367 35.1677 91.9849V86.0087C29.2516 86.3676 23.6074 82.833 21.4831 77.0501C21.4733 77.0236 21.4641 76.9969 21.4552 76.9701C20.4456 73.8929 18.7686 71.0787 16.5453 68.7288C15.8048 67.9463 15.6694 66.772 16.2125 65.8426C16.7555 64.9133 17.8477 64.4502 18.8968 64.7045C24.4264 66.0448 27.6458 68.4404 29.9489 70.1542C30.2547 70.3818 30.5444 70.5973 30.8212 70.7968C32.0115 71.6546 32.753 72.0585 33.4821 72.1987C33.9535 72.2894 34.5772 72.2965 35.5007 72.0191C35.7159 70.7912 36.0545 69.59 36.5102 68.4334C33.0842 67.9174 29.4679 67.0377 26.487 64.9653C22.2206 61.9991 19.6955 56.968 19.6908 48.8225C19.617 44.744 20.9422 40.7766 23.4245 37.5718C22.4824 33.9427 22.7843 30.0862 24.3066 26.6297C24.5854 25.9966 25.1219 25.5119 25.7817 25.297L26.5397 27.6049C25.7817 25.297 25.7841 25.2963 25.7864 25.2955L25.7912 25.2939L25.8011 25.2908L25.8218 25.2843C25.8283 25.2823 25.835 25.2803 25.8419 25.2782C25.85 25.2758 25.8585 25.2733 25.8671 25.2708C25.8991 25.2615 25.9347 25.2518 25.9737 25.2418C26.0519 25.2218 26.144 25.2011 26.2502 25.1813C26.4629 25.1418 26.7305 25.1067 27.0542 25.0902C27.7031 25.0572 28.5646 25.0996 29.6483 25.3221C31.6409 25.7311 34.3668 26.7445 37.9149 28.9965C44.2142 27.4424 50.7968 27.4417 57.0964 28.9945C60.6265 26.7269 63.3465 25.711 65.3413 25.306C66.427 25.0855 67.2915 25.0475 67.9438 25.0855C68.269 25.1045 68.5381 25.1422 68.752 25.184C68.8588 25.2049 68.9514 25.2268 69.03 25.2477C69.0692 25.2581 69.1049 25.2683 69.1371 25.278C69.1532 25.2829 69.1684 25.2876 69.1827 25.2922L69.2035 25.2989L69.2134 25.3022L69.2182 25.3038C69.2206 25.3046 69.2229 25.3054 68.4397 27.6049L69.2229 25.3054C69.8716 25.5245 70.3978 26.0051 70.6728 26.6297C72.1949 30.0858 72.497 33.9417 71.5553 37.5704C74.0408 40.7743 75.3663 44.7438 75.2887 48.8236C75.2837 56.9853 72.7604 62.0215 68.4821 64.979C65.5202 67.0265 61.9312 67.8944 58.5196 68.3972C59.4823 70.7329 59.9424 73.2604 59.8521 75.8132L59.9297 92.0551C61.034 91.9954 62.0749 92.6945 62.3996 93.7971C62.7786 95.0839 62.0382 96.433 60.7459 96.8103C59.3989 97.2036 57.9467 96.9383 56.8274 96.0979C55.7109 95.2596 55.0573 93.9485 55.0551 92.5603C55.0551 92.5581 55.0551 92.5558 55.0551 92.5535L54.975 75.786C54.9748 75.7512 54.9754 75.7164 54.9767 75.6816C55.0847 72.8733 54.2778 70.1072 52.6797 67.8003C52.192 67.0964 52.1122 66.1889 52.4695 65.4113C52.8268 64.6337 53.5685 64.1005 54.4222 64.0077C58.9612 63.5143 62.8596 62.954 65.7009 60.9898C68.2848 59.2036 70.4118 55.9174 70.4118 48.7995C70.4118 48.783 70.4119 48.7665 70.4123 48.75C70.4803 45.4264 69.2699 42.2058 67.035 39.7537C66.4336 39.0939 66.2435 38.1592 66.5396 37.3183C67.3754 34.945 67.4323 32.38 66.7244 29.992C66.5995 30.0107 66.4633 30.0343 66.3157 30.0643C64.9246 30.3468 62.4953 31.1925 58.9061 33.626C58.3131 34.0281 57.5724 34.1497 56.8812 33.9586C50.7483 32.2627 44.2712 32.2627 38.1383 33.9586C37.4521 34.1483 36.7168 34.0299 36.1257 33.6343C32.5138 31.2173 30.0686 30.3668 28.6636 30.0783C28.5148 30.0478 28.3775 30.0235 28.2514 30.0043C27.5473 32.3888 27.6054 34.9491 28.4398 37.3183C28.7356 38.1583 28.5462 39.0921 27.9461 39.7519C25.7131 42.207 24.5026 45.4279 24.5672 48.7525C24.5675 48.7682 24.5677 48.7838 24.5677 48.7995C24.5677 55.8941 26.6929 59.1857 29.2789 60.9835C32.1193 62.9583 36.0116 63.5353 40.5292 64.0492C41.3674 64.1446 42.0965 64.6645 42.457 65.424C42.8175 66.1835 42.7582 67.0745 42.3002 67.78C41.0915 69.6416 40.3548 71.7716 40.1551 73.9847C40.0763 74.8577 39.5311 75.6207 38.7287 75.9809C36.4775 76.9916 34.4845 77.3376 32.5571 76.9668C30.7037 76.6103 29.2224 75.6393 27.9619 74.7309C27.648 74.5047 27.3345 74.2725 27.0164 74.0368C26.3612 73.5515 25.6863 73.0515 24.9477 72.5595C25.3774 73.4879 25.7546 74.4423 26.0766 75.4183C27.7068 79.7976 32.4469 82.1432 36.8974 80.797C37.6364 80.5735 38.438 80.7118 39.0583 81.1697C39.6787 81.6277 40.0446 82.3513 40.0446 83.1203V92.5535C40.0446 93.9442 39.3907 95.2582 38.2723 96.0979C37.1539 96.9377 35.7031 97.2032 34.3571 96.8113C24.3618 93.922 15.9678 87.9898 9.98133 80.2606C2.33951 70.3943 -1.38704 57.5894 0.4721 44.4301Z" fill="#0A0806"/>
</svg>
