<svg width="104" height="104" viewBox="0 0 104 104" fill="none" xmlns="http://www.w3.org/2000/svg">
<path fill-rule="evenodd" clip-rule="evenodd" d="M72.7998 80.5908C72.7998 78.4093 74.6054 76.6408 76.8328 76.6408H99.9669C102.194 76.6408 104 78.4093 104 80.5908V99.7764C104 101.958 102.194 103.726 99.9669 103.726H76.8328C74.6054 103.726 72.7998 101.958 72.7998 99.7764V80.5908ZM77.4089 81.1551V99.2121H99.3907V81.1551H77.4089Z" fill="#48DBB4"/>
<path fill-rule="evenodd" clip-rule="evenodd" d="M84.9873 90.2708C84.9873 88.4852 86.4308 86.8851 88.3998 86.8851C90.3688 86.8851 91.8123 88.4852 91.8123 90.2708C91.8123 92.0564 90.3688 93.6565 88.3998 93.6565C86.4308 93.6565 84.9873 92.0564 84.9873 90.2708Z" fill="#48DBB4"/>
<path fill-rule="evenodd" clip-rule="evenodd" d="M77.8818 74.3035C77.8818 68.4654 82.6785 63.7 88.6364 63.7C94.5943 63.7 99.3909 68.4654 99.3909 74.3035V78.4766C99.3909 79.7232 98.3591 80.7338 97.0864 80.7338H80.1864C78.9136 80.7338 77.8818 79.7232 77.8818 78.4766V74.3035ZM88.6364 68.2143C85.2607 68.2143 82.4909 70.9225 82.4909 74.3035V76.2195H94.7818V74.3035C94.7818 70.9225 92.0121 68.2143 88.6364 68.2143Z" fill="#48DBB4"/>
<path fill-rule="evenodd" clip-rule="evenodd" d="M39.9273 90.4519C41.8428 92.7851 41.5042 96.2294 39.1709 98.1449L33.8456 102.517C31.523 104.424 28.0967 104.098 26.175 101.788L12.7125 85.603C11.0549 86.253 9.09748 85.7857 7.92771 84.3164L3.49873 78.7534C1.63839 76.4167 1.99816 73.0194 4.30664 71.1242L53.3095 30.894C52.7874 31.3226 52.5524 32.0093 52.7022 32.6679L58.032 31.455C58.3415 32.8152 57.856 34.2335 56.7778 35.1187L7.775 75.3488L11.5161 80.0478C13.1398 79.4224 15.0481 79.8634 16.2213 81.2739L30.3773 98.2922L35.7026 93.9203L35.3173 93.4509C35.3078 93.4444 35.2876 93.4318 35.2522 93.4151C35.1589 93.3712 34.9998 93.3184 34.7626 93.281C33.0654 93.0135 31.2149 92.1775 29.6138 90.2273C27.9323 88.1791 27.6775 85.6885 28.056 83.6438C28.4249 81.6513 29.4607 79.6841 30.9577 78.4551C32.192 77.4418 34.1332 76.1045 36.4996 75.8138C39.1347 75.49 41.7358 76.5194 43.911 79.169C45.2345 80.7811 45.8058 82.7961 45.6506 84.6118L45.6426 84.705C45.6171 85.0027 45.5958 85.2511 45.583 85.469L54.1165 78.4632L40.7604 62.1947C38.8449 59.8614 39.1835 56.4171 41.5167 54.5016L59.5455 39.7005C60.8379 38.6394 62.6642 38.5245 64.0795 39.415L61.1684 44.0413C61.7444 44.4038 62.4878 44.357 63.0138 43.9251L44.9851 58.7263L58.3412 74.9948C60.2567 77.3281 59.9181 80.7723 57.5849 82.6879L48.2068 90.3871C46.1142 92.105 43.0251 91.8013 41.3072 89.7088C40.4068 88.6121 40.1803 87.3475 40.1228 86.4525C40.0713 85.6522 40.1435 84.836 40.1904 84.3056C40.1954 84.2491 40.2002 84.1959 40.2044 84.1463C40.2386 83.7464 40.1024 83.1441 39.6863 82.6373C38.53 81.2288 37.6936 81.1742 37.1662 81.239C36.37 81.3368 35.4237 81.8607 34.426 82.6798C34.0969 82.95 33.6087 83.6775 33.4307 84.6389C33.2624 85.5483 33.4378 86.2708 33.8385 86.7589C34.2072 87.208 34.5401 87.4588 34.8083 87.6079C35.0777 87.7577 35.3434 87.8391 35.6135 87.8816C36.7865 88.0665 38.3831 88.571 39.5301 89.9682L39.9273 90.4519ZM35.324 93.456C35.324 93.456 35.3234 93.4555 35.3223 93.4545L35.324 93.456Z" fill="#0A0806"/>
<path fill-rule="evenodd" clip-rule="evenodd" d="M89.4428 12.9158C82.9404 4.99545 71.2987 3.83528 63.4445 10.2834C58.9658 13.9603 56.674 19.3196 56.7368 24.7285C56.7622 26.9216 57.1753 29.1182 57.9855 31.2082L52.889 33.1838C51.8384 30.4736 51.304 27.6285 51.2711 24.7919C51.19 17.8021 54.157 10.8361 59.9761 6.05875C70.1838 -2.32148 85.2661 -0.785891 93.6675 9.44749C102.069 19.6809 100.638 34.7735 90.4302 43.1537C82.0433 50.0392 70.3681 50.2282 61.8128 44.4076L61.2747 44.1018L63.9756 39.3497L64.7141 39.7695L64.8106 39.8358C71.4359 44.3924 80.4871 44.2447 86.9619 38.9291C94.8161 32.4809 95.9453 20.8362 89.4428 12.9158Z" fill="#0A0806"/>
<path fill-rule="evenodd" clip-rule="evenodd" d="M15.3078 76.9339C14.352 75.7657 14.5242 74.0438 15.6924 73.088L32.5373 59.3058C33.7055 58.35 35.4274 58.5222 36.3832 59.6904C37.339 60.8586 37.1668 62.5804 35.9986 63.5363L19.1537 77.3185C17.9855 78.2743 16.2636 78.1021 15.3078 76.9339Z" fill="#0A0806"/>
<path fill-rule="evenodd" clip-rule="evenodd" d="M75.2374 18.5918C71.8412 18.5918 69.0881 21.3449 69.0881 24.741C69.0881 28.1372 71.8412 30.8903 75.2374 30.8903C78.6335 30.8903 81.3866 28.1372 81.3866 24.741C81.3866 21.3449 78.6335 18.5918 75.2374 18.5918ZM63.6221 24.741C63.6221 18.3261 68.8224 13.1257 75.2374 13.1257C81.6523 13.1257 86.8526 18.3261 86.8526 24.741C86.8526 31.156 81.6523 36.3563 75.2374 36.3563C68.8224 36.3563 63.6221 31.156 63.6221 24.741Z" fill="#0A0806"/>
</svg>
