<svg width="48" height="48" viewBox="0 0 48 48" fill="none" xmlns="http://www.w3.org/2000/svg">
<path fill-rule="evenodd" clip-rule="evenodd" d="M0.490451 24.0014C0.490415 23.3475 1.0205 22.8173 1.67444 22.8173L22.8158 22.8161L22.8146 1.67722C22.8146 1.02328 23.3447 0.493133 23.9986 0.493098C24.6526 0.493061 25.1827 1.02315 25.1828 1.67708L25.1839 22.816L46.3254 22.8148C46.9794 22.8148 47.5095 23.3449 47.5095 23.9988C47.5096 24.6527 46.9795 25.1829 46.3256 25.1829L25.1841 25.1841L25.1852 46.3231C25.1853 46.977 24.6552 47.5072 24.0012 47.5072C23.3473 47.5073 22.8172 46.9772 22.8171 46.3232L22.816 25.1842L1.67457 25.1854C1.02064 25.1854 0.490488 24.6553 0.490451 24.0014Z" fill="#0A0806"/>
</svg>
