<svg width="104" height="104" viewBox="0 0 104 104" fill="none" xmlns="http://www.w3.org/2000/svg">
<path fill-rule="evenodd" clip-rule="evenodd" d="M55.2437 50.2103C60.4457 47.6093 67.448 46.0765 75.0387 46.0765C82.6294 46.0765 89.6316 47.6093 94.8336 50.2103C99.8782 52.7326 104.001 56.7042 104.001 61.874V88.2031C104.001 93.3731 99.8787 97.3448 94.8341 99.8671C89.6322 102.468 82.6299 104.001 75.0387 104.001C67.4474 104.001 60.4451 102.468 55.2432 99.8671C50.1987 97.3448 46.0767 93.3731 46.0767 88.2031V61.874C46.0767 56.7042 50.1992 52.7326 55.2437 50.2103ZM51.3425 84.2866V88.2031C51.3425 90.3043 53.1138 92.915 57.5982 95.1572C61.9252 97.3207 68.0875 98.7348 75.0387 98.7348C81.9899 98.7348 88.1521 97.3207 92.4792 95.1572C96.9635 92.915 98.7349 90.3043 98.7349 88.2031V84.2866C97.5499 85.1989 96.2272 86.006 94.8341 86.7025C89.6322 89.3034 82.6299 90.836 75.0387 90.836C67.4474 90.836 60.4451 89.3034 55.2432 86.7025C53.8502 86.006 52.5275 85.1989 51.3425 84.2866ZM98.7349 75.0386C98.7349 77.1398 96.9635 79.7504 92.4792 81.9926C88.1521 84.1561 81.9899 85.5702 75.0387 85.5702C68.0875 85.5702 61.9252 84.1561 57.5982 81.9926C53.1138 79.7504 51.3425 77.1398 51.3425 75.0386V71.1215C52.5276 72.0339 53.8505 72.8411 55.2437 73.5377C60.4457 76.1387 67.448 77.6715 75.0387 77.6715C82.6294 77.6715 89.6316 76.1387 94.8336 73.5377C96.2269 72.8411 97.5497 72.0339 98.7349 71.1215V75.0386ZM57.5987 68.8278C53.1139 66.5854 51.3425 63.9748 51.3425 61.874C51.3425 59.7732 53.1139 57.1626 57.5987 54.9202C61.9259 52.7566 68.0882 51.3424 75.0387 51.3424C81.9891 51.3424 88.1515 52.7566 92.4787 54.9202C96.9634 57.1626 98.7349 59.7732 98.7349 61.874C98.7349 63.9748 96.9634 66.5854 92.4787 68.8278C88.1515 70.9914 81.9891 72.4056 75.0387 72.4056C68.0882 72.4056 61.9259 70.9914 57.5987 68.8278Z" fill="#48DBB4"/>
<path fill-rule="evenodd" clip-rule="evenodd" d="M2.63291 65.8228C4.08703 65.8228 5.26582 67.0016 5.26582 68.4557C5.26582 70.5569 7.03715 73.1675 11.5215 75.4097C15.8486 77.5732 22.0108 78.9873 28.962 78.9873C32.1013 78.9923 35.2373 78.6819 38.3146 78.0608C39.7399 77.7731 41.1286 78.6954 41.4163 80.1208C41.704 81.5462 40.7817 82.9349 39.3563 83.2226C35.9341 83.9132 32.4512 84.2585 28.96 84.2532C21.3695 84.2529 14.368 82.7203 9.16658 80.1196C4.122 77.5973 0 73.6257 0 68.4557C0 67.0016 1.17879 65.8228 2.63291 65.8228Z" fill="#0A0806"/>
<path fill-rule="evenodd" clip-rule="evenodd" d="M2.63291 52.6582C4.08703 52.6582 5.26582 53.837 5.26582 55.2911C5.26582 57.3924 7.03715 60.003 11.5215 62.2452C15.8486 64.4087 22.0108 65.8228 28.962 65.8228C32.1013 65.8277 35.2373 65.5173 38.3146 64.8962C39.7399 64.6086 41.1286 65.5309 41.4163 66.9563C41.704 68.3816 40.7817 69.7703 39.3563 70.058C35.9341 70.7487 32.4512 71.0939 28.96 71.0886C21.3695 71.0883 14.368 69.5558 9.16658 66.9551C4.122 64.4328 0 60.4611 0 55.2911C0 53.837 1.17879 52.6582 2.63291 52.6582Z" fill="#0A0806"/>
<path fill-rule="evenodd" clip-rule="evenodd" d="M2.63291 39.4937C4.08703 39.4937 5.26582 40.6725 5.26582 42.1266C5.26582 44.2278 7.03715 46.8384 11.5215 49.0806C15.8486 51.2441 22.0108 52.6582 28.962 52.6582C32.1013 52.6631 35.2373 52.3527 38.3146 51.7317C39.7399 51.444 41.1286 52.3663 41.4163 53.7917C41.704 55.2171 40.7817 56.6058 39.3563 56.8934C35.9341 57.5841 32.4512 57.9294 28.96 57.924C21.3695 57.9238 14.368 56.3912 9.16658 53.7905C4.122 51.2682 0 47.2966 0 42.1266C0 40.6725 1.17879 39.4937 2.63291 39.4937Z" fill="#0A0806"/>
<path fill-rule="evenodd" clip-rule="evenodd" d="M28.962 0C21.3713 0 14.3691 1.53277 9.16706 4.13377C4.12253 6.65603 0 10.6276 0 15.7975C0 15.8153 4.88674e-05 15.8331 0.000146471 15.8508V28.934L0 28.962L0.000146471 29.0154V84.6582C0.000146471 87.2 1.5243 89.2122 3.26755 90.6589C5.0442 92.1334 7.42055 93.3481 10.0214 94.3158C15.2422 96.2581 21.9479 97.4177 28.1993 97.4177C31.5081 97.4177 34.6714 96.8193 36.9692 96.2411C38.1275 95.9496 39.0883 95.6575 39.7654 95.436C40.1044 95.3252 40.3736 95.2316 40.5623 95.1641C40.6567 95.1304 40.731 95.1031 40.784 95.0834L40.8474 95.0597L40.8668 95.0523L40.8778 95.0481C42.235 94.5261 42.912 93.0028 42.3901 91.6456C41.8682 90.2886 40.3418 89.6129 38.9848 90.1343L38.9501 90.1473L38.7892 90.2058C38.6423 90.2583 38.4187 90.3362 38.1287 90.431C37.5478 90.621 36.7056 90.8774 35.6842 91.1344C33.6224 91.6533 30.9191 92.1519 28.1993 92.1519C22.5129 92.1519 16.4355 91.0836 11.8576 89.3804C9.55915 88.5253 7.78227 87.5627 6.63052 86.6069C5.44538 85.6233 5.26597 84.9519 5.26597 84.6582V38.2102C6.45091 39.1224 7.77357 39.9295 9.16658 40.626C14.3685 43.2269 21.3708 44.7595 28.962 44.7595C36.5533 44.7595 43.5556 43.2269 48.7575 40.626C50.1505 39.9294 51.4732 39.1224 52.6582 38.2101V42.1266C52.6582 43.5807 53.837 44.7595 55.2911 44.7595C56.7453 44.7595 57.924 43.5807 57.924 42.1266L57.924 28.962L57.924 15.8065L57.924 15.7975C57.924 10.6276 53.8015 6.65603 48.757 4.13377C43.555 1.53277 36.5527 0 28.962 0ZM52.6582 15.7975C52.6582 13.6967 50.8868 11.086 46.402 8.84367C42.0748 6.68004 35.9125 5.26582 28.962 5.26582C22.0116 5.26582 15.8493 6.68004 11.522 8.84367C7.05213 11.0786 5.2776 13.6794 5.26588 15.7766L5.26597 15.7982V15.8305C5.28442 17.9255 7.06071 20.5206 11.522 22.7513C15.8493 24.9149 22.0116 26.3291 28.962 26.3291C35.9125 26.3291 42.0748 24.9149 46.402 22.7513C50.8868 20.5089 52.6582 17.8982 52.6582 15.7975ZM5.26597 25.0451V28.995C5.28442 31.0905 7.0606 33.6856 11.5215 35.9161C15.8486 38.0796 22.0108 39.4937 28.962 39.4937C35.9132 39.4937 42.0755 38.0796 46.4025 35.9161C50.8869 33.6739 52.6582 31.0632 52.6582 28.962V25.045C51.4731 25.9574 50.1502 26.7646 48.757 27.4612C43.555 30.0622 36.5527 31.5949 28.962 31.5949C21.3713 31.5949 14.3691 30.0622 9.16706 27.4612C7.7739 26.7646 6.45107 25.9575 5.26597 25.0451Z" fill="#0A0806"/>
</svg>
