<svg width="104" height="104" viewBox="0 0 104 104" fill="none" xmlns="http://www.w3.org/2000/svg">
<path fill-rule="evenodd" clip-rule="evenodd" d="M74.501 83.1625C74.501 81.1977 76.1357 79.6049 78.1522 79.6049H99.0967C101.113 79.6049 102.748 81.1977 102.748 83.1625V100.442C102.748 102.407 101.113 104 99.0967 104H78.1522C76.1357 104 74.501 102.407 74.501 100.442V83.1625ZM78.6738 83.6707V99.9341H98.5751V83.6707H78.6738Z" fill="#48DBB4"/>
<path fill-rule="evenodd" clip-rule="evenodd" d="M85.6709 90.3695C85.6709 88.733 86.9938 87.2666 88.7984 87.2666C90.603 87.2666 91.9259 88.733 91.9259 90.3695C91.9259 92.006 90.603 93.4725 88.7984 93.4725C86.9938 93.4725 85.6709 92.006 85.6709 90.3695Z" fill="#48DBB4"/>
<path fill-rule="evenodd" clip-rule="evenodd" d="M79.6332 82.0404C79.6332 82.0404 78.1242 79.5232 77.56 77.7884C76.9975 76.0591 76.6605 73.9387 77.1758 71.7341C77.7063 69.4644 79.0823 67.3591 81.4956 65.6514C83.858 63.9797 86.2102 63.3253 88.4494 63.5292C90.6415 63.7288 92.4261 64.7234 93.7601 65.8088C95.0915 66.892 96.083 68.1518 96.729 69.1017C97.0572 69.5843 97.3091 70.006 97.4825 70.3141C97.5694 70.4686 97.6374 70.5958 97.6859 70.6893C97.7102 70.736 97.7297 70.7744 97.7443 70.8037L97.7627 70.8408L97.7692 70.854L97.7718 70.8593L97.7729 70.8616C97.7729 70.8616 97.7739 70.8636 95.4633 71.9835L97.7739 70.8636C98.3883 72.1356 97.852 73.6682 96.5759 74.2867C95.3025 74.9039 93.7737 74.3776 93.1567 73.1113L93.1548 73.1077C93.1512 73.1004 93.1433 73.0848 93.1312 73.0615C93.107 73.0148 93.0661 72.9379 93.009 72.8365C92.8945 72.6329 92.7176 72.336 92.4827 71.9905C92.0024 71.2843 91.3302 70.4508 90.5115 69.7846C89.6955 69.1207 88.8438 68.7101 87.9644 68.63C87.1322 68.5543 85.978 68.7457 84.4502 69.8268C82.9732 70.872 82.3901 71.9393 82.1702 72.8802C81.9351 73.8861 82.0564 75.0142 82.4386 76.1893C82.819 77.3588 83.4123 78.4326 83.9357 79.236C84.193 79.631 84.5836 80.1538 84.5836 80.1538L79.6332 82.0404Z" fill="#48DBB4"/>
<path fill-rule="evenodd" clip-rule="evenodd" d="M74.4848 57.7778V38.5186H79.6206V57.7778H74.4848Z" fill="#48DBB4"/>
<path fill-rule="evenodd" clip-rule="evenodd" d="M19.2753 57.7778V38.5186H24.4111V57.7778H19.2753Z" fill="#48DBB4"/>
<path fill-rule="evenodd" clip-rule="evenodd" d="M38.5344 16.9642L59.0776 16.9642V22.1L38.5344 22.1V16.9642Z" fill="#48DBB4"/>
<path fill-rule="evenodd" clip-rule="evenodd" d="M38.5344 72.8642H59.0776V78H38.5344V72.8642Z" fill="#48DBB4"/>
<path fill-rule="evenodd" clip-rule="evenodd" d="M1.2998 7.7037C1.2998 3.44906 4.74887 0 9.00351 0H33.3986C37.6532 0 41.1023 3.44907 41.1023 7.7037V32.0988C41.1023 36.3534 37.6532 39.8025 33.3986 39.8025H9.00351C4.74887 39.8025 1.2998 36.3534 1.2998 32.0988V7.7037ZM9.00351 5.1358C7.5853 5.1358 6.43561 6.28549 6.43561 7.7037V32.0988C6.43561 33.517 7.5853 34.6667 9.00351 34.6667H33.3986C34.8168 34.6667 35.9665 33.517 35.9665 32.0988V7.7037C35.9665 6.28549 34.8168 5.1358 33.3986 5.1358H9.00351Z" fill="#0A0806"/>
<path fill-rule="evenodd" clip-rule="evenodd" d="M1.2998 62.3037C1.2998 58.049 4.74887 54.6 9.00351 54.6H33.3986C37.6532 54.6 41.1023 58.049 41.1023 62.3037V86.6987C41.1023 90.9534 37.6532 94.4025 33.3986 94.4025H9.00351C4.74887 94.4025 1.2998 90.9534 1.2998 86.6987V62.3037ZM9.00351 59.7358C7.5853 59.7358 6.43561 60.8855 6.43561 62.3037V86.6987C6.43561 88.117 7.5853 89.2666 9.00351 89.2666H33.3986C34.8168 89.2666 35.9665 88.117 35.9665 86.6987V62.3037C35.9665 60.8855 34.8168 59.7358 33.3986 59.7358H9.00351Z" fill="#0A0806"/>
<path fill-rule="evenodd" clip-rule="evenodd" d="M56.5098 7.7037C56.5098 3.44906 59.9588 0 64.2135 0H88.6085C92.8632 0 96.3122 3.44907 96.3122 7.7037V32.0988C96.3122 36.3534 92.8632 39.8025 88.6085 39.8025H64.2135C59.9588 39.8025 56.5098 36.3534 56.5098 32.0988V7.7037ZM64.2135 5.1358C62.7953 5.1358 61.6456 6.28549 61.6456 7.7037V32.0988C61.6456 33.517 62.7953 34.6667 64.2135 34.6667H88.6085C90.0267 34.6667 91.1764 33.517 91.1764 32.0988V7.7037C91.1764 6.28549 90.0267 5.1358 88.6085 5.1358H64.2135Z" fill="#0A0806"/>
<path fill-rule="evenodd" clip-rule="evenodd" d="M56.5098 62.3037C56.5098 58.049 59.9588 54.6 64.2135 54.6H91.1764C92.5946 54.6 93.7443 55.7497 93.7443 57.1679C93.7443 58.5861 92.5946 59.7358 91.1764 59.7358H64.2135C62.7953 59.7358 61.6456 60.8855 61.6456 62.3037V86.6987C61.6456 88.117 62.7953 89.2666 64.2135 89.2666H67.4233C68.8416 89.2666 69.9912 90.4163 69.9912 91.8345C69.9912 93.2528 68.8416 94.4025 67.4233 94.4025H64.2135C59.9588 94.4025 56.5098 90.9534 56.5098 86.6987V62.3037Z" fill="#0A0806"/>
</svg>
