<svg width="104" height="104" viewBox="0 0 104 104" fill="none" xmlns="http://www.w3.org/2000/svg">
<path fill-rule="evenodd" clip-rule="evenodd" d="M51.237 13.1283C52.0131 12.6034 53.0631 12.6035 53.8391 13.1286C59.7787 17.148 64.424 19.1204 68.8814 20.1203C73.39 21.1316 77.8306 21.182 83.5526 21.182C84.7764 21.182 85.7684 22.1073 85.7684 23.2486V59.4089C85.9731 69.9091 79.3599 76.3586 72.2098 80.8259C68.9258 82.8777 65.4348 84.5718 62.361 86.0634C62.1036 86.1883 61.849 86.3118 61.5978 86.434C58.2396 88.0672 55.6241 89.3966 54.0151 90.739C53.1739 91.4407 51.9016 91.4407 51.0605 90.739C49.4515 89.3966 46.8358 88.0673 43.4773 86.434C43.2261 86.3118 42.9716 86.1884 42.7142 86.0635C39.6401 84.5718 36.1485 82.8775 32.8639 80.8254C25.7128 76.3576 19.0988 69.9073 19.3035 59.4052V23.2486C19.3035 22.1073 20.2955 21.182 21.5193 21.182C27.2413 21.182 31.6809 21.1316 36.1896 20.1203C40.6471 19.1204 45.2935 17.1479 51.237 13.1283ZM23.7351 25.311V59.4244C23.7351 59.4374 23.7349 59.4504 23.7347 59.4635C23.5626 67.9415 28.7382 73.2729 35.3303 77.3915C38.4015 79.3103 41.6834 80.9034 44.7915 82.4122C45.0376 82.5317 45.2825 82.6506 45.5262 82.7691C48.0575 84.0001 50.5597 85.2343 52.5378 86.5616C54.5157 85.2343 57.0177 84.0001 59.5487 82.7692C59.7925 82.6506 60.0376 82.5316 60.2837 82.4121C63.3914 80.9035 66.6728 79.3104 69.7434 77.392C76.3346 73.2738 81.5093 67.9433 81.3372 59.4672C81.3369 59.4541 81.3368 59.4411 81.3368 59.428V25.311C76.5745 25.2868 72.264 25.1301 67.8451 24.1389C63.0589 23.0653 58.2519 21.0422 52.5374 17.3362C46.8199 21.0422 42.0121 23.0653 37.2258 24.1389C32.807 25.1301 28.4972 25.2868 23.7351 25.311Z" fill="#48DBB4"/>
<path fill-rule="evenodd" clip-rule="evenodd" d="M51.2255 0.397091C52.0106 -0.132493 53.0668 -0.132351 53.8518 0.397442C61.8946 5.82579 68.2268 8.51703 74.335 9.88357C80.4953 11.2617 86.5513 11.3265 94.2342 11.3265C95.4792 11.3265 96.4885 12.2768 96.4885 13.449V61.9402C96.7599 75.7159 88.0875 84.1888 78.5714 90.1187C74.1916 92.8478 69.5332 95.1026 65.3959 97.1051C65.0513 97.2719 64.7104 97.4369 64.3735 97.6003C59.8821 99.7789 56.2753 101.601 54.0312 103.468C53.1786 104.177 51.8981 104.177 51.0455 103.468C48.8015 101.601 45.1944 99.779 40.7025 97.6003C40.3658 97.437 40.025 97.272 39.6806 97.1053C35.5427 95.1027 30.8835 92.8477 26.5029 90.1181C16.9854 84.1875 8.31176 75.7133 8.58336 61.9349V13.449C8.58336 12.2768 9.59264 11.3265 10.8377 11.3265C18.5205 11.3265 24.5753 11.2617 30.7356 9.88357C36.8439 8.517 43.1775 5.82567 51.2255 0.397091ZM13.0919 15.5686V61.9549C13.0919 61.9684 13.0918 61.982 13.0915 61.9956C12.8539 73.6701 20.0313 80.9951 28.9913 86.5782C33.1551 89.1728 37.6018 91.3256 41.7742 93.3456C42.1071 93.5068 42.4382 93.6671 42.7673 93.8267C46.3856 95.5816 49.8814 97.3065 52.5384 99.1566C55.1953 97.3066 58.6907 95.5817 62.3087 93.8268C62.6378 93.6671 62.9691 93.5068 63.302 93.3455C67.4739 91.3256 71.9198 89.1731 76.083 86.5788C85.0418 80.9963 92.2179 73.6725 91.9803 62.0005C91.98 61.9869 91.9799 61.9734 91.9799 61.9598V15.5686C85.296 15.5473 79.3676 15.3726 73.2927 14.0135C66.8492 12.5719 60.3509 9.82841 52.538 4.71993C44.7208 9.82841 38.2214 12.5719 31.7779 14.0135C25.703 15.3726 19.7756 15.5473 13.0919 15.5686Z" fill="#0A0806"/>
</svg>
