<svg width="247" height="82" viewBox="0 0 247 82" fill="none" xmlns="http://www.w3.org/2000/svg">
<path d="M14.6553 47.0543C4.3225 43.5283 0 38.9773 0 30.3673C0 21.4703 6.46317 14.0493 18.772 14.0493C23.7532 14.0493 27.5405 15.4843 29.8458 16.7963C30.7515 17.2883 31.4925 17.6163 31.8218 17.6163C32.6452 17.6163 33.3038 17.2883 33.5508 15.1973C33.6332 14.5413 33.7978 14.4593 34.2918 14.4593C34.7858 14.4593 34.8682 14.6233 34.8682 15.0333C34.8682 15.9353 34.7858 19.5433 34.7858 22.5773C34.7858 25.9393 34.8682 28.6863 34.8682 30.0393C34.8682 30.6133 34.7858 30.7773 34.2095 30.7773C33.7155 30.7773 33.6332 30.6133 33.5508 29.8753C32.8922 24.5043 31.4925 21.6753 28.9813 19.1333C26.5937 16.7963 22.8475 15.3613 18.7308 15.3613C10.4563 15.3613 5.47517 19.1333 5.47517 25.0783C5.47517 29.3423 6.7925 32.0483 15.808 35.2053L22.0242 37.4603C33.0157 41.3963 38.4908 45.2503 38.4908 54.8033C38.4908 64.4383 31.863 71.8183 19.0602 71.8183C13.4203 71.8183 8.48033 70.1373 5.8045 68.7023C4.8165 68.1283 3.5815 67.8823 3.16983 67.8823C2.26417 67.8823 1.6055 68.2103 1.44083 70.3833C1.44083 71.1213 1.19383 71.2033 0.782166 71.2033C0.288166 71.2033 0.1235 71.0393 0.1235 70.6293C0.1235 69.8093 0.288167 65.7503 0.288167 62.4293C0.288167 58.8213 0.1235 55.9923 0.1235 54.5573C0.1235 53.9013 0.3705 53.7373 0.8645 53.7373C1.27617 53.7373 1.3585 53.9013 1.44083 54.6803C2.26417 60.4613 3.5815 63.2903 6.33967 65.9963C8.97433 68.4973 15.0258 70.5063 19.1837 70.5063C28.1992 70.5063 32.851 65.7503 32.851 60.1333C32.851 55.6233 31.0397 52.7533 21.5302 49.4733L14.6553 47.0543ZM47.5063 57.2633C47.5063 58.9443 47.5063 61.8553 47.671 63.5363C48.0827 68.5793 50.5527 71.7363 58.6625 71.7363C61.9558 71.7363 64.961 70.9163 67.3487 68.7023C67.925 68.2103 68.2543 67.6773 68.2543 67.3493C68.2543 67.0213 67.925 66.7753 67.678 66.7753C67.431 66.7753 67.2663 66.9393 67.1017 67.1853C66.443 68.0053 65.7843 68.6203 64.961 69.1123C64.1377 69.6043 62.985 69.9323 61.997 69.9323C60.4327 69.9323 59.1153 69.3583 58.7037 67.4313C58.3743 66.2423 58.292 63.7413 58.292 60.7483V33.6883H65.9902C66.3195 33.6883 66.4842 33.5243 66.4842 33.0323C66.4842 32.5403 66.3195 32.3763 65.9902 32.3763H58.292V22.4133C58.292 22.1673 58.292 21.8393 58.2097 21.6753C58.1273 21.5113 57.798 21.4293 57.304 21.4293C56.6453 21.4293 56.3983 21.6753 56.1513 22.3313C54.2577 27.3743 53.105 29.0143 50.3468 30.6953C49.2765 31.3513 46.8065 32.3763 42.1547 32.6223C41.8253 32.6223 41.6607 32.7043 41.6607 33.1143C41.6607 33.5243 41.743 33.6883 41.99 33.6883H47.4652V57.2633H47.5063ZM91.3488 51.7283C88.0555 51.7283 85.215 52.0563 83.8977 52.8353C82.1687 53.7783 80.8513 56.0333 80.8513 61.1173C80.8513 67.4723 82.745 69.8503 85.8325 69.8503C89.2905 69.8503 91.2253 67.9233 92.4603 65.0943C93.119 63.5773 93.613 60.3383 93.613 57.3863V51.7693C93.2837 51.8103 92.5427 51.7283 91.3488 51.7283ZM83.4037 71.7773C73.6472 71.7773 70.4773 66.4883 70.4773 61.1173C70.4773 56.6073 72.2887 54.2293 74.8822 52.9173C77.8462 51.4003 82.745 50.6623 93.5718 50.6623V41.6013C93.5718 37.9933 93.2425 36.3123 92.9132 35.4103C91.9252 33.1553 89.9492 32.4583 87.2733 32.4583C84.721 32.4583 82.9508 32.9503 81.6335 34.0573C79.9868 35.4103 79.5752 37.5833 79.5752 41.9293C79.5752 44.7583 77.9285 45.2913 76.1172 45.2913C74.0588 45.2913 72.9062 44.2663 72.9062 42.0113C72.9062 36.3123 77.311 31.3513 88.9612 31.3513C96.1653 31.3513 101.229 33.4423 103.04 36.9683C103.863 38.5673 104.357 40.9043 104.357 44.1023C104.357 47.5463 104.193 63.8643 104.193 65.4633C104.193 68.5793 104.769 69.6453 106.58 69.6453C107.486 69.6453 108.392 69.3173 109.05 68.7433C109.544 68.2513 109.709 68.0053 110.121 68.0053C110.45 68.0053 110.697 68.3333 110.697 68.6613C110.697 68.9893 110.532 69.3173 110.038 69.6043C108.145 70.8753 104.728 71.5313 102.67 71.5313C96.3712 71.5313 94.3128 69.5223 93.5718 65.5043C91.6782 69.8503 87.8085 71.7773 83.4037 71.7773ZM128.893 64.4793V50.4163H130.292C131.445 50.4163 132.269 50.9083 132.845 51.8513L141.696 65.9143C142.354 66.8573 142.766 67.5953 142.766 68.3333C142.766 68.9073 142.437 69.2763 141.86 69.4403C141.119 69.6043 140.378 69.6863 138.814 69.6863C138.402 69.6863 138.32 69.7683 138.32 70.2603C138.32 70.6703 138.485 70.7523 138.814 70.7523C140.872 70.6703 147.253 70.6703 149.394 70.6703C151.535 70.6703 157.586 70.7523 160.056 70.7523C160.385 70.7523 160.468 70.6703 160.468 70.2603C160.468 69.7683 160.303 69.6863 159.727 69.6863C157.915 69.6863 156.516 69.2763 154.334 65.9963L140.008 44.6353L147.047 37.1733C148.447 35.7383 149.847 34.5903 150.835 34.1393C151.658 33.7293 152.893 33.4013 154.046 33.3193C154.54 33.3193 154.787 33.2373 154.787 32.8273C154.787 32.4173 154.622 32.3353 154.293 32.3353C153.387 32.3353 150.752 32.4173 147.912 32.4173C144.289 32.4173 141.531 32.3353 140.296 32.3353C139.967 32.3353 139.802 32.4173 139.802 32.8273C139.802 33.1553 139.884 33.3193 140.378 33.3193C141.366 33.4013 142.19 33.4833 143.013 33.6473C144.33 33.9753 144.907 34.5903 144.907 35.4103C144.907 36.3533 144.495 37.5013 143.013 39.2643C139.473 43.6103 135.973 47.1363 135.068 47.9153C134.08 48.8173 133.092 49.2683 131.363 49.2683H128.975V24.1353C128.975 17.6163 129.305 12.2453 129.305 11.6303C129.305 11.0563 129.058 10.9743 128.728 10.9743C127.905 10.9743 121.524 11.3843 113.085 11.3843C112.838 11.3843 112.755 11.6303 112.755 11.8763C112.755 12.2863 112.838 12.4503 113.167 12.4503C115.802 12.4503 116.872 12.5323 117.407 13.0243C117.984 13.5983 118.148 14.1313 118.148 18.3133V64.4793C118.148 66.5703 117.984 67.6773 117.654 68.5793C117.16 69.5223 116.172 69.6863 113.002 69.6863C112.756 69.6863 112.591 69.7683 112.591 70.2603C112.591 70.6703 112.673 70.7523 113.002 70.7523C115.061 70.7523 121.112 70.6703 123.5 70.6703C126.217 70.6703 133.174 70.7523 134.327 70.7523C134.656 70.7523 134.738 70.5883 134.738 70.2603C134.738 69.7683 134.656 69.6863 134.327 69.6863C130.786 69.6863 129.757 69.1943 129.428 68.5793C128.893 67.7183 128.893 66.8163 128.893 64.4793ZM183.768 49.4733C186.32 49.4733 186.732 48.5303 186.732 46.1113C186.732 36.7223 185.744 32.4583 180.433 32.4583C175.535 32.4583 172.406 35.2053 171.912 49.4733H183.768ZM182.574 70.4243C188.543 70.4243 193.566 65.9143 194.307 60.0513C194.471 58.8623 194.801 58.2063 196.036 58.2063C196.859 58.2063 197.435 58.7803 197.435 59.4773C197.435 60.1743 197.271 61.4043 196.612 62.8393C194.471 67.5133 189.49 71.7363 180.557 71.7363C167.631 71.7363 160.509 63.2903 160.509 52.2203C160.509 40.7403 167.631 31.2693 180.639 31.2693C190.478 31.2693 197.353 36.9683 197.353 46.8493C197.353 48.4483 197.188 49.3503 196.53 49.9653C196.2 50.2933 195.377 50.6213 193.319 50.6213H171.953C171.912 68.6613 176.646 70.4243 182.574 70.4243ZM229.381 39.6743C228.063 35.4103 225.676 32.7863 221.682 32.7863C216.866 32.7863 213.984 36.2303 213.984 51.9743C213.984 67.8003 217.278 70.2603 221.106 70.2603C224.646 70.2603 228.475 67.5953 229.628 60.7073C230.204 57.4273 230.451 54.3523 230.451 50.2523C230.451 45.1273 230.204 42.0113 229.381 39.6743ZM219.459 71.7773C209.785 71.7773 202.334 64.8893 202.334 52.0973C202.334 39.8793 209.868 31.3103 220.447 31.3103C225.593 31.3103 228.969 33.8933 230.451 38.1983V18.2723C230.451 14.0903 230.369 13.5163 229.71 12.9833C229.134 12.4913 227.24 12.4093 225.47 12.4093C225.141 12.4093 225.058 12.2453 225.058 11.8353C225.058 11.5893 225.141 11.3433 225.387 11.3433C232.592 11.3433 240.208 10.9333 241.113 10.9333C241.443 10.9333 241.607 11.0973 241.607 11.5893C241.607 11.9173 241.278 18.2723 241.278 22.5773V64.4793C241.278 66.8163 241.278 67.6773 241.689 68.5793C242.019 69.2353 242.76 69.6863 246.588 69.6863C246.918 69.6863 247 69.7683 247 70.2603C247 70.5883 246.918 70.7523 246.588 70.7523C239.384 70.7523 233.003 71.1623 231.274 71.1623C230.78 71.1623 230.451 70.9163 230.451 70.3423C230.451 69.4403 230.533 67.1443 230.616 63.5363C228.64 68.9073 225.058 71.7773 219.459 71.7773Z" fill="#0A0806"/>
</svg>
