<svg width="104" height="104" viewBox="0 0 104 104" fill="none" xmlns="http://www.w3.org/2000/svg">
<path fill-rule="evenodd" clip-rule="evenodd" d="M65.4706 18.8578C57.5856 16.8159 49.2431 19.204 43.4944 25.1484C37.7457 31.0929 35.4339 39.7218 37.4044 47.8793C37.7249 49.2061 36.9451 50.5504 35.6627 50.882C34.3803 51.2135 33.0809 50.4068 32.7604 49.08C30.3821 39.2345 33.1723 28.82 40.1104 21.6457C47.0485 14.4713 57.1168 11.5893 66.6329 14.0536C67.9152 14.3857 68.6946 15.7303 68.3736 17.0569C68.0526 18.3836 66.7529 19.1898 65.4706 18.8578Z" fill="#48DBB4"/>
<path fill-rule="evenodd" clip-rule="evenodd" d="M86.1045 36.4694C87.3373 36.1609 88.5868 36.9099 88.8955 38.1425C91.1857 47.289 88.5072 56.9661 81.8396 63.6345C75.172 70.3029 65.4933 72.9846 56.3434 70.6988C55.1105 70.3908 54.3607 69.1418 54.6688 67.9091C54.9769 66.6764 56.2261 65.9268 57.459 66.2348C65.0406 68.1288 73.0602 65.9067 78.5848 60.3815C84.1094 54.8562 86.3287 46.8382 84.4311 39.2599C84.1225 38.0273 84.8717 36.778 86.1045 36.4694Z" fill="#48DBB4"/>
<path fill-rule="evenodd" clip-rule="evenodd" d="M31.0872 12.3159C38.9459 4.18629 49.6796 -0.260007 60.7902 0.011766L60.7337 2.48447L60.7882 0.0117174C60.7889 0.0117332 60.7895 0.0117499 60.7902 0.011766C63.7171 0.0818787 66.0953 2.47859 66.239 5.50431L66.2396 5.51751L66.2396 5.51751C66.4822 11.2487 68.2391 16.8015 71.3194 21.5719C72.0536 22.7091 71.7578 24.2468 70.6587 25.0064C69.5595 25.7661 68.0732 25.46 67.3389 24.3229C63.774 18.8019 61.74 12.3758 61.4577 5.74299C61.4578 5.74444 61.4578 5.7459 61.4579 5.74736L63.8484 5.62583L61.4573 5.73416C61.4574 5.7371 61.4576 5.74004 61.4577 5.74299C61.4351 5.31299 61.0962 4.97265 60.6791 4.96281L60.6771 4.96276C50.8747 4.72299 41.405 8.64573 34.4718 15.818C27.5387 22.9902 23.7468 32.7863 23.9785 42.9264L23.9787 42.9313C23.9877 43.3623 24.3177 43.7128 24.7342 43.7334C24.7335 43.7333 24.7328 43.7333 24.7321 43.7333L24.6282 46.2071L24.6282 46.2072L24.6282 46.2071L24.7363 43.7335C24.7356 43.7334 24.7349 43.7334 24.7342 43.7334C31.1447 44.0218 37.3561 46.123 42.6928 49.8085C43.7922 50.5678 44.0885 52.1053 43.3546 53.2428C42.6207 54.3802 41.1346 54.6868 40.0351 53.9275C35.4259 50.7444 30.0612 48.9297 24.5244 48.681L24.5202 48.6808C21.5868 48.5436 19.2578 46.0782 19.193 43.041C18.9309 31.548 23.229 20.445 31.0872 12.3159Z" fill="#0A0806"/>
<path fill-rule="evenodd" clip-rule="evenodd" d="M92.0945 75.457C84.2358 83.5867 73.5021 88.033 62.3914 87.7612L62.4479 85.2885L62.3934 87.7612C62.3928 87.7612 62.3921 87.7612 62.3914 87.7612C59.4645 87.6911 57.0863 85.2944 56.9426 82.2686L56.942 82.2554L56.9421 82.2554C56.6995 76.5242 54.9425 70.9715 51.8623 66.201C51.128 65.0639 51.4238 63.5262 52.523 62.7665C53.6221 62.0069 55.1084 62.3129 55.8427 63.4501C59.4076 68.9711 61.4417 75.3971 61.724 82.03C61.7239 82.0285 61.7238 82.027 61.7237 82.0256L59.3332 82.1471L61.7243 82.0388C61.7242 82.0358 61.7241 82.0329 61.724 82.03C61.7466 82.46 62.0854 82.8003 62.5026 82.8101L62.5046 82.8102C72.3069 83.05 81.7766 79.1272 88.7098 71.955C95.643 64.7828 99.4349 54.9867 99.2031 44.8466L99.203 44.8417C99.194 44.4107 98.864 44.0602 98.4474 44.0396C98.4482 44.0396 98.4489 44.0396 98.4496 44.0397L98.5534 41.5658L98.5534 41.5657L98.5534 41.5658L98.4453 44.0395C98.446 44.0395 98.4467 44.0395 98.4474 44.0396C92.0369 43.7512 85.8256 41.65 80.4889 37.9644C79.3895 37.2052 79.0931 35.6676 79.827 34.5302C80.5609 33.3927 82.0471 33.0862 83.1465 33.8454C87.7557 37.0286 93.1205 38.8432 98.6572 39.0919L98.6615 39.0921C101.595 39.2293 103.924 41.6948 103.989 44.7319C104.251 56.225 99.9526 67.3279 92.0945 75.457Z" fill="#0A0806"/>
<path fill-rule="evenodd" clip-rule="evenodd" d="M76.3692 20.5073L7.25565 91.9994C7.25563 91.9995 7.25561 91.9995 7.2556 91.9995C5.69701 93.6119 5.69703 96.2259 7.25565 97.8383C8.81441 99.4508 11.3418 99.4508 12.9005 97.8383L82.01 26.3415C83.5087 24.7215 83.4829 22.1579 81.9485 20.5707C80.414 18.9832 77.9353 18.9565 76.3692 20.5073ZM73.0307 16.9581C76.4743 13.5175 81.9479 13.5667 85.3332 17.0687C88.7186 20.5708 88.7662 26.2336 85.4401 29.796C85.4305 29.8063 85.4208 29.8165 85.411 29.8267L16.2852 101.34L16.2852 101.34C12.8571 104.887 7.2991 104.887 3.87098 101.34C0.442745 97.7939 0.442745 92.0439 3.87098 88.4974L3.87103 88.4974L73.001 16.9882C73.0108 16.9781 73.0207 16.968 73.0307 16.9581Z" fill="#0A0806"/>
</svg>
