<svg width="104" height="104" viewBox="0 0 104 104" fill="none" xmlns="http://www.w3.org/2000/svg">
<path fill-rule="evenodd" clip-rule="evenodd" d="M39.6924 34.4899C40.3821 34.0662 41.2513 34.0662 41.941 34.4899L52.6452 41.065C52.9231 41.2279 53.1682 41.4558 53.3554 41.7426C53.3777 41.7768 53.3991 41.8116 53.4194 41.847C53.6192 42.1941 53.7114 42.5751 53.7053 42.9503V56.1127C53.7053 56.8593 53.3177 57.5523 52.6815 57.9431L41.9761 64.5191C41.6416 64.7339 41.2437 64.8585 40.8167 64.8585C40.3897 64.8585 39.9917 64.7339 39.6573 64.5191L28.9518 57.9431C28.3157 57.5523 27.9281 56.8593 27.9281 56.1127V42.9532C27.9212 42.5576 28.0233 42.1555 28.2458 41.7934C28.4369 41.4822 28.6946 41.2368 28.9892 41.0644L39.6924 34.4899ZM42.9648 58.8697L49.4091 54.9112V46.7582L42.9648 50.7167V58.8697ZM38.6686 50.7167V58.8697L32.2243 54.9112V46.7582L38.6686 50.7167ZM40.8167 38.8412L47.4531 42.9177L40.8167 46.9942L34.1803 42.9177L40.8167 38.8412Z" fill="#0A0806"/>
<path fill-rule="evenodd" clip-rule="evenodd" d="M65.8952 6.51181C68.1 9.1174 68.4158 13.0413 67.4692 16.3424C67.0038 17.9655 65.6686 18.9475 64.3193 19.2243L54.7594 21.1851C55.3635 23.7853 56.3862 26.9818 57.6591 30.1924C59.3004 34.3322 61.2786 38.2951 63.1517 40.8944C63.8599 41.8772 63.6587 43.2638 62.7022 43.9916C61.7457 44.7193 60.3962 44.5125 59.688 43.5297C57.5097 40.5071 55.372 36.1619 53.6677 31.8632C52.3243 28.4749 51.2012 24.9912 50.5304 22.0526L19.0328 28.5131L19.025 28.5148C18.118 28.7026 17.2506 28.3484 16.7077 27.6994C16.2009 27.0936 16.0088 26.2808 16.1713 25.5115C16.1761 25.4887 16.1813 25.4659 16.1869 25.4432C16.5105 24.1156 16.4404 21.8001 15.4408 20.0977L15.4356 20.0887C14.123 17.8293 11.6223 16.3626 9.14801 16.8644L9.13394 16.8671C7.22361 17.2658 6.068 18.2464 5.34564 19.5905C4.57192 21.0301 4.21383 23.0547 4.33201 25.5546C4.56554 30.3421 6.5223 35.2975 9.53024 40.475C12.5217 45.6241 16.4285 50.7908 20.4134 56.0608L20.472 56.1382C24.4377 61.3828 28.4829 66.7379 31.522 72.0687C34.5573 77.3927 36.7299 82.9265 36.7239 88.5501C36.7234 91.2503 35.9633 93.9486 34.6075 96.2548L73.1721 88.3942C76.9314 87.619 79.6865 83.5108 80.1344 78.5936C80.5285 74.3052 78.877 71.8557 76.9416 68.9872C76.5597 68.4212 76.1668 67.8389 75.7763 67.2229C75.1268 66.1981 75.4089 64.8263 76.4062 64.159C77.4036 63.4917 78.7386 63.7814 79.388 64.8063C79.6726 65.2552 79.9959 65.7261 80.3386 66.2251C82.3326 69.1286 84.9792 72.9821 84.4254 79.0081C83.8822 84.9714 80.387 91.4251 74.0189 92.7364L74.0148 92.7372L26.9765 102.325C26.7563 102.384 26.5334 102.438 26.3078 102.484C19.7998 103.824 14.4849 98.7375 14.0807 92.4706C13.9487 90.7429 14.1795 88.7981 14.3675 87.5723C14.649 85.7368 16.0297 84.3989 17.6769 84.0484C17.6769 84.0484 27.4375 81.7519 30.5985 81.0617L30.9456 80.9428C30.1663 78.7916 29.1001 76.5819 27.8032 74.3071C24.933 69.2726 21.0735 64.1518 17.0686 58.8552L16.9197 58.6584C13.0004 53.4755 8.95716 48.1285 5.82953 42.7449C2.66448 37.2969 0.31136 31.6068 0.0273882 25.7744L0.0271909 25.7713C-0.113019 22.8086 0.272361 19.8693 1.57272 17.4497C2.92195 14.9391 5.16557 13.1677 8.30735 12.5208L8.33444 12.5154L56.0211 2.7953C60.0368 1.97454 63.6664 3.84101 65.8952 6.51181ZM32.1463 85.4092C32.1501 85.4321 32.1538 85.4549 32.1576 85.4778C32.1531 85.455 32.1486 85.4321 32.144 85.409L32.1463 85.4092ZM18.6081 88.3728C18.438 89.5118 18.2886 90.9819 18.3782 92.1343L18.3805 92.1675C18.6252 96.0452 21.6954 98.7552 25.2045 98.1889C25.2888 98.1601 25.3757 98.1366 25.4651 98.1184L25.9816 98.0131C29.6196 96.9618 32.4139 92.9359 32.4139 88.5476V88.5452C32.415 87.5355 32.3272 86.5133 32.1576 85.4778C29.5705 86.0281 18.6081 88.3728 18.6081 88.3728ZM18.6081 88.3728L18.625 88.2615C18.6218 88.2818 18.615 88.3035 18.605 88.3236C18.5985 88.3366 18.5915 88.3472 18.5848 88.3557C18.5816 88.3598 18.5755 88.3665 18.5755 88.3665C18.5616 88.381 18.5516 88.3849 18.5516 88.3849L18.6081 88.3728ZM17.0957 15.2444C17.9072 16.0145 18.5967 16.8908 19.1337 17.8143C20.2233 19.6723 20.6437 21.795 20.667 23.6621L63.3875 14.8995C63.9873 12.6161 63.5635 10.5028 62.64 9.41432L62.6272 9.39925C61.1923 7.67665 59.0489 6.69142 56.8626 7.13863L17.0957 15.2444Z" fill="#0A0806"/>
<path fill-rule="evenodd" clip-rule="evenodd" d="M82.0685 47.7395C82.9877 48.3816 83.1847 49.6272 82.5084 50.5216L64.4866 74.3563C63.8104 75.2507 62.517 75.4552 61.5978 74.8131C60.6786 74.171 60.4816 72.9255 61.1579 72.0311L79.1797 48.1963C79.8559 47.3019 81.1493 47.0974 82.0685 47.7395Z" fill="#48DBB4"/>
<path fill-rule="evenodd" clip-rule="evenodd" d="M68.1501 41.1772C73.5003 31.4907 84.1936 22.4592 100.474 21.6798C101.436 21.6338 102.295 22.2343 102.547 23.1278C106.819 38.3079 101.081 50.8146 93.0414 58.6199C89.0385 62.5063 84.4166 65.2792 80.0869 66.6466C75.8493 67.9849 71.4333 68.0997 68.3202 65.9255C65.199 63.7456 63.9837 59.6792 64.045 55.4107C64.1076 51.0507 65.4856 46.0013 68.1501 41.1772ZM68.1771 55.4196C68.1235 59.1502 69.2244 61.6077 70.7688 62.6864C72.3213 63.7707 75.1263 64.0323 78.8427 62.8587C82.467 61.7141 86.5322 59.3162 90.127 55.8261C97.007 49.1464 101.987 38.6567 98.961 25.7756C85.3105 26.9823 76.3756 34.7219 71.7921 43.0203C69.3976 47.3556 68.2294 51.7805 68.1771 55.4196Z" fill="#48DBB4"/>
</svg>
