<svg width="186" height="120" viewBox="0 0 186 120" fill="none" xmlns="http://www.w3.org/2000/svg">
<g clip-path="url(#clip0)">
<path d="M30.0654 95.4519H14.7536C14.5967 95.4519 14.4746 95.5771 14.4746 95.7381V98.3853C14.4746 98.5463 14.5967 98.6715 14.7536 98.6715H20.561V106.738C20.561 106.899 20.683 107.025 20.84 107.025H24.014C24.1709 107.025 24.293 106.899 24.293 106.738V98.6715H30.1003C30.2573 98.6715 30.3794 98.5463 30.3794 98.3853V95.7381C30.3445 95.5771 30.2224 95.4519 30.0654 95.4519Z" fill="#0A0806"/>
<path d="M22.41 91.6957C23.7179 91.6957 24.7643 90.6046 24.7643 89.281C24.7643 87.9395 23.7005 86.8663 22.41 86.8663C21.102 86.8663 20.0557 87.9574 20.0557 89.281C20.0557 90.6225 21.102 91.6957 22.41 91.6957Z" fill="#0A0806"/>
<path d="M22.4096 73.9523C10.0277 73.9523 0 84.237 0 96.9365C0 109.636 10.0277 119.921 22.4096 119.921C34.7916 119.921 44.8193 109.636 44.8193 96.9365C44.8193 84.237 34.7916 73.9523 22.4096 73.9523ZM36.1519 111.031C32.4722 114.805 27.5891 116.88 22.4096 116.88C17.2301 116.88 12.3297 114.805 8.66739 111.031C4.98767 107.275 2.9647 102.267 2.9647 96.9365C2.9647 91.6063 4.98767 86.5981 8.66739 82.8419C12.3297 79.0678 17.2127 76.993 22.4096 76.993C27.6066 76.993 32.4896 79.0678 36.1519 82.8419C39.8316 86.616 41.8546 91.6242 41.8546 96.9365C41.8546 102.267 39.8316 107.275 36.1519 111.031Z" fill="#0A0806"/>
</g>
<g clip-path="url(#clip1)">
<path d="M30.0654 21.4997H14.7536C14.5967 21.4997 14.4746 21.6249 14.4746 21.7859V24.4331C14.4746 24.5941 14.5967 24.7193 14.7536 24.7193H20.561V32.7861C20.561 32.9471 20.683 33.0723 20.84 33.0723H24.014C24.1709 33.0723 24.293 32.9471 24.293 32.7861V24.7193H30.1003C30.2573 24.7193 30.3794 24.5941 30.3794 24.4331V21.7859C30.3445 21.6249 30.2224 21.4997 30.0654 21.4997Z" fill="#0A0806"/>
<path d="M22.41 17.7435C23.7179 17.7435 24.7643 16.6524 24.7643 15.3288C24.7643 13.9873 23.7005 12.9141 22.41 12.9141C21.102 12.9141 20.0557 14.0052 20.0557 15.3288C20.0557 16.6703 21.102 17.7435 22.41 17.7435Z" fill="#0A0806"/>
<path d="M22.4096 0C10.0277 0 0 10.2848 0 22.9842C0 35.6837 10.0277 45.9685 22.4096 45.9685C34.7916 45.9685 44.8193 35.6837 44.8193 22.9842C44.8193 10.2848 34.7916 0 22.4096 0ZM36.1519 37.0789C32.4722 40.8529 27.5891 42.9278 22.4096 42.9278C17.2301 42.9278 12.3297 40.8529 8.66739 37.0789C4.98767 33.3227 2.9647 28.3144 2.9647 22.9842C2.9647 17.654 4.98767 12.6458 8.66739 8.88963C12.3297 5.11556 17.2127 3.04072 22.4096 3.04072C27.6066 3.04072 32.4896 5.11556 36.1519 8.88963C39.8316 12.6637 41.8546 17.6719 41.8546 22.9842C41.8546 28.3144 39.8316 33.3227 36.1519 37.0789Z" fill="#0A0806"/>
</g>
<g clip-path="url(#clip2)">
<path d="M100.655 95.4519H85.3435C85.1865 95.4519 85.0645 95.5771 85.0645 95.7381V98.3853C85.0645 98.5463 85.1865 98.6715 85.3435 98.6715H91.1508V106.738C91.1508 106.899 91.2729 107.025 91.4298 107.025H94.6038C94.7608 107.025 94.8828 106.899 94.8828 106.738V98.6715H100.69C100.847 98.6715 100.969 98.5463 100.969 98.3853V95.7381C100.934 95.5771 100.812 95.4519 100.655 95.4519Z" fill="#0A0806"/>
<path d="M92.9998 91.6957C94.3078 91.6957 95.3541 90.6046 95.3541 89.281C95.3541 87.9395 94.2903 86.8663 92.9998 86.8663C91.6919 86.8663 90.6455 87.9574 90.6455 89.281C90.6455 90.6225 91.6919 91.6957 92.9998 91.6957Z" fill="#0A0806"/>
<path d="M92.9995 73.9523C80.6175 73.9523 70.5898 84.237 70.5898 96.9365C70.5898 109.636 80.6175 119.921 92.9995 119.921C105.381 119.921 115.409 109.636 115.409 96.9365C115.409 84.237 105.381 73.9523 92.9995 73.9523ZM106.742 111.031C103.062 114.805 98.179 116.88 92.9995 116.88C87.82 116.88 82.9195 114.805 79.2572 111.031C75.5775 107.275 73.5545 102.267 73.5545 96.9365C73.5545 91.6063 75.5775 86.5981 79.2572 82.8419C82.9195 79.0678 87.8025 76.993 92.9995 76.993C98.1964 76.993 103.079 79.0678 106.742 82.8419C110.421 86.616 112.444 91.6242 112.444 96.9365C112.444 102.267 110.421 107.275 106.742 111.031Z" fill="#0A0806"/>
</g>
<g clip-path="url(#clip3)">
<path d="M101.209 21.5978H85.8972C85.7402 21.5978 85.6182 21.723 85.6182 21.884V24.5312C85.6182 24.6922 85.7402 24.8174 85.8972 24.8174H91.7045V32.8842C91.7045 33.0452 91.8266 33.1704 91.9835 33.1704H95.1575C95.3145 33.1704 95.4366 33.0452 95.4366 32.8842V24.8174H101.244C101.401 24.8174 101.523 24.6922 101.523 24.5312V21.884C101.488 21.723 101.366 21.5978 101.209 21.5978Z" fill="#0A0806"/>
<path d="M93.5535 17.8416C94.8615 17.8416 95.9079 16.7505 95.9079 15.4269C95.9079 14.0854 94.8441 13.0122 93.5535 13.0122C92.2456 13.0122 91.1992 14.1033 91.1992 15.4269C91.1992 16.7684 92.2456 17.8416 93.5535 17.8416Z" fill="#0A0806"/>
<path d="M93.5532 0.0980835C81.1712 0.0980835 71.1436 10.3829 71.1436 23.0823C71.1436 35.7818 81.1712 46.0666 93.5532 46.0666C105.935 46.0666 115.963 35.7818 115.963 23.0823C115.963 10.3829 105.935 0.0980835 93.5532 0.0980835ZM107.295 37.1769C103.616 40.951 98.7327 43.0259 93.5532 43.0259C88.3737 43.0259 83.4732 40.951 79.8109 37.1769C76.1312 33.4208 74.1083 28.4125 74.1083 23.0823C74.1083 17.7521 76.1312 12.7439 79.8109 8.98771C83.4732 5.21364 88.3563 3.1388 93.5532 3.1388C98.7501 3.1388 103.633 5.21364 107.295 8.98771C110.975 12.7618 112.998 17.77 112.998 23.0823C112.998 28.4125 110.975 33.4208 107.295 37.1769Z" fill="#0A0806"/>
</g>
<g clip-path="url(#clip4)">
<path d="M171.246 21.4997H155.934C155.777 21.4997 155.655 21.6249 155.655 21.7859V24.4331C155.655 24.5941 155.777 24.7193 155.934 24.7193H161.742V32.7861C161.742 32.9471 161.864 33.0723 162.021 33.0723H165.195C165.352 33.0723 165.474 32.9471 165.474 32.7861V24.7193H171.281C171.438 24.7193 171.56 24.5941 171.56 24.4331V21.7859C171.525 21.6249 171.403 21.4997 171.246 21.4997Z" fill="#0A0806"/>
<path d="M163.591 17.7435C164.899 17.7435 165.945 16.6524 165.945 15.3288C165.945 13.9873 164.881 12.9141 163.591 12.9141C162.283 12.9141 161.236 14.0052 161.236 15.3288C161.236 16.6703 162.283 17.7435 163.591 17.7435Z" fill="#0A0806"/>
<path d="M163.59 0C151.208 0 141.181 10.2848 141.181 22.9842C141.181 35.6837 151.208 45.9685 163.59 45.9685C175.972 45.9685 186 35.6837 186 22.9842C186 10.2848 175.972 0 163.59 0ZM177.333 37.0789C173.653 40.8529 168.77 42.9278 163.59 42.9278C158.411 42.9278 153.51 40.8529 149.848 37.0789C146.168 33.3227 144.145 28.3144 144.145 22.9842C144.145 17.654 146.168 12.6458 149.848 8.88963C153.51 5.11556 158.393 3.04072 163.59 3.04072C168.787 3.04072 173.67 5.11556 177.333 8.88963C181.012 12.6637 183.035 17.6719 183.035 22.9842C183.035 28.3144 181.012 33.3227 177.333 37.0789Z" fill="#0A0806"/>
</g>
<g clip-path="url(#clip5)">
<path d="M171.246 95.4519H155.934C155.777 95.4519 155.655 95.5771 155.655 95.7381V98.3853C155.655 98.5463 155.777 98.6715 155.934 98.6715H161.742V106.738C161.742 106.899 161.864 107.025 162.021 107.025H165.195C165.352 107.025 165.474 106.899 165.474 106.738V98.6715H171.281C171.438 98.6715 171.56 98.5463 171.56 98.3853V95.7381C171.525 95.5771 171.403 95.4519 171.246 95.4519Z" fill="#0A0806"/>
<path d="M163.591 91.6957C164.899 91.6957 165.945 90.6046 165.945 89.281C165.945 87.9395 164.881 86.8663 163.591 86.8663C162.283 86.8663 161.236 87.9574 161.236 89.281C161.236 90.6225 162.283 91.6957 163.591 91.6957Z" fill="#0A0806"/>
<path d="M163.59 73.9523C151.208 73.9523 141.181 84.237 141.181 96.9365C141.181 109.636 151.208 119.921 163.59 119.921C175.972 119.921 186 109.636 186 96.9365C186 84.237 175.972 73.9523 163.59 73.9523ZM177.333 111.031C173.653 114.805 168.77 116.88 163.59 116.88C158.411 116.88 153.51 114.805 149.848 111.031C146.168 107.275 144.145 102.267 144.145 96.9365C144.145 91.6063 146.168 86.5981 149.848 82.8419C153.51 79.0678 158.393 76.993 163.59 76.993C168.787 76.993 173.67 79.0678 177.333 82.8419C181.012 86.616 183.035 91.6242 183.035 96.9365C183.035 102.267 181.012 107.275 177.333 111.031Z" fill="#0A0806"/>
</g>
<defs>
<clipPath id="clip0">
<rect width="44.8193" height="45.9685" fill="white" transform="translate(0 73.9523)"/>
</clipPath>
<clipPath id="clip1">
<rect width="44.8193" height="45.9685" fill="white"/>
</clipPath>
<clipPath id="clip2">
<rect width="44.8193" height="45.9685" fill="white" transform="translate(70.5898 73.9523)"/>
</clipPath>
<clipPath id="clip3">
<rect width="44.8193" height="45.9685" fill="white" transform="translate(71.1436 0.0980835)"/>
</clipPath>
<clipPath id="clip4">
<rect width="44.8193" height="45.9685" fill="white" transform="translate(141.181)"/>
</clipPath>
<clipPath id="clip5">
<rect width="44.8193" height="45.9685" fill="white" transform="translate(141.181 73.9523)"/>
</clipPath>
</defs>
</svg>
