<svg width="104" height="104" viewBox="0 0 104 104" fill="none" xmlns="http://www.w3.org/2000/svg">
<path d="M42.9002 38.8646V35.1H34.1121V38.8156H35.4831L32.7691 41.8829H31.6453V38.8156H33.1905V35.1H31.1059V36.4947H29.9765V35.1H27.9143V36.4947H26.7849V35.1H24.7002V38.8646H26.5432V43.55V48.2353H24.7002V52H33.1905V48.2844H31.6453V45.2171H32.7691L35.4831 48.2844H34.1121V52H42.9002V48.2353H41.5348L37.3936 43.55L41.5348 38.8646H42.9002Z" fill="#48DBB4"/>
<path fill-rule="evenodd" clip-rule="evenodd" d="M98.8 23.1H5.2V77H98.8V23.1ZM5.2 18.2C2.32812 18.2 0 20.3938 0 23.1V77C0 79.7062 2.32812 81.9 5.2 81.9H98.8C101.672 81.9 104 79.7062 104 77V23.1C104 20.3938 101.672 18.2 98.8 18.2H5.2Z" fill="#0A0806"/>
<path fill-rule="evenodd" clip-rule="evenodd" d="M2.6001 68.9001C2.6001 67.4641 3.77947 66.3 5.23431 66.3H100.066C101.521 66.3 102.7 67.4641 102.7 68.9001C102.7 70.336 101.521 71.5001 100.066 71.5001H5.23431C3.77947 71.5001 2.6001 70.336 2.6001 68.9001Z" fill="#0A0806"/>
<path fill-rule="evenodd" clip-rule="evenodd" d="M36.3999 99.0363C36.3999 97.4698 37.6698 96.2 39.2363 96.2L64.7635 96.1999C66.33 96.1999 67.5999 97.4698 67.5999 99.0363C67.5999 100.603 66.33 101.873 64.7635 101.873L39.2363 101.873C37.6698 101.873 36.3999 100.603 36.3999 99.0363Z" fill="#0A0806"/>
<path fill-rule="evenodd" clip-rule="evenodd" d="M45.4999 98.8C44.064 98.8 42.8999 97.4697 42.8999 95.8286L42.8999 80.9715C42.8999 79.3304 44.064 78.0001 45.4999 78.0001C46.9358 78.0001 48.0999 79.3304 48.0999 80.9715L48.0999 95.8286C48.0999 97.4697 46.9358 98.8 45.4999 98.8Z" fill="#0A0806"/>
<path fill-rule="evenodd" clip-rule="evenodd" d="M58.4999 98.8C57.064 98.8 55.8999 97.4569 55.8999 95.8L55.8999 82.3C55.8999 80.6432 57.064 79.3 58.4999 79.3C59.9358 79.3 61.0999 80.6432 61.0999 82.3L61.0999 95.8C61.0999 97.4569 59.9358 98.8 58.4999 98.8Z" fill="#0A0806"/>
<path fill-rule="evenodd" clip-rule="evenodd" d="M54.6001 39C54.6001 37.5641 55.7642 36.4 57.2001 36.4H78.0001C79.436 36.4 80.6001 37.5641 80.6001 39C80.6001 40.436 79.436 41.6 78.0001 41.6H57.2001C55.7642 41.6 54.6001 40.436 54.6001 39Z" fill="#0A0806"/>
<path fill-rule="evenodd" clip-rule="evenodd" d="M54.6001 48.1C54.6001 46.6641 55.7642 45.5 57.2001 45.5H63.7001C65.136 45.5 66.3001 46.6641 66.3001 48.1C66.3001 49.5359 65.136 50.7 63.7001 50.7H57.2001C55.7642 50.7 54.6001 49.5359 54.6001 48.1Z" fill="#0A0806"/>
<path fill-rule="evenodd" clip-rule="evenodd" d="M19.5 7.14995C19.5 6.073 20.373 5.19995 21.45 5.19995H31.85C32.927 5.19995 33.8 6.073 33.8 7.14995C33.8 8.22691 32.927 9.09995 31.85 9.09995H21.45C20.373 9.09995 19.5 8.22691 19.5 7.14995Z" fill="#48DBB4"/>
<path fill-rule="evenodd" clip-rule="evenodd" d="M84.5 96.85C84.5 95.7731 85.373 94.9 86.45 94.9H96.85C97.927 94.9 98.8 95.7731 98.8 96.85C98.8 97.927 97.927 98.8 96.85 98.8H86.45C85.373 98.8 84.5 97.927 84.5 96.85Z" fill="#48DBB4"/>
<path fill-rule="evenodd" clip-rule="evenodd" d="M26.6501 -9.29861e-08C27.7271 -4.16313e-08 28.6001 0.873045 28.6001 1.95L28.6001 12.35C28.6001 13.427 27.7271 14.3 26.6501 14.3C25.5731 14.3 24.7001 13.427 24.7001 12.35L24.7001 1.95C24.7001 0.873045 25.5731 -1.44341e-07 26.6501 -9.29861e-08Z" fill="#48DBB4"/>
<path fill-rule="evenodd" clip-rule="evenodd" d="M91.6501 89.7C92.7271 89.7 93.6001 90.573 93.6001 91.65L93.6001 102.05C93.6001 103.127 92.7271 104 91.6501 104C90.5731 104 89.7001 103.127 89.7001 102.05L89.7001 91.65C89.7001 90.573 90.5731 89.7 91.6501 89.7Z" fill="#48DBB4"/>
<path fill-rule="evenodd" clip-rule="evenodd" d="M68.8999 48.1C68.8999 46.6641 70.064 45.5 71.4999 45.5H72.7999C74.2358 45.5 75.3999 46.6641 75.3999 48.1C75.3999 49.5359 74.2358 50.7 72.7999 50.7H71.4999C70.064 50.7 68.8999 49.5359 68.8999 48.1Z" fill="#0A0806"/>
</svg>
