<svg width="50" height="39" viewBox="0 0 50 39" fill="none" xmlns="http://www.w3.org/2000/svg">
<path d="M0.119777 28.2635C-0.423521 21.4682 0.807215 15.1873 5.34208 9.66746C11.7951 1.80031 22.7609 -1.52233 32.7176 1.59666C42.5081 4.65135 49.582 13.526 49.9368 23.3546C50.0699 26.9988 49.9479 30.6537 49.9701 34.2979C49.9812 36.5915 48.9722 38.1028 46.5107 38.3172C44.3264 38.5101 42.885 36.8916 42.8296 34.255C42.7742 31.3182 42.8407 28.3814 42.7963 25.4446C42.752 22.7758 41.4215 21.1788 39.3037 21.1359C37.1083 21.093 35.6669 22.7865 35.6337 25.5411C35.6004 28.0277 35.6226 30.525 35.6226 33.0224C35.6226 36.7202 34.5693 38.3279 32.1411 38.3386C29.6131 38.36 28.4932 36.6987 28.4821 32.8723C28.4821 30.2892 28.5154 27.7062 28.471 25.1338C28.4156 22.6686 27.0518 21.1466 24.9895 21.1466C22.905 21.1359 21.4303 22.6257 21.3527 25.0481C21.264 28.1563 21.3527 31.2753 21.3084 34.3943C21.264 36.9345 19.9889 38.3386 17.8379 38.3493C15.7091 38.36 14.2788 36.9131 14.2122 34.4693C14.1346 31.3611 14.2233 28.2421 14.1679 25.1231C14.1235 22.6365 12.7819 21.0716 10.6974 21.1681C8.18054 21.2753 7.1272 22.8401 7.08285 25.0695C7.01633 28.1885 7.08285 31.2968 7.02741 34.4158C6.98306 36.956 5.70798 38.3493 3.55696 38.3493C1.38377 38.3493 0.164128 36.9774 0.119777 34.4158C0.0865137 32.3686 0.119777 30.3107 0.119777 28.2635Z" fill="#7850CD"/>
</svg>
