<svg width="56" height="56" viewBox="0 0 56 56" fill="none" xmlns="http://www.w3.org/2000/svg">
<g clip-path="url(#clip0)">
<path d="M18.8242 12.7429C18.2253 12.6562 18.1968 12.6274 18.482 12.5985C19.0238 12.5118 20.2787 12.6274 21.1629 12.8296C23.2164 13.3209 25.0702 14.5923 27.0381 16.8172L27.5515 17.424L28.293 17.3085C31.4588 16.7883 34.7101 17.1929 37.4196 18.4643C38.1611 18.811 39.3304 19.5045 39.473 19.6779C39.5301 19.7357 39.6157 20.1114 39.6727 20.487C39.8723 21.8451 39.7868 22.8565 39.359 23.6366C39.1308 24.0701 39.1308 24.1857 39.2734 24.5613C39.3875 24.8503 39.7297 25.0525 40.0435 25.0525C40.728 25.0525 41.441 23.9545 41.7832 22.423L41.9258 21.8162L42.1825 22.1052C43.637 23.7522 44.7779 26.035 44.949 27.6531L45.006 28.0866L44.7493 27.7109C44.3215 27.0463 43.9223 26.6129 43.3804 26.2373C42.4107 25.5727 41.3839 25.3704 38.6745 25.2259C36.2217 25.0814 34.8242 24.8792 33.4552 24.4168C31.1165 23.6366 29.9187 22.6253 27.1522 18.8977C25.9258 17.2507 25.1558 16.3549 24.3857 15.6036C22.703 13.9566 21.0203 13.0897 18.8242 12.7429Z" fill="#7850CD"/>
<path d="M40.0717 16.4128C40.1287 15.3147 40.2713 14.5924 40.585 13.9278C40.6991 13.6677 40.8132 13.4365 40.8417 13.4365C40.8703 13.4365 40.8132 13.6388 40.7276 13.87C40.4995 14.5057 40.471 15.4014 40.6136 16.4128C40.8132 17.7131 40.8988 17.8865 42.2678 19.3024C42.8952 19.967 43.6368 20.805 43.922 21.1517L44.4068 21.7874L43.922 21.3251C43.323 20.7472 41.954 19.6491 41.6403 19.5046C41.4407 19.3891 41.4121 19.3891 41.2695 19.5335C41.1555 19.6491 41.1269 19.8225 41.1269 20.6605C41.0984 21.9608 40.9273 22.7699 40.4995 23.6078C40.2713 24.0413 40.2428 23.9546 40.4424 23.4634C40.585 23.0877 40.6136 22.9143 40.6136 21.6718C40.6136 19.1579 40.3284 18.5511 38.5886 17.5397C38.1608 17.2797 37.4193 16.904 36.9914 16.7017C36.5351 16.4995 36.1929 16.3261 36.2214 16.3261C36.2784 16.2683 37.9611 16.7595 38.6171 17.0485C39.6153 17.453 39.7865 17.4819 39.9005 17.453C39.9861 17.3664 40.0432 17.1352 40.0717 16.4128Z" fill="#7850CD"/>
<path d="M19.9934 20.7181C18.7955 19.0421 18.0255 16.4415 18.1966 14.5055L18.2536 13.8987L18.5388 13.9565C19.0522 14.0432 19.9363 14.3899 20.3641 14.65C21.505 15.3435 22.0183 16.297 22.5032 18.6665C22.6458 19.36 22.8454 20.1691 22.931 20.4291C23.0736 20.8626 23.6155 21.8739 24.0718 22.5096C24.3855 22.972 24.1859 23.2031 23.4729 23.1453C22.3891 23.0297 20.9346 22.0184 19.9934 20.7181Z" fill="#7850CD"/>
<path d="M38.6162 33.2883C32.9691 30.9767 30.9727 28.9829 30.9727 25.6021C30.9727 25.1108 31.0012 24.7063 31.0012 24.7063C31.0297 24.7063 31.2293 24.8797 31.486 25.0819C32.6268 26.0066 33.9103 26.4111 37.4753 26.9313C39.5573 27.2491 40.7552 27.4803 41.839 27.8559C45.29 29.0118 47.429 31.3812 47.9424 34.5886C48.085 35.5133 47.9994 37.276 47.7712 38.2006C47.5716 38.923 47.0012 40.2522 46.8586 40.2811C46.8301 40.2811 46.773 40.1366 46.773 39.9055C46.716 38.6918 46.117 37.536 45.1188 36.6402C43.921 35.6 42.3809 34.8198 38.6162 33.2883Z" fill="#7850CD"/>
<path d="M34.6238 34.2418C34.5668 33.8083 34.4242 33.2593 34.3386 33.0282L34.196 32.5947L34.4527 32.9126C34.8235 33.346 35.1087 33.8661 35.3653 34.5885C35.565 35.1376 35.565 35.3109 35.565 36.2067C35.565 37.0736 35.5365 37.2758 35.3653 37.7671C35.0801 38.5473 34.7379 39.0963 34.1675 39.7031C33.1408 40.7722 31.8003 41.3502 29.8894 41.6102C29.5472 41.6391 28.5775 41.7258 27.7219 41.7836C25.5828 41.8992 24.1568 42.1303 22.8734 42.5927C22.7023 42.6505 22.5311 42.7083 22.5026 42.6794C22.4456 42.6216 23.3297 42.1014 24.0427 41.7547C25.0409 41.2635 26.0677 41.0034 28.3208 40.5989C29.4331 40.4255 30.5739 40.1943 30.8591 40.0787C33.6826 39.183 35.0801 36.958 34.6238 34.2418Z" fill="#7850CD"/>
<path d="M37.2191 38.8939C36.4776 37.2469 36.3064 35.6865 36.7057 34.2128C36.7628 34.0683 36.8198 33.9238 36.8768 33.9238C36.9339 33.9238 37.105 34.0105 37.2761 34.1261C37.6184 34.3573 38.3314 34.7618 40.1567 35.7732C42.4669 37.0446 43.7788 38.027 44.6915 39.154C45.49 40.1364 45.9749 41.2634 46.203 42.6504C46.3456 43.4306 46.2601 45.3088 46.0604 46.089C45.433 48.5451 44.007 50.51 41.925 51.637C41.6112 51.8104 41.3546 51.9259 41.326 51.9259C41.2975 51.9259 41.4116 51.637 41.5827 51.2902C42.2672 49.8165 42.3528 48.4007 41.8394 46.8114C41.5257 45.8289 40.8697 44.6442 39.5578 42.6504C37.9891 40.3387 37.6184 39.7319 37.2191 38.8939Z" fill="#7850CD"/>
<path d="M15.972 47.736C18.0825 45.9445 20.6779 44.6731 23.0736 44.2685C24.1003 44.0952 25.8115 44.153 26.7527 44.413C28.2643 44.8176 29.6333 45.6844 30.3463 46.7536C31.0308 47.7938 31.3445 48.6896 31.6582 50.6834C31.7723 51.4636 31.9149 52.2727 31.9435 52.4461C32.1716 53.4863 32.6279 54.2954 33.1984 54.7288C34.0825 55.3934 35.6226 55.4223 37.1342 54.8444C37.3909 54.7577 37.619 54.671 37.619 54.6999C37.6761 54.7577 36.906 55.2779 36.3927 55.5379C35.6796 55.9136 35.1092 56.0291 34.3392 56.0291C32.9702 56.0291 31.8008 55.3068 30.8597 53.862C30.66 53.573 30.2607 52.735 29.9185 51.9548C28.9203 49.6143 28.4069 48.9208 27.2376 48.1406C26.2108 47.476 24.8989 47.3315 23.9007 47.8227C22.5887 48.4584 22.2465 50.1633 23.1591 51.2035C23.5299 51.637 24.2144 51.9837 24.7848 52.0704C25.8401 52.2149 26.7527 51.3769 26.7527 50.3078C26.7527 49.6143 26.496 49.2097 25.8115 48.8919C24.8989 48.4873 23.9007 48.9497 23.9292 49.8454C23.9292 50.2211 24.1003 50.4522 24.4711 50.6256C24.6992 50.7412 24.6992 50.7412 24.5281 50.7123C23.701 50.5389 23.5014 49.4987 24.1574 48.8341C24.9559 48.025 26.6386 48.3717 27.2091 49.4987C27.4372 49.961 27.4657 50.8857 27.2661 51.4636C26.7812 52.735 25.4123 53.3996 24.0148 53.024C23.0736 52.7639 22.6743 52.5039 21.5335 51.3191C19.537 49.2386 18.767 48.8341 15.9149 48.4006L15.373 48.314L15.972 47.736Z" fill="#7850CD"/>
<path fill-rule="evenodd" clip-rule="evenodd" d="M0.968036 1.24252C7.61331 9.42002 17.8522 22.1342 18.3655 22.8277C18.7934 23.4056 18.6222 23.9546 17.9092 24.3591C17.5099 24.5903 16.6828 24.8215 16.2835 24.8215C15.8272 24.8215 15.2853 24.5903 14.9146 24.2147C14.6579 23.9546 13.5456 22.3075 11.0358 18.3488C9.1249 15.3148 7.49923 12.8008 7.47071 12.7719C7.35663 12.7141 7.35663 12.7141 10.8361 19.0134C13.0322 22.9721 13.7452 24.388 13.7452 24.5614C13.7452 24.937 13.6311 25.1393 13.1748 25.6594C12.4048 26.5263 12.0625 27.5088 11.8058 29.5604C11.5206 31.8431 10.7506 33.4613 8.55449 36.2064C7.27107 37.8246 7.07142 38.1135 6.7577 38.7781C6.35841 39.5872 6.24433 40.0495 6.18729 41.0898C6.13025 42.1878 6.24433 42.8813 6.55806 43.9216C6.84326 44.8462 7.15699 45.453 7.92704 46.6378C8.58301 47.678 8.9823 48.4582 8.9823 48.7472C8.9823 48.9783 9.03934 48.9783 10.0661 48.7472C12.5188 48.1692 14.5438 47.1868 15.6561 45.9732C16.3406 45.2219 16.5117 44.8173 16.5117 43.7771C16.5117 43.1125 16.4832 42.968 16.3121 42.5635C16.0269 41.9278 15.485 41.4076 14.3156 40.5985C12.7755 39.5294 12.1196 38.6625 11.9484 37.5067C11.8058 36.5243 11.977 35.8596 12.8326 34.0392C13.7167 32.161 13.9449 31.3808 14.0875 29.4737C14.173 28.2601 14.3156 27.7688 14.6579 27.3932C15.0286 26.9886 15.3424 26.8442 16.2265 26.7286C17.6811 26.5263 18.6222 26.1507 19.3638 25.4283C20.0197 24.8215 20.3049 24.2147 20.3335 23.3189L20.362 22.6543L19.9912 22.2497C18.6507 20.6894 0.0839004 0 -0.00166108 0C-0.0301816 0 0.426147 0.54902 0.968036 1.24252ZM9.72383 42.3323C10.0376 41.7833 9.86643 41.0898 9.35306 40.743C8.86822 40.4252 8.12668 40.5697 8.12668 41.0031C8.12668 41.1187 8.18372 41.2343 8.35485 41.292C8.61153 41.4365 8.64005 41.581 8.44041 41.8989C8.24077 42.2167 8.24076 42.5057 8.49745 42.7079C8.89674 43.0258 9.43863 42.8524 9.72383 42.3323Z" fill="#7850CD"/>
<path fill-rule="evenodd" clip-rule="evenodd" d="M21.276 27.1341C20.5915 27.3364 19.9355 28.0877 19.7359 28.839C19.6218 29.3013 19.6788 30.1393 19.8785 30.3993C20.1922 30.8039 20.4774 30.9194 21.276 30.9194C22.8446 30.9194 24.1851 30.226 24.3277 29.388C24.4703 28.6945 23.8713 27.7409 23.0443 27.3075C22.6164 27.0763 21.7323 26.9896 21.276 27.1341ZM23.1013 28.5789C23.3295 28.2321 23.2439 27.8565 22.8161 27.5964C22.046 27.1052 20.8767 27.5098 20.8767 28.261C20.8767 28.6367 21.4756 29.0412 22.046 29.0412C22.4168 29.0412 22.9302 28.8101 23.1013 28.5789Z" fill="#7850CD"/>
</g>
<defs>
<clipPath id="clip0">
<rect width="55.8689" height="56" fill="white"/>
</clipPath>
</defs>
</svg>
