<?xml version="1.0" encoding="UTF-8"?>
<svg width="84px" height="84px" viewBox="0 0 84 84" version="1.1" xmlns="http://www.w3.org/2000/svg" xmlns:xlink="http://www.w3.org/1999/xlink">
    <!-- Generator: Sketch 46.2 (44496) - http://www.bohemiancoding.com/sketch -->
    <title>agreement</title>
    <desc>Created with Sketch.</desc>
    <defs>
        <path d="M22.4,16.8 L22.4,70 L5.6,70 C8.694,70 11.2,67.494 11.2,64.4 L11.2,16.8 C11.2,13.706 13.706,11.2 16.8,11.2 C19.894,11.2 22.4,13.706 22.4,16.8" id="path-1"></path>
        <filter x="-11.9%" y="-3.4%" width="123.8%" height="106.8%" filterUnits="objectBoundingBox" id="filter-2">
            <feOffset dx="-4" dy="0" in="SourceAlpha" result="shadowOffsetInner1"></feOffset>
            <feComposite in="shadowOffsetInner1" in2="SourceAlpha" operator="arithmetic" k2="-1" k3="1" result="shadowInnerInner1"></feComposite>
            <feColorMatrix values="0 0 0 0 0   0 0 0 0 0   0 0 0 0 0  0 0 0 0.12 0" type="matrix" in="shadowInnerInner1"></feColorMatrix>
        </filter>
        <path d="M81.2,16.8 L81.2,58.8 L80.99,58.87 C80.78,58.296 80.43,57.75 79.94,57.26 L77.14,54.46 C75.446,52.766 73.206,52.794 71.54,54.46 L68.74,57.26 L54.6,71.4 L53.2,72.8 L53.2,81.2 L22.4,81.2 L22.4,70 L22.4,16.8 C22.4,13.706 19.894,11.2 16.8,11.2 L58.8,11.2 L75.6,11.2 C78.694,11.2 81.2,13.706 81.2,16.8 L81.2,16.8 Z" id="path-3"></path>
        <filter x="-3.1%" y="-2.9%" width="106.2%" height="105.7%" filterUnits="objectBoundingBox" id="filter-4">
            <feOffset dx="-4" dy="0" in="SourceAlpha" result="shadowOffsetInner1"></feOffset>
            <feComposite in="shadowOffsetInner1" in2="SourceAlpha" operator="arithmetic" k2="-1" k3="1" result="shadowInnerInner1"></feComposite>
            <feColorMatrix values="0 0 0 0 0   0 0 0 0 0   0 0 0 0 0  0 0 0 0.08 0" type="matrix" in="shadowInnerInner1"></feColorMatrix>
        </filter>
        <path d="M80.98944,58.86972 C81.48084,60.22772 81.11684,61.68372 79.93944,62.85972 L77.13944,65.65972 L72.93944,61.45972 L68.73944,57.25972 L71.53944,54.45972 C73.20544,52.79372 75.44544,52.76572 77.13944,54.45972 L79.93944,57.25972 C80.43084,57.74972 80.78084,58.29572 80.98944,58.86972 Z M63,79.8 L61.6,81.2 L53.2,81.2 L53.2,72.8 L54.6,71.4 L58.8,75.6 L63,79.8 Z" id="path-5"></path>
        <filter x="-7.1%" y="-7.1%" width="114.3%" height="114.3%" filterUnits="objectBoundingBox" id="filter-6">
            <feOffset dx="-4" dy="0" in="SourceAlpha" result="shadowOffsetInner1"></feOffset>
            <feComposite in="shadowOffsetInner1" in2="SourceAlpha" operator="arithmetic" k2="-1" k3="1" result="shadowInnerInner1"></feComposite>
            <feColorMatrix values="0 0 0 0 0   0 0 0 0 0   0 0 0 0 0  0 0 0 0.08 0" type="matrix" in="shadowInnerInner1"></feColorMatrix>
        </filter>
        <path d="M77.13944,65.65986 L62.99944,79.79986 L58.79944,75.59986 L72.93944,61.45986 L77.13944,65.65986 Z M72.93944,61.45986 L58.79944,75.59986 L54.59944,71.39986 L68.73944,57.25986 L72.93944,61.45986 Z" id="path-7"></path>
        <filter x="-8.9%" y="-8.9%" width="117.7%" height="117.7%" filterUnits="objectBoundingBox" id="filter-8">
            <feOffset dx="-4" dy="0" in="SourceAlpha" result="shadowOffsetInner1"></feOffset>
            <feComposite in="shadowOffsetInner1" in2="SourceAlpha" operator="arithmetic" k2="-1" k3="1" result="shadowInnerInner1"></feComposite>
            <feColorMatrix values="0 0 0 0 0   0 0 0 0 0   0 0 0 0 0  0 0 0 0.1 0" type="matrix" in="shadowInnerInner1"></feColorMatrix>
        </filter>
        <path d="M58.8,0 L58.8,11.2 L16.8,11.2 C13.706,11.2 11.2,13.706 11.2,16.8 L11.2,64.4 C11.2,67.494 8.694,70 5.6,70 C2.506,70 0,67.494 0,64.4 L0,0 L58.8,0 Z" id="path-9"></path>
        <filter x="-3.4%" y="-2.9%" width="106.8%" height="105.7%" filterUnits="objectBoundingBox" id="filter-10">
            <feOffset dx="-4" dy="0" in="SourceAlpha" result="shadowOffsetInner1"></feOffset>
            <feComposite in="shadowOffsetInner1" in2="SourceAlpha" operator="arithmetic" k2="-1" k3="1" result="shadowInnerInner1"></feComposite>
            <feColorMatrix values="0 0 0 0 0   0 0 0 0 0   0 0 0 0 0  0 0 0 0.12 0" type="matrix" in="shadowInnerInner1"></feColorMatrix>
        </filter>
    </defs>
    <g id="round-3" stroke="none" stroke-width="1" fill="none" fill-rule="evenodd">
        <g id="agreement">
            <g id="fill" transform="translate(1.000000, 1.000000)">
                <g id="Fill-1">
                    <use fill="#F7F7F7" fill-rule="evenodd" xlink:href="#path-1"></use>
                    <use fill="black" fill-opacity="1" filter="url(#filter-2)" xlink:href="#path-1"></use>
                </g>
                <g id="Fill-5">
                    <use fill="#F7F7F7" fill-rule="evenodd" xlink:href="#path-3"></use>
                    <use fill="black" fill-opacity="1" filter="url(#filter-4)" xlink:href="#path-3"></use>
                </g>
                <g id="Combined-Shape">
                    <use fill="#ECF4F7" fill-rule="evenodd" xlink:href="#path-5"></use>
                    <use fill="black" fill-opacity="1" filter="url(#filter-6)" xlink:href="#path-5"></use>
                </g>
                <g id="Combined-Shape">
                    <use fill="#C3E6DC" fill-rule="evenodd" xlink:href="#path-7"></use>
                    <use fill="black" fill-opacity="1" filter="url(#filter-8)" xlink:href="#path-7"></use>
                </g>
                <g id="Fill-16">
                    <use fill="#F7F7F7" fill-rule="evenodd" xlink:href="#path-9"></use>
                    <use fill="black" fill-opacity="1" filter="url(#filter-10)" xlink:href="#path-9"></use>
                </g>
            </g>
            <path d="M73.9428,62.4572 L59.8,76.6 L73.9428,62.4572 L73.9428,62.4572 L73.9428,62.4572 L73.9428,62.4572 L73.9428,62.4572 Z M69.7428,58.2572 L78.1428,66.6572 L69.7428,58.2572 L69.7428,58.2572 L69.7428,58.2572 L69.7428,58.2572 L69.7428,58.2572 Z M64,80.8 L55.6,72.4 L64,80.8 L64,80.8 L64,80.8 L64,80.8 L64,80.8 Z M54.2,82.2 L62.6,82.2 L80.9428,63.8572 C82.6046,62.1954 82.6354,59.9498 80.9428,58.2572 L78.1428,55.4572 C76.4516,53.766 74.2046,53.7954 72.5428,55.4572 L54.2,73.8 L54.2,82.2 L54.2,82.2 L54.2,82.2 L54.2,82.2 L54.2,82.2 L54.2,82.2 Z M54.2,25 L62.6,25 L54.2,25 L54.2,25 L54.2,25 L54.2,25 L54.2,25 Z M34.6,25 L48.6,25 L34.6,25 L34.6,25 L34.6,25 L34.6,25 L34.6,25 Z M34.6,33.4 L54.2,33.4 L34.6,33.4 L34.6,33.4 L34.6,33.4 L34.6,33.4 L34.6,33.4 Z M54.2,41 L62.6,41 L54.2,41 L54.2,41 L54.2,41 L54.2,41 L54.2,41 Z M34.6,41 L48.6,41 L34.6,41 L34.6,41 L34.6,41 L34.6,41 L34.6,41 Z M34.6,49.4 L54.2,49.4 L34.6,49.4 L34.6,49.4 L34.6,49.4 L34.6,49.4 L34.6,49.4 Z M54.2,57 L62.6,57 L54.2,57 L54.2,57 L54.2,57 L54.2,57 L54.2,57 Z M34.6,57 L48.6,57 L34.6,57 L34.6,57 L34.6,57 L34.6,57 L34.6,57 Z M34.6,65.4 L54.2,65.4 L34.6,65.4 L34.6,65.4 L34.6,65.4 L34.6,65.4 L34.6,65.4 Z M15,71 L23.4,71 L15,71 L15,71 L15,71 L15,71 L15,71 Z M82.2,51.4 L82.2,17.8 C82.2,14.7074 79.6926,12.2 76.6,12.2 L27.6,12.2 M48.6,82.2 L23.4,82.2 L23.4,17.8 C23.4,14.7074 20.8926,12.2 17.8,12.2 C14.7074,12.2 12.2,14.7074 12.2,17.8 L12.2,65.4 C12.2,68.4926 9.6926,71 6.6,71 C3.5074,71 1,68.4926 1,65.4 L1,1 L59.8,1 L59.8,6.6" id="stroke" stroke="#505E5B" stroke-width="2" stroke-linecap="round" stroke-linejoin="round"></path>
        </g>
    </g>
</svg>