<?xml version="1.0" encoding="UTF-8"?>
<svg width="84px" height="84px" viewBox="0 0 84 84" version="1.1" xmlns="http://www.w3.org/2000/svg" xmlns:xlink="http://www.w3.org/1999/xlink">
    <!-- Generator: Sketch 46.2 (44496) - http://www.bohemiancoding.com/sketch -->
    <title>bank</title>
    <desc>Created with Sketch.</desc>
    <defs>
        <rect id="path-1" x="8" y="25" width="65" height="47.6"></rect>
        <filter x="-3.1%" y="-4.2%" width="106.2%" height="108.4%" filterUnits="objectBoundingBox" id="filter-2">
            <feOffset dx="-4" dy="0" in="SourceAlpha" result="shadowOffsetInner1"></feOffset>
            <feComposite in="shadowOffsetInner1" in2="SourceAlpha" operator="arithmetic" k2="-1" k3="1" result="shadowInnerInner1"></feComposite>
            <feColorMatrix values="0 0 0 0 0   0 0 0 0 0   0 0 0 0 0  0 0 0 0.12 0" type="matrix" in="shadowInnerInner1"></feColorMatrix>
        </filter>
        <path d="M5.6,72.8 L75.6,72.8 L75.6,75.6 L5.6,75.6 L5.6,72.8 Z M0,78.4 L81.2,78.4 L81.2,81.2 L0,81.2 L0,78.4 Z M14,67.2 L14,30.8 L22.4,30.8 L22.4,67.2 L14,67.2 Z M58.8,67.2 L58.8,30.8 L67.1986,30.8 L67.1986,67.2 L58.8,67.2 Z M36.4,67.2 L36.4,30.8 L44.8,30.8 L44.8,67.2 L36.4,67.2 Z" id="path-3"></path>
        <filter x="-2.5%" y="-4.0%" width="104.9%" height="107.9%" filterUnits="objectBoundingBox" id="filter-4">
            <feOffset dx="-4" dy="0" in="SourceAlpha" result="shadowOffsetInner1"></feOffset>
            <feComposite in="shadowOffsetInner1" in2="SourceAlpha" operator="arithmetic" k2="-1" k3="1" result="shadowInnerInner1"></feComposite>
            <feColorMatrix values="0 0 0 0 0   0 0 0 0 0   0 0 0 0 0  0 0 0 0.08 0" type="matrix" in="shadowInnerInner1"></feColorMatrix>
        </filter>
        <polygon id="path-5" points="40.59972 0.00042 -0.00028 25.20042 81.19972 25.20042"></polygon>
        <filter x="-2.5%" y="-7.9%" width="104.9%" height="115.9%" filterUnits="objectBoundingBox" id="filter-6">
            <feOffset dx="-4" dy="0" in="SourceAlpha" result="shadowOffsetInner1"></feOffset>
            <feComposite in="shadowOffsetInner1" in2="SourceAlpha" operator="arithmetic" k2="-1" k3="1" result="shadowInnerInner1"></feComposite>
            <feColorMatrix values="0 0 0 0 0   0 0 0 0 0   0 0 0 0 0  0 0 0 0.08 0" type="matrix" in="shadowInnerInner1"></feColorMatrix>
        </filter>
    </defs>
    <g id="round-3" stroke="none" stroke-width="1" fill="none" fill-rule="evenodd">
        <g id="bank">
            <g id="fill" transform="translate(1.000000, 1.000000)">
                <g id="Rectangle-Copy-2">
                    <use fill="#C3E6DC" fill-rule="evenodd" xlink:href="#path-1"></use>
                    <use fill="black" fill-opacity="1" filter="url(#filter-2)" xlink:href="#path-1"></use>
                </g>
                <g id="Combined-Shape">
                    <use fill="#F7F7F7" fill-rule="evenodd" xlink:href="#path-3"></use>
                    <use fill="black" fill-opacity="1" filter="url(#filter-4)" xlink:href="#path-3"></use>
                </g>
                <g id="Fill-3">
                    <use fill="#F7F7F7" fill-rule="evenodd" xlink:href="#path-5"></use>
                    <use fill="black" fill-opacity="1" filter="url(#filter-6)" xlink:href="#path-5"></use>
                </g>
            </g>
            <path d="M57,68.2 L71,68.2 L57,68.2 L57,68.2 Z M57,31.8 L71,31.8 L57,31.8 L57,31.8 Z M59.8,68.2 L59.8,31.8 L59.8,68.2 L59.8,68.2 Z M68.2,68.2 L68.2,31.8 L68.2,68.2 L68.2,68.2 Z M34.6,68.2 L48.6,68.2 L34.6,68.2 L34.6,68.2 Z M34.6,31.8 L48.6,31.8 L34.6,31.8 L34.6,31.8 Z M37.4,68.2 L37.4,31.8 L37.4,68.2 L37.4,68.2 Z M45.8,68.2 L45.8,31.8 L45.8,68.2 L45.8,68.2 Z M12.2,68.2 L26.2,68.2 L12.2,68.2 L12.2,68.2 Z M12.2,31.8 L26.2,31.8 L12.2,31.8 L12.2,31.8 Z M76.6,73.8 L6.6,73.8 L76.6,73.8 L76.6,73.8 Z M82.2,82.2 L82.2,79.4 L1,79.4 L1,82.2 M15,68.2 L15,31.8 L15,68.2 L15,68.2 Z M23.4,68.2 L23.4,31.8 L23.4,68.2 L23.4,68.2 Z M1,26.2 L41.6,1 L82.2,26.2 L1,26.2 L1,26.2 L1,26.2 Z" id="stroke" stroke="#505E5B" stroke-width="2" stroke-linecap="round" stroke-linejoin="round"></path>
        </g>
    </g>
</svg>