<svg width="473" height="769" viewBox="0 0 473 769" fill="none" xmlns="http://www.w3.org/2000/svg">
<g style="mix-blend-mode:overlay">
<path fill-rule="evenodd" clip-rule="evenodd" d="M0 768.781L9.16762e-06 0.000488281L473 0.000493922V768.781H0ZM23.9982 204.823C30.3593 204.823 35.5159 209.979 35.5159 216.34C35.5159 222.701 30.3593 227.858 23.9982 227.858C17.6371 227.858 12.4804 222.701 12.4804 216.34C12.4804 209.979 17.6371 204.823 23.9982 204.823ZM35.5159 177.758C35.5159 171.397 30.3593 166.24 23.9982 166.24C17.6371 166.24 12.4804 171.397 12.4804 177.758C12.4804 184.119 17.6371 189.275 23.9982 189.275C30.3593 189.275 35.5159 184.119 35.5159 177.758ZM23.9982 127.657C30.3593 127.657 35.5159 132.814 35.5159 139.175C35.5159 145.536 30.3593 150.693 23.9982 150.693C17.6371 150.693 12.4804 145.536 12.4804 139.175C12.4804 132.814 17.6371 127.657 23.9982 127.657ZM35.5159 100.592C35.5159 94.2313 30.3593 89.0746 23.9982 89.0746C17.6371 89.0746 12.4804 94.2313 12.4804 100.592C12.4804 106.953 17.6371 112.11 23.9982 112.11C30.3593 112.11 35.5159 106.953 35.5159 100.592ZM23.9982 50.4924C30.3593 50.4924 35.5159 55.6491 35.5159 62.0102C35.5159 68.3713 30.3593 73.528 23.9982 73.528C17.6371 73.528 12.4804 68.3713 12.4804 62.0102C12.4804 55.6491 17.6371 50.4924 23.9982 50.4924ZM35.5159 22.843C35.5159 16.4819 30.3593 11.3252 23.9982 11.3252C17.6371 11.3252 12.4804 16.4819 12.4804 22.843C12.4804 29.204 17.6371 34.3607 23.9982 34.3607C30.3593 34.3607 35.5159 29.204 35.5159 22.843ZM71.032 216.911C71.032 223.272 65.8753 228.429 59.5142 228.429C53.1531 228.429 47.9965 223.272 47.9965 216.911C47.9965 210.55 53.1531 205.394 59.5142 205.394C65.8753 205.394 71.032 210.55 71.032 216.911ZM95.0298 228.429C101.391 228.429 106.548 223.272 106.548 216.911C106.548 210.55 101.391 205.394 95.0298 205.394C88.6687 205.394 83.512 210.55 83.512 216.911C83.512 223.272 88.6687 228.429 95.0298 228.429ZM142.063 216.911C142.063 223.272 136.906 228.429 130.545 228.429C124.184 228.429 119.028 223.272 119.028 216.911C119.028 210.55 124.184 205.394 130.545 205.394C136.906 205.394 142.063 210.55 142.063 216.911ZM166.061 228.429C172.422 228.429 177.579 223.272 177.579 216.911C177.579 210.55 172.422 205.394 166.061 205.394C159.7 205.394 154.544 210.55 154.544 216.911C154.544 223.272 159.7 228.429 166.061 228.429ZM213.096 216.911C213.096 223.272 207.939 228.429 201.578 228.429C195.217 228.429 190.06 223.272 190.06 216.911C190.06 210.55 195.217 205.394 201.578 205.394C207.939 205.394 213.096 210.55 213.096 216.911ZM237.093 228.429C243.455 228.429 248.611 223.272 248.611 216.911C248.611 210.55 243.455 205.394 237.093 205.394C230.732 205.394 225.576 210.55 225.576 216.911C225.576 223.272 230.732 228.429 237.093 228.429ZM319.643 216.911C319.643 223.272 314.486 228.429 308.125 228.429C301.764 228.429 296.607 223.272 296.607 216.911C296.607 210.55 301.764 205.394 308.125 205.394C314.486 205.394 319.643 210.55 319.643 216.911ZM272.61 228.429C278.971 228.429 284.127 223.272 284.127 216.911C284.127 210.55 278.971 205.394 272.61 205.394C266.248 205.394 261.092 210.55 261.092 216.911C261.092 223.272 266.248 228.429 272.61 228.429ZM355.159 216.911C355.159 223.272 350.002 228.429 343.641 228.429C337.28 228.429 332.123 223.272 332.123 216.911C332.123 210.55 337.28 205.394 343.641 205.394C350.002 205.394 355.159 210.55 355.159 216.911ZM379.157 228.429C385.518 228.429 390.674 223.272 390.674 216.911C390.674 210.55 385.518 205.394 379.157 205.394C372.796 205.394 367.639 210.55 367.639 216.911C367.639 223.272 372.796 228.429 379.157 228.429ZM426.191 216.911C426.191 223.272 421.034 228.429 414.673 228.429C408.312 228.429 403.155 223.272 403.155 216.911C403.155 210.55 408.312 205.394 414.673 205.394C421.034 205.394 426.191 210.55 426.191 216.911ZM450.189 228.429C456.55 228.429 461.707 223.272 461.707 216.911C461.707 210.55 456.55 205.394 450.189 205.394C443.828 205.394 438.671 210.55 438.671 216.911C438.671 223.272 443.828 228.429 450.189 228.429ZM71.0315 178.329C71.0315 184.69 65.8748 189.846 59.5137 189.846C53.1526 189.846 47.9959 184.69 47.9959 178.329C47.9959 171.968 53.1526 166.811 59.5137 166.811C65.8748 166.811 71.0315 171.968 71.0315 178.329ZM95.0298 189.846C101.391 189.846 106.548 184.69 106.548 178.329C106.548 171.968 101.391 166.811 95.0298 166.811C88.6687 166.811 83.512 171.968 83.512 178.329C83.512 184.69 88.6687 189.846 95.0298 189.846ZM142.063 178.329C142.063 184.69 136.906 189.846 130.545 189.846C124.184 189.846 119.028 184.69 119.028 178.329C119.028 171.968 124.184 166.811 130.545 166.811C136.906 166.811 142.063 171.968 142.063 178.329ZM166.061 189.846C172.422 189.846 177.579 184.69 177.579 178.329C177.579 171.968 172.422 166.811 166.061 166.811C159.7 166.811 154.544 171.968 154.544 178.329C154.544 184.69 159.7 189.846 166.061 189.846ZM213.096 178.329C213.096 184.69 207.939 189.846 201.578 189.846C195.217 189.846 190.06 184.69 190.06 178.329C190.06 171.968 195.217 166.811 201.578 166.811C207.939 166.811 213.096 171.968 213.096 178.329ZM237.093 189.846C243.455 189.846 248.611 184.69 248.611 178.329C248.611 171.968 243.455 166.811 237.093 166.811C230.732 166.811 225.576 171.968 225.576 178.329C225.576 184.69 230.732 189.846 237.093 189.846ZM284.127 178.329C284.127 184.69 278.971 189.846 272.61 189.846C266.248 189.846 261.092 184.69 261.092 178.329C261.092 171.968 266.248 166.811 272.61 166.811C278.971 166.811 284.127 171.968 284.127 178.329ZM308.125 189.846C314.486 189.846 319.643 184.69 319.643 178.329C319.643 171.968 314.486 166.811 308.125 166.811C301.764 166.811 296.607 171.968 296.607 178.329C296.607 184.69 301.764 189.846 308.125 189.846ZM355.159 178.329C355.159 184.69 350.002 189.846 343.641 189.846C337.28 189.846 332.123 184.69 332.123 178.329C332.123 171.968 337.28 166.811 343.641 166.811C350.002 166.811 355.159 171.968 355.159 178.329ZM379.157 189.846C385.518 189.846 390.674 184.69 390.674 178.329C390.674 171.968 385.518 166.811 379.157 166.811C372.796 166.811 367.639 171.968 367.639 178.329C367.639 184.69 372.796 189.846 379.157 189.846ZM426.191 178.329C426.191 184.69 421.034 189.846 414.673 189.846C408.312 189.846 403.155 184.69 403.155 178.329C403.155 171.968 408.312 166.811 414.673 166.811C421.034 166.811 426.191 171.968 426.191 178.329ZM450.189 189.846C456.55 189.846 461.707 184.69 461.707 178.329C461.707 171.968 456.55 166.811 450.189 166.811C443.828 166.811 438.671 171.968 438.671 178.329C438.671 184.69 443.828 189.846 450.189 189.846ZM71.0315 139.746C71.0315 146.107 65.8748 151.264 59.5137 151.264C53.1526 151.264 47.9959 146.107 47.9959 139.746C47.9959 133.385 53.1526 128.228 59.5137 128.228C65.8748 128.228 71.0315 133.385 71.0315 139.746ZM95.0298 151.264C101.391 151.264 106.548 146.107 106.548 139.746C106.548 133.385 101.391 128.228 95.0298 128.228C88.6687 128.228 83.512 133.385 83.512 139.746C83.512 146.107 88.6687 151.264 95.0298 151.264ZM142.063 139.746C142.063 146.107 136.906 151.264 130.545 151.264C124.184 151.264 119.028 146.107 119.028 139.746C119.028 133.385 124.184 128.228 130.545 128.228C136.906 128.228 142.063 133.385 142.063 139.746ZM166.061 151.264C172.422 151.264 177.579 146.107 177.579 139.746C177.579 133.385 172.422 128.228 166.061 128.228C159.7 128.228 154.544 133.385 154.544 139.746C154.544 146.107 159.7 151.264 166.061 151.264ZM213.096 139.746C213.096 146.107 207.939 151.264 201.578 151.264C195.217 151.264 190.06 146.107 190.06 139.746C190.06 133.385 195.217 128.228 201.578 128.228C207.939 128.228 213.096 133.385 213.096 139.746ZM237.093 151.264C243.455 151.264 248.611 146.107 248.611 139.746C248.611 133.385 243.455 128.228 237.093 128.228C230.732 128.228 225.576 133.385 225.576 139.746C225.576 146.107 230.732 151.264 237.093 151.264ZM284.127 139.746C284.127 146.107 278.971 151.264 272.61 151.264C266.248 151.264 261.092 146.107 261.092 139.746C261.092 133.385 266.248 128.228 272.61 128.228C278.971 128.228 284.127 133.385 284.127 139.746ZM308.125 151.264C314.486 151.264 319.643 146.107 319.643 139.746C319.643 133.385 314.486 128.228 308.125 128.228C301.764 128.228 296.607 133.385 296.607 139.746C296.607 146.107 301.764 151.264 308.125 151.264ZM355.159 139.746C355.159 146.107 350.002 151.264 343.641 151.264C337.28 151.264 332.123 146.107 332.123 139.746C332.123 133.385 337.28 128.228 343.641 128.228C350.002 128.228 355.159 133.385 355.159 139.746ZM379.157 151.264C385.518 151.264 390.674 146.107 390.674 139.746C390.674 133.385 385.518 128.228 379.157 128.228C372.796 128.228 367.639 133.385 367.639 139.746C367.639 146.107 372.796 151.264 379.157 151.264ZM426.191 139.746C426.191 146.107 421.034 151.264 414.673 151.264C408.312 151.264 403.155 146.107 403.155 139.746C403.155 133.385 408.312 128.228 414.673 128.228C421.034 128.228 426.191 133.385 426.191 139.746ZM450.189 151.264C456.55 151.264 461.707 146.107 461.707 139.746C461.707 133.385 456.55 128.228 450.189 128.228C443.828 128.228 438.671 133.385 438.671 139.746C438.671 146.107 443.828 151.264 450.189 151.264ZM71.0315 101.164C71.0315 107.525 65.8748 112.682 59.5137 112.682C53.1526 112.682 47.9959 107.525 47.9959 101.164C47.9959 94.8029 53.1526 89.6462 59.5137 89.6462C65.8748 89.6462 71.0315 94.8029 71.0315 101.164ZM95.0298 112.682C101.391 112.682 106.548 107.525 106.548 101.164C106.548 94.8029 101.391 89.6462 95.0298 89.6462C88.6687 89.6462 83.512 94.8029 83.512 101.164C83.512 107.525 88.6687 112.682 95.0298 112.682ZM142.063 101.164C142.063 107.525 136.906 112.682 130.545 112.682C124.184 112.682 119.028 107.525 119.028 101.164C119.028 94.8029 124.184 89.6462 130.545 89.6462C136.906 89.6462 142.063 94.8029 142.063 101.164ZM166.061 112.682C172.422 112.682 177.579 107.525 177.579 101.164C177.579 94.8029 172.422 89.6462 166.061 89.6462C159.7 89.6462 154.544 94.8029 154.544 101.164C154.544 107.525 159.7 112.682 166.061 112.682ZM213.096 101.164C213.096 107.525 207.939 112.682 201.578 112.682C195.217 112.682 190.06 107.525 190.06 101.164C190.06 94.8029 195.217 89.6462 201.578 89.6462C207.939 89.6462 213.096 94.8029 213.096 101.164ZM237.093 112.682C243.455 112.682 248.611 107.525 248.611 101.164C248.611 94.8029 243.455 89.6462 237.093 89.6462C230.732 89.6462 225.576 94.8029 225.576 101.164C225.576 107.525 230.732 112.682 237.093 112.682ZM284.127 101.164C284.127 107.525 278.971 112.682 272.61 112.682C266.248 112.682 261.092 107.525 261.092 101.164C261.092 94.8029 266.248 89.6462 272.61 89.6462C278.971 89.6462 284.127 94.8029 284.127 101.164ZM308.125 112.682C314.486 112.682 319.643 107.525 319.643 101.164C319.643 94.8029 314.486 89.6462 308.125 89.6462C301.764 89.6462 296.607 94.8029 296.607 101.164C296.607 107.525 301.764 112.682 308.125 112.682ZM355.159 101.164C355.159 107.525 350.002 112.682 343.641 112.682C337.28 112.682 332.123 107.525 332.123 101.164C332.123 94.8029 337.28 89.6462 343.641 89.6462C350.002 89.6462 355.159 94.8029 355.159 101.164ZM379.157 112.682C385.518 112.682 390.674 107.525 390.674 101.164C390.674 94.8029 385.518 89.6462 379.157 89.6462C372.796 89.6462 367.639 94.8029 367.639 101.164C367.639 107.525 372.796 112.682 379.157 112.682ZM426.191 101.164C426.191 107.525 421.034 112.682 414.673 112.682C408.312 112.682 403.155 107.525 403.155 101.164C403.155 94.8029 408.312 89.6462 414.673 89.6462C421.034 89.6462 426.191 94.8029 426.191 101.164ZM450.189 112.682C456.55 112.682 461.707 107.525 461.707 101.164C461.707 94.8029 456.55 89.6462 450.189 89.6462C443.828 89.6462 438.671 94.8029 438.671 101.164C438.671 107.525 443.828 112.682 450.189 112.682ZM71.0315 62.5813C71.0315 68.9424 65.8748 74.0991 59.5137 74.0991C53.1526 74.0991 47.9959 68.9424 47.9959 62.5813C47.9959 56.2202 53.1526 51.0635 59.5137 51.0635C65.8748 51.0635 71.0315 56.2202 71.0315 62.5813ZM95.0298 74.0991C101.391 74.0991 106.548 68.9424 106.548 62.5813C106.548 56.2202 101.391 51.0635 95.0298 51.0635C88.6687 51.0635 83.512 56.2202 83.512 62.5813C83.512 68.9424 88.6687 74.0991 95.0298 74.0991ZM142.063 62.5813C142.063 68.9424 136.906 74.0991 130.545 74.0991C124.184 74.0991 119.028 68.9424 119.028 62.5813C119.028 56.2202 124.184 51.0635 130.545 51.0635C136.906 51.0635 142.063 56.2202 142.063 62.5813ZM166.061 74.0991C172.422 74.0991 177.579 68.9424 177.579 62.5813C177.579 56.2202 172.422 51.0635 166.061 51.0635C159.7 51.0635 154.544 56.2202 154.544 62.5813C154.544 68.9424 159.7 74.0991 166.061 74.0991ZM213.096 62.5813C213.096 68.9424 207.939 74.0991 201.578 74.0991C195.217 74.0991 190.06 68.9424 190.06 62.5813C190.06 56.2202 195.217 51.0635 201.578 51.0635C207.939 51.0635 213.096 56.2202 213.096 62.5813ZM237.093 74.0991C243.455 74.0991 248.611 68.9424 248.611 62.5813C248.611 56.2202 243.455 51.0635 237.093 51.0635C230.732 51.0635 225.576 56.2202 225.576 62.5813C225.576 68.9424 230.732 74.0991 237.093 74.0991ZM284.127 62.5813C284.127 68.9424 278.971 74.0991 272.61 74.0991C266.248 74.0991 261.092 68.9424 261.092 62.5813C261.092 56.2202 266.248 51.0635 272.61 51.0635C278.971 51.0635 284.127 56.2202 284.127 62.5813ZM308.125 74.0991C314.486 74.0991 319.643 68.9424 319.643 62.5813C319.643 56.2202 314.486 51.0635 308.125 51.0635C301.764 51.0635 296.607 56.2202 296.607 62.5813C296.607 68.9424 301.764 74.0991 308.125 74.0991ZM355.159 62.5813C355.159 68.9424 350.002 74.0991 343.641 74.0991C337.28 74.0991 332.123 68.9424 332.123 62.5813C332.123 56.2202 337.28 51.0635 343.641 51.0635C350.002 51.0635 355.159 56.2202 355.159 62.5813ZM379.157 74.0991C385.518 74.0991 390.674 68.9424 390.674 62.5813C390.674 56.2202 385.518 51.0635 379.157 51.0635C372.796 51.0635 367.639 56.2202 367.639 62.5813C367.639 68.9424 372.796 74.0991 379.157 74.0991ZM426.191 62.5813C426.191 68.9424 421.034 74.0991 414.673 74.0991C408.312 74.0991 403.155 68.9424 403.155 62.5813C403.155 56.2202 408.312 51.0635 414.673 51.0635C421.034 51.0635 426.191 56.2202 426.191 62.5813ZM450.189 74.0991C456.55 74.0991 461.707 68.9424 461.707 62.5813C461.707 56.2202 456.55 51.0635 450.189 51.0635C443.828 51.0635 438.671 56.2202 438.671 62.5813C438.671 68.9424 443.828 74.0991 450.189 74.0991ZM71.0315 23.9987C71.0315 30.3597 65.8748 35.5164 59.5137 35.5164C53.1526 35.5164 47.9959 30.3597 47.9959 23.9987C47.9959 17.6376 53.1526 12.4809 59.5137 12.4809C65.8748 12.4809 71.0315 17.6376 71.0315 23.9987ZM95.0298 34.3606C101.391 34.3606 106.548 29.2039 106.548 22.8428C106.548 16.4818 101.391 11.3251 95.0298 11.3251C88.6687 11.3251 83.512 16.4818 83.512 22.8428C83.512 29.2039 88.6687 34.3606 95.0298 34.3606ZM142.063 22.8428C142.063 29.2039 136.906 34.3606 130.545 34.3606C124.184 34.3606 119.028 29.2039 119.028 22.8428C119.028 16.4818 124.184 11.3251 130.545 11.3251C136.906 11.3251 142.063 16.4818 142.063 22.8428ZM166.061 34.3606C172.422 34.3606 177.579 29.2039 177.579 22.8428C177.579 16.4818 172.422 11.3251 166.061 11.3251C159.7 11.3251 154.544 16.4818 154.544 22.8428C154.544 29.2039 159.7 34.3606 166.061 34.3606ZM213.096 22.8428C213.096 29.2039 207.939 34.3606 201.578 34.3606C195.217 34.3606 190.06 29.2039 190.06 22.8428C190.06 16.4818 195.217 11.3251 201.578 11.3251C207.939 11.3251 213.096 16.4818 213.096 22.8428ZM237.093 34.3606C243.455 34.3606 248.611 29.2039 248.611 22.8428C248.611 16.4818 243.455 11.3251 237.093 11.3251C230.732 11.3251 225.576 16.4818 225.576 22.8428C225.576 29.2039 230.732 34.3606 237.093 34.3606ZM284.127 22.8428C284.127 29.2039 278.971 34.3606 272.61 34.3606C266.248 34.3606 261.092 29.2039 261.092 22.8428C261.092 16.4818 266.248 11.3251 272.61 11.3251C278.971 11.3251 284.127 16.4818 284.127 22.8428ZM308.125 35.5164C314.486 35.5164 319.643 30.3597 319.643 23.9987C319.643 17.6376 314.486 12.4809 308.125 12.4809C301.764 12.4809 296.607 17.6376 296.607 23.9987C296.607 30.3597 301.764 35.5164 308.125 35.5164ZM355.159 22.8428C355.159 29.2039 350.002 34.3606 343.641 34.3606C337.28 34.3606 332.123 29.2039 332.123 22.8428C332.123 16.4818 337.28 11.3251 343.641 11.3251C350.002 11.3251 355.159 16.4818 355.159 22.8428ZM379.157 34.3606C385.518 34.3606 390.674 29.2039 390.674 22.8428C390.674 16.4818 385.518 11.3251 379.157 11.3251C372.796 11.3251 367.639 16.4818 367.639 22.8428C367.639 29.2039 372.796 34.3606 379.157 34.3606ZM426.191 22.8428C426.191 29.2039 421.034 34.3606 414.673 34.3606C408.312 34.3606 403.155 29.2039 403.155 22.8428C403.155 16.4818 408.312 11.3251 414.673 11.3251C421.034 11.3251 426.191 16.4818 426.191 22.8428ZM450.189 34.3606C456.55 34.3606 461.707 29.2039 461.707 22.8428C461.707 16.4818 456.55 11.3251 450.189 11.3251C443.828 11.3251 438.671 16.4818 438.671 22.8428C438.671 29.2039 443.828 34.3606 450.189 34.3606Z" fill="#AAAAAA"/>
</g>
</svg>
