<?xml version="1.0" encoding="UTF-8"?>
<svg width="162px" height="151px" viewBox="0 0 162 151" version="1.1" xmlns="http://www.w3.org/2000/svg" xmlns:xlink="http://www.w3.org/1999/xlink">
    <!-- Generator: Sketch 46.2 (44496) - http://www.bohemiancoding.com/sketch -->
    <title>castleIcon</title>
    <desc>Created with Sketch.</desc>
    <defs>
        <path d="M60.6896552,82.7777778 L60.6896552,93.8148148 L49.6551724,93.8148148 L49.6551724,82.7777778 C49.6551724,79.7425926 52.137931,77.2592593 55.1724138,77.2592593 C58.2068966,77.2592593 60.6896552,79.7425926 60.6896552,82.7777778 Z M110.344828,82.7777778 L110.344828,93.8148148 L99.3103448,93.8148148 L99.3103448,82.7777778 C99.3103448,79.7425926 101.793103,77.2592593 104.827586,77.2592593 C107.862069,77.2592593 110.344828,79.7425926 110.344828,82.7777778 Z M93.7931034,124.166667 L93.7931034,126.925926 L66.2068966,126.925926 L66.2068966,124.166667 C66.2068966,116.551111 72.3862069,110.37037 80,110.37037 C87.6137931,110.37037 93.7931034,116.551111 93.7931034,124.166667 Z M66.2068966,137.962963 L66.2068966,126.925926 L93.7931034,126.925926 L93.7931034,137.962963 L66.2068966,137.962963 Z M66.2068966,149 L66.2068966,137.962963 L93.7931034,137.962963 L93.7931034,149 L66.2068966,149 Z" id="path-1"></path>
        <filter x="-6.6%" y="-5.6%" width="113.2%" height="111.2%" filterUnits="objectBoundingBox" id="filter-2">
            <feOffset dx="-8" dy="0" in="SourceAlpha" result="shadowOffsetInner1"></feOffset>
            <feComposite in="shadowOffsetInner1" in2="SourceAlpha" operator="arithmetic" k2="-1" k3="1" result="shadowInnerInner1"></feComposite>
            <feColorMatrix values="0 0 0 0 0   0 0 0 0 0   0 0 0 0 0  0 0 0 0.12 0" type="matrix" in="shadowInnerInner1"></feColorMatrix>
        </filter>
        <path d="M60.6896552,93.8148148 L60.6896552,82.7777778 C60.6896552,79.7425926 58.2068966,77.2592593 55.1724138,77.2592593 C52.137931,77.2592593 49.6551724,79.7425926 49.6551724,82.7777778 L49.6551724,93.8148148 L60.6896552,93.8148148 Z M110.344828,93.8148148 L110.344828,82.7777778 C110.344828,79.7425926 107.862069,77.2592593 104.827586,77.2592593 C101.793103,77.2592593 99.3103448,79.7425926 99.3103448,82.7777778 L99.3103448,93.8148148 L110.344828,93.8148148 Z M124.137931,135.203704 C122.62069,135.203704 121.37931,136.44537 121.37931,137.962963 C121.37931,136.44537 120.137931,135.203704 118.62069,135.203704 C117.103448,135.203704 115.862069,136.44537 115.862069,137.962963 C115.862069,136.44537 114.62069,135.203704 113.103448,135.203704 C111.586207,135.203704 110.344828,136.44537 110.344828,137.962963 C110.344828,136.44537 109.103448,135.203704 107.586207,135.203704 C106.068966,135.203704 104.827586,136.44537 104.827586,137.962963 L104.827586,149 L93.7931034,149 L93.7931034,137.962963 L93.7931034,126.925926 L93.7931034,124.166667 C93.7931034,116.551111 87.6137931,110.37037 80,110.37037 C72.3862069,110.37037 66.2068966,116.551111 66.2068966,124.166667 L66.2068966,126.925926 L66.2068966,137.962963 L66.2068966,149 L55.1724138,149 L55.1724138,137.962963 C55.1724138,136.44537 53.9310345,135.203704 52.4137931,135.203704 C50.8965517,135.203704 49.6551724,136.44537 49.6551724,137.962963 C49.6551724,136.44537 48.4137931,135.203704 46.8965517,135.203704 C45.3793103,135.203704 44.137931,136.44537 44.137931,137.962963 C44.137931,136.44537 42.8965517,135.203704 41.3793103,135.203704 C39.862069,135.203704 38.6206897,136.44537 38.6206897,137.962963 C38.6206897,136.44537 37.3793103,135.203704 35.862069,135.203704 L33.1034483,135.203704 L33.1034483,60.7037037 L41.3793103,60.7037037 L41.3793103,49.6666667 L52.4137931,49.6666667 L52.4137931,60.7037037 L63.4482759,60.7037037 L63.4482759,49.6666667 L74.4827586,49.6666667 L74.4827586,60.7037037 L85.5172414,60.7037037 L85.5172414,49.6666667 L96.5517241,49.6666667 L96.5517241,60.7037037 L107.586207,60.7037037 L107.586207,49.6666667 L118.62069,49.6666667 L118.62069,60.7037037 L126.896552,60.7037037 L126.896552,135.203704 L129.655172,135.203704 C128.137931,135.203704 126.896552,136.44537 126.896552,137.962963 C126.896552,136.44537 125.655172,135.203704 124.137931,135.203704 L124.137931,135.203704 Z" id="path-3"></path>
        <filter x="-4.1%" y="-4.0%" width="108.3%" height="108.1%" filterUnits="objectBoundingBox" id="filter-4">
            <feOffset dx="-8" dy="0" in="SourceAlpha" result="shadowOffsetInner1"></feOffset>
            <feComposite in="shadowOffsetInner1" in2="SourceAlpha" operator="arithmetic" k2="-1" k3="1" result="shadowInnerInner1"></feComposite>
            <feColorMatrix values="0 0 0 0 0   0 0 0 0 0   0 0 0 0 0  0 0 0 0.08 0" type="matrix" in="shadowInnerInner1"></feColorMatrix>
        </filter>
        <path d="M160,137.962963 L160,149 L104.827586,149 L104.827586,137.962963 C104.827586,136.44537 106.068966,135.203704 107.586207,135.203704 C109.103448,135.203704 110.344828,136.44537 110.344828,137.962963 C110.344828,136.44537 111.586207,135.203704 113.103448,135.203704 C114.62069,135.203704 115.862069,136.44537 115.862069,137.962963 C115.862069,136.44537 117.103448,135.203704 118.62069,135.203704 C120.137931,135.203704 121.37931,136.44537 121.37931,137.962963 C121.37931,136.44537 122.62069,135.203704 124.137931,135.203704 C125.655172,135.203704 126.896552,136.44537 126.896552,137.962963 C126.896552,136.44537 128.137931,135.203704 129.655172,135.203704 C131.172414,135.203704 132.413793,136.44537 132.413793,137.962963 C132.413793,136.44537 133.655172,135.203704 135.172414,135.203704 C136.689655,135.203704 137.931034,136.44537 137.931034,137.962963 C137.931034,136.44537 139.172414,135.203704 140.689655,135.203704 C142.206897,135.203704 143.448276,136.44537 143.448276,137.962963 C143.448276,136.44537 144.689655,135.203704 146.206897,135.203704 C147.724138,135.203704 148.965517,136.44537 148.965517,137.962963 C148.965517,136.44537 150.206897,135.203704 151.724138,135.203704 C153.241379,135.203704 154.482759,136.44537 154.482759,137.962963 C154.482759,136.44537 155.724138,135.203704 157.241379,135.203704 C158.758621,135.203704 160,136.44537 160,137.962963 Z M30.3448276,135.203704 C31.862069,135.203704 33.1034483,136.44537 33.1034483,137.962963 C33.1034483,136.44537 34.3448276,135.203704 35.862069,135.203704 C37.3793103,135.203704 38.6206897,136.44537 38.6206897,137.962963 C38.6206897,136.44537 39.862069,135.203704 41.3793103,135.203704 C42.8965517,135.203704 44.137931,136.44537 44.137931,137.962963 C44.137931,136.44537 45.3793103,135.203704 46.8965517,135.203704 C48.4137931,135.203704 49.6551724,136.44537 49.6551724,137.962963 C49.6551724,136.44537 50.8965517,135.203704 52.4137931,135.203704 C53.9310345,135.203704 55.1724138,136.44537 55.1724138,137.962963 L55.1724138,149 L0,149 L0,137.962963 C0,136.44537 1.24137931,135.203704 2.75862069,135.203704 C4.27586207,135.203704 5.51724138,136.44537 5.51724138,137.962963 C5.51724138,136.44537 6.75862069,135.203704 8.27586207,135.203704 C9.79310345,135.203704 11.0344828,136.44537 11.0344828,137.962963 C11.0344828,136.44537 12.2758621,135.203704 13.7931034,135.203704 C15.3103448,135.203704 16.5517241,136.44537 16.5517241,137.962963 C16.5517241,136.44537 17.7931034,135.203704 19.3103448,135.203704 C20.8275862,135.203704 22.0689655,136.44537 22.0689655,137.962963 C22.0689655,136.44537 23.3103448,135.203704 24.8275862,135.203704 C26.3448276,135.203704 27.5862069,136.44537 27.5862069,137.962963 C27.5862069,136.44537 28.8275862,135.203704 30.3448276,135.203704 Z" id="path-5"></path>
        <filter x="-2.5%" y="-29.0%" width="105.0%" height="158.0%" filterUnits="objectBoundingBox" id="filter-6">
            <feOffset dx="-8" dy="0" in="SourceAlpha" result="shadowOffsetInner1"></feOffset>
            <feComposite in="shadowOffsetInner1" in2="SourceAlpha" operator="arithmetic" k2="-1" k3="1" result="shadowInnerInner1"></feComposite>
            <feColorMatrix values="0 0 0 0 0   0 0 0 0 0   0 0 0 0 0  0 0 0 0.1 0" type="matrix" in="shadowInnerInner1"></feColorMatrix>
        </filter>
        <polygon id="path-7" points="71.7241379 16.5555556 99.3103448 16.5555556 99.3103448 0 71.7241379 0"></polygon>
        <filter x="-14.5%" y="-24.2%" width="129.0%" height="148.3%" filterUnits="objectBoundingBox" id="filter-8">
            <feOffset dx="-8" dy="0" in="SourceAlpha" result="shadowOffsetInner1"></feOffset>
            <feComposite in="shadowOffsetInner1" in2="SourceAlpha" operator="arithmetic" k2="-1" k3="1" result="shadowInnerInner1"></feComposite>
            <feColorMatrix values="0 0 0 0 0   0 0 0 0 0   0 0 0 0 0  0 0 0 0.1 0" type="matrix" in="shadowInnerInner1"></feColorMatrix>
        </filter>
        <path d="M33.1034483,135.203704 L35.862069,135.203704 C34.3448276,135.203704 33.1034483,136.44537 33.1034483,137.962963 C33.1034483,136.44537 31.862069,135.203704 30.3448276,135.203704 C28.8275862,135.203704 27.5862069,136.44537 27.5862069,137.962963 C27.5862069,136.44537 26.3448276,135.203704 24.8275862,135.203704 C23.3103448,135.203704 22.0689655,136.44537 22.0689655,137.962963 C22.0689655,136.44537 20.8275862,135.203704 19.3103448,135.203704 C17.7931034,135.203704 16.5517241,136.44537 16.5517241,137.962963 C16.5517241,136.44537 15.3103448,135.203704 13.7931034,135.203704 C12.2758621,135.203704 11.0344828,136.44537 11.0344828,137.962963 C11.0344828,136.44537 9.79310345,135.203704 8.27586207,135.203704 C6.75862069,135.203704 5.51724138,136.44537 5.51724138,137.962963 C5.51724138,136.44537 4.27586207,135.203704 2.75862069,135.203704 C1.24137931,135.203704 0,136.44537 0,137.962963 L0,33.1111111 L11.0344828,33.1111111 L11.0344828,44.1481481 L22.0689655,44.1481481 L22.0689655,33.1111111 L33.1034483,33.1111111 L33.1034483,60.7037037 L33.1034483,135.203704 Z" id="path-9"></path>
        <filter x="-11.2%" y="-3.8%" width="122.3%" height="107.6%" filterUnits="objectBoundingBox" id="filter-10">
            <feOffset dx="-8" dy="0" in="SourceAlpha" result="shadowOffsetInner1"></feOffset>
            <feComposite in="shadowOffsetInner1" in2="SourceAlpha" operator="arithmetic" k2="-1" k3="1" result="shadowInnerInner1"></feComposite>
            <feColorMatrix values="0 0 0 0 0   0 0 0 0 0   0 0 0 0 0  0 0 0 0.08 0" type="matrix" in="shadowInnerInner1"></feColorMatrix>
        </filter>
        <path d="M160,33.1111111 L160,137.962963 C160,136.44537 158.758621,135.203704 157.241379,135.203704 C155.724138,135.203704 154.482759,136.44537 154.482759,137.962963 C154.482759,136.44537 153.241379,135.203704 151.724138,135.203704 C150.206897,135.203704 148.965517,136.44537 148.965517,137.962963 C148.965517,136.44537 147.724138,135.203704 146.206897,135.203704 C144.689655,135.203704 143.448276,136.44537 143.448276,137.962963 C143.448276,136.44537 142.206897,135.203704 140.689655,135.203704 C139.172414,135.203704 137.931034,136.44537 137.931034,137.962963 C137.931034,136.44537 136.689655,135.203704 135.172414,135.203704 C133.655172,135.203704 132.413793,136.44537 132.413793,137.962963 C132.413793,136.44537 131.172414,135.203704 129.655172,135.203704 L126.896552,135.203704 L126.896552,60.7037037 L126.896552,33.1111111 L137.931034,33.1111111 L137.931034,44.1481481 L148.965517,44.1481481 L148.965517,33.1111111 L160,33.1111111 Z" id="path-11"></path>
        <filter x="-12.1%" y="-3.8%" width="124.2%" height="107.6%" filterUnits="objectBoundingBox" id="filter-12">
            <feOffset dx="-8" dy="0" in="SourceAlpha" result="shadowOffsetInner1"></feOffset>
            <feComposite in="shadowOffsetInner1" in2="SourceAlpha" operator="arithmetic" k2="-1" k3="1" result="shadowInnerInner1"></feComposite>
            <feColorMatrix values="0 0 0 0 0   0 0 0 0 0   0 0 0 0 0  0 0 0 0.08 0" type="matrix" in="shadowInnerInner1"></feColorMatrix>
        </filter>
    </defs>
    <g id="round-3" stroke="none" stroke-width="1" fill="none" fill-rule="evenodd">
        <g id="Final" transform="translate(-198.000000, -3077.000000)">
            <g id="castleIcon" transform="translate(199.000000, 3078.000000)">
                <g id="Group-4">
                    <g id="fill">
                        <g id="Combined-Shape">
                            <use fill="#9D9D9D" fill-rule="evenodd" xlink:href="#path-1"></use>
                            <use fill="black" fill-opacity="1" filter="url(#filter-2)" xlink:href="#path-1"></use>
                        </g>
                        <g id="Fill-3">
                            <use fill="#F7F7F7" fill-rule="evenodd" xlink:href="#path-3"></use>
                            <use fill="black" fill-opacity="1" filter="url(#filter-4)" xlink:href="#path-3"></use>
                        </g>
                        <g id="Combined-Shape">
                            <use fill="#C3E6DC" fill-rule="evenodd" xlink:href="#path-5"></use>
                            <use fill="black" fill-opacity="1" filter="url(#filter-6)" xlink:href="#path-5"></use>
                        </g>
                        <g id="Fill-9">
                            <use fill="#C3E6DC" fill-rule="evenodd" xlink:href="#path-7"></use>
                            <use fill="black" fill-opacity="1" filter="url(#filter-8)" xlink:href="#path-7"></use>
                        </g>
                        <g id="Fill-12">
                            <use fill="#F7F7F7" fill-rule="evenodd" xlink:href="#path-9"></use>
                            <use fill="black" fill-opacity="1" filter="url(#filter-10)" xlink:href="#path-9"></use>
                        </g>
                        <g id="Fill-16">
                            <use fill="#F7F7F7" fill-rule="evenodd" xlink:href="#path-11"></use>
                            <use fill="black" fill-opacity="1" filter="url(#filter-12)" xlink:href="#path-11"></use>
                        </g>
                    </g>
                    <path d="M104.827586,77.2592593 C101.782069,77.2592593 99.3103448,79.7315556 99.3103448,82.7777778 L99.3103448,93.8148148 L110.344828,93.8148148 L110.344828,82.7777778 C110.344828,79.7315556 107.873103,77.2592593 104.827586,77.2592593 L104.827586,77.2592593 L104.827586,77.2592593 L104.827586,77.2592593 L104.827586,77.2592593 L104.827586,77.2592593 L104.827586,77.2592593 Z M55.1724138,77.2592593 C52.1268966,77.2592593 49.6551724,79.7315556 49.6551724,82.7777778 L49.6551724,93.8148148 L60.6896552,93.8148148 L60.6896552,82.7777778 C60.6896552,79.7315556 58.217931,77.2592593 55.1724138,77.2592593 L55.1724138,77.2592593 L55.1724138,77.2592593 L55.1724138,77.2592593 L55.1724138,77.2592593 L55.1724138,77.2592593 L55.1724138,77.2592593 Z M66.2068966,126.925926 L93.7931034,126.925926 L66.2068966,126.925926 L66.2068966,126.925926 L66.2068966,126.925926 L66.2068966,126.925926 L66.2068966,126.925926 L66.2068966,126.925926 Z M66.2068966,137.962963 L93.7931034,137.962963 L66.2068966,137.962963 L66.2068966,137.962963 L66.2068966,137.962963 L66.2068966,137.962963 L66.2068966,137.962963 L66.2068966,137.962963 Z M80,110.37037 C72.3806897,110.37037 66.2068966,116.548352 66.2068966,124.166667 L66.2068966,149 L93.7931034,149 L93.7931034,124.166667 C93.7931034,116.548352 87.6193103,110.37037 80,110.37037 L80,110.37037 L80,110.37037 L80,110.37037 L80,110.37037 L80,110.37037 L80,110.37037 Z M160,137.962963 C160,136.439852 158.766897,135.203704 157.241379,135.203704 C155.715862,135.203704 154.482759,136.439852 154.482759,137.962963 C154.482759,136.439852 153.249655,135.203704 151.724138,135.203704 C150.198621,135.203704 148.965517,136.439852 148.965517,137.962963 C148.965517,136.439852 147.732414,135.203704 146.206897,135.203704 C144.681379,135.203704 143.448276,136.439852 143.448276,137.962963 C143.448276,136.439852 142.215172,135.203704 140.689655,135.203704 C139.164138,135.203704 137.931034,136.439852 137.931034,137.962963 C137.931034,136.439852 136.697931,135.203704 135.172414,135.203704 C133.646897,135.203704 132.413793,136.439852 132.413793,137.962963 C132.413793,136.439852 131.18069,135.203704 129.655172,135.203704 C128.129655,135.203704 126.896552,136.439852 126.896552,137.962963 C126.896552,136.439852 125.663448,135.203704 124.137931,135.203704 C122.612414,135.203704 121.37931,136.439852 121.37931,137.962963 C121.37931,136.439852 120.146207,135.203704 118.62069,135.203704 C117.095172,135.203704 115.862069,136.439852 115.862069,137.962963 C115.862069,136.439852 114.628966,135.203704 113.103448,135.203704 C111.577931,135.203704 110.344828,136.439852 110.344828,137.962963 C110.344828,136.439852 109.111724,135.203704 107.586207,135.203704 C106.06069,135.203704 104.827586,136.439852 104.827586,137.962963 L104.827586,149 L160,149 L160,137.962963 L160,137.962963 L160,137.962963 L160,137.962963 L160,137.962963 L160,137.962963 L160,137.962963 Z M55.1724138,137.962963 C55.1724138,136.439852 53.9393103,135.203704 52.4137931,135.203704 C50.8882759,135.203704 49.6551724,136.439852 49.6551724,137.962963 C49.6551724,136.439852 48.422069,135.203704 46.8965517,135.203704 C45.3710345,135.203704 44.137931,136.439852 44.137931,137.962963 C44.137931,136.439852 42.9048276,135.203704 41.3793103,135.203704 C39.8537931,135.203704 38.6206897,136.439852 38.6206897,137.962963 C38.6206897,136.439852 37.3875862,135.203704 35.862069,135.203704 C34.3365517,135.203704 33.1034483,136.439852 33.1034483,137.962963 C33.1034483,136.439852 31.8703448,135.203704 30.3448276,135.203704 C28.8193103,135.203704 27.5862069,136.439852 27.5862069,137.962963 C27.5862069,136.439852 26.3531034,135.203704 24.8275862,135.203704 C23.302069,135.203704 22.0689655,136.439852 22.0689655,137.962963 C22.0689655,136.439852 20.8358621,135.203704 19.3103448,135.203704 C17.7848276,135.203704 16.5517241,136.439852 16.5517241,137.962963 C16.5517241,136.439852 15.3186207,135.203704 13.7931034,135.203704 C12.2675862,135.203704 11.0344828,136.439852 11.0344828,137.962963 C11.0344828,136.439852 9.80137931,135.203704 8.27586207,135.203704 C6.75034483,135.203704 5.51724138,136.439852 5.51724138,137.962963 C5.51724138,136.439852 4.28413793,135.203704 2.75862069,135.203704 C1.23310345,135.203704 0,136.439852 0,137.962963 L0,149 L55.1724138,149 L55.1724138,137.962963 L55.1724138,137.962963 L55.1724138,137.962963 L55.1724138,137.962963 L55.1724138,137.962963 L55.1724138,137.962963 L55.1724138,137.962963 Z M33.1034483,124.166667 L33.1034483,33.1111111 L22.0689655,33.1111111 L22.0689655,44.1481481 L11.0344828,44.1481481 L11.0344828,33.1111111 L0,33.1111111 L0,137.962963 M160,137.962963 L160,33.1111111 L148.965517,33.1111111 L148.965517,44.1481481 L137.931034,44.1481481 L137.931034,33.1111111 L126.896552,33.1111111 L126.896552,124.166667 M82.7586207,16.5555556 L99.3103448,16.5555556 L99.3103448,0 L71.7241379,0 L71.7241379,38.6296296 M115.862069,49.6666667 L107.586207,49.6666667 L107.586207,60.7037037 L96.5517241,60.7037037 L96.5517241,49.6666667 M85.5172414,49.6666667 L85.5172414,60.7037037 L74.4827586,60.7037037 L74.4827586,49.6666667 L63.4482759,49.6666667 L63.4482759,60.7037037 L52.4137931,60.7037037 L52.4137931,49.6666667 L44.137931,49.6666667" id="stroke" stroke="#505E5B" stroke-width="2" stroke-linecap="round" stroke-linejoin="round"></path>
                </g>
            </g>
        </g>
    </g>
</svg>