<?xml version="1.0" encoding="UTF-8"?>
<svg width="84px" height="84px" viewBox="0 0 84 84" version="1.1" xmlns="http://www.w3.org/2000/svg" xmlns:xlink="http://www.w3.org/1999/xlink">
    <!-- Generator: Sketch 48.2 (47327) - http://www.bohemiancoding.com/sketch -->
    <title>emailIcon</title>
    <desc>Created with Sketch.</desc>
    <defs>
        <path d="M81.01856,77.00014 C80.43056,79.39414 78.28716,81.20014 75.60056,81.20014 L5.60056,81.20014 C3.12256,81.20014 0.95256,79.61814 0.23716,77.28014 L0.23828,77.28014 C0.08428,76.76214 0.00028,76.18814 0.00028,75.60014 L0.00028,30.80014 C0.00028,30.39414 0.02828,29.98814 0.07028,29.58214 L0.25228,29.59614 L11.14428,37.87014 L30.24028,52.36014 L29.05028,53.92814 L0.25228,77.28014 L0.25256,77.28014 L29.05056,53.92814 L30.24056,52.36014 L36.34456,56.99414 C36.34456,56.99414 38.47256,58.80014 40.54456,58.80014 C42.64456,58.80014 44.80056,57.05014 44.80056,57.05014 L50.83316,52.47214 L51.6667683,53.56974 L50.834,52.472 L70.056,37.87 L80.794,29.708 L81.144,29.68 C81.186,30.044 81.2,30.422 81.2,30.8 L81.2,75.6 C81.2,76.0899096 81.1440207,76.5518296 81.0180697,76.9997521 Z" id="path-1"></path>
        <filter x="-2.5%" y="-3.9%" width="104.9%" height="107.7%" filterUnits="objectBoundingBox" id="filter-2">
            <feOffset dx="-4" dy="0" in="SourceAlpha" result="shadowOffsetInner1"></feOffset>
            <feComposite in="shadowOffsetInner1" in2="SourceAlpha" operator="arithmetic" k2="-1" k3="1" result="shadowInnerInner1"></feComposite>
            <feColorMatrix values="0 0 0 0 0   0 0 0 0 0   0 0 0 0 0  0 0 0 0.12 0" type="matrix" in="shadowInnerInner1"></feColorMatrix>
        </filter>
        <path d="M70,37.8 L70.056,37.87 L50.834,52.472 L44.8,57.05 C44.8,57.05 42.644,58.8 40.544,58.8 C38.472,58.8 36.344,56.994 36.344,56.994 L30.24,52.36 L11.144,37.87 L11.2,37.8 L11.2,18.2 L11.2,5.6 C11.2,2.632 13.734,0 16.8,0 L64.4,0 C67.368,0 70,2.534 70,5.6 L70,18.2 L70,37.8 Z" id="path-3"></path>
        <filter x="-3.4%" y="-3.4%" width="106.8%" height="106.8%" filterUnits="objectBoundingBox" id="filter-4">
            <feOffset dx="-4" dy="0" in="SourceAlpha" result="shadowOffsetInner1"></feOffset>
            <feComposite in="shadowOffsetInner1" in2="SourceAlpha" operator="arithmetic" k2="-1" k3="1" result="shadowInnerInner1"></feComposite>
            <feColorMatrix values="0 0 0 0 0   0 0 0 0 0   0 0 0 0 0  0 0 0 0.08 0" type="matrix" in="shadowInnerInner1"></feColorMatrix>
        </filter>
        <path d="M11.2,18.2 L11.2,37.8 L11.144,37.87 L0.252,29.596 L0.07,29.582 C0.378,26.712 1.792,23.828 4.2,22.4 L11.2,18.2 Z M81.144,29.68028 L80.794,29.70828 L70.056,37.87028 L70,37.80028 L70,18.20028 L77,22.40028 C79.506,23.94028 80.878,26.60028 81.144,29.68028 Z" id="path-5"></path>
        <filter x="-2.5%" y="-10.2%" width="104.9%" height="120.3%" filterUnits="objectBoundingBox" id="filter-6">
            <feOffset dx="-4" dy="0" in="SourceAlpha" result="shadowOffsetInner1"></feOffset>
            <feComposite in="shadowOffsetInner1" in2="SourceAlpha" operator="arithmetic" k2="-1" k3="1" result="shadowInnerInner1"></feComposite>
            <feColorMatrix values="0 0 0 0 0   0 0 0 0 0   0 0 0 0 0  0 0 0 0.12 0" type="matrix" in="shadowInnerInner1"></feColorMatrix>
        </filter>
    </defs>
    <g id="Keep-Presale-Web-Final-Copy-4" stroke="none" stroke-width="1" fill="none" fill-rule="evenodd" transform="translate(-384.000000, -660.000000)">
        <g id="emailIcon" transform="translate(385.000000, 659.000000)">
            <g id="fill" transform="translate(0.000000, 3.000000)">
                <g id="Combined-Shape">
                    <use fill="#C3E6DC" fill-rule="evenodd" xlink:href="#path-1"></use>
                    <use fill="black" fill-opacity="1" filter="url(#filter-2)" xlink:href="#path-1"></use>
                </g>
                <g id="Fill-3">
                    <use fill="#FFFFFF" fill-rule="evenodd" xlink:href="#path-3"></use>
                    <use fill="black" fill-opacity="1" filter="url(#filter-4)" xlink:href="#path-3"></use>
                </g>
                <g id="Combined-Shape">
                    <use fill="#C3E6DC" fill-rule="evenodd" xlink:href="#path-5"></use>
                    <use fill="black" fill-opacity="1" filter="url(#filter-6)" xlink:href="#path-5"></use>
                </g>
            </g>
            <path d="M25.2,22.4 L42,22.4 M33.6,50.4 L47.6,50.4 M33.6,33.6 L25.2,33.6 M56,33.6 L39.2,33.6 M50.4,42 L56,42 M25.2,42 L44.8,42 M5.6,24.2634 L4.2,25.2 C1.4574,26.8338 0,30.3618 0,33.6 L0,78.4 C0,81.6382 2.5816,84 5.6,84 L75.6,84 C78.7934,84 81.2,81.4632 81.2,78.4 L81.2,33.6 C81.2,30.0566 79.8,26.9206 77,25.2 L75.6,24.2634 M70,40.6 L70,8.4 C70,5.3368 67.375,2.8 64.4,2.8 L16.8,2.8 C13.7368,2.8 11.2,5.425 11.2,8.4 L11.2,40.6 M75.6,75.6 L56,60.2 M25.1412,60.2 L5.6,75.6 M75.6,36.4 L44.8,59.85 C44.8,59.85 42.6412,61.6 40.5412,61.6 C38.4706,61.6 36.3412,59.7912 36.3412,59.7912 L5.6,36.4" id="stroke" stroke="#505E5B" stroke-width="2" stroke-linecap="round" stroke-linejoin="round"></path>
        </g>
    </g>
</svg>