<?xml version="1.0" encoding="UTF-8"?>
<svg width="84px" height="84px" viewBox="0 0 84 84" version="1.1" xmlns="http://www.w3.org/2000/svg" xmlns:xlink="http://www.w3.org/1999/xlink">
    <!-- Generator: Sketch 46.2 (44496) - http://www.bohemiancoding.com/sketch -->
    <title>fingerprint</title>
    <desc>Created with Sketch.</desc>
    <defs>
        <circle id="path-1" cx="40.6" cy="40.6" r="40.6"></circle>
        <filter x="-2.5%" y="-2.5%" width="104.9%" height="104.9%" filterUnits="objectBoundingBox" id="filter-2">
            <feOffset dx="-4" dy="0" in="SourceAlpha" result="shadowOffsetInner1"></feOffset>
            <feComposite in="shadowOffsetInner1" in2="SourceAlpha" operator="arithmetic" k2="-1" k3="1" result="shadowInnerInner1"></feComposite>
            <feColorMatrix values="0 0 0 0 0   0 0 0 0 0   0 0 0 0 0  0 0 0 0.08 0" type="matrix" in="shadowInnerInner1"></feColorMatrix>
        </filter>
    </defs>
    <g id="round-3" stroke="none" stroke-width="1" fill="none" fill-rule="evenodd">
        <g id="fingerprint">
            <g id="Group" transform="translate(1.000000, 1.000000)">
                <g id="Oval">
                    <use fill="#F7F7F7" fill-rule="evenodd" xlink:href="#path-1"></use>
                    <use fill="black" fill-opacity="1" filter="url(#filter-2)" xlink:href="#path-1"></use>
                </g>
            </g>
            <path d="M70.3796089,70.95818 C72.4488089,63.19518 73.3098089,55.02058 72.7848089,46.69338 M72.1086089,40.30378 C71.9168089,38.99198 71.6858089,37.67878 71.4212089,36.36418 L71.4142089,36.36418 C68.0920089,19.88478 52.0424089,9.22098 35.5644089,12.54318 C22.9000089,15.09678 13.6698089,25.16698 11.5824089,37.17198 M6.65860889,63.04958 C10.7606089,59.57338 12.8956089,54.03358 11.7588089,48.39158 L11.7434089,48.39578 C11.4200089,46.78438 11.2282089,45.17578 11.1624089,43.58538 M56.1360089,80.25278 C57.9770089,76.47558 59.4596089,72.51498 60.5558089,68.42138 M61.9208089,62.10598 C63.1808089,54.44518 63.1038089,46.43018 61.4784089,38.36898 L61.4812089,38.36618 C59.2650089,27.37478 48.5578089,20.26138 37.5678089,22.47758 C26.5764089,24.69378 19.4630089,35.40098 21.6792089,46.39098 L21.7016089,46.38678 C22.2294089,48.99778 22.3358089,51.59478 22.0642089,54.10918 M12.8844089,71.06318 C16.2850089,68.27718 18.9072089,64.64978 20.4934089,60.56878 M42.8752089,82.93238 C47.9516089,75.51378 51.2458089,66.87998 52.2888089,57.73658 M52.6444089,51.30358 C52.6346089,47.69858 52.2734089,44.04038 51.5328089,40.37238 L51.5440089,40.36818 C50.4352089,34.86478 45.0746089,31.30318 39.5712089,32.41198 C35.4594089,33.24218 32.4312089,36.44398 31.6248089,40.30378 M21.0660089,77.37998 C29.2364089,69.73598 33.6226089,58.40158 32.0322089,46.66678 M31.1054089,81.57998 C40.1942089,71.23538 44.5202089,56.91898 41.5900089,42.37718 M1.83140889,50.39498 C1.94760889,50.97738 2.07780889,51.55418 2.21780889,52.12538 M82.1732089,43.19618 C82.2278089,40.28698 81.9688089,37.32738 81.3724089,34.35518 M81.3500089,34.35938 C79.2108089,23.74318 73.1054089,14.93858 64.8902089,9.17198 M59.4316089,5.94358 C51.6854089,2.14258 42.6722089,0.77198 33.5610089,2.60878 C23.2108089,4.69478 14.5840089,10.54818 8.81320889,18.45398 M1.80900889,50.39778 C-0.0781911096,41.04438 1.41700889,31.79038 5.45320889,23.90978" id="stroke" stroke="#505E5B" stroke-width="2" stroke-linecap="round" stroke-linejoin="round"></path>
        </g>
    </g>
</svg>