<?xml version="1.0" encoding="UTF-8"?>
<svg width="129px" height="35px" viewBox="0 0 129 35" version="1.1" xmlns="http://www.w3.org/2000/svg" xmlns:xlink="http://www.w3.org/1999/xlink">
    <!-- Generator: Sketch 46.2 (44496) - http://www.bohemiancoding.com/sketch -->
    <title>GitHub_Logo</title>
    <desc>Created with Sketch.</desc>
    <defs></defs>
    <g id="round-3" stroke="none" stroke-width="1" fill="none" fill-rule="evenodd">
        <g id="Final" transform="translate(-364.000000, -1200.000000)" fill="#AC6E16">
            <g id="GitHub_Logo" transform="translate(364.000000, 1200.000000)">
                <path d="M24.5006145,14.9800834 L13.8111518,14.9800834 C13.5353243,14.9800834 13.3117663,15.2078927 13.3117663,15.4885223 L13.3117663,20.8057512 C13.3117663,21.0863807 13.5353243,21.3149087 13.8111518,21.3149087 L17.9810558,21.3149087 L17.9810558,27.9210213 C17.9810558,27.9210213 17.0447964,28.2458473 14.4560442,28.2458473 C11.4021642,28.2458473 7.13584415,27.1103936 7.13584415,17.5657557 C7.13584415,8.01860255 11.5783972,6.76277642 15.7490076,6.76277642 C19.3594869,6.76277642 20.9145041,7.40919451 21.9044457,7.72108494 C22.2155904,7.81810155 22.5030726,7.50297723 22.5030726,7.22198838 L23.6953819,2.08477917 C23.6953819,1.95290845 23.6515886,1.79516662 23.5046689,1.68772971 C23.102759,1.39596123 20.6506844,0 14.4560442,0 C7.32020004,0 0,3.08872143 0,17.938012 C0,32.7873026 8.38077613,35 15.4431605,35 C21.2906325,35 24.837894,32.4578055 24.837894,32.4578055 C24.9841073,32.375521 25,32.1674743 25,32.0726136 L25,15.4885223 C25,15.2078927 24.776442,14.9800834 24.5006145,14.9800834" id="Fill-3"></path>
                <path d="M81,1.5102797 C81,1.22770739 80.774029,1 80.4908411,1 L74.3193711,1 C74.0376317,1 73.8084015,1.22770739 73.8084015,1.5102797 C73.8084015,1.51135549 73.8102121,13.3202247 73.8102121,13.3202247 L64.19015,13.3202247 L64.19015,1.5102797 C64.19015,1.22770739 63.9634547,1 63.680991,1 L57.5098832,1 C57.2292302,1 57,1.22770739 57,1.5102797 L57,33.4886445 C57,33.7708582 57.2292302,34 57.5098832,34 L63.680991,34 C63.9634547,34 64.19015,33.7708582 64.19015,33.4886445 L64.19015,19.8100645 L73.8102121,19.8100645 C73.8102121,19.8100645 73.7931919,33.4875687 73.7931919,33.4886445 C73.7931919,33.7708582 74.0220599,34 74.3045236,34 L80.4904789,34 C80.7733048,34 80.9992757,33.7708582 81,33.4886445 L81,1.5102797" id="Fill-4"></path>
                <path d="M37,5.99837831 C37,3.78710753 35.2094007,2 32.999818,2 C30.7924193,2 29,3.78710753 29,5.99837831 C29,8.2078472 30.7924193,10 32.999818,10 C35.2094007,10 37,8.2078472 37,5.99837831" id="Fill-5"></path>
                <path d="M36,26.9156995 C36,26.115362 36,12.4977154 36,12.4977154 C36,12.2238143 35.777761,12 35.5033962,12 L29.5198491,12 C29.2454843,12 29,12.2816067 29,12.5551575 C29,12.5551575 29,29.9047937 29,33.2122717 C29,33.8192673 29.3803774,34 29.8724025,34 C29.8724025,34 32.426566,34 35.263195,34 C35.8548931,34 36,33.7110379 36,33.2024645 C36,32.0953018 36,27.7577176 36,26.9156995" id="Fill-6"></path>
                <path d="M104.485396,12 L98.343917,12 C98.0624643,12 97.8329442,12.2281463 97.8329442,12.508695 L97.8329442,28.0957223 C97.8329442,28.0957223 96.2724254,29.216491 94.057847,29.216491 C91.8436316,29.216491 91.2560311,28.2301147 91.2560311,26.1019374 C91.2560311,23.9705518 91.2560311,12.508695 91.2560311,12.508695 C91.2560311,12.2281463 91.0272374,12 90.7450584,12 L84.5116991,12 C84.2306096,12 84,12.2281463 84,12.508695 C84,12.508695 84,20.8092994 84,27.1307347 C84,33.4532393 87.5895201,35 92.5274708,35 C96.5789364,35 99.8452399,32.8026658 99.8452399,32.8026658 C99.8452399,32.8026658 100.000674,33.9608648 100.071128,34.0977526 C100.141219,34.2346404 100.324617,34.3733106 100.522905,34.3733106 L104.488301,34.3558431 C104.76939,34.3558431 105,34.1276968 105,33.8482176 L104.997821,12.508695 C104.997821,12.2281463 104.768664,12 104.485396,12" id="Fill-7"></path>
                <path d="M118.30098,29.2990723 C116.2438,29.2364363 114.848383,28.2993602 114.848383,28.2993602 L114.848383,18.3620601 C114.848383,18.3620601 116.224863,17.5154191 117.913812,17.3641075 C120.049548,17.171977 122.10743,17.8194498 122.10743,22.9316699 C122.10743,28.3222329 121.178788,29.3859885 118.30098,29.2990723 Z M120.64012,11.6184901 C117.271689,11.6184901 114.980595,13.1263276 114.980595,13.1263276 L114.980595,2.50073576 C114.980595,2.2234485 114.759657,2 114.487517,2 L108.493779,2 C108.221289,2 108,2.2234485 108,2.50073576 L108,33.8809981 C108,34.1579335 108.221289,34.3827895 108.494481,34.3827895 C108.495182,34.3827895 112.651626,34.3827895 112.653029,34.3827895 C112.8403,34.3827895 112.981981,34.2860205 113.086839,34.1167626 C113.190294,33.9478567 113.33934,32.6694498 113.33934,32.6694498 C113.33934,32.6694498 115.79,35 120.429352,35 C125.876355,35 129,32.2278311 129,22.5551504 C129,12.8824696 124.011005,11.6184901 120.64012,11.6184901 L120.64012,11.6184901 Z" id="Fill-8"></path>
                <g id="Group-12" transform="translate(38.000000, 5.000000)">
                    <path d="M15.3607111,6.51361446 L10.8152889,6.51361446 C10.8152889,6.51361446 10.8085333,0.410963855 10.8085333,0.409518072 C10.8085333,0.178192771 10.6912,0.0628915663 10.4284444,0.0628915663 L4.23466667,0.0628915663 C3.9936,0.0628915663 3.86453333,0.17060241 3.86453333,0.405903614 L3.86453333,6.71385542 C3.86453333,6.71385542 0.760533333,7.47578313 0.5504,7.53686747 C0.341688889,7.5986747 0.187733333,7.79457831 0.187733333,8.02843373 L0.187733333,11.9924096 C0.187733333,12.2775904 0.411733333,12.5074699 0.688711111,12.5074699 L3.86453333,12.5074699 C3.86453333,12.5074699 3.86453333,16.653253 3.86453333,22.0438554 C3.86453333,29.1271084 8.752,29.8228916 12.0497778,29.8228916 C13.5569778,29.8228916 15.3596444,29.3306024 15.6572444,29.2192771 C15.8371556,29.1516867 15.9416889,28.9622892 15.9416889,28.7566265 L15.9470222,24.3961446 C15.9470222,24.1120482 15.7105778,23.8814458 15.4446222,23.8814458 C15.1793778,23.8814458 14.5020444,23.9913253 13.8044444,23.9913253 C11.5715556,23.9913253 10.8152889,22.9359036 10.8152889,21.57 C10.8152889,20.2048193 10.8149333,12.5074699 10.8149333,12.5074699 L15.3607111,12.5074699 C15.6376889,12.5074699 15.8620444,12.2775904 15.8620444,11.9924096 L15.8620444,7.02722892 C15.8620444,6.74277108 15.6376889,6.51361446 15.3607111,6.51361446" id="Fill-9"></path>
                </g>
            </g>
        </g>
    </g>
</svg>