<svg width="65" height="65" viewBox="0 0 65 65" fill="none" xmlns="http://www.w3.org/2000/svg">
<path d="M32.5 0C14.5567 0 0 14.5567 0 32.5C0 50.4433 14.5567 65 32.5 65C50.4433 65 65 50.4433 65 32.5C64.9727 14.5567 50.416 0 32.5 0ZM46.1282 25.2353H44.0798L37.8803 32.4727L44.0798 39.7101H46.1282V45.5273H32.9643V39.7647H35.0126L30.9433 35.0126H29.2773V39.7647H31.5987V45.5273H18.8445V39.7101H21.6029V32.5V25.2353H18.8445V19.4181H21.9853V21.5756H23.6786V19.4181H26.7647V21.5756H28.458V19.4181H31.5714V25.1534H29.25V29.9055H30.916L34.9853 25.1534H32.937V19.4181H46.1008V25.2353H46.1282Z" fill="white"/>
</svg>
