<?xml version="1.0" encoding="UTF-8" standalone="no"?>
<svg
   xmlns:dc="http://purl.org/dc/elements/1.1/"
   xmlns:cc="http://creativecommons.org/ns#"
   xmlns:rdf="http://www.w3.org/1999/02/22-rdf-syntax-ns#"
   xmlns:svg="http://www.w3.org/2000/svg"
   xmlns="http://www.w3.org/2000/svg"
   viewBox="0 0 917.41333 238.16"
   height="238.16"
   width="917.41333"
   xml:space="preserve"
   id="svg2"
   version="1.1"><metadata
     id="metadata8"><rdf:RDF><cc:Work
         rdf:about=""><dc:format>image/svg+xml</dc:format><dc:type
           rdf:resource="http://purl.org/dc/dcmitype/StillImage" /></cc:Work></rdf:RDF></metadata><defs
     id="defs6" /><g
     transform="matrix(1.3333333,0,0,-1.3333333,0,238.16)"
     id="g10"><g
       transform="scale(0.1)"
       id="g12"><path
         id="path14"
         style="fill:#211d1d;fill-opacity:1;fill-rule:nonzero;stroke:none"
         d="m 1929.51,1388.16 v 398.07 H 3519.2 v -650.74 h -446.53 v 257.75 h -431.22 v -303.63 h 370.01 V 722.191 H 2641.45 V 392.988 h 438.88 v 290.883 h 446.53 V 0 H 1929.51 v 398.059 h 188.79 v 990.101 h -188.79" /><path
         id="path16"
         style="fill:#211d1d;fill-opacity:1;fill-rule:nonzero;stroke:none"
         d="m 3593.71,1388.16 v 398.07 h 1589.68 v -650.74 h -446.53 v 257.75 h -431.21 v -303.63 h 370 V 722.191 h -370 V 392.988 h 438.87 v 290.883 h 446.54 V 0 H 3593.71 v 398.059 h 188.78 v 990.101 h -188.78" /><path
         id="path18"
         style="fill:#211d1d;fill-opacity:1;fill-rule:nonzero;stroke:none"
         d="m 6189.18,1005.42 c 73.95,0 102.02,5.08 117.34,20.4 22.99,25.48 28.06,63.79 28.06,173.46 0,109.77 -5.07,147.98 -28.06,173.56 -15.32,15.32 -43.39,20.4 -117.34,20.4 h -219.43 v -387.82 z m 576.7,-280.729 C 6696.93,653.23 6589.74,627.75 6431.61,627.75 H 5969.75 V 398.059 h 201.52 V 0 H 5257.8 v 398.059 h 188.79 V 1388.16 H 5257.8 v 398.07 h 1173.81 c 158.13,0 265.32,-25.57 334.27,-97.02 81.61,-84.2 114.75,-173.46 114.75,-482.27 0,-308.706 -33.14,-398.065 -114.75,-482.249" /><path
         id="path20"
         style="fill:#231f20;fill-opacity:1;fill-rule:nonzero;stroke:none"
         d="m 1865.26,1388.16 v 398.07 H 964.527 V 1393.24 H 1104.84 L 826.695,1069.21 H 711.949 v 324.03 h 158.133 v 392.99 H 656.352 V 1638.86 H 540.684 v 147.37 H 329.43 V 1638.86 H 213.754 v 147.37 H 0 V 1388.16 H 188.789 V 398.059 L 0,398.059 V 0 H 870.082 V 392.988 H 711.949 V 717.02 H 826.695 L 1104.84,392.988 H 964.527 V 0 h 900.733 v 398.059 h -140.32 l -423.99,495.054 423.99,495.047 h 140.32" /></g></g></svg>