<svg width="100" height="26" viewBox="0 0 100 26" fill="none" xmlns="http://www.w3.org/2000/svg">
<path d="M28.1289 5.71017V0H50.9509V9.33791H44.5448V5.6358H38.3537V9.99074H43.6687V15.2629H38.3537V19.9897H44.6523V15.8166H51.0583V25.6338H28.1289V19.9236H30.8401V5.71017H28.1289Z" fill="white"/>
<path d="M52.4131 5.71017V0H75.235V9.33791H68.829V5.6358H62.6379V9.99074H67.9528V15.2629H62.6379V19.9897H68.9365V15.8166H75.3425V25.6338H52.4131V19.9236H55.1243V5.71017H52.4131Z" fill="white"/>
<path d="M98.3465 15.2381C97.3546 16.2628 95.8171 16.6264 93.544 16.6264H86.9148V19.9236H89.8079V25.6338H76.6982V19.9236H79.4094V5.71017H76.6982V0H93.544C95.8171 0 97.3546 0.3636 98.3465 1.38829C99.5202 2.59478 99.9914 3.87565 99.9914 8.31322C99.9996 12.7425 99.5202 14.0234 98.3465 15.2381ZM90.0724 11.2055C91.1304 11.2055 91.5354 11.1311 91.7586 10.9163C92.0892 10.5527 92.1636 9.999 92.1636 8.42891C92.1636 6.85055 92.0892 6.30515 91.7586 5.94156C91.5354 5.71844 91.1387 5.65233 90.0724 5.65233H86.9231V11.222H90.0724V11.2055Z" fill="white"/>
<path d="M26.773 5.71017V0H13.8453V5.6358H15.8621L11.8697 10.2882H10.2166V5.6358H12.4897V0H9.42304V2.11549H7.76161V0H4.72805V2.11549H3.06662V0H0V5.71017H2.71119V12.8169V19.9236H0V25.6338H12.4897V19.998H10.2166V15.3456H11.8697L15.8621 19.998H13.8453V25.6338H26.773V19.9236H24.7644L18.6725 12.8169L24.7644 5.71017H26.773Z" fill="white"/>
</svg>
