<?xml version="1.0" encoding="UTF-8"?>
<svg width="198px" height="61px" viewBox="0 0 198 61" version="1.1" xmlns="http://www.w3.org/2000/svg" xmlns:xlink="http://www.w3.org/1999/xlink">
    <!-- Generator: Sketch 46.2 (44496) - http://www.bohemiancoding.com/sketch -->
    <title>keepLogo</title>
    <desc>Created with Sketch.</desc>
    <defs></defs>
    <g id="round-3" stroke="none" stroke-width="1" fill="none" fill-rule="evenodd">
        <g id="Final" transform="translate(-149.000000, -64.000000)">
            <g id="keepLogo" transform="translate(149.000000, 64.000000)">
                <path d="M47.1636711,60.9948771 C64.254571,59.8217874 77,55.2529963 77,49.7956866 L77,11.4913123 C77,7.8642653 71.3700618,4.62969663 62.5762298,2.52366041 C62.2550015,2.44672941 61.6,2.43444172 61.6,2.86094917 C61.6,5.80814402 61.6,7.66721721 61.6,9.18566359 C61.6,9.7526622 60.9724356,9.81980502 60.6532429,9.7526622 C56.6525352,8.9111054 52.0905123,8.29134241 47.1679086,7.95328757 C46.8467883,7.93123495 46.2,7.95328757 46.2,7.3445563 C46.2,4.38290217 46.2,2.45868371 46.2,0.958300385 C46.2,0.250894614 45.5545717,0.192050856 45.2297234,0.174957696 C43.0444975,0.0599735118 40.7957139,0 38.5,0 C36.2089978,0 33.9647336,0.059727584 31.7837324,0.174250408 C31.4543598,0.191545527 30.8,0.22986788 30.8,0.959823801 C30.8,3.89956601 30.8,5.81734681 30.8,7.3445563 C30.8,7.95328757 30.1681443,7.93027054 29.8543849,7.95175868 C24.9300972,8.28900376 20.3661744,8.90811565 16.363424,9.74915825 C16.0385502,9.81741948 15.4,9.7526622 15.4,9.18566359 C15.4,6.24714729 15.4,4.38754992 15.4,2.88512726 C15.4,2.29742086 14.7527502,2.44493325 14.4352479,2.52091268 C5.63483724,4.62688264 0,7.86268754 0,11.4913123 L0,49.7956866 C0,55.253809 12.7492253,59.8231481 29.8439646,60.995401 C30.1611648,61.0171526 30.8,60.995401 30.8,60.1476084 C30.8,56.995973 30.8,52.2685199 30.8,45.9652492 C30.8,41.7342648 34.2474074,38.3043743 38.5,38.3043743 C42.7525926,38.3043743 46.2,41.7342648 46.2,45.9652492 C46.2,52.2716388 46.2,57.0014311 46.2,60.1546259 C46.2,60.995401 46.8439498,61.0168222 47.1636711,60.9948771 Z" id="Combined-Shape-Copy-13" fill="#293133"></path>
                <text id="KEEP-Copy-5" font-family="GothamRounded-Light, Gotham Rounded" font-size="39.7660819" font-weight="300" letter-spacing="-0.962082684" fill="#293330">
                    <tspan x="94.2826449" y="46">KEEP</tspan>
                </text>
            </g>
        </g>
    </g>
</svg>