<?xml version="1.0" encoding="UTF-8"?>
<svg width="32px" height="34px" viewBox="0 0 32 34" version="1.1" xmlns="http://www.w3.org/2000/svg" xmlns:xlink="http://www.w3.org/1999/xlink">
    <!-- Generator: Sketch 47.1 (45422) - http://www.bohemiancoding.com/sketch -->
    <title>keybase</title>
    <desc>Created with Sketch.</desc>
    <defs></defs>
    <g id="Website" stroke="none" stroke-width="1" fill="none" fill-rule="evenodd">
        <g id="keybase" fill="#505E5B">
            <path d="M5.59097957,4.06417867 L5.46781314,6.036768 C5.38256691,7.491016 6.49891818,8.74019867 7.95570647,8.82873467 L9.90593669,8.94850533 L10.6331779,8.993136 L10.6885392,7.009644 L11.3969002,6.48921733 L12.0123671,6.036768 L12.153706,5.350784 C12.1816496,5.245588 12.2119218,5.103876 12.2228801,4.930476 L12.8751722,4.51316 C12.9198956,3.809156 12.684932,3.130584 12.2140915,2.60206533 C11.7453285,2.07538267 11.0963476,1.76095067 10.3877354,1.71817867 L8.40419664,1.59611867 C8.34623194,1.59287733 8.29335827,1.591268 8.24119233,1.591268 C6.84168384,1.591268 5.67761842,2.677432 5.59097957,4.06417867 Z M9.72640365,5.89643867 L9.79952729,4.72309867 L8.6175177,4.65049733 L8.54416576,5.824064 L9.72640365,5.89643867 M8.24119233,3.57612 C8.25425094,3.57612 8.26751501,3.57657333 8.28080192,3.577276 L10.2666465,3.69956267 C10.4405863,3.70996667 10.6010337,3.78741867 10.7167804,3.91759333 C10.8332121,4.04822133 10.8911768,4.21584133 10.880013,4.389468 L10.7577598,6.36022133 C10.7558878,6.39073067 10.7435597,6.417568 10.7377381,6.44669467 L10.0293542,6.967348 L8.07795971,6.8476 C7.7179576,6.825636 7.44224288,6.516984 7.46320058,6.159304 L7.58638983,4.18694133 C7.60780412,3.84268 7.89539031,3.57612 8.24119233,3.57612" id="Fill-4"></path>
            <path d="M16.1724172,12.359602 L14.9834329,12.7544509 C14.000745,12.7544509 14.2652436,13.7878655 13.5685601,13.145896 C13.4204213,13.0093912 13.0091778,12.8711751 12.821978,12.7544509 C12.2608687,12.4045838 11.8167576,11.8673664 11.2602596,12.0698985 C5.4857097,14.1714908 1.35412297,19.6839865 1.35412297,26.1365707 C1.35412297,28.9757067 2.15425957,31.6331013 3.54212489,33.8977053 L5.95155242,33.8977053 C4.32034494,31.730908 3.35350561,29.0436613 3.35350561,26.1365707 C3.35350561,19.7143139 8.07160288,14.3655521 14.2471884,13.3279147 C14.4548521,13.2930226 14.6641638,13.2630052 14.8749996,13.2379857 C15.1733963,13.2025755 15.4289552,12.2677096 15.7331061,12.2526708 C15.9512235,12.2418859 16.2166209,13.145896 16.4373872,13.145896 C19.8641991,13.145896 23.1464075,14.5703147 25.6792754,17.1567627 C28.1210755,19.6497787 29.52152,22.9228907 29.52152,26.1365707 C29.52152,28.336892 29.1554452,31.3270107 27.5643039,33.8977053 L29.8461132,33.8977053 C30.9473283,31.6969307 31.5206515,29.0656253 31.5206515,26.1365707 C31.5206515,22.4105333 29.914123,18.6332013 27.1127774,15.7727813 C25.0195078,13.6354937 22.4724524,12.1882938 19.7308327,11.5431863 C18.9458304,11.358474 19.2180726,12.9618438 18.4072532,12.9112777 C18.1095924,12.8927143 17.3233079,12.9112777 17.0232889,12.9112777" id="Fill-6"></path>
            <path d="M12.2419438,31.537992 C11.4951375,31.537992 10.8899212,30.9370987 10.8899212,30.1956493 C10.8899212,29.4542 11.4951375,28.8533067 12.2419438,28.8533067 C12.9887273,28.8533067 13.5939436,29.4542 13.5939436,30.1956493 C13.5939436,30.9370987 12.9887273,31.537992 12.2419438,31.537992 Z" id="Fill-7"></path>
            <path d="M20.6328535,31.537992 C19.88607,31.537992 19.2808537,30.9370987 19.2808537,30.1956493 C19.2808537,29.4542 19.88607,28.8533067 20.6328535,28.8533067 C21.3796599,28.8533067 21.9848762,29.4542 21.9848762,30.1956493 C21.9848762,30.9370987 21.3796599,31.537992 20.6328535,31.537992 Z" id="Fill-8"></path>
            <path d="M15.7321995,12.5455609 C15.3573688,12.5455609 14.9836581,12.9957169 14.6117731,13.0277424 C14.1193672,13.0701468 13.6301621,13.1407037 13.1457959,13.2396227 C10.5528629,13.7690707 8.1455129,15.088996 6.18389065,17.056508 C2.92542523,20.32452 2.24824959,23.8320507 2.10761842,27.1250413 L10.8639637,17.904536 L8.5458095,25.1198347 C12.9022254,22.858472 17.8833999,22.523912 23.3920098,24.1298453 C25.1450139,24.6407973 26.7338266,24.2535373 27.5388487,23.119252 C28.3657418,21.9537773 28.1519641,20.2923787 26.966941,18.674908 C25.550881,16.742076 23.6043948,15.1632067 21.4860236,14.2287053 C19.9794392,13.5642162 18.4258164,13.1622898 16.8776513,13.0291329 C16.4952373,12.9962417 16.5260963,12.6109265 16.1451395,12.6109265 L15.7321995,12.5455609 Z M0.0716853717,32.1624133 L0.0716853717,29.6631413 C0.0716853717,25.52074 0.0716853717,20.3654333 4.76294504,15.66006 C6.5708413,13.8469672 8.71695864,12.5141086 11.0445008,11.7472576 C11.3408222,11.6496291 11.7855673,13.6342645 13.8702037,13.7421766 C14.6250818,13.7812531 14.6038138,12.7603031 15.5852915,12.414692 C16.2487828,12.1810545 17.2521863,13.0508246 18.0099383,13.0111341 C18.8490793,12.9671804 19.4157566,12.0266786 19.5146204,12.0141912 C20.4042666,11.9018207 21.3177847,11.9824896 22.2977805,12.414692 C24.7319098,13.4883893 26.9643612,15.297076 28.5836973,17.5071213 C30.2703353,19.8093973 30.4962128,22.397908 29.1730697,24.2623093 C27.8795141,26.0853213 25.3897487,26.7805533 22.8287089,26.0342307 C16.9223822,24.312244 11.7169512,25.0361493 7.35775002,28.1857733 L4.88939894,29.969028 L6.28774312,25.616688 L0.0716853717,32.1624133 Z" id="Combined-Shape"></path>
            <path d="M11.4164684,8.71993467 C11.1343026,10.9563187 12.2838221,12.6572707 14.4915729,13.2699507 C14.6389813,13.3108642 14.848374,12.2838984 15.567115,12.1628224 C16.3490179,12.0311065 17.6413691,12.8005667 17.7173146,12.7504471 C17.9123603,12.6217282 18.0961068,12.47577 18.2657,12.3139848 C18.6589132,11.9388751 18.9760421,11.4786836 19.1815142,10.9510147 C19.5682822,9.957308 19.5279498,8.88245467 19.0680132,7.92438 C18.6075937,6.96535333 17.7918398,6.25325733 16.7708826,5.9194 C15.8749238,5.626252 15.3171685,5.57976267 15.008053,5.59132267 C14.3140321,5.61816 13.6734965,5.29955733 13.2958803,4.73819467 C13.2522367,4.67345867 13.2123642,4.60641067 13.1764927,4.53659733 C12.2472148,5.97280267 11.594722,7.307756 11.4164684,8.71993467 Z M13.9457977,15.180592 C13.689115,15.1093438 13.4408967,15.0266734 13.2017418,14.932991 C11.9841923,14.4560491 11.0015554,13.6936889 10.3328742,12.7000427 C9.53519398,11.514916 9.2190192,10.0539587 9.41815183,8.47486267 C9.76996813,5.68727067 11.5128615,3.31239333 13.5308844,0.562496 C13.6669201,0.377082667 13.8043584,0.189810667 13.9432223,7.10542736e-15 L15.6711003,1.002252 C14.8183022,2.79196667 14.9160979,3.45458133 14.9608912,3.60579067 C15.646933,3.58520933 16.4692634,3.729256 17.4050948,4.03534667 C18.9533165,4.541924 20.1903072,5.62137867 20.8880762,7.0754 C21.5855922,8.52826533 21.6470566,10.157296 21.061386,11.6621813 C20.7992438,12.3354227 20.4172378,12.9363031 19.9474998,13.4489118 C19.5757634,13.8545746 19.1490834,14.2049559 18.6833846,14.4921701 C18.5385498,14.5814952 18.389941,14.6647106 18.2380371,14.7415789 C18.0658616,14.8287054 17.5607552,13.7801305 16.8198087,13.0617096 C16.2681093,12.5267825 15.4392708,12.2655059 15.3016543,12.3084122 C15.1032613,12.3702674 14.8358221,13.1025 15.1106835,13.8178102 C15.4084099,14.5926251 16.2511738,15.3531806 16.0246484,15.3726384 C15.8562143,15.3871064 15.6866915,15.394452 15.5165311,15.394452 C14.9944403,15.394452 14.4669457,15.3253187 13.9457977,15.180592 Z" id="Fill-12"></path>
            <path d="M17.3742055,11.9056213 C16.9780867,11.4251787 16.3924355,11.149824 15.7676769,11.149824 C15.2916998,11.149824 14.8259731,11.314452 14.4564282,11.6131533 C13.568283,12.333568 13.4360075,13.634068 14.1595275,14.5140107 L14.7067563,15.1810227 C14.3048159,15.8672333 14.3483751,16.758736 14.8832529,17.4091107 L14.9861922,17.534412 C14.7442427,18.1681267 14.8394883,18.910052 15.3014709,19.4716413 L15.9739893,20.289636 C16.3509995,20.7483187 16.9096432,21.0114333 17.5064581,21.0114333 C17.961021,21.0114333 18.4053105,20.854444 18.7574135,20.568912 L19.1602671,20.2424667 C19.412216,20.3476627 19.6858304,20.403604 19.9673667,20.403604 C20.1243212,20.403604 20.2815039,20.3858107 20.4344859,20.3506547 C20.7428015,20.2801387 21.0352733,20.137724 21.2804875,19.938892 C22.1665324,19.2200867 22.298785,17.9195867 21.5755162,17.039644 L17.378155,11.910472 L17.3742055,11.9056213 Z M15.7676769,12.7737773 C15.895044,12.7737773 16.0214979,12.828812 16.1085934,12.934688 L20.3082832,18.0663987 C20.4619729,18.253444 20.4337782,18.528572 20.2456384,18.681164 C20.1913721,18.725092 20.1301427,18.7537653 20.0665619,18.76834 C20.0339611,18.775956 20.0006525,18.7796507 19.9673667,18.7796507 C19.8397485,18.7796507 19.7133174,18.7248653 19.626222,18.6189667 L19.208004,18.1073347 L17.723021,19.3107307 C17.659463,19.362524 17.5828464,19.38748 17.5064581,19.38748 C17.4072629,19.38748 17.3087526,19.344708 17.240994,19.2624053 L16.5684984,18.44466 C16.4501947,18.30084 16.4718601,18.0890653 16.616692,17.9716067 L18.1088892,16.762204 L17.4992439,16.015904 L16.7610672,16.614712 C16.7005228,16.6634907 16.6278786,16.6872907 16.5556909,16.6872907 C16.4616096,16.6872907 16.368236,16.6468307 16.3039474,16.5689253 L16.1502576,16.38188 C16.0317485,16.237856 16.0531628,16.0256053 16.1982458,15.90792 L16.9277928,15.316524 L15.4265322,13.4870293 C15.2728424,13.3002107 15.3010143,13.0250827 15.489177,12.8724907 C15.571364,12.8061453 15.6698743,12.7737773 15.7676769,12.7737773 L15.7676769,12.7737773 Z" id="Fill-14"></path>
        </g>
    </g>
</svg>