<?xml version="1.0" encoding="UTF-8"?>
<svg width="27px" height="26px" viewBox="0 0 27 26" version="1.1" xmlns="http://www.w3.org/2000/svg" xmlns:xlink="http://www.w3.org/1999/xlink">
    <!-- Generator: Sketch 46.2 (44496) - http://www.bohemiancoding.com/sketch -->
    <title>Linkedin</title>
    <desc>Created with Sketch.</desc>
    <defs></defs>
    <g id="round-3" stroke="none" stroke-width="1" fill="none" fill-rule="evenodd">
        <g id="Final" transform="translate(-288.000000, -3868.000000)" fill="#505E5B">
            <g id="Group-14" transform="translate(-128.000000, 3247.000000)">
                <path d="M416.341563,647 L422.127062,647 L422.127062,629.456973 L416.341563,629.456973 L416.341563,647 Z M419.235065,627.061917 C421.252842,627.061917 422.507746,625.715835 422.507746,624.031716 C422.473139,622.311217 421.252842,621 419.272682,621 C417.292521,621 416,622.311217 416,624.031716 C416,625.715835 417.254904,627.061917 419.195943,627.061917 L419.235065,627.061917 L419.235065,627.061917 Z M425.332033,647 C425.332033,647 425.408772,631.103195 425.332033,629.458489 L431.120542,629.458489 L431.120542,632.000583 L431.08142,632.000583 C431.842789,630.804571 433.213553,629.046175 436.335767,629.046175 C440.14261,629.046175 443,631.551889 443,636.942281 L443,647 L437.211491,647 L437.211491,637.615322 C437.211491,635.256646 436.373384,633.648321 434.278868,633.648321 C432.680896,633.648321 431.728433,634.73216 431.311636,635.781133 C431.155149,636.15555 431.120542,636.680037 431.120542,637.204524 L431.120542,647 L425.332033,647 L425.332033,647 Z" id="Linkedin"></path>
            </g>
        </g>
    </g>
</svg>