<?xml version="1.0" encoding="UTF-8"?>
<svg width="84px" height="84px" viewBox="0 0 84 84" version="1.1" xmlns="http://www.w3.org/2000/svg" xmlns:xlink="http://www.w3.org/1999/xlink">
    <!-- Generator: Sketch 46.2 (44496) - http://www.bohemiancoding.com/sketch -->
    <title>lock</title>
    <desc>Created with Sketch.</desc>
    <defs>
        <path d="M67.2,50.4 C67.2,41.118 59.682,33.6 50.4,33.6 C41.118,33.6 33.6,41.118 33.6,50.4 C33.6,59.682 41.118,67.2 50.4,67.2 C59.682,67.2 67.2,59.682 67.2,50.4 M50.4,19.6 C67.41,19.6 81.2,33.39 81.2,50.4 C81.2,67.41 67.41,81.2 50.4,81.2 C33.39,81.2 19.6,67.41 19.6,50.4 C19.6,48.776 19.726,47.18 19.964,45.626 C20.454,42.476 21.42,39.48 22.806,36.722 C25.788,30.702 30.688,25.802 36.708,22.806 C39.438,21.434 42.406,20.482 45.542,19.978 C47.124,19.726 48.748,19.6 50.4,19.6" id="path-1"></path>
        <filter x="-3.2%" y="-3.2%" width="106.5%" height="106.5%" filterUnits="objectBoundingBox" id="filter-2">
            <feOffset dx="-4" dy="0" in="SourceAlpha" result="shadowOffsetInner1"></feOffset>
            <feComposite in="shadowOffsetInner1" in2="SourceAlpha" operator="arithmetic" k2="-1" k3="1" result="shadowInnerInner1"></feComposite>
            <feColorMatrix values="0 0 0 0 0   0 0 0 0 0   0 0 0 0 0  0 0 0 0.1 0" type="matrix" in="shadowInnerInner1"></feColorMatrix>
        </filter>
        <path d="M50.4,33.6 C59.682,33.6 67.2,41.118 67.2,50.4 C67.2,59.682 59.682,67.2 50.4,67.2 C41.118,67.2 33.6,59.682 33.6,50.4 C33.6,41.118 41.118,33.6 50.4,33.6" id="path-3"></path>
        <filter x="-6.0%" y="-6.0%" width="111.9%" height="111.9%" filterUnits="objectBoundingBox" id="filter-4">
            <feOffset dx="-4" dy="0" in="SourceAlpha" result="shadowOffsetInner1"></feOffset>
            <feComposite in="shadowOffsetInner1" in2="SourceAlpha" operator="arithmetic" k2="-1" k3="1" result="shadowInnerInner1"></feComposite>
            <feColorMatrix values="0 0 0 0 0   0 0 0 0 0   0 0 0 0 0  0 0 0 0.12 0" type="matrix" in="shadowInnerInner1"></feColorMatrix>
        </filter>
        <path d="M45.51372,19.82428 L45.54172,19.97828 C42.40572,20.48228 39.43772,21.43428 36.70772,22.80628 L36.60972,22.61028 L25.12972,11.27028 C21.30772,7.44828 15.09172,7.44828 11.26972,11.27028 C7.44772,15.09228 7.44772,21.30828 11.26972,25.13028 L22.63772,36.63828 L22.80572,36.72228 C21.41972,39.48028 20.45372,42.47628 19.96372,45.62628 L19.85172,45.59828 L5.33372,31.06628 C-1.77828,23.96828 -1.77828,12.43228 5.33372,5.33428 C12.43172,-1.77772 23.96772,-1.77772 31.06572,5.33428 L45.51372,19.82428 Z" id="path-5"></path>
        <filter x="-4.4%" y="-4.4%" width="108.8%" height="108.8%" filterUnits="objectBoundingBox" id="filter-6">
            <feOffset dx="-4" dy="0" in="SourceAlpha" result="shadowOffsetInner1"></feOffset>
            <feComposite in="shadowOffsetInner1" in2="SourceAlpha" operator="arithmetic" k2="-1" k3="1" result="shadowInnerInner1"></feComposite>
            <feColorMatrix values="0 0 0 0 0   0 0 0 0 0   0 0 0 0 0  0 0 0 0.08 0" type="matrix" in="shadowInnerInner1"></feColorMatrix>
        </filter>
    </defs>
    <g id="round-3" stroke="none" stroke-width="1" fill="none" fill-rule="evenodd">
        <g id="lock">
            <g id="fill" transform="translate(1.000000, 1.000000)">
                <g id="Fill-1">
                    <use fill="#F7F7F7" fill-rule="evenodd" xlink:href="#path-1"></use>
                    <use fill="black" fill-opacity="1" filter="url(#filter-2)" xlink:href="#path-1"></use>
                </g>
                <g id="Fill-3">
                    <use fill="#C3E6DC" fill-rule="evenodd" xlink:href="#path-3"></use>
                    <use fill="black" fill-opacity="1" filter="url(#filter-4)" xlink:href="#path-3"></use>
                </g>
                <g id="Fill-5">
                    <use fill="#F7F7F7" fill-rule="evenodd" xlink:href="#path-5"></use>
                    <use fill="black" fill-opacity="1" filter="url(#filter-6)" xlink:href="#path-5"></use>
                </g>
            </g>
            <path d="M51.39965,43.000175 L51.39965,34.600175 L51.39965,43.000175 L51.39965,43.000175 L51.39965,43.000175 Z M43.73745,72.449175 L42.78125,75.081175 L43.73745,72.449175 L43.73745,72.449175 L43.73745,72.449175 Z M37.00065,68.558575 L35.20165,70.704775 L37.00065,68.558575 L37.00065,68.558575 L37.00065,68.558575 Z M31.99985,62.600175 L29.57505,64.000175 L31.99985,62.600175 L31.99985,62.600175 L31.99985,62.600175 Z M29.33845,55.287975 L26.58185,55.775175 L29.33845,55.287975 L29.33845,55.287975 L29.33845,55.287975 Z M29.33845,47.508175 L26.58185,47.023775 L29.33845,47.508175 L29.33845,47.508175 L29.33845,47.508175 Z M32.00125,40.198775 L29.57505,38.800175 L32.00125,40.198775 L32.00125,40.198775 L32.00125,40.198775 Z M35.20165,32.094175 L37.00205,34.238975 L35.20165,32.094175 L35.20165,32.094175 L35.20165,32.094175 Z M42.78125,27.717775 L43.73885,30.348375 L42.78125,27.717775 L42.78125,27.717775 L42.78125,27.717775 Z M51.40105,28.998775 L51.39965,26.198775 L51.40105,28.998775 L51.40105,28.998775 L51.40105,28.998775 Z M59.06325,30.349775 L60.01805,27.717775 L59.06325,30.349775 L59.06325,30.349775 L59.06325,30.349775 Z M65.80005,34.240375 L67.59765,32.094175 L65.80005,34.240375 L65.80005,34.240375 L65.80005,34.240375 Z M70.79945,40.200175 L73.22425,38.800175 L70.79945,40.200175 L70.79945,40.200175 L70.79945,40.200175 Z M73.46085,47.509575 L76.21745,47.023775 L73.46085,47.509575 L73.46085,47.509575 L73.46085,47.509575 Z M73.46085,55.289375 L76.21745,55.775175 L73.46085,55.289375 L73.46085,55.289375 L73.46085,55.289375 Z M70.79945,62.600175 L73.22425,64.000175 L70.79945,62.600175 L70.79945,62.600175 L70.79945,62.600175 Z M65.79865,68.559975 L67.59765,70.704775 L65.79865,68.559975 L65.79865,68.559975 L65.79865,68.559975 Z M59.06185,72.449175 L60.01805,75.079775 L59.06185,72.449175 L59.06185,72.449175 L59.06185,72.449175 Z M51.39965,73.800175 L51.39965,76.600175 L51.39965,73.800175 L51.39965,73.800175 L51.39965,73.800175 Z M68.19965,51.400175 C68.19965,42.122375 60.67745,34.600175 51.39965,34.600175 C42.12185,34.600175 34.59965,42.122375 34.59965,51.400175 C34.59965,60.677975 42.12185,68.200175 51.39965,68.200175 C60.67745,68.200175 68.19965,60.677975 68.19965,51.400175 L68.19965,51.400175 L68.19965,51.400175 L68.19965,51.400175 Z M33.97245,19.972975 L26.12965,12.270175 C22.30205,8.44257501 16.09725,8.44257501 12.26965,12.270175 C8.44205,16.097775 8.44205,22.302575 12.26965,26.130175 L19.95845,33.958975 M42.53345,16.838375 L32.06845,6.33137501 C24.96065,-0.777824987 13.43865,-0.776424987 6.33085,6.33137501 C-0.77695,13.437775 -0.77695,24.962575 6.33085,32.068975 L16.81545,42.554975 M51.39965,82.200175 C34.38965,82.200175 20.59965,68.410175 20.59965,51.400175 C20.59965,34.390175 34.38965,20.600175 51.39965,20.600175 C68.40965,20.600175 82.19965,34.390175 82.19965,51.400175 C82.19965,68.410175 68.40965,82.200175 51.39965,82.200175 L51.39965,82.200175 L51.39965,82.200175 L51.39965,82.200175 Z" id="stroke" stroke="#505E5B" stroke-width="2" stroke-linecap="round" stroke-linejoin="round"></path>
        </g>
    </g>
</svg>