<?xml version="1.0" encoding="UTF-8"?>
<svg width="84px" height="84px" viewBox="0 0 84 84" version="1.1" xmlns="http://www.w3.org/2000/svg" xmlns:xlink="http://www.w3.org/1999/xlink">
    <!-- Generator: Sketch 46.2 (44496) - http://www.bohemiancoding.com/sketch -->
    <title>money-share</title>
    <desc>Created with Sketch.</desc>
    <defs>
        <path d="M63,67.2 C65.324,67.2 67.2,69.076 67.2,71.4 C67.2,73.724 65.324,75.6 63,75.6 C60.676,75.6 58.8,73.724 58.8,71.4 C58.8,70.028 59.458,68.81 60.48,68.04 C61.18,67.522 62.048,67.2 63,67.2 Z M4.2,25.2 C6.524,25.2 8.4,27.076 8.4,29.4 C8.4,31.724 6.524,33.6 4.2,33.6 C1.876,33.6 0,31.724 0,29.4 C0,27.076 1.876,25.2 4.2,25.2 Z M77,25.2 C79.324,25.2 81.2,27.076 81.2,29.4 C81.2,31.724 79.324,33.6 77,33.6 C74.676,33.6 72.8,31.724 72.8,29.4 C72.8,27.076 74.676,25.2 77,25.2 Z M40.6,0 C42.924,0 44.8,1.876 44.8,4.2 C44.8,6.524 42.924,8.4 40.6,8.4 C38.276,8.4 36.4,6.524 36.4,4.2 C36.4,1.876 38.276,0 40.6,0 Z M20.71972,68.04014 C21.74172,68.81014 22.39972,70.02814 22.39972,71.40014 C22.39972,73.72414 20.52372,75.60014 18.19972,75.60014 C15.87572,75.60014 13.99972,73.72414 13.99972,71.40014 C13.99972,69.07614 15.87572,67.20014 18.19972,67.20014 C19.15172,67.20014 20.01972,67.52214 20.71972,68.04014 Z" id="path-1"></path>
        <filter x="-2.5%" y="-2.6%" width="104.9%" height="105.3%" filterUnits="objectBoundingBox" id="filter-2">
            <feOffset dx="-4" dy="0" in="SourceAlpha" result="shadowOffsetInner1"></feOffset>
            <feComposite in="shadowOffsetInner1" in2="SourceAlpha" operator="arithmetic" k2="-1" k3="1" result="shadowInnerInner1"></feComposite>
            <feColorMatrix values="0 0 0 0 0   0 0 0 0 0   0 0 0 0 0  0 0 0 0.1 0" type="matrix" in="shadowInnerInner1"></feColorMatrix>
        </filter>
        <path d="M40.6,22.4 C50.652,22.4 58.8,30.548 58.8,40.6 C58.8,50.652 50.652,58.8 40.6,58.8 C30.548,58.8 22.4,50.652 22.4,40.6 C22.4,30.548 30.548,22.4 40.6,22.4" id="path-3"></path>
        <filter x="-5.5%" y="-5.5%" width="111.0%" height="111.0%" filterUnits="objectBoundingBox" id="filter-4">
            <feOffset dx="-4" dy="0" in="SourceAlpha" result="shadowOffsetInner1"></feOffset>
            <feComposite in="shadowOffsetInner1" in2="SourceAlpha" operator="arithmetic" k2="-1" k3="1" result="shadowInnerInner1"></feComposite>
            <feColorMatrix values="0 0 0 0 0   0 0 0 0 0   0 0 0 0 0  0 0 0 0.08 0" type="matrix" in="shadowInnerInner1"></feColorMatrix>
        </filter>
    </defs>
    <g id="round-3" stroke="none" stroke-width="1" fill="none" fill-rule="evenodd">
        <g id="money-share">
            <g id="fill" transform="translate(1.000000, 4.000000)">
                <g id="Combined-Shape">
                    <use fill="#C3E6DC" fill-rule="evenodd" xlink:href="#path-1"></use>
                    <use fill="black" fill-opacity="1" filter="url(#filter-2)" xlink:href="#path-1"></use>
                </g>
                <g id="Fill-12">
                    <use fill="#F7F7F7" fill-rule="evenodd" xlink:href="#path-3"></use>
                    <use fill="black" fill-opacity="1" filter="url(#filter-4)" xlink:href="#path-3"></use>
                </g>
            </g>
            <path d="M41.6,53 L41.6,54.4 L41.6,53 L41.6,53 Z M41.6,34.8 L41.6,36.2 L41.6,34.8 L41.6,34.8 Z M45.8,40.4 C45.8,38.0802 43.9184,36.2 41.6,36.2 C39.2816,36.2 37.4,38.0802 37.4,40.4 C37.4,42.7198 39.2816,44.6 41.6,44.6 C43.9184,44.6 45.8,46.4802 45.8,48.8 C45.8,51.1198 43.9184,53 41.6,53 C39.2816,53 37.4,51.1198 37.4,48.8 M59.8,44.6 C59.8,34.548 51.652,26.4 41.6,26.4 C31.548,26.4 23.4,34.548 23.4,44.6 C23.4,54.652 31.548,62.8 41.6,62.8 C51.652,62.8 59.8,54.652 59.8,44.6 L59.8,44.6 L59.8,44.6 Z M64,79.6 C66.3184,79.6 68.2,77.7184 68.2,75.4 C68.2,73.0816 66.3184,71.2 64,71.2 C61.6816,71.2 59.8,73.0816 59.8,75.4 C59.8,77.7184 61.6816,79.6 64,79.6 L64,79.6 L64,79.6 Z M54.5864,63.8094 L61.4758,72.0456 L54.5864,63.8094 L54.5864,63.8094 Z M23.4,75.4 C23.4,73.0816 21.5184,71.2 19.2,71.2 C16.8816,71.2 15,73.0816 15,75.4 C15,77.7184 16.8816,79.6 19.2,79.6 C21.5184,79.6 23.4,77.7184 23.4,75.4 L23.4,75.4 L23.4,75.4 Z M28.6136,63.8094 L21.7242,72.0456 L28.6136,63.8094 L28.6136,63.8094 Z M64.0294,38.7368 L74.0408,34.8 L64.0294,38.7368 L64.0294,38.7368 Z M78,37.6 C80.3184,37.6 82.2,35.7184 82.2,33.4 C82.2,31.0816 80.3184,29.2 78,29.2 C75.6816,29.2 73.8,31.0816 73.8,33.4 C73.8,35.7184 75.6816,37.6 78,37.6 L78,37.6 L78,37.6 Z M9.1592,34.8 L19.1706,38.7368 L9.1592,34.8 L9.1592,34.8 Z M9.4,33.4 C9.4,31.0816 7.5184,29.2 5.2,29.2 C2.8816,29.2 1,31.0816 1,33.4 C1,35.7184 2.8816,37.6 5.2,37.6 C7.5184,37.6 9.4,35.7184 9.4,33.4 L9.4,33.4 L9.4,33.4 Z M45.8,8.2 C45.8,5.8816 43.9184,4 41.6,4 C39.2816,4 37.4,5.8816 37.4,8.2 C37.4,10.5184 39.2816,12.4 41.6,12.4 C43.9184,12.4 45.8,10.5184 45.8,8.2 L45.8,8.2 L45.8,8.2 Z M41.6,20.8 L41.6,12.4 L41.6,20.8 L41.6,20.8 Z" id="stroke" stroke="#505E5B" stroke-width="2" stroke-linecap="round" stroke-linejoin="round"></path>
        </g>
    </g>
</svg>