<?xml version="1.0" encoding="UTF-8"?>
<svg width="84px" height="84px" viewBox="0 0 84 84" version="1.1" xmlns="http://www.w3.org/2000/svg" xmlns:xlink="http://www.w3.org/1999/xlink">
    <!-- Generator: Sketch 46.2 (44496) - http://www.bohemiancoding.com/sketch -->
    <title>network-lock</title>
    <desc>Created with Sketch.</desc>
    <defs>
        <path d="M0,44.8 L60.2,44.8 C59.318,45.962 58.8,47.418 58.8,49 L58.8,56 L56,56 C52.906,56 50.4,58.506 50.4,61.6 L50.4,67.2 L5.6,67.2 C2.8,67.2 0,64.4 0,61.6 L0,44.8 Z M81.2,5.6 L81.2,22.4 L0,22.4 L0,5.6 C0,2.8 2.8,0 5.6,0 L75.6,0 C78.4,0 81.2,2.8 81.2,5.6 Z M81.2,22.4 L81.2,44.8 L71.4,44.8 C70.126,43.106 68.082,42 65.8,42 C63.518,42 61.474,43.106 60.2,44.8 L0,44.8 L0,22.4 L81.2,22.4 Z M81.2,44.8 L81.2,61.6 C81.2,58.506 78.694,56 75.6,56 L72.8,56 L72.8,49 C72.8,47.418 72.282,45.962 71.4,44.8 L81.2,44.8 Z" id="path-1"></path>
        <filter x="-2.5%" y="-3.0%" width="104.9%" height="106.0%" filterUnits="objectBoundingBox" id="filter-2">
            <feOffset dx="-4" dy="0" in="SourceAlpha" result="shadowOffsetInner1"></feOffset>
            <feComposite in="shadowOffsetInner1" in2="SourceAlpha" operator="arithmetic" k2="-1" k3="1" result="shadowInnerInner1"></feComposite>
            <feColorMatrix values="0 0 0 0 0   0 0 0 0 0   0 0 0 0 0  0 0 0 0.1 0" type="matrix" in="shadowInnerInner1"></feColorMatrix>
        </filter>
        <path d="M72.8,49 L72.8,56 L58.8,56 L58.8,49 C58.8,47.418 59.318,45.962 60.2,44.8 C61.474,43.106 63.518,42 65.8,42 C68.082,42 70.126,43.106 71.4,44.8 C72.282,45.962 72.8,47.418 72.8,49" id="path-3"></path>
        <filter x="-14.3%" y="-14.3%" width="128.6%" height="128.6%" filterUnits="objectBoundingBox" id="filter-4">
            <feOffset dx="-4" dy="0" in="SourceAlpha" result="shadowOffsetInner1"></feOffset>
            <feComposite in="shadowOffsetInner1" in2="SourceAlpha" operator="arithmetic" k2="-1" k3="1" result="shadowInnerInner1"></feComposite>
            <feColorMatrix values="0 0 0 0 0   0 0 0 0 0   0 0 0 0 0  0 0 0 0.1 0" type="matrix" in="shadowInnerInner1"></feColorMatrix>
        </filter>
        <path d="M81.2,61.6 L81.2,75.6 C81.2,78.694 78.694,81.2 75.6,81.2 L56,81.2 C52.906,81.2 50.4,78.694 50.4,75.6 L50.4,67.2 L50.4,61.6 C50.4,58.506 52.906,56 56,56 L58.8,56 L72.8,56 L75.6,56 C78.694,56 81.2,58.506 81.2,61.6" id="path-5"></path>
        <filter x="-6.5%" y="-7.9%" width="113.0%" height="115.9%" filterUnits="objectBoundingBox" id="filter-6">
            <feOffset dx="-4" dy="0" in="SourceAlpha" result="shadowOffsetInner1"></feOffset>
            <feComposite in="shadowOffsetInner1" in2="SourceAlpha" operator="arithmetic" k2="-1" k3="1" result="shadowInnerInner1"></feComposite>
            <feColorMatrix values="0 0 0 0 0   0 0 0 0 0   0 0 0 0 0  0 0 0 0.12 0" type="matrix" in="shadowInnerInner1"></feColorMatrix>
        </filter>
    </defs>
    <g id="round-3" stroke="none" stroke-width="1" fill="none" fill-rule="evenodd">
        <g id="network-lock">
            <g id="Page-1" transform="translate(1.000000, 1.000000)">
                <g id="Combined-Shape">
                    <use fill="#F7F7F7" fill-rule="evenodd" xlink:href="#path-1"></use>
                    <use fill="black" fill-opacity="1" filter="url(#filter-2)" xlink:href="#path-1"></use>
                </g>
                <g id="Fill-3">
                    <use fill="#F7F7F7" fill-rule="evenodd" xlink:href="#path-3"></use>
                    <use fill="black" fill-opacity="1" filter="url(#filter-4)" xlink:href="#path-3"></use>
                </g>
                <g id="Fill-21">
                    <use fill="#C3E6DC" fill-rule="evenodd" xlink:href="#path-5"></use>
                    <use fill="black" fill-opacity="1" filter="url(#filter-6)" xlink:href="#path-5"></use>
                </g>
            </g>
            <path d="M68.2,12.2 L15,12.2 L68.2,12.2 L68.2,12.2 L68.2,12.2 L68.2,12.2 Z M68.2,34.6 L15,34.6 L68.2,34.6 L68.2,34.6 L68.2,34.6 L68.2,34.6 Z M40.2,57 L15,57 L40.2,57 L40.2,57 L40.2,57 L40.2,57 Z M82.2,52.8 L82.2,6.6 C82.2,3.8 79.4,1 76.6,1 L6.6,1 C3.8,1 1,3.8 1,6.6 L1,17.8 M54.2,45.8 L1,45.8 L1,62.6 C1,65.4 3.8,68.2 6.6,68.2 L45.8,68.2 M76.6,23.4 L1,23.4 L1,40.2 M73.8,57 L73.8,50 C73.8,46.1346 70.6668,43 66.8,43 C62.9332,43 59.8,46.1346 59.8,50 L59.8,57 L73.8,57 L73.8,57 L73.8,57 L73.8,57 Z M66.8,73.8 L66.8,69.6 L66.8,73.8 L66.8,73.8 L66.8,73.8 L66.8,73.8 Z M68.2,68.2 C68.2,67.4272 67.5742,66.8 66.8,66.8 C66.0258,66.8 65.4,67.4272 65.4,68.2 C65.4,68.9728 66.0258,69.6 66.8,69.6 C67.5742,69.6 68.2,68.9728 68.2,68.2 L68.2,68.2 L68.2,68.2 L68.2,68.2 L68.2,68.2 Z M82.2,76.6 C82.2,79.6926 79.6926,82.2 76.6,82.2 L57,82.2 C53.9074,82.2 51.4,79.6926 51.4,76.6 L51.4,62.6 C51.4,59.5074 53.9074,57 57,57 L76.6,57 C79.6926,57 82.2,59.5074 82.2,62.6 L82.2,76.6 L82.2,76.6 L82.2,76.6 L82.2,76.6 L82.2,76.6 Z" id="stroke" stroke="#505E5B" stroke-width="2" stroke-linecap="round" stroke-linejoin="round"></path>
        </g>
    </g>
</svg>