<?xml version="1.0" encoding="UTF-8"?>
<svg width="84px" height="84px" viewBox="0 0 84 84" version="1.1" xmlns="http://www.w3.org/2000/svg" xmlns:xlink="http://www.w3.org/1999/xlink">
    <!-- Generator: Sketch 46.2 (44496) - http://www.bohemiancoding.com/sketch -->
    <title>paper-study</title>
    <desc>Created with Sketch.</desc>
    <defs>
        <path d="M70,19.6 L56,19.6 C52.906,19.6 50.4,17.094 50.4,14 L50.4,0 L70,19.6 Z" id="path-1"></path>
        <filter x="-10.2%" y="-10.2%" width="120.4%" height="120.4%" filterUnits="objectBoundingBox" id="filter-2">
            <feOffset dx="-4" dy="0" in="SourceAlpha" result="shadowOffsetInner1"></feOffset>
            <feComposite in="shadowOffsetInner1" in2="SourceAlpha" operator="arithmetic" k2="-1" k3="1" result="shadowInnerInner1"></feComposite>
            <feColorMatrix values="0 0 0 0 0   0 0 0 0 0   0 0 0 0 0  0 0 0 0.12 0" type="matrix" in="shadowInnerInner1"></feColorMatrix>
        </filter>
        <path d="M8.4,40.6 C8.4,46.018 12.782,50.4 18.2,50.4 C23.618,50.4 28,46.018 28,40.6 C28,35.182 23.618,30.8 18.2,30.8 C12.782,30.8 8.4,35.182 8.4,40.6 L8.4,40.6 Z M11.2,0 L50.4,0 L50.4,14 C50.4,17.094 52.906,19.6 56,19.6 L70,19.6 L70,75.6 C70,78.694 67.55,81.2 64.4,81.2 L5.6,81.2 C2.506,81.2 0,78.694 0,75.6 L0,5.6 C0,2.506 2.506,0 5.6,0 L11.2,0 Z M18.2,5.6 C12.782,5.6 8.4,9.982 8.4,15.4 C8.4,20.818 12.782,25.2 18.2,25.2 C23.618,25.2 28,20.818 28,15.4 C28,9.982 23.618,5.6 18.2,5.6 L18.2,5.6 Z" id="path-3"></path>
        <filter x="-2.9%" y="-2.5%" width="105.7%" height="104.9%" filterUnits="objectBoundingBox" id="filter-4">
            <feOffset dx="-4" dy="0" in="SourceAlpha" result="shadowOffsetInner1"></feOffset>
            <feComposite in="shadowOffsetInner1" in2="SourceAlpha" operator="arithmetic" k2="-1" k3="1" result="shadowInnerInner1"></feComposite>
            <feColorMatrix values="0 0 0 0 0   0 0 0 0 0   0 0 0 0 0  0 0 0 0.08 0" type="matrix" in="shadowInnerInner1"></feColorMatrix>
        </filter>
        <path d="M18.2,5.6 C23.618,5.6 28,9.982 28,15.4 C28,20.818 23.618,25.2 18.2,25.2 C12.782,25.2 8.4,20.818 8.4,15.4 C8.4,9.982 12.782,5.6 18.2,5.6 Z M18.2,30.8 C23.618,30.8 28,35.182 28,40.6 C28,46.018 23.618,50.4 18.2,50.4 C12.782,50.4 8.4,46.018 8.4,40.6 C8.4,35.182 12.782,30.8 18.2,30.8 Z" id="path-5"></path>
        <filter x="-10.2%" y="-4.5%" width="120.4%" height="108.9%" filterUnits="objectBoundingBox" id="filter-6">
            <feOffset dx="-4" dy="0" in="SourceAlpha" result="shadowOffsetInner1"></feOffset>
            <feComposite in="shadowOffsetInner1" in2="SourceAlpha" operator="arithmetic" k2="-1" k3="1" result="shadowInnerInner1"></feComposite>
            <feColorMatrix values="0 0 0 0 0   0 0 0 0 0   0 0 0 0 0  0 0 0 0.1 0" type="matrix" in="shadowInnerInner1"></feColorMatrix>
        </filter>
    </defs>
    <g id="round-3" stroke="none" stroke-width="1" fill="none" fill-rule="evenodd">
        <g id="paper-study">
            <g id="fill" transform="translate(7.000000, 1.000000)">
                <g id="Fill-1">
                    <use fill="#C3E6DC" fill-rule="evenodd" xlink:href="#path-1"></use>
                    <use fill="black" fill-opacity="1" filter="url(#filter-2)" xlink:href="#path-1"></use>
                </g>
                <g id="Fill-3">
                    <use fill="#F7F7F7" fill-rule="evenodd" xlink:href="#path-3"></use>
                    <use fill="black" fill-opacity="1" filter="url(#filter-4)" xlink:href="#path-3"></use>
                </g>
                <g id="Combined-Shape">
                    <use fill="#C3E6DC" fill-rule="evenodd" xlink:href="#path-5"></use>
                    <use fill="black" fill-opacity="1" filter="url(#filter-6)" xlink:href="#path-5"></use>
                </g>
            </g>
            <path d="M43.4,68.2 L57.4,68.2 L43.4,68.2 L43.4,68.2 L43.4,68.2 L43.4,68.2 Z M21,68.2 L37.8,68.2 L21,68.2 L21,68.2 L21,68.2 L21,68.2 Z M39.2,51.4 L60.2,51.4 L39.2,51.4 L39.2,51.4 L39.2,51.4 L39.2,51.4 Z M35,59.8 L49,59.8 L35,59.8 L35,59.8 L35,59.8 L35,59.8 Z M54.6,59.8 L63,59.8 L54.6,59.8 L54.6,59.8 L54.6,59.8 L54.6,59.8 Z M21,59.8 L29.4,59.8 L21,59.8 L21,59.8 L21,59.8 L21,59.8 Z M54.6,43 L60.2,43 L54.6,43 L54.6,43 L54.6,43 L54.6,43 Z M42,43 L49,43 L42,43 L42,43 L42,43 L42,43 Z M51.8,34.6 L63,34.6 L51.8,34.6 L51.8,34.6 L51.8,34.6 L51.8,34.6 Z M46.2,34.6 L40.6,34.6 L46.2,34.6 L46.2,34.6 L46.2,34.6 L46.2,34.6 Z M29.008,39.7856 C28.6104,38.9358 27.937,38.24 27.1026,37.8144 L29.008,39.7856 L29.008,39.7856 L29.008,39.7856 L29.008,39.7856 Z M29.008,14.6248 C28.6104,13.775 27.937,13.0792 27.1026,12.6536 L29.008,14.6248 L29.008,14.6248 L29.008,14.6248 L29.008,14.6248 Z M18.2,23.4 C18.2,23.4 15.4,24.8 15.4,29 C15.4,33.2 18.2,34.6 18.2,34.6 M71.4,15 L57.4,1 L18.2,1 L18.2,9.449 M18.2,54.2 L18.2,48.6 L18.2,54.2 L18.2,54.2 L18.2,54.2 L18.2,54.2 Z M35,41.6 C35,36.1876 30.6124,31.8 25.2,31.8 C19.7876,31.8 15.4,36.1876 15.4,41.6 C15.4,47.0124 19.7876,51.4 25.2,51.4 C30.6124,51.4 35,47.0124 35,41.6 L35,41.6 L35,41.6 L35,41.6 L35,41.6 Z M35,16.4 C35,10.9876 30.6124,6.6 25.2,6.6 C19.7876,6.6 15.4,10.9876 15.4,16.4 C15.4,21.8124 19.7876,26.2 25.2,26.2 C30.6124,26.2 35,21.8124 35,16.4 L35,16.4 L35,16.4 L35,16.4 L35,16.4 Z M57.4,8 L57.4,15 C57.4,18.0926 59.9074,20.6 63,20.6 L77,20.6 L77,76.6 C77,79.6912 74.55,82.2 71.4,82.2 L12.6,82.2 C9.5074,82.2 7,79.6926 7,76.6 L7,6.6 C7,3.5074 9.5074,1 12.6,1" id="stroke" stroke="#505E5B" stroke-width="2" stroke-linecap="round" stroke-linejoin="round"></path>
        </g>
    </g>
</svg>