<?xml version="1.0" encoding="UTF-8"?>
<svg width="84px" height="84px" viewBox="0 0 84 84" version="1.1" xmlns="http://www.w3.org/2000/svg" xmlns:xlink="http://www.w3.org/1999/xlink">
    <!-- Generator: Sketch 46.2 (44496) - http://www.bohemiancoding.com/sketch -->
    <title>price-tag</title>
    <desc>Created with Sketch.</desc>
    <defs>
        <path d="M57.60986,13.61584 C56.53046,14.84784 55.87386,16.45784 55.87386,18.22184 C55.87386,22.08584 59.00986,25.22184 62.87386,25.22184 C66.73786,25.22184 69.87386,22.08584 69.87386,18.22184 C69.87386,14.35784 66.73786,11.22184 62.87386,11.22184 C60.77386,11.22184 58.88386,12.14584 57.60986,13.61584 L57.60986,13.61584 Z M39.75986,7.70784 L43.24586,4.23584 L43.27386,4.22184 C46.07386,1.42184 48.87386,0.02184 53.07386,0.02184 L75.47386,0.02184 C78.56786,0.02184 81.07386,2.52784 81.07386,5.62184 L81.07386,28.02184 C81.07386,30.76584 80.47186,32.92184 79.26786,34.86784 C78.63786,35.88984 77.83986,36.85584 76.87386,37.82184 L39.10186,75.64984 L35.29386,79.45784 C33.10986,81.64184 29.56786,81.64184 27.36986,79.45784 L1.63786,53.71184 C-0.54614,51.52784 -0.54614,47.98584 1.63786,45.80184 L39.75986,7.70784 Z" id="path-1"></path>
        <filter x="-2.5%" y="-2.5%" width="104.9%" height="104.9%" filterUnits="objectBoundingBox" id="filter-2">
            <feOffset dx="-4" dy="0" in="SourceAlpha" result="shadowOffsetInner1"></feOffset>
            <feComposite in="shadowOffsetInner1" in2="SourceAlpha" operator="arithmetic" k2="-1" k3="1" result="shadowInnerInner1"></feComposite>
            <feColorMatrix values="0 0 0 0 0   0 0 0 0 0   0 0 0 0 0  0 0 0 0.08 0" type="matrix" in="shadowInnerInner1"></feColorMatrix>
        </filter>
        <path d="M57.60986,13.994 C58.88386,12.524 60.77386,11.6 62.87386,11.6 C66.73786,11.6 69.87386,14.736 69.87386,18.6 C69.87386,22.464 66.73786,25.6 62.87386,25.6 C59.00986,25.6 55.87386,22.464 55.87386,18.6 C55.87386,16.836 56.53046,15.226 57.60986,13.994 Z M79.32358,35.28786 L54.48758,78.77186 C52.93358,81.45986 49.51758,82.36986 46.84358,80.82986 L39.12958,76.05586 L39.10158,76.02786 L76.87358,38.19986 C77.83958,37.23386 78.63758,36.26786 79.26758,35.24586 L79.32358,35.28786 Z" id="path-3"></path>
        <filter x="-5.0%" y="-2.9%" width="109.9%" height="105.7%" filterUnits="objectBoundingBox" id="filter-4">
            <feOffset dx="-4" dy="0" in="SourceAlpha" result="shadowOffsetInner1"></feOffset>
            <feComposite in="shadowOffsetInner1" in2="SourceAlpha" operator="arithmetic" k2="-1" k3="1" result="shadowInnerInner1"></feComposite>
            <feColorMatrix values="0 0 0 0 0   0 0 0 0 0   0 0 0 0 0  0 0 0 0.1 0" type="matrix" in="shadowInnerInner1"></feColorMatrix>
        </filter>
    </defs>
    <g id="round-3" stroke="none" stroke-width="1" fill="none" fill-rule="evenodd">
        <g id="price-tag">
            <g id="fill" transform="translate(1.000000, 1.000000)">
                <g id="Group-3" transform="translate(0.000000, 0.378160)">
                    <g id="Fill-1">
                        <use fill="#F7F7F7" fill-rule="evenodd" xlink:href="#path-1"></use>
                        <use fill="black" fill-opacity="1" filter="url(#filter-2)" xlink:href="#path-1"></use>
                    </g>
                </g>
                <g id="Combined-Shape">
                    <use fill="#C3E6DC" fill-rule="evenodd" xlink:href="#path-3"></use>
                    <use fill="black" fill-opacity="1" filter="url(#filter-4)" xlink:href="#path-3"></use>
                </g>
                <g id="Group-8" transform="translate(37.800000, 33.978160)"></g>
            </g>
            <path d="M42.75535,47.7650153 C43.77175,46.7500153 44.40035,45.3486153 44.40035,43.8002153 C44.40035,40.7076153 41.89295,38.2002153 38.80035,38.2002153 C35.70775,38.2002153 33.20035,40.7076153 33.20035,43.8002153 C33.20035,45.3570153 33.76875,46.6660153 34.60035,48.0002153 C35.43195,49.3344153 36.00035,51.1796153 36.00035,52.2002153 C36.00035,55.2928153 33.49295,57.8002153 30.40035,57.8002153 C27.30775,57.8002153 24.80035,55.2928153 24.80035,52.2002153 C24.80035,51.0284153 25.16155,49.9406153 25.77755,49.0404153 M44.40035,38.2002153 L42.73715,39.8620153 M26.40755,56.1930153 L24.80035,57.8002153 M62.47435,21.5150153 C64.07875,21.3736153 65.06015,20.9942153 65.22955,20.3628153 C65.82875,18.1214153 56.02455,13.5476153 43.32795,10.1456153 C30.63135,6.74361532 19.85135,5.80141532 19.25215,8.04281532 C18.86855,9.47081532 22.71715,11.8494153 28.84915,14.2672153 M58.52915,15.4838153 C57.49735,16.7032153 56.87715,18.2782153 56.87715,20.0002153 C56.87715,23.8656153 60.01035,27.0002153 63.87715,27.0002153 C67.74395,27.0002153 70.87715,23.8656153 70.87715,20.0002153 C70.87715,16.1348153 67.74395,13.0002153 63.87715,13.0002153 M44.71395,80.2002153 L47.84155,82.2260153 C50.51975,83.7730153 53.94275,82.8546153 55.49115,80.1764153 L71.53375,52.8120153 M44.27715,6.00021532 C47.07715,3.20021532 49.87715,1.80021532 54.07715,1.80021532 L76.47715,1.80021532 C79.56975,1.80021532 82.07715,4.30761532 82.07715,7.40021532 L82.07715,29.8002153 C82.07715,34.0002153 80.67715,36.8002153 77.87715,39.6002153 L36.29855,81.2362153 C34.11035,83.4230153 30.56555,83.4230153 28.37875,81.2362153 L2.64115,55.4972153 C0.45295,53.3104153 0.45295,49.7642153 2.64115,47.5774153 L40.77995,9.49181532" id="stroke" stroke="#505E5B" stroke-width="2" stroke-linecap="round" stroke-linejoin="round"></path>
        </g>
    </g>
</svg>