<?xml version="1.0" encoding="UTF-8"?>
<svg width="84px" height="84px" viewBox="0 0 84 84" version="1.1" xmlns="http://www.w3.org/2000/svg" xmlns:xlink="http://www.w3.org/1999/xlink">
    <!-- Generator: Sketch 46.2 (44496) - http://www.bohemiancoding.com/sketch -->
    <title>remote-lock</title>
    <desc>Created with Sketch.</desc>
    <defs>
        <path d="M21.4338646,53.1119446 L1.638,33.31608 C-0.546,31.13208 -0.546,27.59008 1.638,25.40608 L11.536,15.50808 L9.548,13.52008 C8.456,12.42808 8.456,10.65008 9.548,9.55808 C10.654,8.46608 12.418,8.46608 13.51,9.55808 L15.498,11.54608 L25.396,1.64808 C27.58,-0.54992 31.122,-0.54992 33.306,1.64808 L53.102,21.44408 L53.1014401,21.4446399 L72.9127,41.2405 C75.0953,43.4245 75.0953,46.9805 72.9127,49.1645 L49.1547,72.9225 C46.9693,75.1065 43.4133,75.1065 41.2307,72.9225 L21.4333,53.1125 L21.4338646,53.1119446 Z M21.45038,53.0957 L21.5187,53.0285 L46.68398,27.8621 L21.518,53.02808 L21.45038,53.0957 Z" id="path-1"></path>
        <filter x="-2.7%" y="-2.7%" width="105.4%" height="105.4%" filterUnits="objectBoundingBox" id="filter-2">
            <feOffset dx="-4" dy="0" in="SourceAlpha" result="shadowOffsetInner1"></feOffset>
            <feComposite in="shadowOffsetInner1" in2="SourceAlpha" operator="arithmetic" k2="-1" k3="1" result="shadowInnerInner1"></feComposite>
            <feColorMatrix values="0 0 0 0 0   0 0 0 0 0   0 0 0 0 0  0 0 0 0.1 0" type="matrix" in="shadowInnerInner1"></feColorMatrix>
        </filter>
        <path d="M59.05158,51.13822 L51.12758,59.06222 L45.19298,53.12622 L53.11698,45.20222 L59.05158,51.13822 Z M35.294,27.37994 L27.37,35.30394 L21.434,29.36794 L29.358,21.44394 L35.294,27.37994 Z" id="path-3"></path>
        <filter x="-5.3%" y="-5.3%" width="110.6%" height="110.6%" filterUnits="objectBoundingBox" id="filter-4">
            <feOffset dx="-4" dy="0" in="SourceAlpha" result="shadowOffsetInner1"></feOffset>
            <feComposite in="shadowOffsetInner1" in2="SourceAlpha" operator="arithmetic" k2="-1" k3="1" result="shadowInnerInner1"></feComposite>
            <feColorMatrix values="0 0 0 0 0   0 0 0 0 0   0 0 0 0 0  0 0 0 0.08 0" type="matrix" in="shadowInnerInner1"></feColorMatrix>
        </filter>
    </defs>
    <g id="round-3" stroke="none" stroke-width="1" fill="none" fill-rule="evenodd">
        <g id="remote-lock">
            <g id="fill" transform="translate(8.000000, 8.000000)">
                <g id="Combined-Shape">
                    <use fill="#F7F7F7" fill-rule="evenodd" xlink:href="#path-1"></use>
                    <use fill="black" fill-opacity="1" filter="url(#filter-2)" xlink:href="#path-1"></use>
                </g>
                <g id="Combined-Shape">
                    <use fill="#C3E6DC" fill-rule="evenodd" xlink:href="#path-3"></use>
                    <use fill="black" fill-opacity="1" filter="url(#filter-4)" xlink:href="#path-3"></use>
                </g>
            </g>
            <path d="M19.2,8 C13.0148,8 8,13.0148 8,19.2 M19.2,1 C9.148,1 1,9.148 1,19.2 M33.0432,56.8012 L56.8012,33.0418 L33.0432,56.8012 L33.0432,56.8012 L33.0432,56.8012 L33.0432,56.8012 Z M31.0636,25.4636 C29.63,25.4622 28.1964,26.0096 27.1044,27.103 C24.9176,29.2898 24.9176,32.836 27.1044,35.0228 L35.0242,42.9412 L42.9426,35.0228 L37.0038,29.0826 L29.084,37.0024 M60.7618,52.842 L58.7808,50.861 C56.5954,48.6742 53.0492,48.6742 50.8624,50.861 C48.6756,53.0478 48.6756,56.594 50.8624,58.7808 L58.7808,66.7006 L66.702,58.7808 L60.7618,52.842 L52.842,60.7618 L60.7618,52.842 L60.7618,52.842 L60.7618,52.842 L60.7618,52.842 Z M40.963,9.2838 L80.5606,48.8814 C82.7474,51.0682 82.7474,54.6144 80.5606,56.8012 L56.8012,80.5606 C54.6158,82.7474 51.0696,82.7474 48.8814,80.5606 L9.2852,40.9616 C7.097,38.7748 7.097,35.2286 9.2852,33.0418 L19.1832,23.1424 L17.2036,21.1628 C16.1102,20.0694 16.1102,18.2956 17.2036,17.2036 C18.297,16.1088 20.0694,16.1088 21.1628,17.2036 L23.1424,19.1832 L33.0432,9.2838 C35.2286,7.097 38.7748,7.097 40.963,9.2838 L40.963,9.2838 L40.963,9.2838 L40.963,9.2838 L40.963,9.2838 Z" id="stroke" stroke="#505E5B" stroke-width="2" stroke-linecap="round" stroke-linejoin="round"></path>
        </g>
    </g>
</svg>