<?xml version="1.0" encoding="UTF-8"?>
<svg width="84px" height="84px" viewBox="0 0 84 84" version="1.1" xmlns="http://www.w3.org/2000/svg" xmlns:xlink="http://www.w3.org/1999/xlink">
    <!-- Generator: Sketch 46.2 (44496) - http://www.bohemiancoding.com/sketch -->
    <title>safe-opened</title>
    <desc>Created with Sketch.</desc>
    <defs>
        <path d="M11.2,16.8 L11.2,28 L8.4,28 L5.6,28 L5.6,16.8 L8.4,16.8 L11.2,16.8 Z M11.2,53.2 L11.2,64.4 L8.4,64.4 L5.6,64.4 L5.6,53.2 L8.4,53.2 L11.2,53.2 Z" id="path-1"></path>
        <filter x="-35.7%" y="-4.2%" width="171.4%" height="108.4%" filterUnits="objectBoundingBox" id="filter-2">
            <feOffset dx="-4" dy="0" in="SourceAlpha" result="shadowOffsetInner1"></feOffset>
            <feComposite in="shadowOffsetInner1" in2="SourceAlpha" operator="arithmetic" k2="-1" k3="1" result="shadowInnerInner1"></feComposite>
            <feColorMatrix values="0 0 0 0 0   0 0 0 0 0   0 0 0 0 0  0 0 0 0.08 0" type="matrix" in="shadowInnerInner1"></feColorMatrix>
        </filter>
        <polygon id="path-3" points="47.6 72.8 72.8 72.8 72.8 8.4 47.6 8.4"></polygon>
        <filter x="-7.9%" y="-3.1%" width="115.9%" height="106.2%" filterUnits="objectBoundingBox" id="filter-4">
            <feOffset dx="-4" dy="0" in="SourceAlpha" result="shadowOffsetInner1"></feOffset>
            <feComposite in="shadowOffsetInner1" in2="SourceAlpha" operator="arithmetic" k2="-1" k3="1" result="shadowInnerInner1"></feComposite>
            <feColorMatrix values="0 0 0 0 0   0 0 0 0 0   0 0 0 0 0  0 0 0 0.1 0" type="matrix" in="shadowInnerInner1"></feColorMatrix>
        </filter>
        <path d="M25.2,30.8 C28.294,30.8 30.8,35.182 30.8,40.6 C30.8,46.018 28.294,50.4 25.2,50.4 C22.106,50.4 19.6,46.018 19.6,40.6 C19.6,38.346 20.034,36.274 20.762,34.622 C21.784,32.298 23.394,30.8 25.2,30.8" id="path-5"></path>
        <filter x="-17.9%" y="-10.2%" width="135.7%" height="120.4%" filterUnits="objectBoundingBox" id="filter-6">
            <feOffset dx="-4" dy="0" in="SourceAlpha" result="shadowOffsetInner1"></feOffset>
            <feComposite in="shadowOffsetInner1" in2="SourceAlpha" operator="arithmetic" k2="-1" k3="1" result="shadowInnerInner1"></feComposite>
            <feColorMatrix values="0 0 0 0 0   0 0 0 0 0   0 0 0 0 0  0 0 0 0.08 0" type="matrix" in="shadowInnerInner1"></feColorMatrix>
        </filter>
        <path d="M42,0 L42,81.2 L8.4,72.8 L8.4,64.4 L11.2,64.4 L11.2,53.2 L8.4,53.2 L8.4,28 L11.2,28 L11.2,16.8 L8.4,16.8 L8.4,8.4 L42,0 Z M19.6,40.6 C19.6,38.346 20.034,36.274 20.762,34.622 C21.784,32.298 23.394,30.8 25.2,30.8 C28.294,30.8 30.8,35.182 30.8,40.6 C30.8,46.018 28.294,50.4 25.2,50.4 C22.106,50.4 19.6,46.018 19.6,40.6 Z M47.6,72.8 L47.6,78.4 L42,81.2 L42,0 L47.6,2.8 L47.6,8.4 L47.6,72.8 Z" id="path-7"></path>
        <filter x="-5.1%" y="-2.5%" width="110.2%" height="104.9%" filterUnits="objectBoundingBox" id="filter-8">
            <feOffset dx="-4" dy="0" in="SourceAlpha" result="shadowOffsetInner1"></feOffset>
            <feComposite in="shadowOffsetInner1" in2="SourceAlpha" operator="arithmetic" k2="-1" k3="1" result="shadowInnerInner1"></feComposite>
            <feColorMatrix values="0 0 0 0 0   0 0 0 0 0   0 0 0 0 0  0 0 0 0.08 0" type="matrix" in="shadowInnerInner1"></feColorMatrix>
        </filter>
        <path d="M42,0 L8.4,8.4 L8.4,16.8 L5.6,16.8 L5.6,28 L8.4,28 L8.4,53.2 L5.6,53.2 L5.6,64.4 L8.4,64.4 L8.4,72.8 L42,81.2 L22.4,81.2 L5.6,81.2 C2.506,81.2 0,78.694 0,75.6 L0,5.6 C0,2.506 2.506,0 5.6,0 L22.4,0 L42,0 Z M81.2,5.6 L81.2,75.6 C81.2,78.694 78.694,81.2 75.6,81.2 L42,81.2 L47.6,78.4 L47.6,72.8 L72.8,72.8 L72.8,8.4 L47.6,8.4 L47.6,2.8 L42,0 L75.6,0 C78.694,0 81.2,2.506 81.2,5.6 Z" id="path-9"></path>
        <filter x="-2.5%" y="-2.5%" width="104.9%" height="104.9%" filterUnits="objectBoundingBox" id="filter-10">
            <feOffset dx="-4" dy="0" in="SourceAlpha" result="shadowOffsetInner1"></feOffset>
            <feComposite in="shadowOffsetInner1" in2="SourceAlpha" operator="arithmetic" k2="-1" k3="1" result="shadowInnerInner1"></feComposite>
            <feColorMatrix values="0 0 0 0 0   0 0 0 0 0   0 0 0 0 0  0 0 0 0.12 0" type="matrix" in="shadowInnerInner1"></feColorMatrix>
        </filter>
    </defs>
    <g id="round-3" stroke="none" stroke-width="1" fill="none" fill-rule="evenodd">
        <g id="safe-opened">
            <g id="fill" transform="translate(1.000000, 1.000000)">
                <g id="Combined-Shape">
                    <use fill="#F7F7F7" fill-rule="evenodd" xlink:href="#path-1"></use>
                    <use fill="black" fill-opacity="1" filter="url(#filter-2)" xlink:href="#path-1"></use>
                </g>
                <g id="Fill-2">
                    <use fill="#C3E6DC" fill-rule="evenodd" xlink:href="#path-3"></use>
                    <use fill="black" fill-opacity="1" filter="url(#filter-4)" xlink:href="#path-3"></use>
                </g>
                <g id="Group-15">
                    <g id="Fill-3">
                        <use fill="#F7F7F7" fill-rule="evenodd" xlink:href="#path-5"></use>
                        <use fill="black" fill-opacity="1" filter="url(#filter-6)" xlink:href="#path-5"></use>
                    </g>
                    <g id="Combined-Shape">
                        <use fill="#F7F7F7" fill-rule="evenodd" xlink:href="#path-7"></use>
                        <use fill="black" fill-opacity="1" filter="url(#filter-8)" xlink:href="#path-7"></use>
                    </g>
                    <g id="Combined-Shape">
                        <use fill="#F7F7F7" fill-rule="evenodd" xlink:href="#path-9"></use>
                        <use fill="black" fill-opacity="1" filter="url(#filter-10)" xlink:href="#path-9"></use>
                    </g>
                </g>
            </g>
            <path d="M65.4,48.6 L55.6,48.6 L65.4,48.6 L65.4,48.6 L65.4,48.6 L65.4,48.6 L65.4,48.6 Z M65.4,54.2 L55.6,54.2 L65.4,54.2 L65.4,54.2 L65.4,54.2 L65.4,54.2 L65.4,54.2 Z M65.4,59.8 L55.6,59.8 L65.4,59.8 L65.4,59.8 L65.4,59.8 L65.4,59.8 L65.4,59.8 Z M65.4,65.4 L55.6,65.4 L65.4,65.4 L65.4,65.4 L65.4,65.4 L65.4,65.4 L65.4,65.4 Z M26.2,51.4 L26.2,52.8 L26.2,51.4 L26.2,51.4 L26.2,51.4 L26.2,51.4 L26.2,51.4 Z M20.768,34.6364 L21.7592,35.6276 L20.768,34.6364 L20.768,34.6364 L20.768,34.6364 L20.768,34.6364 L20.768,34.6364 Z M30.7052,35.6276 L31.6964,34.6364 L30.7052,35.6276 L30.7052,35.6276 L30.7052,35.6276 L30.7052,35.6276 L30.7052,35.6276 Z M31.6964,48.6 L30.7066,47.6088 L31.6964,48.6 L31.6964,48.6 L31.6964,48.6 L31.6964,48.6 L31.6964,48.6 Z M21.7592,47.6088 L20.768,48.6 L21.7592,47.6088 L21.7592,47.6088 L21.7592,47.6088 L21.7592,47.6088 L21.7592,47.6088 Z M20.6,41.6 L19.2,41.6 L20.6,41.6 L20.6,41.6 L20.6,41.6 L20.6,41.6 L20.6,41.6 Z M33.2,41.6 L31.8,41.6 L33.2,41.6 L33.2,41.6 L33.2,41.6 L33.2,41.6 L33.2,41.6 Z M26.2,30.4 L26.2,31.8 L26.2,30.4 L26.2,30.4 L26.2,30.4 L26.2,30.4 L26.2,30.4 Z M43,6.6 L43,76.6 L43,6.6 L43,6.6 L43,6.6 L43,6.6 L43,6.6 Z M26.2,40.2 L26.2,43 L26.2,40.2 L26.2,40.2 L26.2,40.2 L26.2,40.2 L26.2,40.2 Z M54.2,73.8 L73.8,73.8 L73.8,9.4 L54.2,9.4 M9.4,34.6 L9.4,54.2 L9.4,34.6 L9.4,34.6 L9.4,34.6 L9.4,34.6 L9.4,34.6 Z M9.4,71 L9.4,73.8 L9.4,71 L9.4,71 L9.4,71 L9.4,71 L9.4,71 Z M6.6,65.4 L12.2,65.4 L12.2,54.2 L6.6,54.2 L6.6,65.4 L6.6,65.4 L6.6,65.4 L6.6,65.4 L6.6,65.4 Z M6.6,29 L12.2,29 L12.2,17.8 L6.6,17.8 L6.6,29 L6.6,29 L6.6,29 L6.6,29 L6.6,29 Z M9.4,73.8 L43,82.2 L48.6,79.4 L48.6,3.8 L43,1 L9.4,9.4 L9.4,17.8 M31.8,41.6 C31.8,36.1876 29.2926,31.8 26.2,31.8 C23.1074,31.8 20.6,36.1876 20.6,41.6 C20.6,47.0124 23.1074,51.4 26.2,51.4 C29.2926,51.4 31.8,47.0124 31.8,41.6 L31.8,41.6 L31.8,41.6 L31.8,41.6 L31.8,41.6 L31.8,41.6 Z M54.2,82.2 L76.6,82.2 C79.6926,82.2 82.2,79.6926 82.2,76.6 L82.2,6.6 C82.2,3.5074 79.6926,1 76.6,1 L54.2,1 M23.4,82.2 L6.6,82.2 C3.5074,82.2 1,79.6926 1,76.6 L1,6.6 C1,3.5074 3.5074,1 6.6,1 L23.4,1" id="stroke" stroke="#505E5B" stroke-width="2" stroke-linecap="round" stroke-linejoin="round"></path>
        </g>
    </g>
</svg>