<?xml version="1.0" encoding="UTF-8"?>
<svg width="84px" height="84px" viewBox="0 0 84 84" version="1.1" xmlns="http://www.w3.org/2000/svg" xmlns:xlink="http://www.w3.org/1999/xlink">
    <!-- Generator: Sketch 46.2 (44496) - http://www.bohemiancoding.com/sketch -->
    <title>shop</title>
    <desc>Created with Sketch.</desc>
    <defs>
        <path d="M75.6,0 L75.6,23.8 C75.6,27.664 72.464,30.8 68.6,30.8 C64.736,30.8 61.6,27.664 61.6,23.8 L61.6,0 L75.6,0 Z M47.6,0 L47.6,23.8 C47.6,27.664 44.464,30.8 40.6,30.8 C36.736,30.8 33.6,27.664 33.6,23.8 L33.6,0 L47.6,0 Z M19.6,0 L19.6,23.8 C19.6,27.664 16.464,30.8 12.6,30.8 C8.736,30.8 5.6,27.664 5.6,23.8 L5.6,0 L19.6,0 Z" id="path-1"></path>
        <filter x="-2.9%" y="-6.5%" width="105.7%" height="113.0%" filterUnits="objectBoundingBox" id="filter-2">
            <feOffset dx="-4" dy="0" in="SourceAlpha" result="shadowOffsetInner1"></feOffset>
            <feComposite in="shadowOffsetInner1" in2="SourceAlpha" operator="arithmetic" k2="-1" k3="1" result="shadowInnerInner1"></feComposite>
            <feColorMatrix values="0 0 0 0 0   0 0 0 0 0   0 0 0 0 0  0 0 0 0.1 0" type="matrix" in="shadowInnerInner1"></feColorMatrix>
        </filter>
        <path d="M36.4,70 L36.4,42 L70,42 L70,70 L36.4,70 Z M11.2,81.2 L11.2,42 L30.8,42 L30.8,81.2 L11.2,81.2 Z" id="path-3"></path>
        <filter x="-3.4%" y="-5.1%" width="106.8%" height="110.2%" filterUnits="objectBoundingBox" id="filter-4">
            <feOffset dx="-4" dy="0" in="SourceAlpha" result="shadowOffsetInner1"></feOffset>
            <feComposite in="shadowOffsetInner1" in2="SourceAlpha" operator="arithmetic" k2="-1" k3="1" result="shadowInnerInner1"></feComposite>
            <feColorMatrix values="0 0 0 0 0   0 0 0 0 0   0 0 0 0 0  0 0 0 0.08 0" type="matrix" in="shadowInnerInner1"></feColorMatrix>
        </filter>
        <path d="M81.2,5.6 L81.2,30.66 C80.164,30.45 79.212,30.016 78.4,29.4 C76.706,28.126 75.6,26.096 75.6,23.8 L75.6,0 C78.694,0 81.2,2.506 81.2,5.6 Z M5.6,0 L5.6,23.8 C5.6,26.096 4.494,28.126 2.8,29.4 C1.988,30.016 1.036,30.45 0,30.66 L0,5.6 C0,2.506 2.506,0 5.6,0 Z M61.6,0 L61.6,23.8 C61.6,27.664 58.464,30.8 54.6,30.8 C50.736,30.8 47.6,27.664 47.6,23.8 L47.6,0 L61.6,0 Z M33.6,0 L33.6,23.8 C33.6,27.664 30.464,30.8 26.6,30.8 C22.736,30.8 19.6,27.664 19.6,23.8 L19.6,0 L33.6,0 Z" id="path-5"></path>
        <filter x="-2.5%" y="-6.5%" width="104.9%" height="113.0%" filterUnits="objectBoundingBox" id="filter-6">
            <feOffset dx="-4" dy="0" in="SourceAlpha" result="shadowOffsetInner1"></feOffset>
            <feComposite in="shadowOffsetInner1" in2="SourceAlpha" operator="arithmetic" k2="-1" k3="1" result="shadowInnerInner1"></feComposite>
            <feColorMatrix values="0 0 0 0 0   0 0 0 0 0   0 0 0 0 0  0 0 0 0.12 0" type="matrix" in="shadowInnerInner1"></feColorMatrix>
        </filter>
        <path d="M36.4,70 L70,70 L70,42 L36.4,42 L36.4,70 Z M78.4,29.4 L78.4,81.2 L30.8,81.2 L30.8,42 L11.2,42 L11.2,81.2 L2.8,81.2 L2.8,29.4 C4.494,28.126 5.6,26.096 5.6,23.8 C5.6,27.664 8.736,30.8 12.6,30.8 C16.464,30.8 19.6,27.664 19.6,23.8 C19.6,27.664 22.736,30.8 26.6,30.8 C30.464,30.8 33.6,27.664 33.6,23.8 C33.6,27.664 36.736,30.8 40.6,30.8 C44.464,30.8 47.6,27.664 47.6,23.8 C47.6,27.664 50.736,30.8 54.6,30.8 C58.464,30.8 61.6,27.664 61.6,23.8 C61.6,27.664 64.736,30.8 68.6,30.8 C72.464,30.8 75.6,27.664 75.6,23.8 C75.6,26.096 76.706,28.126 78.4,29.4 L78.4,29.4 Z" id="path-7"></path>
        <filter x="-2.6%" y="-3.5%" width="105.3%" height="107.0%" filterUnits="objectBoundingBox" id="filter-8">
            <feOffset dx="-4" dy="0" in="SourceAlpha" result="shadowOffsetInner1"></feOffset>
            <feComposite in="shadowOffsetInner1" in2="SourceAlpha" operator="arithmetic" k2="-1" k3="1" result="shadowInnerInner1"></feComposite>
            <feColorMatrix values="0 0 0 0 0   0 0 0 0 0   0 0 0 0 0  0 0 0 0.1 0" type="matrix" in="shadowInnerInner1"></feColorMatrix>
        </filter>
    </defs>
    <g id="round-3" stroke="none" stroke-width="1" fill="none" fill-rule="evenodd">
        <g id="shop">
            <g id="fill" transform="translate(1.000000, 1.000000)">
                <g id="Combined-Shape">
                    <use fill="#F7F7F7" fill-rule="evenodd" xlink:href="#path-1"></use>
                    <use fill="black" fill-opacity="1" filter="url(#filter-2)" xlink:href="#path-1"></use>
                </g>
                <g id="Combined-Shape">
                    <use fill="#FFFFFF" fill-rule="evenodd" xlink:href="#path-3"></use>
                    <use fill="black" fill-opacity="1" filter="url(#filter-4)" xlink:href="#path-3"></use>
                </g>
                <g id="Combined-Shape">
                    <use fill="#C3E6DC" fill-rule="evenodd" xlink:href="#path-5"></use>
                    <use fill="black" fill-opacity="1" filter="url(#filter-6)" xlink:href="#path-5"></use>
                </g>
                <g id="Fill-12">
                    <use fill="#F7F7F7" fill-rule="evenodd" xlink:href="#path-7"></use>
                    <use fill="black" fill-opacity="1" filter="url(#filter-8)" xlink:href="#path-7"></use>
                </g>
            </g>
            <path d="M82.2,82.2 L1,82.2 L82.2,82.2 L82.2,82.2 Z M26.2,59.8 L26.2,62.6 L26.2,59.8 L26.2,59.8 Z M57,51.4 L62.6,57 L57,51.4 L57,51.4 Z M62.6,48.6 L65.4,51.4 L62.6,48.6 L62.6,48.6 Z M37.4,71 L71,71 L71,43 L37.4,43 L37.4,71 L37.4,71 Z M79.4,36.7 L79.4,82.2 L79.4,36.7 L79.4,36.7 Z M3.8,36.7 L3.8,82.2 L3.8,36.7 L3.8,36.7 Z M31.8,76.6 L31.8,43 L12.2,43 L12.2,76.6 M76.6,24.8 L76.6,6.6 L76.6,24.8 L76.6,24.8 Z M62.6,24.8 L62.6,6.6 L62.6,24.8 L62.6,24.8 Z M48.6,24.8 L48.6,6.6 L48.6,24.8 L48.6,24.8 Z M34.6,24.8 L34.6,6.6 L34.6,24.8 L34.6,24.8 Z M6.6,24.8 L6.6,6.6 L6.6,24.8 L6.6,24.8 Z M20.6,24.8 L20.6,6.6 L20.6,24.8 L20.6,24.8 Z M82.2,6.6 L82.2,31.6586 C79.0038,31.0104 76.6,28.1866 76.6,24.8 C76.6,28.6654 73.4682,31.8 69.6,31.8 C65.7318,31.8 62.6,28.6654 62.6,24.8 C62.6,28.6654 59.4682,31.8 55.6,31.8 C51.7318,31.8 48.6,28.6654 48.6,24.8 C48.6,28.6654 45.4682,31.8 41.6,31.8 C37.7318,31.8 34.6,28.6654 34.6,24.8 C34.6,28.6654 31.4682,31.8 27.6,31.8 C23.7318,31.8 20.6,28.6654 20.6,24.8 C20.6,28.6654 17.4682,31.8 13.6,31.8 C9.7318,31.8 6.6,28.6654 6.6,24.8 C6.6,28.1866 4.1962,31.0104 1,31.6586 L1,6.6 C1,3.5074 3.5074,1 6.6,1 L76.6,1 C79.6926,1 82.2,3.5074 82.2,6.6 L82.2,6.6 L82.2,6.6 Z" id="stroke" stroke="#505E5B" stroke-width="2" stroke-linecap="round" stroke-linejoin="round"></path>
        </g>
    </g>
</svg>