<?xml version="1.0" encoding="UTF-8"?>
<svg width="84px" height="84px" viewBox="0 0 84 84" version="1.1" xmlns="http://www.w3.org/2000/svg" xmlns:xlink="http://www.w3.org/1999/xlink">
    <!-- Generator: Sketch 46.2 (44496) - http://www.bohemiancoding.com/sketch -->
    <title>skull</title>
    <desc>Created with Sketch.</desc>
    <defs>
        <path d="M26.76814,21.23786 C24.62614,22.76386 22.75014,24.63986 21.22414,26.79586 L21.11214,26.71186 L10.19214,15.79186 C9.18414,17.24786 7.50414,18.19986 5.60014,18.19986 C2.50614,18.19986 0.00014,15.69386 0.00014,12.59986 C0.00014,9.50586 2.50614,6.99986 5.60014,6.99986 C6.18814,6.99986 6.74814,7.11186 7.29414,7.29386 C7.11214,6.74786 7.00014,6.18786 7.00014,5.59986 C7.00014,2.50586 9.50614,-0.00014 12.60014,-0.00014 C15.69414,-0.00014 18.20014,2.50586 18.20014,5.59986 C18.20014,7.50386 17.24814,9.18386 15.79214,10.19186 L26.57214,20.97186 L26.76814,21.23786 Z M59.99014,26.80986 C58.46414,24.65386 56.57414,22.76386 54.41814,21.22386 L54.51614,21.08386 L65.40814,10.19186 C63.95214,9.18386 63.00014,7.50386 63.00014,5.59986 C63.00014,2.50586 65.50614,-0.00014 68.60014,-0.00014 C71.69414,-0.00014 74.20014,2.50586 74.20014,5.59986 C74.20014,6.18786 74.08814,6.74786 73.90614,7.29386 C74.45214,7.11186 75.01214,6.99986 75.60014,6.99986 C78.69414,6.99986 81.20014,9.50586 81.20014,12.59986 C81.20014,15.69386 78.69414,18.19986 75.60014,18.19986 C73.69614,18.19986 72.01614,17.24786 71.00814,15.79186 L59.99014,26.80986 Z M54.6,56 L60.2,56 L60.368,54.964 L60.606,55.006 L71.008,65.408 C72.016,63.952 73.696,63 75.6,63 C78.694,63 81.2,65.506 81.2,68.6 C81.2,71.694 78.694,74.2 75.6,74.2 C75.012,74.2 74.452,74.088 73.906,73.906 C74.088,74.452 74.2,75.012 74.2,75.6 C74.2,78.694 71.694,81.2 68.6,81.2 C65.506,81.2 63,78.694 63,75.6 C63,73.696 63.952,72.016 65.408,71.008 L52.36,57.96 L52.066,57.918 C52.402,57.092 53.116,56 54.6,56 Z M26.6,56 C28.182,56 28.882,57.106 29.176,57.932 L28.7,58.1 L15.792,71.008 C17.248,72.016 18.2,73.696 18.2,75.6 C18.2,78.694 15.694,81.2 12.6,81.2 C9.506,81.2 7,78.694 7,75.6 C7,75.012 7.112,74.452 7.294,73.906 C6.748,74.088 6.188,74.2 5.6,74.2 C2.506,74.2 0,71.694 0,68.6 C0,65.506 2.506,63 5.6,63 C7.504,63 9.184,63.952 10.192,65.408 L20.566,55.034 L20.832,54.992 L21,56 L26.6,56 Z" id="path-1"></path>
        <filter x="-2.5%" y="-2.5%" width="104.9%" height="104.9%" filterUnits="objectBoundingBox" id="filter-2">
            <feOffset dx="-4" dy="0" in="SourceAlpha" result="shadowOffsetInner1"></feOffset>
            <feComposite in="shadowOffsetInner1" in2="SourceAlpha" operator="arithmetic" k2="-1" k3="1" result="shadowInnerInner1"></feComposite>
            <feColorMatrix values="0 0 0 0 0   0 0 0 0 0   0 0 0 0 0  0 0 0 0.08 0" type="matrix" in="shadowInnerInner1"></feColorMatrix>
        </filter>
        <path d="M44.8,67.2 L36.4,67.2 L30.8,67.2 L29.4,58.8 C29.4,58.8 29.358,58.408 29.176,57.932 C28.882,57.106 28.182,56 26.6,56 L21,56 L20.832,54.992 L19.6,47.6 C18.256,46.256 16.8,44.1 16.8,40.6 C16.8,35.448 18.438,30.688 21.224,26.796 C22.75,24.64 24.626,22.764 26.768,21.238 C30.66,18.438 35.434,16.8 40.6,16.8 C45.766,16.8 50.526,18.438 54.418,21.224 C56.574,22.764 58.464,24.654 59.99,26.81 C62.776,30.688 64.4,35.448 64.4,40.6 C64.4,44.1 63,46.214 61.6,47.6 L60.368,54.964 L60.2,56 L54.6,56 C53.116,56 52.402,57.092 52.066,57.918 C51.856,58.408 51.8,58.8 51.8,58.8 L50.4,67.2 L44.8,67.2 Z" id="path-3"></path>
        <filter x="-4.2%" y="-4.0%" width="108.4%" height="107.9%" filterUnits="objectBoundingBox" id="filter-4">
            <feOffset dx="-4" dy="0" in="SourceAlpha" result="shadowOffsetInner1"></feOffset>
            <feComposite in="shadowOffsetInner1" in2="SourceAlpha" operator="arithmetic" k2="-1" k3="1" result="shadowInnerInner1"></feComposite>
            <feColorMatrix values="0 0 0 0 0   0 0 0 0 0   0 0 0 0 0  0 0 0 0.08 0" type="matrix" in="shadowInnerInner1"></feColorMatrix>
        </filter>
        <path d="M32.2,36.4 C34.524,36.4 36.4,38.276 36.4,40.6 C36.4,42.924 34.524,44.8 32.2,44.8 C29.876,44.8 28,42.924 28,40.6 C28,38.276 29.876,36.4 32.2,36.4 Z M43.4,53.2 L37.8,53.2 C37.8,53.2 37.8,49 40.6,49 C43.4,49 43.4,53.2 43.4,53.2 Z M49,36.4 C51.324,36.4 53.2,38.276 53.2,40.6 C53.2,42.924 51.324,44.8 49,44.8 C46.676,44.8 44.8,42.924 44.8,40.6 C44.8,38.276 46.676,36.4 49,36.4 Z" id="path-5"></path>
        <filter x="-7.9%" y="-11.9%" width="115.9%" height="123.8%" filterUnits="objectBoundingBox" id="filter-6">
            <feOffset dx="-4" dy="0" in="SourceAlpha" result="shadowOffsetInner1"></feOffset>
            <feComposite in="shadowOffsetInner1" in2="SourceAlpha" operator="arithmetic" k2="-1" k3="1" result="shadowInnerInner1"></feComposite>
            <feColorMatrix values="0 0 0 0 0   0 0 0 0 0   0 0 0 0 0  0 0 0 0.12 0" type="matrix" in="shadowInnerInner1"></feColorMatrix>
        </filter>
    </defs>
    <g id="round-3" stroke="none" stroke-width="1" fill="none" fill-rule="evenodd">
        <g id="skull">
            <g id="Group-18-Copy" transform="translate(1.000000, 1.000000)">
                <g id="fill">
                    <g id="Combined-Shape">
                        <use fill="#F7F7F7" fill-rule="evenodd" xlink:href="#path-1"></use>
                        <use fill="black" fill-opacity="1" filter="url(#filter-2)" xlink:href="#path-1"></use>
                    </g>
                    <g id="Fill-11">
                        <use fill="#F7F7F7" fill-rule="evenodd" xlink:href="#path-3"></use>
                        <use fill="black" fill-opacity="1" filter="url(#filter-4)" xlink:href="#path-3"></use>
                    </g>
                    <g id="Combined-Shape">
                        <use fill="#C3E6DC" fill-rule="evenodd" xlink:href="#path-5"></use>
                        <use fill="black" fill-opacity="1" filter="url(#filter-6)" xlink:href="#path-5"></use>
                    </g>
                </g>
                <path d="M23.1,17.5 L15.792,10.192 C17.2452,9.1812 18.2,7.504 18.2,5.6 C18.2,2.5074 15.6926,0 12.6,0 C9.5074,0 7,2.5074 7,5.6 C7,6.1922 7.1176,6.7508 7.287,7.287 C6.7508,7.1176 6.1922,7 5.6,7 C2.5074,7 0,9.5074 0,12.6 C0,15.6926 2.5074,18.2 5.6,18.2 C7.5026,18.2 9.1812,17.2452 10.192,15.792 L17.5,23.1 M56,61.6 L65.408,71.008 C63.9548,72.0188 63,73.696 63,75.6 C63,78.6926 65.5074,81.2 68.6,81.2 C71.6926,81.2 74.2,78.6926 74.2,75.6 C74.2,75.0078 74.0824,74.4492 73.913,73.913 C74.4492,74.0824 75.0078,74.2 75.6,74.2 C78.6926,74.2 81.2,71.6926 81.2,68.6 C81.2,65.5074 78.6926,63 75.6,63 C73.6974,63 72.0188,63.9548 71.008,65.408 L64.4,58.8 M16.8,58.8 L10.192,65.408 C9.1812,63.9548 7.504,63 5.6,63 C2.5074,63 0,65.5074 0,68.6 C0,71.6926 2.5074,74.2 5.6,74.2 C6.1922,74.2 6.7508,74.0838 7.287,73.913 C7.1176,74.4478 7,75.0078 7,75.6 C7,78.6926 9.5074,81.2 12.6,81.2 C15.6926,81.2 18.2,78.6926 18.2,75.6 C18.2,73.696 17.2452,72.0188 15.792,71.008 L25.2,61.6 M63.7,23.1 L71.008,15.792 C72.0188,17.2452 73.696,18.2 75.6,18.2 C78.6926,18.2 81.2,15.6926 81.2,12.6 C81.2,9.5074 78.6926,7 75.6,7 C75.0078,7 74.4492,7.1162 73.913,7.287 C74.0824,6.7508 74.2,6.1922 74.2,5.6 C74.2,2.5074 71.6926,0 68.6,0 C65.5074,0 63,2.5074 63,5.6 C63,7.504 63.9548,9.1812 65.408,10.192 L58.1,17.5 M37.8,53.2 L43.4,53.2 C43.4,53.2 43.4,49 40.6,49 C37.8,49 37.8,53.2 37.8,53.2 L37.8,53.2 L37.8,53.2 L37.8,53.2 L37.8,53.2 L37.8,53.2 L37.8,53.2 Z M36.4,40.6 C36.4,38.2802 34.5184,36.4 32.2,36.4 C29.8816,36.4 28,38.2802 28,40.6 C28,42.9198 29.8816,44.8 32.2,44.8 C34.5184,44.8 36.4,42.9198 36.4,40.6 L36.4,40.6 L36.4,40.6 L36.4,40.6 L36.4,40.6 L36.4,40.6 L36.4,40.6 Z M53.2,40.6 C53.2,38.2802 51.3184,36.4 49,36.4 C46.6816,36.4 44.8,38.2802 44.8,40.6 C44.8,42.9198 46.6816,44.8 49,44.8 C51.3184,44.8 53.2,42.9198 53.2,40.6 L53.2,40.6 L53.2,40.6 L53.2,40.6 L53.2,40.6 L53.2,40.6 L53.2,40.6 Z M44.8,61.6 L44.8,67.2 L44.8,61.6 L44.8,61.6 L44.8,61.6 L44.8,61.6 L44.8,61.6 L44.8,61.6 Z M36.4,61.6 L36.4,67.2 L36.4,61.6 L36.4,61.6 L36.4,61.6 L36.4,61.6 L36.4,61.6 L36.4,61.6 Z M39.2,67.2 L30.8,67.2 L29.4,58.8 C29.4,58.8 29.1088,56 26.6,56 L21,56 L19.6,47.6 C18.2504,46.2518 16.8,44.0986 16.8,40.6 C16.8,27.4554 27.4554,16.8 40.6,16.8 C53.7446,16.8 64.4,27.4554 64.4,40.6 C64.4,44.0986 62.993,46.207 61.6,47.6 L60.2,56 L54.6,56 C52.2368,56 51.8,58.8 51.8,58.8 L50.4,67.2 M44.8,67.2 L39.2,67.2 L39.2,67.2 L39.2,67.2 L39.2,67.2 L39.2,67.2 L39.2,67.2" id="stroke" stroke="#505E5B" stroke-width="2" stroke-linecap="round" stroke-linejoin="round"></path>
            </g>
        </g>
    </g>
</svg>