<?xml version="1.0" encoding="UTF-8"?>
<svg width="129px" height="37px" viewBox="0 0 129 37" version="1.1" xmlns="http://www.w3.org/2000/svg" xmlns:xlink="http://www.w3.org/1999/xlink">
    <!-- Generator: Sketch 46.2 (44496) - http://www.bohemiancoding.com/sketch -->
    <title>slack_monochrome_white</title>
    <desc>Created with Sketch.</desc>
    <defs>
        <polygon id="path-1" points="19.4523333 0.138349515 38.7995111 0.138349515 38.7995111 29.8319417 0.105155556 29.8319417 0.105155556 0.138349515 19.4523333 0.138349515"></polygon>
        <polygon id="path-3" points="36.7209712 36.982381 6.05535868e-05 36.982381 6.05535868e-05 0.279028808 36.7209712 0.279028808 36.7209712 36.982381"></polygon>
    </defs>
    <g id="round-3" stroke="none" stroke-width="1" fill="none" fill-rule="evenodd">
        <g id="Final" transform="translate(-361.000000, -685.000000)">
            <g id="slack_monochrome_white" transform="translate(361.000000, 685.000000)">
                <path d="M57.5834536,9.5237425 C58.6961289,10.0178431 58.7772941,10.388491 57.9072601,12.0765473 C57.017006,13.8060443 56.7943,13.9089215 55.7018449,13.4559718 C54.3260235,12.858994 52.5657354,12.4060443 51.4328401,12.4060443 C49.5714514,12.4060443 48.3371708,13.0853239 48.3371708,14.1146761 C48.3371708,17.5119437 59,15.6795694 59,22.9264748 C59,26.5706479 55.924266,29 51.3115194,29 C48.8833983,29 45.8888296,28.1766922 43.8252399,27.1058994 C42.7934451,26.5706479 42.7327848,26.2617264 43.6230389,24.5325191 C44.3919724,23.0087767 44.6346136,22.844173 45.7472889,23.3176982 C47.507577,24.1001449 49.7332122,24.6971227 51.230639,24.6971227 C52.929982,24.6971227 54.0631622,23.9972676 54.0631622,22.9676258 C54.0631622,19.6735252 43.218352,21.2384185 43.218352,14.2178431 C43.218352,10.4913682 46.2735811,8 50.8461723,8 C52.9909271,8 55.7018449,8.658994 57.5834536,9.5237425" id="Fill-1" fill="#FFFFFE"></path>
                <path d="M67,1.49574466 L67,29.1361808 C67,29.5575632 66.5627566,30 65.9378299,30 L63.0624633,30 C62.4375367,30 62,29.5575632 62,29.1361808 L62,1.49574466 C62,0.126325778 62.3750733,0 64.5,0 C66.9170088,0 67,0.168434371 67,1.49574466" id="Fill-2" fill="#FFFFFE"></path>
                <path d="M74.780866,22.844173 C74.780866,24.2235976 75.9654769,25.1500724 77.753072,25.1500724 C79.9148625,25.1500724 81.8683441,24.1207203 83.0117028,22.3706479 L83.0117028,20.5588491 C81.8683441,20.1264748 80.4757168,19.8795694 79.2287888,19.8795694 C76.5681685,19.8795694 74.780866,21.1352515 74.780866,22.844173 Z M88,16.1119437 L88,27.7443179 C88,28.3618712 87.56378,28.7942455 86.940316,28.7942455 L84.1132241,28.7942455 C83.4689877,28.7942455 83.0117028,28.3207203 83.0532475,27.6825916 L83.0947923,26.4266197 C81.5567583,28.1146761 79.3534231,29 77.1500878,29 C72.8683441,29 70,26.5500724 70,22.8853239 C70,18.9942455 73.2425395,16.3794245 78.106495,16.3588491 C79.9564073,16.3588491 81.6398479,16.6883461 83.0117028,17.244173 L83.0117028,15.9058994 C83.0117028,13.7646036 81.3071972,12.4883461 78.4180807,12.4883461 C77.0669982,12.4883461 75.40433,13.0235976 74.0740199,13.7854688 C73.0555881,14.3618712 72.8060269,14.3207203 71.7045056,12.6943904 C70.6237566,11.0677706 70.6650088,10.7588491 71.7045056,10.1001449 C73.6998245,8.8235976 76.4019895,8 78.8961381,8 C84.4874195,8 88,11.0060443 88,16.1119437 L88,16.1119437 Z" id="Fill-3" fill="#FFFFFE"></path>
                <g id="Group-7" transform="translate(90.000000, 0.000000)">
                    <mask id="mask-2" fill="white">
                        <use xlink:href="#path-1"></use>
                    </mask>
                    <g id="Clip-5"></g>
                    <path d="M16.9554667,10.2984466 C17.9813111,10.8984466 18.0226222,11.2296117 16.8936444,12.9882524 C15.8264889,14.6437864 15.6418889,14.7471845 14.5132,14.1678641 C13.6511556,13.7126214 12.2757556,13.3194175 11.1470667,13.3194175 C7.59662222,13.3194175 5.23611111,15.6783495 5.23611111,19.2375728 C5.23611111,22.9415534 7.59662222,25.4245631 11.1470667,25.4245631 C12.3786,25.4245631 13.9178,24.9486408 14.9234222,24.39 C15.9495556,23.7897087 16.1754667,23.831068 17.2631333,25.4245631 C18.2482444,26.9143689 18.2277333,27.2662136 17.3451778,27.8868932 C15.7649556,28.9837864 13.2608667,29.8319417 11.0650222,29.8319417 C4.49742222,29.8319417 0.105155556,25.59 0.105155556,19.2375728 C0.105155556,12.9262136 4.49742222,8.72563107 11.1060444,8.72563107 C13.1172889,8.72563107 15.4778,9.40864078 16.9554667,10.2984466" id="Fill-4" fill="#FFFFFE" mask="url(#mask-2)"></path>
                    <path d="M38.3829333,27.0384466 C39.2039556,28.0936893 38.8754889,28.4662136 36.8229333,29.2112621 C34.7296444,29.9769903 34.4422,29.9353398 33.7035111,28.9628155 L27.8335778,21.0585437 L25.2064222,23.6242718 L25.2064222,28.7560194 C25.2064222,29.1699029 24.7756889,29.604466 24.1600667,29.604466 L21.3275111,29.604466 C20.7118889,29.604466 20.2808667,29.1699029 20.2808667,28.7560194 L20.2808667,1.60747573 C20.2808667,0.262427184 20.6503556,0.138349515 22.7436444,0.138349515 C25.1246667,0.138349515 25.2064222,0.303786408 25.2064222,1.60747573 L25.2064222,17.0440777 L33.2519778,9.26359223 C34.1345333,8.41543689 34.6270889,8.47747573 36.2073111,9.53271845 C37.9519111,10.6706796 38.0749778,10.981165 37.2334444,11.808932 L31.2404444,17.6854369 L38.3829333,27.0384466" id="Fill-6" fill="#FFFFFE" mask="url(#mask-2)"></path>
                </g>
                <polyline id="Fill-8" fill="#FFFFFE" points="15 17.5488514 16.4628649 22 21 20.4511486 19.5374067 16 15 17.5488514"></polyline>
                <g id="Group-12">
                    <mask id="mask-4" fill="white">
                        <use xlink:href="#path-3"></use>
                    </mask>
                    <g id="Clip-10"></g>
                    <polyline id="Fill-9" fill="#FFFFFE" mask="url(#mask-4)" points="15.1162619 17.099873 16.6981587 21.8223651 21.6044762 20.1790952 20.022873 15.4566032 15.1162619 17.099873"></polyline>
                    <path d="M28.8021508,21.7833095 L26.4229921,22.5799841 L27.2475635,25.0416587 C27.5814444,26.0386032 27.0440635,27.1174762 26.047119,27.4510635 C25.8304048,27.5238889 25.6095794,27.5553095 25.393746,27.5494365 C24.6161587,27.5294683 23.8990635,27.0308492 23.6380079,26.2509127 L22.8134365,23.7889444 L17.907119,25.4319206 L18.7316905,27.8938889 C19.0655714,28.8905397 18.5281905,29.9694127 17.531246,30.3032937 C17.3145317,30.3758254 17.094,30.407246 16.877873,30.4016667 C16.1005794,30.3814048 15.3834841,29.8827857 15.1221349,29.1028492 L14.2975635,26.640881 L11.9181111,27.4378492 C11.7011032,27.510381 11.4805714,27.5418016 11.2644444,27.5362222 C10.4871508,27.5159603 9.77005556,27.0173413 9.50870635,26.2374048 C9.1748254,25.2404603 9.7125,24.161881 10.7091508,23.828 L13.0886032,23.0313254 L11.5067063,18.3088333 L9.12754762,19.1055079 C8.91083333,19.1780397 8.69000794,19.2094603 8.47388095,19.203881 C7.69688095,19.183619 6.97949206,18.685 6.71843651,17.9050635 C6.38455556,16.908119 6.92193651,15.8295397 7.91888095,15.4956587 L10.297746,14.6989841 L9.4731746,12.2370159 C9.13929365,11.2403651 9.6766746,10.1617857 10.673619,9.82761111 C11.6705635,9.49402381 12.7491429,10.0314048 13.0827302,11.0280556 L13.9073016,13.4900238 L18.813619,11.8470476 L17.9890476,9.38507937 C17.6551667,8.38813492 18.1928413,7.30955556 19.1894921,6.9756746 C20.1861429,6.64179365 21.2650159,7.17946825 21.5988968,8.17611905 L22.4234683,10.6380873 L24.802627,9.84111905 C25.7998651,9.50753175 26.8781508,10.0449127 27.2120317,11.0415635 C27.5459127,12.0385079 27.0082381,13.1170873 26.0115873,13.4509683 L23.6324286,14.2476429 L25.2140317,18.9704286 L27.5934841,18.1734603 C28.5904286,17.839873 29.6690079,18.377254 30.0025952,19.3739048 C30.3364762,20.3705556 29.7990952,21.4494286 28.8021508,21.7833095 Z M35.1840635,13.5922143 C31.3986111,0.974626984 25.9308333,-1.96951587 13.313246,1.81593651 C0.69565873,5.60138889 -2.24848413,11.0691667 1.53696825,23.686754 C5.32242063,36.3043413 10.7901984,39.2484841 23.4077857,35.4630317 C36.025373,31.6775794 38.9695159,26.2098016 35.1840635,13.5922143 L35.1840635,13.5922143 Z" id="Fill-11" fill="#FFFFFE" mask="url(#mask-4)"></path>
                </g>
            </g>
        </g>
    </g>
</svg>