<?xml version="1.0" encoding="UTF-8"?>
<svg width="158px" height="158px" viewBox="0 0 158 158" version="1.1" xmlns="http://www.w3.org/2000/svg" xmlns:xlink="http://www.w3.org/1999/xlink">
    <!-- Generator: Sketch 46.2 (44496) - http://www.bohemiancoding.com/sketch -->
    <title>swordsIcon</title>
    <desc>Created with Sketch.</desc>
    <defs>
        <path d="M28.7533333,139.538689 L32.804,143.573607 C34.3506667,145.150164 34.4333333,146.940492 33.3906667,147.982623 L27.18,154.208689 C26.1373333,155.25082 24.4573333,155.25082 23.42,154.208689 L0.78,131.522295 C-0.26,130.480164 -0.26,128.796721 0.78,127.75459 L6.99333333,121.528525 C8.03066667,120.486393 9.71066667,120.486393 10.7533333,121.528525 L15.4193314,126.177367 L36.0053333,105.54918 L49.3386667,118.909836 L28.7526653,139.538022 Z M22.072,132.871721 L15.392,126.204754 L15.4053333,126.191393 L15.3906667,126.204754 L22.072,132.871721 Z" id="path-1"></path>
        <filter x="-8.1%" y="-8.1%" width="116.2%" height="116.2%" filterUnits="objectBoundingBox" id="filter-2">
            <feOffset dx="-8" dy="0" in="SourceAlpha" result="shadowOffsetInner1"></feOffset>
            <feComposite in="shadowOffsetInner1" in2="SourceAlpha" operator="arithmetic" k2="-1" k3="1" result="shadowInnerInner1"></feComposite>
            <feColorMatrix values="0 0 0 0 0   0 0 0 0 0   0 0 0 0 0  0 0 0 0.12 0" type="matrix" in="shadowInnerInner1"></feColorMatrix>
        </filter>
        <path d="M53.392,101.487541 L53.3386667,101.540984 L62.672,110.893443 L62.7786667,110.786557 L77.3386667,96.1967213 L68.0053333,86.8442623 L53.4453333,101.434098 L53.392,101.487541 L53.4453333,101.434098 L68.0053333,86.8442623 L58.672,77.4918033 L44.112,92.0816393 L44.0053333,92.1885246 L53.3386667,101.540984 L53.392,101.487541 Z M154.672,0 L149.338667,24.0491803 L96.0053333,77.4918033 L86.672,68.1393443 L154.672,0 Z M154.672,0 L86.672,68.1393443 L77.3386667,58.7868852 L130.672,5.3442623 L154.672,0 Z" id="path-3"></path>
        <filter x="-3.6%" y="-3.6%" width="107.2%" height="107.2%" filterUnits="objectBoundingBox" id="filter-4">
            <feOffset dx="-8" dy="0" in="SourceAlpha" result="shadowOffsetInner1"></feOffset>
            <feComposite in="shadowOffsetInner1" in2="SourceAlpha" operator="arithmetic" k2="-1" k3="1" result="shadowInnerInner1"></feComposite>
            <feColorMatrix values="0 0 0 0 0   0 0 0 0 0   0 0 0 0 0  0 0 0 0.08 0" type="matrix" in="shadowInnerInner1"></feColorMatrix>
        </filter>
        <path d="M110.672,92.1885246 L101.338667,101.540984 L0.00533333333,0 L24.0053333,5.3442623 L77.3386667,58.7868852 L86.672,68.1393443 L96.0053333,77.4918033 L110.672,92.1885246 Z M101.338667,101.540984 L92.0053333,110.893443 L77.3386667,96.1967213 L68.0053333,86.8442623 L58.672,77.4918033 L5.33866667,24.0491803 L0.00533333333,0 L101.338667,101.540984 Z" id="path-5"></path>
        <filter x="-3.6%" y="-3.6%" width="107.2%" height="107.2%" filterUnits="objectBoundingBox" id="filter-6">
            <feOffset dx="-8" dy="0" in="SourceAlpha" result="shadowOffsetInner1"></feOffset>
            <feComposite in="shadowOffsetInner1" in2="SourceAlpha" operator="arithmetic" k2="-1" k3="1" result="shadowInnerInner1"></feComposite>
            <feColorMatrix values="0 0 0 0 0   0 0 0 0 0   0 0 0 0 0  0 0 0 0.08 0" type="matrix" in="shadowInnerInner1"></feColorMatrix>
        </filter>
        <path d="M62.672,110.893443 L72.0053333,120.245902 C64.9386667,127.327049 57.8453333,127.433934 50.672,120.245902 L49.4453333,119.016721 L49.3386667,118.909836 L36.0053333,105.54918 L34.672,104.213115 C27.632,97.1586885 27.552,89.9706557 34.672,82.8360656 L44.0053333,92.1885246 L53.3386667,101.540984 L62.672,110.893443 Z M110.672,92.1885246 L120.005333,82.8360656 C127.072,89.9172131 127.178667,97.025082 120.005333,104.213115 L118.672,105.54918 L118.565333,105.656066 L105.338667,118.909836 L104.005333,120.245902 C96.9653333,127.300328 89.792,127.380492 82.672,120.245902 L92.0053333,110.893443 L101.338667,101.540984 L110.672,92.1885246 Z" id="path-7"></path>
        <filter x="-4.2%" y="-9.4%" width="108.3%" height="118.7%" filterUnits="objectBoundingBox" id="filter-8">
            <feOffset dx="-8" dy="0" in="SourceAlpha" result="shadowOffsetInner1"></feOffset>
            <feComposite in="shadowOffsetInner1" in2="SourceAlpha" operator="arithmetic" k2="-1" k3="1" result="shadowInnerInner1"></feComposite>
            <feColorMatrix values="0 0 0 0 0   0 0 0 0 0   0 0 0 0 0  0 0 0 0.12 0" type="matrix" in="shadowInnerInner1"></feColorMatrix>
        </filter>
        <path d="M126.111726,139.378367 L139.257867,126.178567 L118.6712,105.549715 L118.564533,105.6566 L105.337867,118.91037 L125.924533,139.539223 L125.924556,139.539204 L121.287733,144.214918 C120.245067,145.257049 120.245067,146.940492 121.287733,147.982623 L127.4984,154.208689 C128.5384,155.25082 130.2184,155.25082 131.2584,154.208689 L153.8984,131.522295 C154.9384,130.480164 154.9384,128.796721 153.8984,127.75459 L147.685067,121.528525 C146.645067,120.486393 144.8584,120.566557 143.287733,122.116393 L139.2584,126.178033 L126.111733,139.378361 Z" id="path-9"></path>
        <filter x="-8.1%" y="-8.1%" width="116.2%" height="116.2%" filterUnits="objectBoundingBox" id="filter-10">
            <feOffset dx="-8" dy="0" in="SourceAlpha" result="shadowOffsetInner1"></feOffset>
            <feComposite in="shadowOffsetInner1" in2="SourceAlpha" operator="arithmetic" k2="-1" k3="1" result="shadowInnerInner1"></feComposite>
            <feColorMatrix values="0 0 0 0 0   0 0 0 0 0   0 0 0 0 0  0 0 0 0.12 0" type="matrix" in="shadowInnerInner1"></feColorMatrix>
        </filter>
    </defs>
    <g id="round-3" stroke="none" stroke-width="1" fill="none" fill-rule="evenodd">
        <g id="Final" transform="translate(-1077.000000, -4092.000000)">
            <g id="swordsIcon" transform="translate(1079.000000, 4093.000000)">
                <g id="fill" transform="translate(0.000000, 0.344262)">
                    <g id="Combined-Shape">
                        <use fill="#C3E6DC" fill-rule="evenodd" xlink:href="#path-1"></use>
                        <use fill="black" fill-opacity="1" filter="url(#filter-2)" xlink:href="#path-1"></use>
                    </g>
                    <g id="Combined-Shape">
                        <use fill="#F7F7F7" fill-rule="evenodd" xlink:href="#path-3"></use>
                        <use fill="black" fill-opacity="1" filter="url(#filter-4)" xlink:href="#path-3"></use>
                    </g>
                    <g id="Combined-Shape">
                        <use fill="#F7F7F7" fill-rule="evenodd" xlink:href="#path-5"></use>
                        <use fill="black" fill-opacity="1" filter="url(#filter-6)" xlink:href="#path-5"></use>
                    </g>
                    <g id="Combined-Shape">
                        <use fill="#9F9F9F" fill-rule="evenodd" xlink:href="#path-7"></use>
                        <use fill="black" fill-opacity="1" filter="url(#filter-8)" xlink:href="#path-7"></use>
                    </g>
                    <g id="Combined-Shape">
                        <use fill="#C3E6DC" fill-rule="evenodd" xlink:href="#path-9"></use>
                        <use fill="black" fill-opacity="1" filter="url(#filter-10)" xlink:href="#path-9"></use>
                    </g>
                </g>
                <path d="M68.0006667,87.1878566 L60.0006667,95.20425 M77.334,96.5403156 L69.334,104.556709 M58.6673333,77.8353975 L50.6673333,85.851791 M0.000666666667,0.343594262 L94.6673333,95.20425 M139.259333,126.526971 L118.678,105.903463 L120.000667,104.556709 C127.166,97.3766926 127.062,90.2554631 120.000667,83.1796598 L82.6673333,120.589496 C89.7926667,127.72943 96.958,127.646594 104.000667,120.589496 L112.022,112.57043 M105.344667,119.264119 L125.920667,139.882283 L121.291333,144.55584 C120.251333,145.597971 120.238,147.278742 121.278,148.323545 L127.488667,154.544266 C128.528667,155.58907 130.219333,155.58907 131.262,154.544266 L153.886,131.873906 C154.928667,130.829102 154.928667,129.134971 153.886,128.09284 L147.680667,121.872119 C146.638,120.829988 144.854,120.902135 143.291333,122.468004 L133.195333,132.627447 M104.000667,85.851791 L24.0006667,5.68785656 L0.000666666667,0.343594262 L5.334,24.3927746 L85.334,104.556709 M154.667333,0.343594262 L94.6673333,60.4665451 M104.000667,69.8190041 L149.334,24.3927746 L154.667333,0.343594262 L130.667333,5.68785656 L85.334,51.1140861 M28.742,139.887627 L49.3233333,119.261447 L50.6673333,120.589496 C57.8326667,127.772184 64.9393333,127.665299 72.0006667,120.589496 L34.6673333,83.1796598 C27.542,90.3195943 27.6246667,97.4996107 34.6673333,104.556709 L42.67,112.59448 M22.654,133.811201 L32.7926667,143.927889 C34.3553333,145.493758 34.4273333,147.281414 33.3873333,148.326217 L27.1793333,154.544266 C26.1393333,155.58907 24.4486667,155.58907 23.406,154.544266 L0.782,131.871234 C-0.260666667,130.829102 -0.260666667,129.134971 0.782,128.09284 L6.99,121.869447 C8.03266667,120.827316 9.71,120.838004 10.75,121.882807 L15.414,126.521627 L35.99,105.903463" id="stroke" stroke="#505E5B" stroke-width="2.66666667" stroke-linecap="round" stroke-linejoin="round"></path>
            </g>
        </g>
    </g>
</svg>