<svg width="46" height="37" viewBox="0 0 46 37" fill="none" xmlns="http://www.w3.org/2000/svg">
<ellipse rx="11.4297" ry="11.4297" transform="matrix(0.965936 0.258783 -0.707134 0.70708 23.1358 19.845)" fill="white"/>
<ellipse rx="11.4297" ry="11.4297" transform="matrix(0.965936 0.258783 -0.707134 0.70708 22.8828 18.8989)" fill="#7850CD"/>
<ellipse rx="10.6743" ry="10.6743" transform="matrix(0.965936 0.258783 -0.707134 0.70708 22.2401 16.501)" fill="#7850CD"/>
<g clip-path="url(#clip0)">
<path d="M26.494 17.0678L18.9505 15.0468C18.8731 15.0261 18.769 15.054 18.7124 15.1106L17.7815 16.0415C17.7249 16.0981 17.741 16.1582 17.8183 16.1789L20.6793 16.9454L17.8427 19.7819C17.7861 19.8385 17.8022 19.8986 17.8795 19.9193L19.4432 20.3383C19.5205 20.359 19.6247 20.3311 19.6813 20.2745L22.518 17.438L25.379 18.2045C25.4563 18.2252 25.5605 18.1973 25.6171 18.1407L26.548 17.2099C26.5874 17.1487 26.5713 17.0885 26.494 17.0678Z" fill="white"/>
<path d="M24.0432 14.7366C24.6876 14.9093 25.5867 14.6637 26.0522 14.1983C26.5239 13.7266 26.3772 13.2089 25.7414 13.0385C25.097 12.8659 24.1979 13.1114 23.7324 13.5768C23.2607 14.0485 23.3988 14.564 24.0432 14.7366Z" fill="white"/>
<path d="M30.2826 8.49761C24.1824 6.86333 15.6256 9.15613 11.1598 13.6215C6.69412 18.0869 8.01776 23.0268 14.1179 24.6611C20.218 26.2953 28.7749 24.0025 33.2406 19.5371C37.7063 15.0718 36.3827 10.1319 30.2826 8.49761ZM24.0142 23.3491C20.8742 24.1905 17.7389 24.2755 15.1871 23.5919C12.6354 22.9082 10.9507 21.5319 10.4736 19.7215C9.9816 17.915 10.7461 15.887 12.6204 14.0128C14.4948 12.1386 17.2526 10.6446 20.3863 9.80956C23.5177 8.9659 26.653 8.88085 29.2133 9.56679C31.7736 10.2527 33.4497 11.6268 33.9268 13.4372C34.4126 15.2499 33.6481 17.2779 31.78 19.1458C29.9057 21.02 27.1479 22.514 24.0142 23.3491Z" fill="white"/>
</g>
<defs>
<clipPath id="clip0">
<rect width="22.8594" height="22.8594" fill="white" transform="matrix(0.965936 0.258783 -0.707134 0.70708 19.2422 5.53979)"/>
</clipPath>
</defs>
</svg>
