<?xml version="1.0" encoding="UTF-8"?>
<svg width="1120px" height="84px" viewBox="0 0 1120 84" version="1.1" xmlns="http://www.w3.org/2000/svg" xmlns:xlink="http://www.w3.org/1999/xlink">
    <!-- Generator: Sketch 46.2 (44496) - http://www.bohemiancoding.com/sketch -->
    <title>timeline</title>
    <desc>Created with Sketch.</desc>
    <defs>
        <path d="M418.25,46 L427,53 L435.75,46 L512,46 C524.702549,46 535,35.7025492 535,23 L535,23 C535,10.2974508 524.702549,-2.33342044e-15 512,0 L341,0 L341,0 C328.297451,2.33342044e-15 318,10.2974508 318,23 L318,23 L318,23 C318,35.7025492 328.297451,46 341,46 L418.25,46 Z" id="path-1"></path>
        <circle id="path-2" cx="136" cy="74" r="10"></circle>
        <circle id="path-3" cx="427" cy="74" r="10"></circle>
        <circle id="path-4" cx="719" cy="74" r="10"></circle>
        <circle id="path-5" cx="1008" cy="74" r="10"></circle>
        <path d="M126.25,46 L135,53 L143.75,46 L246,46 C258.702549,46 269,35.7025492 269,23 L269,23 C269,10.2974508 258.702549,-5.88613412e-15 246,-3.55271368e-15 L246,0 L23,0 L23,0 C10.2974508,2.33342044e-15 -1.55561363e-15,10.2974508 0,23 L0,23 L0,23 C1.55561363e-15,35.7025492 10.2974508,46 23,46 L126.25,46 Z" id="path-6"></path>
        <path d="M710.25,46 L719,53 L727.75,46 L782,46 C794.702549,46 805,35.7025492 805,23 L805,23 L805,23 C805,10.2974508 794.702549,-2.33342044e-15 782,0 L657,0 L657,0 C644.297451,2.33342044e-15 634,10.2974508 634,23 L634,23 L634,23 C634,35.7025492 644.297451,46 657,46 L657,46 L710.25,46 Z" id="path-7"></path>
        <path d="M999.25,46 L1008,53 L1016.75,46 L1097,46 C1109.70255,46 1120,35.7025492 1120,23 L1120,23 C1120,10.2974508 1109.70255,-2.88831626e-14 1097,-6.03961325e-14 L1097,0 L918,0 L918,3.55271368e-15 C905.297451,5.88613412e-15 895,10.2974508 895,23 L895,23 L895,23 C895,35.7025492 905.297451,46 918,46 L918,46 L999.25,46 Z" id="path-8"></path>
    </defs>
    <g id="round-3" stroke="none" stroke-width="1" fill="none" fill-rule="evenodd">
        <g id="Final" transform="translate(-147.000000, -1730.000000)">
            <g id="Group-24-Copy" transform="translate(147.000000, 1730.000000)">
                <g id="timeline">
                    <g id="Combined-Shape-Copy-13">
                        <use fill="#FFFFFF" fill-rule="evenodd" xlink:href="#path-1"></use>
                        <path stroke="#505E5B" stroke-width="2" d="M427,51.7193752 L435.399219,45 L512,45 C524.150264,45 534,35.1502645 534,23 C534,10.8497355 524.150264,1 512,1 L341,1 C328.849736,1 319,10.8497355 319,23 C319,35.1502645 328.849736,45 341,45 L418.600781,45 L427,51.7193752 Z"></path>
                    </g>
                    <path d="M133.999047,74.3333333 L1003.00006,74.3333333" id="Line-Copy-115" stroke="#293330" stroke-width="2" stroke-linecap="round" stroke-linejoin="round"></path>
                    <g id="Oval-4-Copy-106">
                        <use fill="#FFFFFF" fill-rule="evenodd" xlink:href="#path-2"></use>
                        <circle stroke="#505E5B" stroke-width="2" cx="136" cy="74" r="9"></circle>
                    </g>
                    <g id="Oval-4-Copy-107">
                        <use fill="#FFFFFF" fill-rule="evenodd" xlink:href="#path-3"></use>
                        <circle stroke="#505E5B" stroke-width="2" cx="427" cy="74" r="9"></circle>
                    </g>
                    <g id="Oval-4-Copy-108">
                        <use fill="#FFFFFF" fill-rule="evenodd" xlink:href="#path-4"></use>
                        <circle stroke="#505E5B" stroke-width="2" cx="719" cy="74" r="9"></circle>
                    </g>
                    <g id="Oval-4-Copy-109">
                        <use fill="#C3E6DC" fill-rule="evenodd" xlink:href="#path-5"></use>
                        <circle stroke="#505E5B" stroke-width="2" cx="1008" cy="74" r="9"></circle>
                    </g>
                    <g id="Combined-Shape-Copy-11">
                        <use fill="#FFFFFF" fill-rule="evenodd" xlink:href="#path-6"></use>
                        <path stroke="#505E5B" stroke-width="2" d="M135,51.7193752 L143.399219,45 L246,45 C258.150264,45 268,35.1502645 268,23 C268,10.8497355 258.150264,1 246,1 L23,1 C10.8497355,1 1,10.8497355 1,23 C1,35.1502645 10.8497355,45 23,45 L126.600781,45 L135,51.7193752 Z"></path>
                    </g>
                    <g id="Combined-Shape-Copy-11">
                        <use fill="#FFFFFF" fill-rule="evenodd" xlink:href="#path-7"></use>
                        <path stroke="#505E5B" stroke-width="2" d="M719,51.7193752 L727.399219,45 L782,45 C794.150264,45 804,35.1502645 804,23 C804,10.8497355 794.150264,1 782,1 L657,1 C644.849736,1 635,10.8497355 635,23 C635,35.1502645 644.849736,45 657,45 L710.600781,45 L719,51.7193752 Z"></path>
                    </g>
                    <g id="Combined-Shape-Copy-12">
                        <use fill="#C3E6DC" fill-rule="evenodd" xlink:href="#path-8"></use>
                        <path stroke="#505E5B" stroke-width="2" d="M1008,51.7193752 L1016.39922,45 L1097,45 C1109.15026,45 1119,35.1502645 1119,23 C1119,10.8497355 1109.15026,1 1097,1 L918,1 C905.849736,1 896,10.8497355 896,23 C896,35.1502645 905.849736,45 918,45 L999.600781,45 L1008,51.7193752 Z"></path>
                    </g>
                </g>
            </g>
        </g>
    </g>
</svg>