<?xml version="1.0" encoding="UTF-8"?>
<svg width="30px" height="24px" viewBox="0 0 30 24" version="1.1" xmlns="http://www.w3.org/2000/svg" xmlns:xlink="http://www.w3.org/1999/xlink">
    <!-- Generator: Sketch 46.2 (44496) - http://www.bohemiancoding.com/sketch -->
    <title>Twitter</title>
    <desc>Created with Sketch.</desc>
    <defs></defs>
    <g id="round-3" stroke="none" stroke-width="1" fill="none" fill-rule="evenodd">
        <g id="Final" transform="translate(-246.000000, -3870.000000)" fill="#505E5B">
            <g id="Group-14" transform="translate(-128.000000, 3247.000000)">
                <path d="M400.929734,628.977428 C400.940616,629.237582 400.946834,629.499267 400.946834,629.762482 C400.946834,637.769113 394.756555,647 383.436211,647 C379.960203,647 376.725153,645.997641 374,644.279092 C374.481915,644.334184 374.971603,644.36326 375.469064,644.36326 C378.352783,644.36326 381.006426,643.394567 383.112861,641.769368 C380.4188,641.720398 378.146025,639.968182 377.364079,637.56099 C377.738729,637.632915 378.124262,637.671173 378.520676,637.671173 C379.081874,637.671173 379.625972,637.596187 380.142087,637.458458 C377.32677,636.901422 375.206343,634.452911 375.206343,631.517758 L375.206343,631.441242 C376.03648,631.894217 376.984765,632.166614 377.993678,632.19875 C376.34273,631.112223 375.256089,629.257476 375.256089,627.156348 C375.256089,626.045336 375.559229,625.004718 376.089336,624.109482 C379.125402,627.774597 383.660068,630.18791 388.774588,630.440413 C388.670432,629.996621 388.616022,629.534464 388.616022,629.058535 C388.616022,625.713256 391.370712,623 394.770546,623 C396.541196,623 398.140844,623.736084 399.26324,624.91443 C400.665458,624.642033 401.982174,624.138558 403.171417,623.443793 C402.71282,624.857808 401.736553,626.045336 400.464919,626.795192 C401.710125,626.649812 402.896259,626.323854 404,625.841803 C403.174526,627.056877 402.131413,628.12351 400.929734,628.977428" id="Twitter"></path>
            </g>
        </g>
    </g>
</svg>