<svg width="440" height="540" viewBox="0 0 440 540" fill="none" xmlns="http://www.w3.org/2000/svg">
<line x1="160.171" y1="281.287" x2="118.376" y2="325.779" stroke="#0A0806" stroke-width="2" stroke-linecap="round" stroke-linejoin="round" stroke-dasharray="1 7"/>
<line x1="181.003" y1="448.54" x2="117.148" y2="399.63" stroke="#0A0806" stroke-width="2" stroke-linecap="round" stroke-linejoin="round" stroke-dasharray="1 7"/>
<line x1="349.52" y1="306.697" x2="305.304" y2="281.239" stroke="#0A0806" stroke-width="2" stroke-linecap="round" stroke-linejoin="round" stroke-dasharray="1 7"/>
<line x1="284.051" y1="135.042" x2="320.232" y2="98.8609" stroke="#0A0806" stroke-width="2" stroke-linecap="round" stroke-linejoin="round" stroke-dasharray="1 7"/>
<line x1="399.984" y1="292.827" x2="394.269" y2="99.8292" stroke="#0A0806" stroke-width="2" stroke-linecap="round" stroke-linejoin="round" stroke-dasharray="1 7"/>
<line x1="369.238" y1="367.594" x2="313.291" y2="448.104" stroke="#0A0806" stroke-width="2" stroke-linecap="round" stroke-linejoin="round" stroke-dasharray="1 7"/>
<path fill-rule="evenodd" clip-rule="evenodd" d="M190.756 409.378C189.047 410.161 187.476 410.882 186.052 411.507C186.046 411.509 186.042 411.513 186.039 411.517C186.038 411.518 186.038 411.519 186.038 411.519C186.259 462.41 200.613 507.565 245.132 535.976C268.489 523.049 283.185 500.249 292.076 476.378C300.957 452.531 303.968 427.814 304.089 411.352C292.635 404.7 267.003 394.898 245.064 394.898C222.33 394.898 203.012 403.757 190.756 409.378ZM189.184 406.099C201.398 400.488 221.471 391.266 245.064 391.266C267.84 391.266 294.13 401.357 305.948 408.231C307.055 408.875 307.731 410.041 307.722 411.334C307.603 428.137 304.543 453.31 295.48 477.646C286.42 501.972 271.282 525.662 246.875 539.164C245.715 539.806 244.293 539.75 243.188 539.045C197.217 509.712 182.629 463.094 182.405 411.533C182.399 410.068 183.273 408.759 184.592 408.18C185.966 407.578 187.5 406.873 189.184 406.099Z" fill="#0A0806"/>
<path d="M245.064 398.229C221.135 398.229 201.272 408.586 190.782 413.097C190.107 413.388 189.667 414.048 189.671 414.782C189.9 460.347 203.077 504.554 244.181 530.27C244.723 530.609 245.417 530.634 245.979 530.329C289.36 506.771 300.215 444.284 300.456 414.581C300.461 413.939 300.126 413.368 299.567 413.052C288.933 407.035 265.367 398.229 245.064 398.229Z" fill="#0A0806"/>
<path fill-rule="evenodd" clip-rule="evenodd" d="M314.68 15.0933C313.257 15.7462 311.947 16.3466 310.76 16.8673C310.755 16.8695 310.752 16.8727 310.75 16.8761C310.749 16.8768 310.749 16.8773 310.749 16.8776C310.933 59.2867 322.895 96.9161 359.994 120.592C379.459 109.819 391.705 90.8193 399.114 70.9265C406.515 51.0545 409.024 30.4567 409.125 16.7386C399.579 11.1949 378.219 3.02711 359.937 3.02711C340.992 3.02711 324.894 10.4094 314.68 15.0933ZM313.371 12.361C323.549 7.68476 340.276 0 359.937 0C378.918 -2.70645e-06 400.825 8.40941 410.674 14.1378C411.596 14.6741 412.16 15.6459 412.152 16.7235C412.053 30.7263 409.504 51.7033 401.95 71.983C394.4 92.2552 381.786 111.997 361.447 123.248C360.48 123.783 359.295 123.737 358.374 123.149C320.064 98.7053 307.908 59.8568 307.722 16.8895C307.716 15.6688 308.445 14.5776 309.544 14.0953C310.689 13.593 311.968 13.0056 313.371 12.361Z" fill="#0A0806"/>
<path d="M359.937 5.80273C339.997 5.80273 323.444 14.4331 314.702 18.1927C314.14 18.4345 313.773 18.9849 313.776 19.5968C313.967 57.5677 324.948 94.4062 359.201 115.836C359.653 116.119 360.231 116.14 360.7 115.885C396.85 96.2543 405.896 44.1816 406.097 19.4288C406.102 18.8941 405.822 18.418 405.357 18.1546C396.495 13.1403 376.856 5.80273 359.937 5.80273Z" fill="#0A0806"/>
<path d="M398.231 307.236C380.329 307.236 370.936 304.576 362.469 303.436C361.772 303.342 361.159 303.891 361.166 304.594C361.491 335.089 373.094 362.919 397.623 379.599C397.993 379.85 398.479 379.867 398.863 379.638C425.959 363.506 434.886 324.882 435.289 304.691C435.304 303.95 434.626 303.405 433.899 303.546C423.235 305.616 413.006 307.236 398.231 307.236Z" fill="#0A0806"/>
<path fill-rule="evenodd" clip-rule="evenodd" d="M356.456 300.33C356.446 298.922 357.677 297.806 359.095 297.996C361.475 298.315 363.896 298.74 366.501 299.197C374.232 300.553 383.576 302.192 398.231 302.192C414.371 302.192 425.516 300.406 437.202 298.119C438.627 297.841 440.023 298.906 440 300.432C439.834 311.702 437.703 328.554 431.633 344.792C425.566 361.022 415.509 376.774 399.398 385.618C398.649 386.029 397.735 385.993 397.022 385.541C366.49 366.202 356.703 334.29 356.456 300.33ZM358.81 300.332C359.058 333.874 368.706 364.816 398.275 383.549C413.697 375.079 423.468 359.911 429.428 343.968C435.381 328.046 437.479 311.486 437.646 300.431C425.881 302.733 414.575 304.546 398.231 304.546C383.35 304.546 373.733 302.858 365.98 301.498C363.428 301.05 361.079 300.637 358.81 300.332Z" fill="#0A0806"/>
<path fill-rule="evenodd" clip-rule="evenodd" d="M232.967 118.394C231.977 117.684 230.606 117.715 229.598 118.523C224.198 122.853 212.436 131.796 197.814 139.995C183.235 148.17 165.583 155.738 148.444 157.083C146.833 157.209 145.718 158.48 145.735 159.815C146.667 231.227 167.536 296.978 230.048 337.251C230.796 337.733 231.755 337.758 232.503 337.336C264.731 319.124 285.414 287.319 298.221 253.743C311.022 220.183 315.849 185.124 316.542 160.85C316.583 159.414 315.138 157.782 312.884 157.668C306.347 157.339 298.82 155.183 291.137 152.118C283.421 149.04 275.386 144.98 267.791 140.713C252.599 132.178 239.003 122.726 232.967 118.394ZM226.406 114.542C229.143 112.348 233.033 112.161 235.942 114.249C241.909 118.532 255.333 127.862 270.29 136.264C277.768 140.466 285.59 144.413 293.027 147.379C300.496 150.359 307.419 152.284 313.141 152.572C317.311 152.782 321.785 156.003 321.642 160.996C320.936 185.715 316.034 221.359 302.988 255.561C289.948 289.747 268.663 322.763 235.013 341.778C232.588 343.149 229.599 343.031 227.284 341.54C162.759 299.97 141.577 232.183 140.633 159.882C140.577 155.582 144.038 152.311 148.045 151.996C164.099 150.737 180.987 143.581 195.319 135.545C209.609 127.531 221.129 118.773 226.406 114.542Z" fill="#0A0806"/>
<path d="M229.608 125.444C221.773 131.927 185.799 160.236 153.352 161.68C151.945 161.743 150.804 162.883 150.817 164.292C151.406 231.601 175.345 293.237 229.831 329.884C230.642 330.43 231.705 330.457 232.538 329.944C290.07 294.527 310.58 209.278 311.497 164.823C311.53 163.214 310.065 162.026 308.456 162.098C285.574 163.114 241.805 131.946 232.808 125.346C231.834 124.631 230.539 124.674 229.608 125.444Z" fill="#0A0806"/>
<path fill-rule="evenodd" clip-rule="evenodd" d="M107.798 297.418L107.656 297.471C103.566 298.993 98.1342 301.013 90.1692 301.765C82.08 302.528 71.4638 301.977 56.9846 298.401C56.9844 298.401 56.9842 298.401 56.984 298.401L56.9847 298.401C56.9847 298.401 56.9846 298.401 56.9846 298.401C56.9842 298.401 56.9832 298.401 56.9815 298.401C56.9783 298.4 56.9743 298.4 56.9698 298.4C56.9653 298.4 56.9615 298.4 56.959 298.401C56.9584 298.401 56.9579 298.401 56.9576 298.401C56.958 298.401 56.9585 298.401 56.959 298.4C56.9578 298.401 56.9572 298.401 56.9571 298.401C56.957 298.401 56.9572 298.401 56.9576 298.401C30.9289 305.194 12.7482 301.706 4.1089 298.152C4.04841 298.128 3.89736 298.115 3.7279 298.234C3.65332 298.286 3.61497 298.339 3.59994 298.368C3.58977 298.388 3.59054 298.394 3.5913 298.4C3.59136 298.4 3.59141 298.401 3.59146 298.401C5.14014 311.595 7.33695 341.49 6.69191 378.258C6.34222 398.19 13.9672 411.807 24.2948 420.475C34.6825 429.193 47.9032 432.98 58.753 432.98C69.5361 432.98 81.4137 428.878 90.5902 419.81C99.7407 410.767 106.326 396.664 106.326 376.431C106.326 375.486 106.284 373.597 106.226 370.971C105.916 356.932 105.139 321.837 107.798 297.418ZM106.614 294.028C109.16 293.081 111.652 295.193 111.371 297.772C108.742 321.883 109.501 356.51 109.813 370.727C109.873 373.449 109.916 375.422 109.916 376.431C109.916 397.488 103.038 412.557 93.1139 422.364C83.2165 432.145 70.41 436.57 58.753 436.57C47.1629 436.57 33.0965 432.549 21.9867 423.225C10.8167 413.85 2.73366 399.193 3.10206 378.195C3.7444 341.581 1.55467 311.847 0.0255408 298.82C-0.155939 297.274 0.654334 296 1.67405 295.289C2.68621 294.583 4.11626 294.273 5.47474 294.832C13.3254 298.061 30.7025 301.543 56.0523 294.926C56.6373 294.774 57.2624 294.771 57.8449 294.915C72.0072 298.413 82.2139 298.909 89.832 298.19C97.3244 297.483 102.396 295.597 106.432 294.096L106.614 294.028Z" fill="#0A0806"/>
<path d="M55.4343 302.041C33.2568 307.943 17.7576 306.223 10.2669 303.596C8.81089 303.085 7.01156 304.314 7.18666 305.847C8.55736 317.847 10.4646 343.798 9.89654 377.247C9.25561 414.989 37.9373 429.39 57.9664 429.39C77.9955 429.39 102.03 413.664 102.03 375.592C102.03 369.945 100.539 331.277 103.312 304.776C103.45 303.458 102.182 302.444 100.927 302.871C93.6597 305.341 82.1339 308.298 57.3017 302.03C56.6953 301.877 56.0388 301.881 55.4343 302.041Z" fill="#0A0806"/>
<path fill-rule="evenodd" clip-rule="evenodd" d="M243.98 179.848C249.379 174.404 257.672 173.061 264.514 176.522C265.167 176.852 265.626 177.471 265.753 178.191C265.88 178.911 265.659 179.65 265.159 180.183L257.454 188.389C257.273 188.582 257.176 188.838 257.184 189.102C257.192 189.366 257.305 189.616 257.497 189.796L259.321 191.509C259.722 191.884 260.351 191.865 260.727 191.464L268.326 183.38C268.837 182.837 269.577 182.572 270.317 182.668C271.057 182.764 271.705 183.21 272.06 183.865C275.686 190.567 274.613 198.837 269.397 204.391C264.27 209.853 256.257 211.491 249.398 208.479C248.224 207.964 247.69 206.594 248.205 205.42C248.721 204.246 250.091 203.712 251.265 204.228C256.322 206.448 262.231 205.241 266.011 201.213C269.067 197.959 270.196 193.44 269.189 189.242L264.112 194.644C261.981 196.913 258.413 197.025 256.143 194.895L254.32 193.183C253.229 192.159 252.59 190.743 252.542 189.248C252.495 187.753 253.044 186.301 254.068 185.211L259.363 179.572C255.065 178.616 250.48 179.888 247.277 183.118C243.295 187.132 242.354 193.255 244.947 198.279C245.535 199.418 245.088 200.819 243.948 201.407C242.809 201.995 241.408 201.548 240.82 200.408C237.304 193.595 238.58 185.291 243.98 179.848ZM215.792 227.186C216.685 228.106 216.663 229.576 215.743 230.47L196.031 249.609C195.85 249.816 195.754 250.084 195.762 250.36C195.772 250.648 195.895 250.921 196.105 251.119L198.594 253.458C198.805 253.655 199.086 253.762 199.375 253.753C199.664 253.743 199.937 253.62 200.135 253.409L200.16 253.383L219.091 233.823C219.983 232.901 221.453 232.877 222.375 233.769C223.296 234.661 223.32 236.131 222.428 237.052L203.508 256.601C202.468 257.702 201.035 258.346 199.521 258.394C198 258.442 196.523 257.883 195.414 256.842L192.929 254.506C191.82 253.465 191.169 252.026 191.121 250.506C191.073 248.985 191.632 247.508 192.674 246.4C192.698 246.374 192.722 246.349 192.748 246.324L212.509 227.138C213.429 226.245 214.899 226.266 215.792 227.186Z" fill="#48DBB4"/>
<path fill-rule="evenodd" clip-rule="evenodd" d="M187.181 175.528C187.689 175.003 188.414 174.747 189.139 174.837L213.552 177.892C214.118 177.963 214.638 178.239 215.012 178.669L252.029 221.044L253.622 219.395C256.401 216.518 260.986 216.438 263.863 219.216C266.74 221.995 266.82 226.58 264.041 229.457C263.15 230.379 261.68 230.405 260.758 229.514C259.836 228.623 259.81 227.153 260.701 226.231C261.698 225.199 261.669 223.554 260.637 222.557C259.605 221.56 257.96 221.588 256.963 222.621L251.737 228.03L263.121 239.023C268.301 239.225 272.438 243.488 272.438 248.717C272.438 254.076 268.094 258.419 262.736 258.419C257.622 258.419 253.432 254.463 253.061 249.444L241.673 238.447L236.454 243.849C235.808 244.517 235.566 245.48 235.821 246.374C236.077 247.268 236.79 247.958 237.692 248.183C238.593 248.409 239.547 248.136 240.193 247.468C241.085 246.546 242.555 246.522 243.477 247.413C244.398 248.305 244.423 249.775 243.531 250.696C241.732 252.557 239.076 253.316 236.565 252.688C234.054 252.06 232.068 250.14 231.357 247.651C230.645 245.162 231.315 242.482 233.115 240.622L235.053 238.616L191.295 203.237C190.85 202.877 190.554 202.365 190.463 201.8L186.559 177.51C186.443 176.788 186.673 176.054 187.181 175.528ZM247.601 223.034L212.097 182.39L191.635 179.83L194.907 200.185L236.887 234.127L247.601 223.034ZM244.9 235.107L254.205 244.093C255.047 242.543 256.298 241.248 257.815 240.354L248.511 231.369L244.9 235.107ZM262.261 243.681C259.775 243.912 257.811 245.943 257.684 248.457C257.684 248.503 257.682 248.549 257.679 248.594C257.678 248.635 257.678 248.676 257.678 248.717C257.678 251.511 259.942 253.776 262.736 253.776C265.53 253.776 267.794 251.511 267.794 248.717C267.794 245.924 265.53 243.659 262.736 243.659C262.647 243.659 262.559 243.661 262.472 243.666C262.402 243.674 262.331 243.679 262.261 243.681ZM203.083 190.936C203.959 189.999 205.429 189.95 206.365 190.826L239.071 221.417C240.008 222.293 240.057 223.762 239.181 224.699C238.305 225.635 236.835 225.684 235.899 224.808L203.193 194.218C202.257 193.342 202.207 191.872 203.083 190.936Z" fill="#48DBB4"/>
</svg>
