<svg width="168" height="72" viewBox="0 0 168 72" fill="none" xmlns="http://www.w3.org/2000/svg">
<path fill-rule="evenodd" clip-rule="evenodd" d="M124.77 48.9726C123.489 48.8353 121.451 48.3885 120.772 48.0966L120.44 47.954L120.395 46.3106C120.37 45.4065 120.342 44.1978 120.331 43.6246L120.313 42.5822L120.512 42.4868C120.621 42.4345 120.841 42.3856 121.002 42.3781L121.293 42.3645L121.541 42.9761C122.51 45.3618 123.646 46.6483 125.13 47.0394C125.696 47.1887 126.757 47.1901 127.176 47.0419C128.35 46.6272 128.993 45.7379 128.999 44.5231C129.005 43.0842 128.215 42.3928 125.23 41.2256C123.38 40.5025 122.734 40.1303 121.966 39.3433C121.137 38.4943 120.739 37.528 120.665 36.182C120.574 34.5555 121.083 33.1844 122.21 32.016C123.345 30.8401 124.817 30.203 126.823 30.0198C128.589 29.8586 131.301 30.2333 132.721 30.8354L132.981 30.9452L133.027 32.4102C133.052 33.2158 133.079 34.2958 133.085 34.8104L133.098 35.7456L132.749 35.8748C132.199 36.0794 132.163 36.0536 131.857 35.2421C130.999 32.9668 130.002 31.8901 128.449 31.5613C127.502 31.3611 126.711 31.5765 126.136 32.1915C125.688 32.6713 125.513 33.0971 125.47 33.8127C125.424 34.5877 125.563 35.0067 126.036 35.5251C126.619 36.1637 127.575 36.7152 129.479 37.5113C131.811 38.4863 132.923 39.3141 133.528 40.5239C133.921 41.3098 134.032 41.9372 133.993 43.1454C133.963 44.0519 133.934 44.2381 133.728 44.8467C133.056 46.831 131.539 48.1375 129.196 48.7499C128.402 48.9573 128.289 48.9681 126.711 48.9854C125.802 48.9954 124.928 48.9895 124.77 48.9726ZM93.7841 48.7669C95.9681 48.4391 97.57 47.6886 98.9267 46.3575C100.888 44.4336 101.832 41.7182 101.705 38.3717C101.639 36.6487 101.358 35.5232 100.644 34.1268C99.6773 32.2351 98.0239 30.9085 96.1467 30.5177C94.7383 30.2247 92.9263 30.454 91.5488 31.1003C91.2054 31.261 90.8768 31.3928 90.8185 31.3928C90.726 31.3928 90.716 30.8602 90.7393 27.1965L90.7666 23L90.4779 23.0578C90.3193 23.0898 88.7015 23.3914 86.8826 23.7283C85.0636 24.0653 83.5044 24.3574 83.4178 24.378C83.2861 24.4089 83.2631 24.4592 83.2772 24.6843C83.2928 24.9354 83.3136 24.9582 83.5786 25.0165C84.49 25.2172 84.6522 25.2887 84.9911 25.639C85.4062 26.0682 85.5937 26.6161 85.7167 27.7597C85.8148 28.671 85.8364 44.371 85.7428 46.6886L85.6876 48.0627L86.4287 48.2212C89.2329 48.8214 92.0282 49.0293 93.7841 48.7669ZM113.589 48.7646C115.254 48.4942 116.895 47.6941 118.074 46.5769C118.719 45.965 118.934 45.6695 118.844 45.515C118.604 45.1021 118.615 45.1024 118.003 45.4788C117.028 46.0776 116.54 46.2427 115.395 46.3603C114.058 46.4976 112.825 46.2739 111.685 45.6876C110.93 45.2987 110.023 44.4038 109.571 43.599C108.953 42.5007 108.618 41.2181 108.518 39.5693C108.476 38.8771 108.485 38.7045 108.566 38.653C108.621 38.618 111.018 38.5891 113.932 38.5886L119.198 38.5874V38.3792C119.198 37.9061 119.043 36.634 118.904 35.9674C118.344 33.2859 116.868 31.3739 114.762 30.605C113.923 30.2986 113.131 30.1699 112.086 30.1699C109.609 30.1699 107.587 30.9828 106.023 32.6065C104.775 33.9014 104.035 35.3558 103.584 37.4004C103.448 38.0165 103.425 38.3367 103.425 39.6307C103.425 40.9151 103.448 41.2464 103.58 41.8405C104.419 45.6139 106.899 48.0989 110.463 48.7355C111.366 48.8967 112.697 48.9092 113.589 48.7646ZM62.619 48.671C63.8946 48.373 64.9115 47.9179 65.8204 47.2385C68.0316 45.5858 69.243 43.0522 69.355 39.8465C69.4652 36.6863 68.5127 33.9926 66.6713 32.2557C65.1765 30.8457 63.2926 30.1699 60.8575 30.1699C58.2764 30.1699 56.1974 30.9708 54.5982 32.5815C52.8851 34.307 51.9787 36.7138 51.9787 39.5387C51.9787 42.4693 52.7976 44.835 54.3852 46.4924C55.2608 47.4061 56.113 47.9543 57.3347 48.3894C57.7669 48.5431 58.0847 48.617 59.24 48.8319C59.3389 48.8503 60.002 48.8536 60.7137 48.8394C61.6731 48.8202 62.1595 48.7774 62.619 48.671ZM48.7198 40.2782L48.5534 39.5946C48.2403 38.3106 47.6378 37.3913 46.8931 37.0616C46.5494 36.9095 45.6986 36.8228 44.0527 36.7727L43.2799 36.7494V38.3731C43.2799 40.1428 43.3772 42.5368 43.5016 43.8359C43.6755 45.6473 44.138 46.648 44.9686 47.0103C45.1272 47.0795 45.6289 47.1918 46.0836 47.2599C46.5383 47.328 46.967 47.4131 47.0361 47.4486C47.2117 47.5395 47.222 48.4775 47.0484 48.5442C46.9122 48.5965 34.2253 48.5926 34.0956 48.5403C34.0358 48.5161 34.0058 48.3368 34.0058 48.0049C34.0058 47.4086 33.9678 47.4353 35.12 47.2215C36.0039 47.0572 36.3201 46.8896 36.7103 46.3776C37.467 45.3846 37.6306 43.4731 37.6323 35.6018C37.634 28.2095 37.4915 26.6547 36.7089 25.5122C36.3617 25.0051 35.7767 24.7299 34.7967 24.6126L34.0417 24.522L34.0208 23.9324L34 23.3425L34.2367 23.3005C34.3667 23.2772 38.9368 23.2674 44.3922 23.2785L54.3113 23.2991L54.358 23.5868C54.3835 23.745 54.4255 25.3685 54.451 27.1946L54.498 30.5146L53.9866 30.67C53.2165 30.9041 53.2213 30.9069 52.8751 29.9901C52.0243 27.7375 51.049 26.4396 49.7142 25.7843C48.7937 25.3321 48.3681 25.2776 45.7683 25.2776H43.5058L43.4669 25.6554C43.3938 26.3634 43.2783 30.9199 43.2791 33.0657L43.2799 35.206L43.9449 35.2021C44.3108 35.2001 45.0319 35.1732 45.5475 35.1423C46.3228 35.0959 46.5533 35.0547 46.8775 34.9046C47.6745 34.5355 48.2167 33.7229 48.5489 32.3997L48.7203 31.7166L49.894 31.6749V40.3199L48.7198 40.2782ZM69.535 48.5267C69.4694 48.485 69.448 48.319 69.463 47.9699L69.4847 47.4728L69.7364 47.4192C69.8747 47.3897 70.1719 47.3311 70.3969 47.2891C71.0931 47.159 71.4931 46.7806 71.7181 46.0404C71.9014 45.4368 71.9822 43.5068 71.9864 39.6307C71.9917 34.8902 71.8931 33.7707 71.4139 33.1361C71.1544 32.7922 70.9672 32.6943 70.3375 32.5734C70.0266 32.5136 69.6994 32.4497 69.6105 32.4311C69.4664 32.4011 69.4486 32.3541 69.4486 32.0016C69.4486 31.6588 69.4705 31.5968 69.6105 31.539C69.8255 31.4506 76.9476 30.0259 77.1751 30.0259H77.3526L77.3179 31.087C77.2987 31.6708 77.2679 32.5206 77.2499 32.9757L77.2165 33.803L77.4746 33.3373C78.3004 31.8467 79.2269 30.9216 80.4585 30.3567C81.1347 30.0465 81.5858 29.9539 82.4211 29.9539C83.4119 29.9539 84.4022 30.2775 84.4022 30.6011C84.4022 30.8187 82.6569 35.4342 82.5605 35.4712C82.5136 35.4892 82.1728 35.3586 81.8033 35.1812C81.0324 34.811 80.3094 34.63 79.6074 34.6316C78.733 34.6336 77.7565 34.9555 77.371 35.3694C77.2062 35.5465 77.2054 35.5571 77.1643 38.2005C77.1237 40.8183 77.211 44.0113 77.3579 45.2956C77.4835 46.3895 77.7738 46.9282 78.3738 47.179C78.5741 47.2627 79.8402 47.4361 80.2535 47.4367C80.2849 47.4367 80.301 47.6877 80.2894 47.9943L80.2685 48.552L74.9484 48.5692C72.0534 48.5784 69.638 48.5598 69.535 48.5267ZM61.454 47.5423C61.9631 47.3911 62.5915 46.8015 62.9262 46.1607C63.6176 44.8378 63.9265 42.8813 63.934 39.7745C63.9437 35.8812 63.3337 33.4035 62.0465 32.1064C61.5059 31.5618 61.1226 31.3925 60.4314 31.3936C58.8975 31.3961 57.9239 32.9987 57.5391 36.1542C57.3625 37.6048 57.3614 41.0604 57.5375 42.3286C58.0825 46.2536 59.4892 48.1264 61.454 47.5423ZM92.6038 47.5076C93.126 47.4086 93.5316 47.2007 93.9675 46.8087C95.0591 45.8263 95.88 43.7981 96.2028 41.2853C96.3345 40.2621 96.3167 37.93 96.1708 37.0757C95.7767 34.7654 94.9294 33.247 93.6938 32.6357C93.1811 32.3822 93.1022 32.3641 92.4941 32.3641C92.0591 32.3641 91.6852 32.4108 91.3671 32.5045L90.891 32.6449L90.8557 35.2744C90.8107 38.6428 90.9202 47.0756 91.0121 47.3177C91.0707 47.472 91.1354 47.5048 91.4266 47.5276C92.1074 47.5812 92.2235 47.5796 92.6038 47.5076ZM112.649 37.1758L113.9 37.1322L113.855 36.2432C113.696 33.1077 112.929 31.3945 111.685 31.3956C110.334 31.3972 109.254 33.1361 108.805 36.0333C108.75 36.3894 108.704 36.8119 108.703 36.972L108.702 37.2628L110.05 37.2411C110.791 37.2292 111.961 37.1997 112.649 37.1758Z" fill="#0A0806"/>
</svg>
