<svg width="168" height="72" viewBox="0 0 168 72" fill="none" xmlns="http://www.w3.org/2000/svg">
<path d="M34.7148 35.4556C34.7148 36.1123 35.2155 36.6253 35.8564 36.6253C36.4972 36.6253 36.9979 36.1123 36.9979 35.4556C36.9979 34.7989 36.4972 34.2859 35.8564 34.2859C35.2155 34.3064 34.7148 34.8194 34.7148 35.4556ZM44.2876 34.3064C43.6468 34.3064 43.1461 34.8194 43.1461 35.4761C43.1461 36.1328 43.6468 36.6458 44.2876 36.6458C44.9285 36.6458 45.4291 36.1328 45.4291 35.4761C45.4291 34.8194 44.9285 34.3064 44.2876 34.3064ZM44.2876 43.0894C43.6468 43.0894 43.1461 43.6024 43.1461 44.2591C43.1461 44.9157 43.6468 45.4287 44.2876 45.4287C44.9285 45.4287 45.4291 44.9157 45.4291 44.2591C45.4291 43.6024 44.9285 43.0894 44.2876 43.0894Z" fill="#0A0806"/>
<path d="M46.5035 25.1454C45.3654 23.7433 43.3287 23.684 42.1306 24.7899L41.9908 24.9282L41.7113 25.1454C40.5731 26.0538 38.8759 25.9749 37.8176 24.9282V24.8492C37.4582 24.4937 36.979 24.2172 36.4798 24.079C36.3999 24.079 36.2601 24 36.2002 24H35.0621C34.9822 24 34.9223 24 34.8424 24.079H34.7027C34.6228 24.079 34.5629 24.158 34.483 24.158C34.483 24.158 34.4031 24.158 34.4031 24.237C34.3233 24.237 34.2634 24.316 34.1835 24.316C34.1835 24.316 34.1036 24.316 34.1036 24.395C34.0238 24.474 33.9639 24.474 33.884 24.5332C33.884 24.5332 33.8041 24.5332 33.8041 24.6122C33.7242 24.6912 33.6643 24.6912 33.5845 24.7504L33.5046 24.8294L33.3648 24.9677L33.0853 25.1849C31.9471 26.0933 30.2499 26.0143 29.2715 24.9677C29.2715 24.9677 29.1916 24.9677 29.1916 24.8887L29.0518 24.7504C28.6325 24.395 28.1333 24.1185 27.5742 24.0592H26.2963C26.2963 24.1382 26.2164 24.1382 26.1565 24.1975H26.1365C25.7771 24.3357 25.4377 24.474 25.1382 24.7504L25.0583 24.8294L24.8386 25.0467C24.5591 25.3231 24.4193 25.6786 24.2795 25.9551C24.2795 26.0341 24.1997 26.0933 24.1997 26.1723C24.1997 26.2513 24.1198 26.3106 24.1198 26.4488C24.0399 26.9425 24.0399 27.4362 24.1997 27.9102C24.1997 27.9892 24.2795 28.0484 24.2795 28.1274V28.2064C24.2795 28.2854 24.3594 28.3447 24.3594 28.4237C24.4393 28.5027 24.4393 28.5619 24.4992 28.7001C24.639 28.7791 24.7787 28.9174 24.8586 28.9766L24.9984 29.1149L25.1382 29.2531C26.1964 30.2998 26.1964 32.1166 25.0583 33.2423C24.9185 33.3805 24.6989 33.5978 24.639 33.736C24.5591 33.815 24.5591 33.8743 24.4992 34.0125V34.0915C24.4193 34.1705 24.4193 34.2297 24.3594 34.3087V34.3877C24.3594 34.4667 24.2795 34.526 24.2795 34.6049V34.6839C24.2795 34.7629 24.2795 34.8222 24.1997 34.9012V35.9478C24.1997 36.0268 24.1997 36.0861 24.2795 36.1651V36.2441C24.4193 36.7378 24.6989 37.2315 25.1182 37.6462C26.2563 38.7719 26.2563 40.5887 25.1182 41.6947L25.0383 41.7737L24.8985 41.9119V41.9909C24.8187 42.0699 24.7588 42.1291 24.7588 42.2081C24.7588 42.2081 24.7588 42.2871 24.6789 42.2871C24.599 42.3661 24.599 42.4254 24.5391 42.5043L24.4593 42.5833C24.4593 42.6623 24.3794 42.6623 24.3794 42.7216C24.3794 42.7808 24.2995 42.8006 24.2995 42.8598C24.2995 42.9388 24.2995 42.9388 24.2196 42.9981C24.0799 43.2745 24 43.63 24 43.9065V44.4594C24.0799 44.6767 24.0799 44.8742 24.2196 45.0124C24.2196 45.0914 24.2995 45.1506 24.2995 45.1506C24.2995 45.1506 24.2995 45.2296 24.3794 45.2296C24.3794 45.3086 24.4593 45.3679 24.4593 45.4469C24.4593 45.4469 24.4593 45.5259 24.5391 45.5259C24.619 45.6641 24.6789 45.7431 24.7588 45.8023C24.7588 45.8023 24.7588 45.8813 24.8386 45.8813C24.8386 45.8813 24.8386 45.9603 24.9185 45.9603C24.9185 46.0393 24.9984 46.0393 24.9984 46.0393L25.0783 46.1183C25.1581 46.1973 25.218 46.1973 25.218 46.2566L25.2979 46.3356C25.2979 46.3356 25.3778 46.3356 25.3778 46.4145C25.4576 46.4935 25.5175 46.5528 25.5974 46.5528C25.5974 46.5528 25.6773 46.5528 25.6773 46.6318C25.7572 46.7108 25.8171 46.7108 25.8969 46.77H25.9369C26.0167 46.849 26.0766 46.849 26.2164 46.849C26.2963 46.849 26.4361 46.928 26.496 46.928H26.5758C26.6557 46.928 26.7156 46.928 26.7955 47.007H27.4344C27.6541 47.007 27.7939 46.928 27.9935 46.928H28.0734C28.1533 46.928 28.2132 46.849 28.293 46.849H28.333C28.4128 46.849 28.4727 46.77 28.5526 46.77H28.6325C28.7723 46.691 28.9919 46.5528 29.1317 46.4935L29.3513 46.2763L29.4312 46.1973C30.5694 45.0124 32.4064 45.0124 33.5246 46.1973C34.8025 47.5205 36.9191 47.4612 38.1171 45.9801C38.9558 44.9334 38.9558 43.393 38.1171 42.2674C36.979 40.8652 34.9423 40.806 33.7442 41.9119L33.6044 42.0501L33.3249 42.2674C32.1867 43.1758 30.4895 43.0968 29.4312 42.0501L29.2914 41.9119L29.0718 41.6354C28.1533 40.5097 28.2331 38.8311 29.2914 37.7845C29.9304 37.2315 30.2099 36.4613 30.2099 35.6911V35.4739C30.2099 34.7827 29.9304 34.0717 29.3713 33.578C29.3713 33.499 29.2914 33.499 29.2914 33.4398L29.0718 33.1633C28.1533 32.0376 28.2331 30.359 29.2914 29.3123L29.3713 29.2334L29.4512 29.1544C30.5893 27.9694 32.4263 27.9694 33.5445 29.1544L33.6244 29.2334L33.7043 29.3123L33.844 29.4506C33.9239 29.4506 33.9239 29.5296 33.9838 29.5296C34.0437 29.5296 34.0637 29.6086 34.1236 29.6086C34.1835 29.6086 34.2035 29.6876 34.2634 29.6876C34.3233 29.6876 34.3432 29.7666 34.4031 29.7666C34.463 29.7666 34.483 29.8456 34.5429 29.8456C34.6028 29.8456 34.6228 29.9246 34.6827 29.9246C34.7426 29.9246 34.7626 29.9245 34.8225 30.0035C34.9023 30.0035 34.9023 30.0035 34.9622 30.0825H36.1603C36.2402 30.0825 36.3001 30.0825 36.3799 30.0035H36.5197C36.5996 30.0035 36.6595 29.9246 36.7394 29.9246H36.8192C36.8991 29.9246 36.959 29.8456 37.0988 29.7863C37.3783 29.6481 37.6579 29.4308 37.8775 29.2334L37.9574 29.1544C39.0955 27.9694 40.9326 27.9694 42.0507 29.1544C43.2488 30.5565 45.4452 30.4775 46.5834 29.0161C47.3422 27.7325 47.3422 26.1921 46.5035 25.1454Z" fill="#0A0806"/>
<path d="M62.5981 33.8668C62.1782 33.4516 61.8183 33.1747 61.3184 32.9572C60.8985 32.7397 60.3986 32.6013 59.7587 32.6013C59.1988 32.6013 58.619 32.7397 58.1991 32.9572C57.7792 33.1747 57.4192 33.4516 57.1393 33.8668C56.8594 34.2227 56.6394 34.638 56.4994 35.1323C56.3595 35.6266 56.2795 36.1209 56.2795 36.5955C56.2795 37.07 56.3595 37.5841 56.5594 38.0587C56.6994 38.553 56.9793 38.8892 57.2593 39.2451C57.5392 39.601 57.9591 39.8778 58.399 40.0756C58.8189 40.2931 59.3188 40.3524 59.8787 40.3524C60.5186 40.3524 61.0184 40.214 61.4383 39.9965C61.8583 39.779 62.2782 39.5021 62.6381 39.0869L64.1178 40.6292C63.5579 41.262 62.918 41.6772 62.1982 41.954C61.4983 42.2308 60.7185 42.3693 59.8587 42.3693C59.0189 42.3693 58.1591 42.2308 57.4592 41.954C56.7594 41.6772 56.1195 41.262 55.6196 40.7676C55.1198 40.2733 54.6998 39.6406 54.4199 38.9485C54.14 38.2564 54 37.4062 54 36.5757C54 35.7452 54.14 34.895 54.4199 34.2029C54.6998 33.5109 55.1198 32.8781 55.6196 32.3047C56.1195 31.8104 56.7594 31.3952 57.4592 31.1183C58.1591 30.8415 59.0189 30.7031 59.8587 30.7031C60.6985 30.7031 61.4783 30.8415 62.1982 31.1183C62.978 31.3952 63.6179 31.8895 64.1777 32.4431L62.5981 33.8668ZM67.397 36.4571C67.397 37.0107 67.477 37.5842 67.677 37.9994C67.8169 38.4937 68.0969 38.909 68.3768 39.2649C68.6567 39.6208 69.0767 39.8976 69.5166 40.036C69.9365 40.2535 70.5163 40.3128 71.0762 40.3128C71.6361 40.3128 72.136 40.2337 72.6359 40.036C73.0558 39.8185 73.4757 39.5417 73.7756 39.2649C74.0555 38.909 74.3355 38.4937 74.4755 37.9994C74.6154 37.5051 74.7554 37.0107 74.7554 36.4571C74.7554 35.9034 74.6754 35.33 74.4755 34.9148C74.3355 34.4204 74.0555 34.0052 73.7756 33.6493C73.4957 33.2934 73.0758 33.0166 72.6359 32.8781C72.216 32.6606 71.6361 32.6013 71.0762 32.6013C70.5163 32.6013 70.0164 32.6804 69.5166 32.8781C69.0966 33.0956 68.6767 33.3725 68.3768 33.6493C68.0969 34.0052 67.8169 34.4204 67.677 34.9148C67.537 35.4091 67.397 35.9034 67.397 36.4571ZM65.1375 36.4571C65.1375 35.6266 65.2775 34.8555 65.5574 34.1436C65.8374 33.4516 66.2573 32.8188 66.8371 32.2454C67.397 31.6918 67.9769 31.2567 68.7567 30.9799C69.4566 30.7031 70.2364 30.4856 71.0962 30.4856C71.956 30.4856 72.7158 30.624 73.4357 30.9799C74.1355 31.2567 74.7754 31.672 75.3553 32.2454C75.9151 32.7991 76.2751 33.4318 76.635 34.1436C76.9149 34.8357 77.0549 35.6068 77.0549 36.4571C77.0549 37.2875 76.9149 38.0587 76.635 38.7705C76.355 39.4626 75.9351 40.0953 75.3553 40.6688C74.7954 41.2224 74.2155 41.5783 73.4357 41.9342C72.7358 42.2111 71.956 42.4286 71.0962 42.4286C70.2564 42.4286 69.4766 42.2902 68.7567 41.9342C68.0569 41.6574 67.417 41.2422 66.8371 40.6688C66.2773 40.1151 65.9174 39.5417 65.5574 38.7705C65.3575 38.0587 65.1375 37.2875 65.1375 36.4571ZM79.2344 42.132H81.3539V30.9404H79.2344V42.132ZM78.7345 26.8671C78.7345 26.4519 78.8745 26.096 79.1544 25.74C79.4344 25.4632 79.7943 25.2457 80.2142 25.2457C80.6341 25.2457 80.994 25.3841 81.2739 25.74C81.5539 26.0169 81.6939 26.4321 81.6939 26.8671C81.6939 27.3021 81.5539 27.6383 81.2739 27.9942C80.994 28.271 80.6341 28.4885 80.2142 28.4885C79.7943 28.4885 79.4344 28.3501 79.1544 27.9942C78.8745 27.6976 78.7345 27.2823 78.7345 26.8671ZM84.3133 30.9206H86.4528V32.6606H86.5328C86.8127 32.0279 87.2326 31.5336 87.9525 31.1974C88.5923 30.8415 89.3721 30.6438 90.2919 30.6438C90.8518 30.6438 91.3517 30.7229 91.8516 30.9206C92.3515 31.059 92.7714 31.3358 93.1313 31.6918C93.4912 32.0477 93.7712 32.4629 94.0511 33.0166C94.2711 33.5702 94.411 34.2029 94.411 34.9741V42.1913H92.2515V35.5475C92.2515 35.0532 92.1715 34.5589 92.0316 34.2227C91.8916 33.8668 91.6716 33.5307 91.4717 33.3132C91.2517 33.0956 90.9718 32.8979 90.6319 32.8188C90.3519 32.7397 89.992 32.6804 89.6321 32.6804C89.2122 32.6804 88.7923 32.7595 88.4324 32.8979C88.0724 33.0363 87.7325 33.2538 87.4326 33.59C87.1526 33.8668 86.9327 34.282 86.7927 34.7764C86.6527 35.2707 86.5728 35.8243 86.5728 36.4571V42.2704H84.4532V30.9404L84.3133 30.9206ZM102.229 40.3722C102.789 40.3722 103.289 40.2931 103.789 40.0953C104.289 39.8778 104.629 39.601 104.989 39.2649C105.269 38.909 105.549 38.4937 105.689 37.9994C105.828 37.5051 105.968 37.0107 105.968 36.3978C105.968 35.8441 105.888 35.2707 105.689 34.7961C105.549 34.3018 105.269 33.8866 104.989 33.5307C104.629 33.1747 104.289 32.8979 103.789 32.7002C103.289 32.4827 102.789 32.4234 102.229 32.4234C101.669 32.4234 101.17 32.5024 100.67 32.7002C100.17 32.9177 99.8298 33.1945 99.4699 33.5307C99.19 33.8866 98.91 34.3018 98.7701 34.7961C98.6301 35.2905 98.4901 35.7848 98.4901 36.3978C98.4901 36.9514 98.5701 37.5248 98.7701 37.9994C98.91 38.4937 99.19 38.909 99.4699 39.2649C99.7498 39.6208 100.17 39.8976 100.67 40.0953C101.09 40.2338 101.669 40.3722 102.229 40.3722ZM108.108 42.0529H105.988V40.4513H105.908C105.489 41.084 104.909 41.4992 104.209 41.8552C103.509 42.2111 102.729 42.3495 101.949 42.3495C101.11 42.3495 100.25 42.2111 99.5499 41.9342C98.85 41.6574 98.2102 41.2422 97.7103 40.6688C97.2104 40.1151 96.7905 39.4824 96.5705 38.7705C96.2906 38.0785 96.1506 37.3073 96.1506 36.4571C96.1506 35.6068 96.2906 34.8555 96.5705 34.0843C96.8505 33.3922 97.2104 32.7595 97.7103 32.1861C98.2102 31.6324 98.85 31.1974 99.5499 30.9206C100.25 30.6438 101.03 30.5054 101.949 30.5054C102.729 30.5054 103.509 30.6438 104.209 30.9997C104.909 31.3556 105.489 31.8302 105.828 32.4036H105.908V24H108.028V42.0529H108.108ZM118.926 35.5475C118.926 35.0532 118.846 34.638 118.706 34.2227C118.566 33.8075 118.346 33.4516 118.066 33.1747C117.786 32.8979 117.426 32.6804 117.066 32.4827C116.646 32.3443 116.226 32.2059 115.646 32.2059C115.146 32.2059 114.647 32.285 114.227 32.4827C113.807 32.7002 113.447 32.8979 113.087 33.2538C112.807 33.5307 112.527 33.8866 112.387 34.3018C112.247 34.717 112.107 35.073 112.107 35.4289H118.906L118.926 35.5475ZM112.147 37.2876C112.147 37.7819 112.287 38.1971 112.507 38.6124C112.727 39.0276 113.007 39.3835 113.347 39.6603C113.707 39.9372 114.127 40.1547 114.547 40.2931C115.046 40.4315 115.466 40.5106 115.966 40.5106C116.606 40.5106 117.246 40.3722 117.726 40.0162C118.226 39.7394 118.646 39.3242 119.066 38.8299L120.685 40.0953C119.485 41.6376 117.786 42.4088 115.666 42.4088C114.747 42.4088 113.967 42.2704 113.267 41.9936C112.567 41.7167 111.927 41.3015 111.427 40.7281C110.927 40.1744 110.507 39.601 110.287 38.8299C110.008 38.1378 109.868 37.3666 109.868 36.5164C109.868 35.6859 110.008 34.9148 110.287 34.2029C110.567 33.5109 110.987 32.8781 111.487 32.3047C111.987 31.7511 112.627 31.3952 113.327 31.0392C114.027 30.7624 114.806 30.624 115.666 30.624C116.666 30.624 117.506 30.7624 118.206 31.1183C118.906 31.4742 119.485 31.8895 119.905 32.4431C120.325 32.9968 120.685 33.6295 120.905 34.3414C121.125 35.0334 121.185 35.7452 121.185 36.5164V37.2876H112.147ZM129.543 33.7284C129.263 33.4516 128.983 33.1747 128.623 32.9572C128.264 32.7397 127.784 32.6013 127.284 32.6013C126.784 32.6013 126.364 32.7397 125.944 32.9572C125.584 33.1747 125.384 33.4516 125.384 33.8668C125.384 34.2227 125.524 34.4995 125.744 34.638C125.964 34.8555 126.244 34.9939 126.524 35.1323C126.804 35.2707 127.164 35.3498 127.444 35.4091C127.804 35.4882 128.084 35.5475 128.284 35.5475C128.703 35.6859 129.203 35.765 129.563 35.9628C129.983 36.1012 130.343 36.3187 130.623 36.5955C130.903 36.8723 131.123 37.1491 131.323 37.5051C131.463 37.861 131.603 38.2762 131.603 38.8299C131.603 39.4626 131.463 40.0162 131.183 40.4315C130.903 40.8467 130.543 41.262 130.123 41.5586C129.703 41.8552 129.203 42.0529 128.643 42.1913C128.084 42.3297 127.504 42.4088 127.024 42.4088C126.104 42.4088 125.264 42.2704 124.544 41.9936C123.844 41.7167 123.205 41.2224 122.625 40.4513L124.244 39.1265C124.604 39.4824 124.944 39.7592 125.384 40.036C125.824 40.3128 126.304 40.4513 126.944 40.4513C127.224 40.4513 127.504 40.4513 127.784 40.3722C128.064 40.2931 128.284 40.2338 128.483 40.0953C128.703 39.9569 128.843 39.8185 128.983 39.6801C129.123 39.4626 129.203 39.2649 129.203 39.0474C129.203 38.7705 129.123 38.4937 128.923 38.2762C128.703 38.0587 128.503 37.9203 128.224 37.7819C127.944 37.6435 127.664 37.5644 127.384 37.5051L126.544 37.2876C126.124 37.1491 125.624 37.0701 125.264 36.9316C124.844 36.7932 124.484 36.5757 124.204 36.378C123.924 36.1605 123.645 35.8243 123.425 35.4684C123.205 35.1125 123.145 34.638 123.145 34.1436C123.145 33.59 123.285 33.0166 123.505 32.6013C123.725 32.1861 124.064 31.8302 124.504 31.5533C124.924 31.2765 125.344 31.059 125.844 30.9206C126.344 30.7822 126.904 30.7031 127.404 30.7031C128.184 30.7031 128.883 30.8415 129.603 31.1183C130.303 31.3952 130.883 31.8895 131.303 32.5222L129.543 33.7284ZM133.662 24.2768H135.782V35.6068L140.601 30.8415H143.5L138.341 35.8837L144 41.8947H140.961L135.802 36.1605V41.8947H133.682V24.2768" fill="#0A0806"/>
</svg>
