<svg width="168" height="72" viewBox="0 0 168 72" fill="none" xmlns="http://www.w3.org/2000/svg">
<path d="M55.668 44.3466C55.668 38.5989 55.668 32.9498 55.668 27.2876C55.7686 27.235 55.8626 27.1363 55.9565 27.1363C58.4864 27.1363 61.0364 26.9916 63.5529 27.1758C70.8741 27.715 72.4578 33.6995 70.9681 38.9146C70.0286 42.183 67.5927 44.1493 64.1837 44.3138C61.372 44.4519 58.5468 44.3466 55.668 44.3466ZM60.2848 40.8086C62.0631 40.8086 63.5126 40.6704 64.7943 40.0917C66.8813 39.1513 67.5658 35.1989 66.2707 32.9564C65.3111 31.2728 64.083 30.5626 60.305 30.5626C60.2781 33.5746 60.2848 37.4086 60.2848 40.8086Z" fill="#0A0806"/>
<path d="M126.525 43.8996C126.525 45.5568 126.525 47.076 126.525 48.6477C125.149 48.6477 123.901 48.6477 122.559 48.6477C122.559 42.9921 122.559 37.3561 122.559 31.5821C123.357 31.5821 126.417 31.5558 126.417 31.5558L126.424 32.5225C126.424 32.5225 129.424 30.543 132.967 32.4041C134.443 33.4761 135.007 35.0544 135.221 36.7708C135.483 38.8292 135.148 40.7824 133.933 42.5186C132.685 44.2942 130.584 45.0439 128.444 44.5112C127.867 44.3731 127.316 44.1561 126.525 43.8996ZM130.907 35.5016C130.423 34.0153 128.383 33.7391 127.337 34.9032C126.108 36.2776 126.001 39.4145 127.128 40.8679C127.987 41.9727 129.484 42.078 130.457 40.9074C131.43 39.7368 131.39 36.9879 130.907 35.5016Z" fill="#0A0806"/>
<path d="M85.7713 38.9278C82.5905 38.9278 79.6647 38.9278 76.7321 38.9278C76.712 40.4075 77.2757 41.2558 78.4568 41.6109C80.074 42.0976 81.2282 41.5583 82.671 39.5723C83.5031 39.9669 85.5565 41.0848 85.5565 41.0848C84.2144 44.373 80.3626 45.3989 77.316 44.6821C74.4304 43.9982 72.7192 42.0384 72.4911 38.8686C72.3032 36.192 72.9608 33.7522 75.4102 32.1739C79.4969 29.5433 84.758 31.799 85.5498 36.5011C85.6773 37.2377 85.6908 37.9939 85.7713 38.9278ZM76.8664 36.2183C78.4031 36.2183 79.9331 36.2183 81.4698 36.2183C81.349 34.8307 80.5505 34.1007 79.2285 34.081C77.8998 34.0679 77.0408 34.8307 76.8664 36.2183Z" fill="#0A0806"/>
<path d="M121.512 31.5558C120.834 33.6471 120.244 35.4819 119.633 37.3101C118.714 40.0787 117.814 42.854 116.848 45.6095C116.231 47.3653 115.399 48.7332 112.547 48.7267C111.527 48.7267 110.057 48.6609 110.057 48.6609L110.292 45.524C110.292 45.524 111.332 45.5437 111.708 45.5305C112.802 45.4779 113.097 45.0768 112.782 44.064C111.58 40.1971 110.372 36.3302 109.171 32.4633C109.111 32.2595 109.057 32.049 108.93 31.5952C110.332 31.5952 113.204 31.6281 113.204 31.6281C113.204 31.6281 114.473 37.1391 115.285 39.5658C115.6 38.29 115.915 37.0207 116.224 35.7449C116.506 34.5743 117.244 31.5821 117.244 31.5821C117.244 31.5821 120.083 31.5558 121.512 31.5558Z" fill="#0A0806"/>
<path d="M95.9452 39.7433C96.9384 40.2496 97.8711 40.7231 98.7972 41.1966C97.8242 43.9061 94.489 45.2016 91.9055 44.7216C88.5703 44.1034 86.5236 41.5846 86.5303 38.0597C86.537 34.6532 88.577 31.9371 91.523 31.411C94.8178 30.8257 97.6967 32.0095 98.663 34.4624C97.7772 34.982 96.8713 35.5147 95.9586 36.0473C95.8177 35.9421 95.7036 35.9027 95.6567 35.8172C95.046 34.7978 94.2139 34.1336 92.9322 34.3112C91.9256 34.4493 91.0062 35.4555 90.9123 36.7773C90.8318 37.8427 90.9257 38.9541 91.1807 39.9866C91.4022 40.8547 92.1269 41.44 93.1201 41.5649C94.2139 41.703 94.9856 41.2229 95.5694 40.3812C95.7036 40.2168 95.7909 40.026 95.9452 39.7433Z" fill="#0A0806"/>
<path d="M143.938 31.5952L143.885 34.0614L141.737 34.0548C141.737 34.0548 141.704 38.7898 141.657 39.9143C141.677 41.0586 141.717 41.1441 143.992 41.0191C144.012 42.0451 143.985 41.7162 143.985 44.4652C139.214 44.4915 137.852 44.7808 137.704 40.4996C137.697 38.4215 137.704 36.2184 137.704 34.0351C137.107 33.9759 136.443 34.0548 135.825 33.989C135.825 33.1801 135.825 32.3384 135.825 31.4768C136.369 31.4308 137.013 31.5229 137.704 31.4703C137.704 30.4444 137.758 27.439 137.758 27.439L141.704 27.4455L141.697 31.5492L143.938 31.5952Z" fill="#0A0806"/>
<path d="M104.273 32.3844C105.018 31.878 106.36 31.2203 107.749 31.2466C107.749 32.5159 107.796 34.1402 107.702 35.1662C107.702 35.1662 107.373 35.0938 106.293 35.1793C105.38 35.2516 104.192 35.7054 104.192 38.0597C104.192 40.1247 104.192 42.1963 104.192 44.327C102.81 44.327 101.568 44.327 100.179 44.327C100.179 43.7614 100.179 43.2551 100.179 42.7553C100.179 39.4342 100.22 34.5414 100.159 31.2203C100.991 31.2203 103.676 31.2203 104.347 31.2203C104.347 31.2203 104.306 32.2923 104.273 32.3844Z" fill="#0A0806"/>
<path d="M42.4084 31.3057C43.0794 35.9617 39.0531 39.5261 39.0531 39.5261L37.0332 37.5137C37.0332 37.5137 40.8381 34.2256 40.563 30.26L42.4084 31.3057Z" fill="#0A0806"/>
<path d="M26.4238 27.3402L32.8324 33.6206C32.8324 33.6206 38.7981 27.669 41.932 30.9243C44.737 33.8442 39.1001 39.6971 39.1001 39.6971L41.2341 41.7292C41.2341 41.7292 48.6694 35.0148 44.1733 28.7146C42.603 26.9916 40.9388 25.6632 38.3619 23.4798C33.1344 21.2833 26.4238 27.3402 26.4238 27.3402Z" fill="#91E9D2" stroke="#0A0806" stroke-miterlimit="10"/>
<path d="M28.4033 29.2209C28.4033 29.2209 35.5501 23.3087 40.2139 25.229C42.7841 27.419 42.5626 27.3861 42.5626 27.3861C37.3284 25.1896 30.6178 31.2464 30.6178 31.2464L28.4033 29.2209Z" fill="#AAAAAA"/>
<path d="M28.4238 29.2671C28.4238 29.2671 35.4431 23.2497 40.6773 25.4462C41.2947 26.0052 41.4558 26.1236 43.0193 27.5441L42.9656 27.5967C36.5637 25.3344 30.6316 31.286 30.6316 31.286L28.4238 29.2671Z" fill="#0A0806" stroke="#0A0806" stroke-miterlimit="10"/>
<path d="M40.4962 30.0956C40.9726 34.2518 36.9261 37.4545 36.9261 37.4545L34.9062 35.4422C34.9062 35.4422 37.5569 33.6468 38.3421 30.2074" fill="#91E9D2"/>
<path d="M40.4962 30.0956C40.9726 34.2518 36.9261 37.4545 36.9261 37.4545L34.9062 35.4422C34.9062 35.4422 37.5569 33.6468 38.3421 30.2074" stroke="#0A0806" stroke-miterlimit="10"/>
<path d="M27.2351 39.7826C26.5037 35.1397 30.4898 31.5227 30.4898 31.5227L32.5365 33.5088C32.5365 33.5088 28.7719 36.843 29.1007 40.8085L27.2351 39.7826Z" fill="#0A0806"/>
<path d="M43.267 43.5575L36.7846 37.356C36.7846 37.356 30.8927 43.3799 27.7186 40.1641C24.8733 37.277 30.4364 31.3583 30.4364 31.3583L28.2756 29.3525C28.2756 29.3525 20.9275 36.1525 25.4974 42.4C27.0878 44.1033 28.7722 45.412 31.3759 47.5625C36.6369 49.6998 43.267 43.5575 43.267 43.5575Z" fill="#91E9D2" stroke="#0A0806" stroke-miterlimit="10"/>
<path d="M41.2674 41.7028C41.2674 41.7028 34.1945 47.7005 29.5105 45.8394C26.9068 43.6823 27.135 43.7152 27.135 43.7152C32.3893 45.8459 39.0261 39.7036 39.0261 39.7036L41.2674 41.7028Z" fill="#AAAAAA"/>
<path d="M41.2406 41.6635C41.2406 41.6635 34.3019 47.7664 29.0408 45.6357C28.4167 45.0898 28.249 44.9715 26.6787 43.5641L26.7324 43.5115C33.1611 45.6949 39.0194 39.6775 39.0194 39.6775L41.2406 41.6635Z" fill="#0A0806" stroke="#0A0806" stroke-miterlimit="10"/>
<path d="M29.1616 40.9796C28.6315 36.8299 32.6377 33.5812 32.6377 33.5812L34.6844 35.5672C34.6844 35.5672 32.0539 37.3955 31.309 40.848" fill="#91E9D2"/>
<path d="M29.1616 40.9796C28.6315 36.8299 32.6377 33.5812 32.6377 33.5812L34.6844 35.5672C34.6844 35.5672 32.0539 37.3955 31.309 40.848" stroke="#0A0806" stroke-miterlimit="10"/>
<path d="M30.4365 31.3584L32.5369 33.5089" stroke="#0A0806" stroke-miterlimit="10"/>
</svg>
