<svg width="118" height="12" viewBox="0 0 118 12" fill="none" xmlns="http://www.w3.org/2000/svg">
<path d="M4.06656 2.888V4.728H8.25856V7.176H4.06656V11H0.802561V0.44H9.29856V2.888H4.06656ZM20.6151 8.552V11H11.8951V0.44H20.4071V2.888H15.1591V4.6H19.3511V6.872H15.1591V8.552H20.6151ZM29.2859 8.808H26.0699L25.4619 11H22.1979L25.7499 0.44H29.6699L33.2379 11H29.8779L29.2859 8.808ZM28.7259 6.696L28.1499 4.6L27.7019 2.872H27.6699L27.2379 4.584L26.6459 6.696H28.7259ZM43.4096 2.888H40.0496V11H36.7856V2.888H33.3936V0.44H43.4096V2.888ZM55.6639 6.568C55.6639 9.62933 54.0213 11.16 50.7359 11.16C47.4506 11.16 45.8079 9.62933 45.8079 6.568V0.44H49.1039V6.744C49.1039 8.024 49.6479 8.664 50.7359 8.664C51.8346 8.664 52.3839 8.024 52.3839 6.744V0.44H55.6639V6.568ZM63.1993 7.336H61.8713V11H58.6713V0.44H64.0793C65.4233 0.44 66.4473 0.733333 67.1513 1.32C67.8553 1.90667 68.2073 2.76533 68.2073 3.896C68.2073 5.432 67.5513 6.46133 66.2393 6.984L68.8153 11H65.2473L63.1993 7.336ZM61.8713 5.112H63.4553C63.9886 5.112 64.3673 5.02667 64.5913 4.856C64.8153 4.67467 64.9273 4.38133 64.9273 3.976C64.9273 3.57067 64.81 3.27733 64.5753 3.096C64.3513 2.91467 63.978 2.824 63.4553 2.824H61.8713V5.112ZM79.8432 8.552V11H71.1232V0.44H79.6352V2.888H74.3872V4.6H78.5792V6.872H74.3872V8.552H79.8432ZM87.2981 0.44C88.9407 0.44 90.1941 0.898666 91.0581 1.816C91.9327 2.72267 92.3701 4.024 92.3701 5.72C92.3701 7.416 91.9327 8.72267 91.0581 9.64C90.1941 10.5467 88.9407 11 87.2981 11H82.4501V0.44H87.2981ZM86.8981 8.616C87.6661 8.616 88.2101 8.38667 88.5301 7.928C88.8501 7.45867 89.0101 6.72267 89.0101 5.72C89.0101 4.71733 88.8501 3.98667 88.5301 3.528C88.2101 3.05867 87.6661 2.824 86.8981 2.824H85.7141V8.616H86.8981ZM104.008 11H100.744V0.44H104.008V11ZM117.195 11H113.611L110.731 5.768L110.059 4.328H110.027L110.091 6.424V11H107.243V0.44H110.811L113.691 5.672L114.379 7.112H114.395L114.331 5.016V0.44H117.195V11Z" fill="#0A0806"/>
</svg>
