<svg width="168" height="72" viewBox="0 0 168 72" fill="none" xmlns="http://www.w3.org/2000/svg">
<path d="M24 25H32.7975C34.4732 25 35.73 25.4183 36.661 26.1156C37.685 26.9523 38.2436 28.1608 38.2436 29.6483C38.2436 31.3681 37.5454 32.4372 36.149 33.088V33.1809C38.0109 33.7852 39.0815 35.4586 39.0815 37.4573C39.0815 39.3631 38.3367 40.8506 37.1265 41.7802C36.1024 42.5239 34.7991 42.8493 33.0303 42.8493H24V25ZM31.9131 31.9724C32.8441 31.9724 33.5423 31.4611 33.5423 30.392C33.5423 29.3694 32.8441 28.8581 31.8666 28.8581H28.841V31.9259H31.9131V31.9724ZM32.332 38.8983C33.4026 38.8983 34.194 38.2475 34.194 37.0855C34.194 35.8305 33.3561 35.2727 32.332 35.2727H28.8875V38.9448H32.332V38.8983Z" fill="#0A0806"/>
<path d="M39.873 25H44.4813V42.8958H39.873V25Z" fill="#0A0806"/>
<path d="M45.4121 36.5278C45.4121 32.4838 48.0188 29.7878 52.0684 29.7878C56.1181 29.7878 58.6782 32.5303 58.6782 36.5278C58.6782 40.5718 56.1181 43.2678 52.0684 43.2678C48.0188 43.2678 45.4121 40.5718 45.4121 36.5278ZM54.07 36.5278C54.07 34.2967 53.3718 32.9022 51.9753 32.9022C50.5789 32.9022 49.9272 34.2967 49.9272 36.5278C49.9272 38.759 50.5789 40.1999 51.9753 40.1999C53.3718 40.1535 54.07 38.759 54.07 36.5278Z" fill="#0A0806"/>
<path d="M59.1904 36.5278C59.1904 32.4838 61.7971 29.7878 65.8468 29.7878C69.8964 29.7878 72.41 32.4838 72.41 36.5278C72.41 40.5718 69.8499 43.2678 65.8002 43.2678C61.7971 43.2678 59.1904 40.5718 59.1904 36.5278ZM67.8483 36.5278C67.8483 34.2967 67.1501 32.9022 65.7537 32.9022C64.3572 32.9022 63.7056 34.2967 63.7056 36.5278C63.7056 38.759 64.3572 40.1999 65.7537 40.1999C67.1501 40.1535 67.8483 38.759 67.8483 36.5278Z" fill="#0A0806"/>
<path d="M73.3408 30.1131H77.6232V32.0189H77.7163C78.5542 30.5314 79.7179 29.7412 81.5798 29.7412C83.2089 29.7412 84.4192 30.5314 85.0243 31.9259H85.1174C86.1414 30.2525 87.4913 29.7412 89.0739 29.7412C92.053 29.7412 93.3098 31.9259 93.3098 34.8543V42.8493H88.8412V35.6445C88.8412 34.343 88.4223 33.5063 87.3051 33.5063C86.188 33.5063 85.6294 34.5289 85.6294 35.9234V42.8493H81.1608V35.6445C81.1608 34.343 80.7419 33.5063 79.6248 33.5063C78.5076 33.5063 77.949 34.5289 77.949 35.9234V42.8493H73.3408V30.1131Z" fill="#0A0806"/>
<path d="M98.9422 41.176H98.8957V42.8493H94.6133V25H99.0818V31.4146H99.175C100.013 30.299 101.176 29.6947 102.806 29.6947C106.017 29.6947 107.879 32.5767 107.879 36.4347C107.879 40.7576 105.878 43.2677 102.526 43.2677C101.13 43.2677 99.687 42.6169 98.9422 41.176ZM103.271 36.3882C103.271 34.343 102.526 32.995 101.176 32.995C99.7801 32.995 98.9422 34.343 98.9422 36.3882C98.9422 38.4335 99.8266 39.7815 101.176 39.7815C102.526 39.7815 103.271 38.48 103.271 36.3882Z" fill="#0A0806"/>
<path d="M108.391 36.4812C108.391 32.4837 111.044 29.7412 114.861 29.7412C116.769 29.7412 118.212 30.3455 119.329 31.4146C120.819 32.8555 121.471 35.0867 121.424 37.6897H112.859C113.045 39.2701 113.79 40.1068 115.14 40.1068C115.931 40.1068 116.63 39.735 116.909 38.8983H121.238C120.493 41.8267 118.212 43.2677 115 43.2677C111.044 43.2212 108.391 40.5252 108.391 36.4812ZM112.859 35.1332H116.955C116.862 33.5993 116.024 32.8091 114.954 32.8091C113.697 32.7626 112.999 33.6458 112.859 35.1332Z" fill="#0A0806"/>
<path d="M126.498 32.2979H126.591C127.522 30.5316 128.732 29.8344 130.269 29.8344C130.641 29.8344 130.874 29.8808 131.013 29.9738V33.8783H130.92C128.267 33.4135 126.731 34.6685 126.731 37.5505V42.896H122.216V30.1132H126.498V32.2979Z" fill="#0A0806"/>
<path d="M131.479 42.8958H135.808C135.994 43.4536 136.553 43.9649 137.623 43.9649C139.066 43.9649 139.578 43.0817 139.578 41.7337V40.804H139.485C138.787 41.6407 137.809 42.245 136.413 42.245C133.667 42.245 131.246 40.1998 131.246 36.2023C131.246 32.5301 133.201 29.6947 136.18 29.6947C137.902 29.6947 138.926 30.3919 139.625 31.461H139.718V30.0666H144V41.1294C144 43.1747 143.302 44.7551 142.231 45.6847C141.114 46.6609 139.532 47.0792 137.716 47.0792C134.272 47.1257 131.898 45.7312 131.479 42.8958ZM139.764 36.0163C139.764 34.4359 139.02 33.1344 137.716 33.1344C136.459 33.1344 135.668 34.25 135.668 36.0163C135.668 37.7362 136.459 38.9447 137.716 38.9447C138.973 38.9447 139.764 37.6897 139.764 36.0163Z" fill="#0A0806"/>
</svg>
